<svg width="145" height="35" viewBox="0 0 145 35" fill="none" xmlns="http://www.w3.org/2000/svg">
<rect x="0.3125" y="0.3125" width="144.375" height="34.375" rx="3.4375" fill="#F7FAFC" stroke="#A0AEC0" stroke-width="0.625" stroke-dasharray="1.25 1.25"/>
<g clip-path="url(#clip0_6387_135293)">
<g clip-path="url(#clip1_6387_135293)">
<path d="M40.4167 6.66675H13.3333C11.8375 6.66675 10.625 7.87929 10.625 9.37508V25.6251C10.625 27.1203 11.8375 28.3334 13.3333 28.3334H40.4167C41.9125 28.3334 43.125 27.1209 43.125 25.6251V9.37508C43.125 7.87929 41.9119 6.66675 40.4167 6.66675ZM20.5048 12.0834C21.5023 12.0834 22.3103 12.892 22.3103 13.889C22.3103 14.886 21.5023 15.6945 20.5048 15.6945C19.5078 15.6945 18.6992 14.886 18.6992 13.889C18.6992 12.892 19.5569 12.0834 20.5048 12.0834ZM35.7956 24.2483C35.6376 24.5417 35.3329 24.7223 35 24.7223H18.75C18.4102 24.7223 18.0994 24.5317 17.9454 24.2286C17.7914 23.9258 17.8204 23.5622 18.0206 23.2875L21.9702 17.8708C22.1411 17.6355 22.4119 17.5001 22.6489 17.5001C22.9372 17.5001 23.2083 17.6378 23.3784 17.871L24.6395 19.601L28.1795 14.2909C28.3477 14.0413 28.6298 13.889 28.9796 13.889C29.2814 13.889 29.563 14.0397 29.7306 14.291L35.751 23.3188C35.9366 23.5938 35.9536 23.9493 35.7956 24.2483Z" fill="#2D3748"/>
</g>
</g>
<path d="M53.7269 23H51.6175L55.4581 12.0909H57.8977L61.7436 23H59.6342L56.7205 14.3281H56.6353L53.7269 23ZM53.7962 18.7227H59.549V20.31H53.7962V18.7227ZM66.4151 23.1598C65.5984 23.1598 64.897 22.9805 64.3111 22.6218C63.7287 22.2631 63.2795 21.7678 62.9634 21.1357C62.6509 20.5 62.4947 19.7685 62.4947 18.9411C62.4947 18.1101 62.6545 17.3768 62.9741 16.7411C63.2937 16.1019 63.7447 15.6048 64.3271 15.2496C64.913 14.891 65.6055 14.7116 66.4045 14.7116C67.0685 14.7116 67.6563 14.8342 68.1676 15.0792C68.6825 15.3207 69.0927 15.6634 69.3981 16.1072C69.7035 16.5476 69.8775 17.0625 69.9201 17.652H68.0771C68.0025 17.2578 67.8249 16.9293 67.5444 16.6665C67.2674 16.4002 66.8963 16.267 66.4311 16.267C66.0369 16.267 65.6907 16.3736 65.3924 16.5866C65.0941 16.7962 64.8615 17.098 64.6946 17.4922C64.5313 17.8864 64.4496 18.3587 64.4496 18.9091C64.4496 19.4666 64.5313 19.946 64.6946 20.3473C64.858 20.745 65.087 21.0522 65.3817 21.2688C65.68 21.4819 66.0298 21.5884 66.4311 21.5884C66.7152 21.5884 66.9691 21.5352 67.1928 21.4286C67.4201 21.3185 67.6101 21.1605 67.7628 20.9545C67.9155 20.7486 68.0202 20.4982 68.0771 20.2035H69.9201C69.8739 20.7823 69.7035 21.2955 69.4087 21.7429C69.114 22.1868 68.7127 22.5348 68.2049 22.7869C67.6971 23.0355 67.1005 23.1598 66.4151 23.1598ZM71.5035 23V14.8182H73.3465V16.2085H73.4424C73.6128 15.7397 73.8952 15.3739 74.2893 15.1112C74.6835 14.8448 75.154 14.7116 75.7009 14.7116C76.2549 14.7116 76.7219 14.8466 77.1018 15.1165C77.4854 15.3828 77.7552 15.7468 77.9115 16.2085H77.9967C78.1778 15.7539 78.4832 15.3917 78.9129 15.1218C79.3461 14.8484 79.8593 14.7116 80.4523 14.7116C81.2052 14.7116 81.8195 14.9496 82.2954 15.4254C82.7712 15.9013 83.0091 16.5955 83.0091 17.5082V23H81.0756V17.8065C81.0756 17.2987 80.9406 16.9276 80.6707 16.6932C80.4008 16.4553 80.0706 16.3363 79.68 16.3363C79.2148 16.3363 78.8508 16.4819 78.588 16.7731C78.3287 17.0607 78.1991 17.4354 78.1991 17.897V23H76.3082V17.7266C76.3082 17.304 76.1803 16.9666 75.9246 16.7145C75.6725 16.4624 75.3422 16.3363 74.9339 16.3363C74.6569 16.3363 74.4047 16.4073 74.1775 16.5494C73.9502 16.6879 73.7691 16.8849 73.6341 17.1406C73.4992 17.3928 73.4317 17.6875 73.4317 18.0249V23H71.5035ZM88.5875 23.1598C87.7672 23.1598 87.0588 22.9893 86.4622 22.6484C85.8691 22.304 85.4128 21.8175 85.0932 21.1889C84.7736 20.5568 84.6138 19.8129 84.6138 18.957C84.6138 18.1154 84.7736 17.3768 85.0932 16.7411C85.4164 16.1019 85.8674 15.6048 86.4462 15.2496C87.025 14.891 87.7051 14.7116 88.4863 14.7116C88.9906 14.7116 89.4664 14.7933 89.9139 14.9567C90.3649 15.1165 90.7626 15.3651 91.1071 15.7024C91.4551 16.0398 91.7285 16.4695 91.9274 16.9915C92.1262 17.5099 92.2257 18.1278 92.2257 18.8452V19.4364H85.5194V18.1367H90.3773C90.3738 17.7674 90.2939 17.4389 90.1376 17.1513C89.9814 16.8601 89.763 16.631 89.4824 16.4641C89.2054 16.2972 88.8823 16.2138 88.513 16.2138C88.1188 16.2138 87.7725 16.3097 87.4743 16.5014C87.176 16.6896 86.9434 16.9382 86.7765 17.2472C86.6131 17.5526 86.5297 17.8881 86.5261 18.2539V19.3885C86.5261 19.8643 86.6131 20.2727 86.7871 20.6136C86.9611 20.951 87.2044 21.2102 87.5169 21.3913C87.8294 21.5689 88.1951 21.6577 88.6142 21.6577C88.8947 21.6577 89.1486 21.6186 89.3759 21.5405C89.6032 21.4588 89.8002 21.3398 89.9672 21.1836C90.1341 21.0273 90.2601 20.8338 90.3453 20.603L92.1458 20.8054C92.0321 21.2812 91.8155 21.6967 91.4959 22.0518C91.1799 22.4034 90.775 22.6768 90.2814 22.8722C89.7878 23.0639 89.2232 23.1598 88.5875 23.1598ZM97.6629 23V12.0909H99.6391V21.3434H104.444V23H97.6629ZM109.643 23.1598C108.844 23.1598 108.151 22.984 107.565 22.6325C106.979 22.2809 106.525 21.7891 106.202 21.157C105.882 20.5249 105.722 19.7862 105.722 18.9411C105.722 18.0959 105.882 17.3555 106.202 16.7198C106.525 16.0842 106.979 15.5906 107.565 15.239C108.151 14.8874 108.844 14.7116 109.643 14.7116C110.442 14.7116 111.134 14.8874 111.72 15.239C112.306 15.5906 112.759 16.0842 113.078 16.7198C113.402 17.3555 113.563 18.0959 113.563 18.9411C113.563 19.7862 113.402 20.5249 113.078 21.157C112.759 21.7891 112.306 22.2809 111.72 22.6325C111.134 22.984 110.442 23.1598 109.643 23.1598ZM109.653 21.6151C110.087 21.6151 110.449 21.4961 110.74 21.2582C111.031 21.0167 111.248 20.6935 111.39 20.2887C111.535 19.8839 111.608 19.4329 111.608 18.9357C111.608 18.435 111.535 17.9822 111.39 17.5774C111.248 17.169 111.031 16.8441 110.74 16.6026C110.449 16.3612 110.087 16.2404 109.653 16.2404C109.209 16.2404 108.84 16.3612 108.545 16.6026C108.254 16.8441 108.036 17.169 107.89 17.5774C107.748 17.9822 107.677 18.435 107.677 18.9357C107.677 19.4329 107.748 19.8839 107.89 20.2887C108.036 20.6935 108.254 21.0167 108.545 21.2582C108.84 21.4961 109.209 21.6151 109.653 21.6151ZM118.758 26.2386C118.066 26.2386 117.471 26.1445 116.974 25.9563C116.476 25.7717 116.077 25.5231 115.775 25.2106C115.473 24.8981 115.264 24.5518 115.146 24.1719L116.883 23.7511C116.961 23.9109 117.075 24.0689 117.224 24.2251C117.373 24.3849 117.574 24.5163 117.826 24.6193C118.081 24.7259 118.403 24.7791 118.79 24.7791C119.337 24.7791 119.79 24.646 120.148 24.3796C120.507 24.1168 120.686 23.6836 120.686 23.0799V21.5298H120.59C120.491 21.7287 120.345 21.9329 120.154 22.1424C119.965 22.3519 119.715 22.5277 119.403 22.6697C119.094 22.8118 118.705 22.8828 118.236 22.8828C117.607 22.8828 117.037 22.7354 116.526 22.4407C116.018 22.1424 115.613 21.6985 115.312 21.109C115.013 20.516 114.864 19.7738 114.864 18.8825C114.864 17.984 115.013 17.2259 115.312 16.608C115.613 15.9865 116.02 15.516 116.531 15.1964C117.043 14.8732 117.613 14.7116 118.241 14.7116C118.721 14.7116 119.115 14.7933 119.424 14.9567C119.736 15.1165 119.985 15.31 120.17 15.5373C120.354 15.761 120.494 15.9723 120.59 16.1712H120.697V14.8182H122.599V23.1332C122.599 23.8327 122.432 24.4116 122.098 24.8697C121.764 25.3278 121.308 25.6705 120.729 25.8977C120.15 26.125 119.493 26.2386 118.758 26.2386ZM118.774 21.37C119.182 21.37 119.53 21.2706 119.818 21.0717C120.106 20.8729 120.324 20.587 120.473 20.2141C120.622 19.8413 120.697 19.3938 120.697 18.8718C120.697 18.3569 120.622 17.9059 120.473 17.5188C120.328 17.1317 120.111 16.8317 119.823 16.6186C119.539 16.402 119.189 16.2937 118.774 16.2937C118.344 16.2937 117.986 16.4055 117.698 16.6293C117.41 16.853 117.194 17.1602 117.048 17.5508C116.903 17.9379 116.83 18.3782 116.83 18.8718C116.83 19.3725 116.903 19.8111 117.048 20.1875C117.197 20.5604 117.416 20.8516 117.703 21.0611C117.994 21.267 118.351 21.37 118.774 21.37ZM128.144 23.1598C127.345 23.1598 126.652 22.984 126.066 22.6325C125.48 22.2809 125.026 21.7891 124.703 21.157C124.383 20.5249 124.223 19.7862 124.223 18.9411C124.223 18.0959 124.383 17.3555 124.703 16.7198C125.026 16.0842 125.48 15.5906 126.066 15.239C126.652 14.8874 127.345 14.7116 128.144 14.7116C128.943 14.7116 129.635 14.8874 130.221 15.239C130.807 15.5906 131.26 16.0842 131.579 16.7198C131.903 17.3555 132.064 18.0959 132.064 18.9411C132.064 19.7862 131.903 20.5249 131.579 21.157C131.26 21.7891 130.807 22.2809 130.221 22.6325C129.635 22.984 128.943 23.1598 128.144 23.1598ZM128.154 21.6151C128.588 21.6151 128.95 21.4961 129.241 21.2582C129.532 21.0167 129.749 20.6935 129.891 20.2887C130.036 19.8839 130.109 19.4329 130.109 18.9357C130.109 18.435 130.036 17.9822 129.891 17.5774C129.749 17.169 129.532 16.8441 129.241 16.6026C128.95 16.3612 128.588 16.2404 128.154 16.2404C127.71 16.2404 127.341 16.3612 127.046 16.6026C126.755 16.8441 126.537 17.169 126.391 17.5774C126.249 17.9822 126.178 18.435 126.178 18.9357C126.178 19.4329 126.249 19.8839 126.391 20.2887C126.537 20.6935 126.755 21.0167 127.046 21.2582C127.341 21.4961 127.71 21.6151 128.154 21.6151Z" fill="#2D3748"/>
<defs>
<clipPath id="clip0_6387_135293">
<rect width="32.5" height="32.5" fill="white" transform="translate(10.625 1.25)"/>
</clipPath>
<clipPath id="clip1_6387_135293">
<rect width="32.5" height="27.0833" fill="white" transform="translate(10.625 3.95837)"/>
</clipPath>
</defs>
</svg>
