<?xml version="1.0" encoding="UTF-8"?>
<svg width="577px" height="178px" viewBox="0 0 577 178" version="1.1" xmlns="http://www.w3.org/2000/svg" xmlns:xlink="http://www.w3.org/1999/xlink">
    <title>logo@2x</title>
    <g id="006---Fides" stroke="none" stroke-width="1" fill="none" fill-rule="evenodd">
        <g id="logo" transform="translate(0.500000, 0.550000)" fill="#FFFFFF" fill-rule="nonzero">
            <rect id="Rectangle" x="0" y="0" width="176.95" height="176.95"></rect>
            <path d="M286.85,48.45 C289.838023,48.5096878 292.788614,49.1269377 295.55,50.27 L300,31.92 C294.636765,29.9419055 288.966389,28.9263157 283.25,28.92 C260.58,28.92 252.37,43.49 252.37,61.2 L252.37,65.56 L235.1,65.56 L235.1,85.09 L252.4,85.09 L252.4,149.53 L277.27,149.53 L277.27,85.09 L295.07,85.09 L295.07,65.57 L277.27,65.57 L277.27,60.49 C277.27,51.79 280.78,48.45 286.85,48.45 Z" id="Path"></path>
            <path d="M394,31 L418.87,31 L418.87,149.53 L394,149.53 L394,141.21 L394,141.21 C388.06,147.15 381.94,151.57 373.83,151.57 C352.96,151.57 339.48,135 339.48,107.57 C339.48,80.14 356.62,63.57 374.31,63.57 C383.56,63.57 388.31,67.02 394,72.34 M394,123.73 L394,89.21 C390.20621,85.7425876 385.239402,83.8416224 380.1,83.89 C372,83.89 365,91.33 365,107.31 C365,123.79 370.69,131.21 380.33,131.21 C385.59,131.21 389.87,129.2 394,123.69 L394,123.73 Z" id="Shape"></path>
            <path d="M509.6,139.84 L520.79,124.34 C528.4,130.1 535.42,133.16 542.45,133.16 C549.86,133.16 553.07,130.34 553.07,125.94 C553.07,120.41 544.73,117.94 536.07,114.51 C525.78,110.51 513.85,103.7 513.85,89.82 C513.85,74.19 526.55,63.53 545.92,63.53 C558.79,63.53 568.37,68.73 575.53,74.17 L564.41,89.1 C558.41,84.77 552.55,81.94 546.74,81.94 C540.31,81.94 537.14,84.46 537.14,88.64 C537.14,94 545,96.05 553.7,99.22 C564.35,103.15 576.33,109.13 576.33,124.48 C576.33,139.68 564.33,151.57 541.84,151.57 C530.76,151.57 518.1,146.77 509.6,139.84 Z" id="Path"></path>
            <polygon id="Path" points="305.14 65.57 330 65.57 330 149.57 305.14 149.57"></polygon>
            <circle id="Oval" cx="317.64" cy="42.06" r="12.51"></circle>
            <path d="M471,152 C465.1986,152.035568 459.438806,151.019133 454,149 C448.921627,147.125432 444.297112,144.19805 440.43,140.41 C436.469785,136.462264 433.377171,131.731382 431.35,126.52 C429.037321,120.571628 427.89967,114.231344 428,107.85 C427.895942,101.540709 429.055367,95.2743733 431.41,89.42 C433.497168,84.2586332 436.552023,79.5439743 440.41,75.53 C444.022963,71.7813189 448.356409,68.8016493 453.15,66.77 C463.026128,62.6693142 474.13971,62.7306156 483.97,66.94 C488.366937,68.9550367 492.243014,71.9518976 495.3,75.7 C498.377422,79.5509128 500.670607,83.9674183 502.05,88.7 C503.578758,93.8363524 504.337013,99.1710964 504.3,104.53 C504.304374,106.949546 504.164123,109.36719 503.88,111.77 C503.6,114.01 503.35,115.64 503.13,116.65 L455.62,116.65 C456.953333,121.703333 459.34,125.21 462.78,127.17 C466.497589,129.225513 470.692954,130.260554 474.94,130.17 C477.794908,130.177162 480.634214,129.748906 483.36,128.9 C486.344599,127.944253 489.220414,126.677286 491.94,125.12 L502.47,141.27 C497.506325,144.873618 492.014603,147.686945 486.19,149.61 C481.26691,151.128531 476.151535,151.933386 471,152 Z M455.29,97.75 L479.94,97.75 C480.008228,94.7389712 479.16846,91.7771327 477.53,89.25 C475.923333,86.8433333 472.95,85.6366667 468.61,85.63 C465.558607,85.5713937 462.583048,86.583296 460.2,88.49 C457.813333,90.4033333 456.176667,93.49 455.29,97.75 Z" id="Shape"></path>
        </g>
    </g>
</svg>
