<?xml version="1.0" encoding="UTF-8"?><!DOCTYPE svg>
<svg xmlns="http://www.w3.org/2000/svg" width="41" height="45" fill="none"><path fill="#fff" d="m17.195 41.741-15.88-9.26C.436 31.972 0 31.303 0 30.637s.437-1.334 1.308-1.842l15.88-9.263a6.4 6.4 0 0 1 3.168-.753 6.4 6.4 0 0 1 3.161.764l15.88 9.262c.874.509 1.311 1.175 1.311 1.842s-.437 1.336-1.31 1.844l-15.88 9.26a6.4 6.4 0 0 1-3.162.766 6.4 6.4 0 0 1-3.161-.776"/><path fill="url(#a)" d="m23.872 41.535 15.532-9.054c.873-.509 1.31-1.177 1.31-1.844s-.437-1.334-1.31-1.842l-15.88-9.263a5.4 5.4 0 0 0-1.392-.542l-1.777-.21v22.765z"/><path fill="url(#b)" d="m34.78 23.875-11.253-6.644a6.4 6.4 0 0 0-3.163-.77 6.4 6.4 0 0 0-3.163.77L5.948 23.875H0v4.611c0 .676.44 1.354 1.312 1.864l15.898 9.387a6.36 6.36 0 0 0 3.163.773 6.36 6.36 0 0 0 3.163-.773l15.9-9.387c.872-.515 1.31-1.193 1.31-1.864v-4.61z"/><path fill="url(#c)" d="m39.404 30.16-15.88 9.26a6.4 6.4 0 0 1-3.162.767 6.4 6.4 0 0 1-3.161-.766L1.32 30.16C.437 29.652 0 28.982 0 28.316v4.02c0 .666.437 1.333 1.308 1.844l15.88 9.26c.973.522 2.06.785 3.162.764a6.4 6.4 0 0 0 3.161-.764l15.88-9.26c.874-.51 1.31-1.178 1.31-1.844v-4.02c.013.667-.423 1.336-1.297 1.845"/><path fill="#fff" d="M17.195 31.618 1.308 22.366C.437 21.85 0 21.18 0 20.514s.437-1.332 1.308-1.842l15.88-9.263a6.4 6.4 0 0 1 3.168-.757c1.101-.022 2.19.24 3.161.762l15.88 9.262c.874.51 1.311 1.175 1.311 1.842s-.437 1.335-1.31 1.844l-15.88 9.26a6.4 6.4 0 0 1-3.162.766 6.4 6.4 0 0 1-3.161-.77"/><path fill="url(#d)" d="m23.872 31.412 15.532-9.045c.873-.509 1.31-1.178 1.31-1.844s-.437-1.332-1.31-1.842l-15.88-9.263a5.4 5.4 0 0 0-1.392-.555l-1.777-.21v22.759z"/><path fill="url(#e)" d="m34.742 15.94-11.24-6.527a6.44 6.44 0 0 0-3.16-.76 6.44 6.44 0 0 0-3.16.76l-11.24 6.528H0v4.528c0 .663.439 1.33 1.31 1.83l15.881 9.223c.972.52 2.06.782 3.16.76a6.4 6.4 0 0 0 3.16-.76L39.394 22.3c.871-.505 1.308-1.171 1.308-1.83V15.94z"/><path fill="url(#f)" d="m39.404 22.155-15.88 9.26a6.4 6.4 0 0 1-3.162.766 6.4 6.4 0 0 1-3.161-.765l-15.893-9.26C.437 21.637 0 20.97 0 20.302v4.008c0 .667.437 1.334 1.308 1.845l15.88 9.26c.972.523 2.06.786 3.162.764a6.4 6.4 0 0 0 3.161-.764l15.88-9.26c.874-.509 1.31-1.178 1.31-1.844v-4.01c.013.668-.423 1.336-1.297 1.853"/><path fill="url(#g)" d="M17.195 22.974 1.308 13.716C.437 13.203 0 12.536 0 11.869c0-.666.437-1.333 1.308-1.844L17.188.763A6.44 6.44 0 0 1 20.356 0a6.44 6.44 0 0 1 3.161.762l15.88 9.262c.874.51 1.311 1.178 1.311 1.844s-.437 1.334-1.31 1.844l-15.88 9.26a6.4 6.4 0 0 1-3.162.765 6.4 6.4 0 0 1-3.161-.764"/><g filter="url(#h)"><rect width="15.636" height="15.636" fill="url(#i)" rx="1" transform="scale(1.22354 .70918)rotate(-45 23.624 1.943)"/><rect width="16.136" height="16.136" x="-.433" stroke="url(#j)" stroke-width=".5" rx="1.25" transform="scale(1.22354 .70918)rotate(-45 23.23 1.847)"/></g><path fill="url(#k)" d="m39.404 13.715-15.88 9.26a6.4 6.4 0 0 1-3.162.764 6.4 6.4 0 0 1-3.161-.763l-15.893-9.26C.437 13.202 0 12.535 0 11.868v4.009c0 .677.437 1.344 1.308 1.846l15.88 9.26c.972.523 2.06.786 3.162.764a6.4 6.4 0 0 0 3.161-.764l15.88-9.26c.874-.508 1.31-1.175 1.31-1.842v-4.009c.013.663-.423 1.33-1.297 1.842"/><defs><linearGradient id="a" x1="20.355" x2="40.714" y1="30.152" y2="30.152" gradientUnits="userSpaceOnUse"><stop stop-color="#C4CAE9"/><stop offset="1" stop-color="#fff"/></linearGradient><linearGradient id="b" x1="-.009" x2="40.736" y1="28.486" y2="28.486" gradientUnits="userSpaceOnUse"><stop offset=".4" stop-color="#3182CE"/><stop offset=".44" stop-color="#3182CE"/><stop offset=".54" stop-color="#3182CE"/><stop offset=".57" stop-color="#3182CE"/></linearGradient><linearGradient id="c" x1="0" x2="40.714" y1="36.26" y2="36.26" gradientUnits="userSpaceOnUse"><stop offset=".4" stop-color="#CED3F8"/><stop offset=".55" stop-color="#BEC3E9"/><stop offset=".57" stop-color="#BBC0E6"/></linearGradient><linearGradient id="d" x1="20.355" x2="40.714" y1="20.031" y2="20.031" gradientUnits="userSpaceOnUse"><stop stop-color="#C4CAE9"/><stop offset="1" stop-color="#fff"/></linearGradient><linearGradient id="e" x1="-.009" x2="40.693" y1="20.471" y2="20.471" gradientUnits="userSpaceOnUse"><stop offset=".4" stop-color="#3182CE"/><stop offset=".44" stop-color="#3182CE"/><stop offset=".54" stop-color="#3182CE"/><stop offset=".57" stop-color="#3182CE"/></linearGradient><linearGradient id="f" x1="0" x2="40.714" y1="28.247" y2="28.247" gradientUnits="userSpaceOnUse"><stop offset=".4" stop-color="#CED3F8"/><stop offset=".55" stop-color="#BEC3E9"/><stop offset=".57" stop-color="#BBC0E6"/></linearGradient><linearGradient id="g" x1="8.463" x2="33.031" y1="5.276" y2="19.521" gradientUnits="userSpaceOnUse"><stop stop-color="#F8F8FD"/><stop offset="1" stop-color="#EBECF8"/></linearGradient><linearGradient id="i" x1="7.928" x2="7.339" y1="-4.366" y2="20.254" gradientUnits="userSpaceOnUse"><stop stop-color="#F7F7FD"/><stop offset="1" stop-color="#EAEBF8"/></linearGradient><linearGradient id="j" x1=".007" x2="9.399" y1="-.046" y2="18.741" gradientUnits="userSpaceOnUse"><stop stop-color="#C4DFF8"/><stop offset=".438" stop-color="#AED2F4"/><stop offset="1" stop-color="#B3D7F8"/></linearGradient><linearGradient id="k" x1="0" x2="40.714" y1="19.813" y2="19.813" gradientUnits="userSpaceOnUse"><stop offset=".4" stop-color="#CED3F8"/><stop offset=".55" stop-color="#BEC3E9"/><stop offset=".57" stop-color="#BBC0E6"/></linearGradient><filter id="h" width="27.266" height="16.804" x="6.68" y="4.348" color-interpolation-filters="sRGB" filterUnits="userSpaceOnUse"><feFlood flood-opacity="0" result="BackgroundImageFix"/><feColorMatrix in="SourceAlpha" result="hardAlpha" values="0 0 0 0 0 0 0 0 0 0 0 0 0 0 0 0 0 0 127 0"/><feOffset/><feComposite in2="hardAlpha" operator="out"/><feColorMatrix values="0 0 0 0 0.192157 0 0 0 0 0.509804 0 0 0 0 0.807843 0 0 0 1 0"/><feBlend in2="BackgroundImageFix" result="effect1_dropShadow_1921_28430"/><feBlend in="SourceGraphic" in2="effect1_dropShadow_1921_28430" result="shape"/><feColorMatrix in="SourceAlpha" result="hardAlpha" values="0 0 0 0 0 0 0 0 0 0 0 0 0 0 0 0 0 0 127 0"/><feOffset dy="3"/><feGaussianBlur stdDeviation=".5"/><feComposite in2="hardAlpha" k2="-1" k3="1" operator="arithmetic"/><feColorMatrix values="0 0 0 0 0.861944 0 0 0 0 0.877279 0 0 0 0 0.891667 0 0 0 1 0"/><feBlend in2="shape" result="effect2_innerShadow_1921_28430"/></filter></defs></svg>
