<?xml version="1.0" encoding="UTF-8"?>
<svg id="Layer_1" data-name="Layer 1" xmlns="http://www.w3.org/2000/svg" viewBox="0 -102.035 600 600">
  <defs>
    <style>
      .cls-1 {
        fill: #2b2e35;
        stroke-width: 0px;
      }
    </style>
  </defs>
  <path class="cls-1" d="M215.16,0h-56.56v158.37h56.56V0ZM441.68,237.56h-56.56v158.37h56.56v-158.37ZM265.95,395.93h68.38l-107.86-158.82v100.68l39.48,58.14ZM147.29,337.78v-100.68l-107.81,158.82h68.38l39.42-58.14ZM453,58.14v100.68L560.8,0h-68.33l-39.48,58.14ZM373.81,58.14L334.33,0h-68.38l107.86,158.82V58.14ZM373.76,169.68h-147.28v56.56h147.28v-56.56ZM600,169.68h-147.28v56.56h147.28v-56.56ZM147.29,169.68H0v56.56h147.29v-56.56Z"/>
</svg>