<?xml version="1.0" encoding="UTF-8"?>
<svg id="Layer_1" data-name="Layer 1" xmlns="http://www.w3.org/2000/svg" viewBox="0 0 200 160.04">
  <defs>
    <style>
      .cls-1 {
        fill: #ffffff;
        stroke-width: 0px;
      }
    </style>
  </defs>
  <path class="cls-1" d="M19.07,68.91v22.22H0v-22.22h19.07ZM180.93,68.91v22.22h19.07v-22.22h-19.07ZM153.78,95.58c-5.89,24.22-27.78,42.24-53.78,42.24s-47.89-18.02-53.78-42.24h-22.71c6.27,36.56,38.18,64.47,76.49,64.47s70.22-27.91,76.49-64.47h-22.71ZM100,0C61.69,0,29.78,27.89,23.51,64.47h22.71c5.89-24.22,27.78-42.24,53.78-42.24s47.89,18.02,53.78,42.24h22.71C170.22,27.89,138.31,0,100,0ZM50.62,68.91v22.22h98.73v-22.22H50.62Z"/>
</svg>
