<?xml version="1.0" encoding="UTF-8"?><!DOCTYPE svg>
<svg xmlns="http://www.w3.org/2000/svg" width="42" height="45" fill="none"><path fill="#8973D3" d="m35.278 23.888-11.253-6.645a6.4 6.4 0 0 0-3.164-.77 6.4 6.4 0 0 0-3.163.77L6.444 23.888H.495V28.5c0 .675.44 1.353 1.312 1.863l15.9 9.389a6.36 6.36 0 0 0 3.163.773 6.36 6.36 0 0 0 3.164-.773l15.901-9.389c.873-.514 1.31-1.192 1.31-1.863v-4.612z" style="mix-blend-mode:multiply"/><path fill="url(#a)" d="m39.904 30.169-15.883 9.26a6.4 6.4 0 0 1-3.161.767 6.4 6.4 0 0 1-3.162-.766L1.816 30.169c-.884-.51-1.32-1.178-1.32-1.845v4.02c0 .667.436 1.334 1.307 1.844l15.882 9.261c.973.522 2.061.785 3.162.764a6.4 6.4 0 0 0 3.162-.764l15.882-9.26c.874-.511 1.31-1.178 1.31-1.845v-4.02c.013.667-.424 1.336-1.297 1.845"/><path fill="#8973D3" d="M35.24 15.951 24 9.423a6.44 6.44 0 0 0-3.16-.76 6.44 6.44 0 0 0-3.161.76L6.438 15.951H.495v4.529c0 .663.44 1.33 1.31 1.83l15.883 9.224c.972.52 2.06.782 3.16.76a6.4 6.4 0 0 0 3.16-.76l15.885-9.224c.871-.505 1.308-1.171 1.308-1.83V15.95z" style="mix-blend-mode:multiply"/><path fill="url(#b)" d="M39.904 22.167 24.02 31.43a6.4 6.4 0 0 1-3.161.766 6.4 6.4 0 0 1-3.162-.766L1.803 22.167C.932 21.65.495 20.981.495 20.315v4.009c0 .667.437 1.333 1.308 1.844l15.882 9.261a6.4 6.4 0 0 0 3.162.764 6.4 6.4 0 0 0 3.162-.764l15.882-9.26c.874-.51 1.31-1.178 1.31-1.845v-4.01c.013.668-.424 1.336-1.297 1.853"/><path fill="url(#c)" d="m17.692 22.984-15.889-9.26C.932 13.213.495 12.546.495 11.88c0-.667.437-1.334 1.308-1.845L17.685.771a6.45 6.45 0 0 1 3.168-.762 6.44 6.44 0 0 1 3.162.762l15.882 9.263c.874.51 1.31 1.178 1.31 1.845 0 .666-.436 1.333-1.31 1.844l-15.882 9.261a6.4 6.4 0 0 1-3.162.764 6.4 6.4 0 0 1-3.161-.764"/><path fill="url(#d)" d="M39.904 13.725 24.02 22.987a6.4 6.4 0 0 1-3.161.763 6.4 6.4 0 0 1-3.162-.763L1.803 13.725C.932 13.213.495 12.545.495 11.88v4.01c0 .677.437 1.343 1.308 1.846l15.882 9.26c.972.524 2.06.787 3.162.765a6.4 6.4 0 0 0 3.162-.764l15.882-9.261c.874-.51 1.31-1.176 1.31-1.843v-4.009c.013.663-.424 1.33-1.297 1.842"/><g filter="url(#e)"><rect width="15.638" height="15.638" fill="url(#f)" rx=".722" transform="scale(1.22354 .70918)rotate(-45 23.846 1.465)"/><rect width="15.999" height="15.999" x="-.312" stroke="#8973D3" stroke-width=".361" rx=".902" transform="scale(1.22354 .70918)rotate(-45 23.563 1.396)"/><rect width="15.999" height="15.999" x="-.312" stroke="url(#g)" stroke-width=".361" rx=".902" transform="scale(1.22354 .70918)rotate(-45 23.563 1.396)"/></g><defs><linearGradient id="a" x1=".495" x2="41.214" y1="36.269" y2="36.269" gradientUnits="userSpaceOnUse"><stop offset=".4" stop-color="#CED3F8"/><stop offset=".55" stop-color="#BEC3E9"/><stop offset=".57" stop-color="#BBC0E6"/></linearGradient><linearGradient id="b" x1=".495" x2="41.214" y1="28.259" y2="28.259" gradientUnits="userSpaceOnUse"><stop offset=".4" stop-color="#CED3F8"/><stop offset=".55" stop-color="#BEC3E9"/><stop offset=".57" stop-color="#BBC0E6"/></linearGradient><linearGradient id="c" x1="8.959" x2="33.529" y1="5.284" y2="19.531" gradientUnits="userSpaceOnUse"><stop stop-color="#F8F8FD"/><stop offset="1" stop-color="#EBECF8"/></linearGradient><linearGradient id="d" x1=".495" x2="41.214" y1="19.823" y2="19.823" gradientUnits="userSpaceOnUse"><stop offset=".4" stop-color="#CED3F8"/><stop offset=".55" stop-color="#BEC3E9"/><stop offset=".57" stop-color="#BBC0E6"/></linearGradient><linearGradient id="f" x1="7.929" x2="7.339" y1="-4.366" y2="20.256" gradientUnits="userSpaceOnUse"><stop stop-color="#F7F7FD"/><stop offset="1" stop-color="#EAEBF8"/></linearGradient><linearGradient id="g" x1=".007" x2="9.4" y1="-.046" y2="18.743" gradientUnits="userSpaceOnUse"><stop stop-color="#C4DFF8"/><stop offset=".438" stop-color="#AED2F4"/><stop offset="1" stop-color="#B3D7F8"/></linearGradient><filter id="e" width="27.21" height="16.493" x="7.203" y="4.377" color-interpolation-filters="sRGB" filterUnits="userSpaceOnUse"><feFlood flood-opacity="0" result="BackgroundImageFix"/><feColorMatrix in="SourceAlpha" result="hardAlpha" values="0 0 0 0 0 0 0 0 0 0 0 0 0 0 0 0 0 0 127 0"/><feOffset/><feComposite in2="hardAlpha" operator="out"/><feColorMatrix values="0 0 0 0 0.192157 0 0 0 0 0.509804 0 0 0 0 0.807843 0 0 0 1 0"/><feBlend in2="BackgroundImageFix" result="effect1_dropShadow_689_22434"/><feBlend in="SourceGraphic" in2="effect1_dropShadow_689_22434" result="shape"/><feColorMatrix in="SourceAlpha" result="hardAlpha" values="0 0 0 0 0 0 0 0 0 0 0 0 0 0 0 0 0 0 127 0"/><feOffset dy="2.165"/><feGaussianBlur stdDeviation=".361"/><feComposite in2="hardAlpha" k2="-1" k3="1" operator="arithmetic"/><feColorMatrix values="0 0 0 0 0.861944 0 0 0 0 0.877279 0 0 0 0 0.891667 0 0 0 1 0"/><feBlend in2="shape" result="effect2_innerShadow_689_22434"/></filter></defs></svg>
