<svg width="210" height="84" viewBox="0 0 210 84" fill="none" xmlns="http://www.w3.org/2000/svg">
<rect width="72.5042" height="11.5353" transform="matrix(0.866185 -0.499723 2.20468e-08 1 105.469 72.4648)" fill="#2B2E35"/>
<path d="M42.6665 36.2383L105.469 72.4703L105.469 83.9966L42.6665 47.7646L42.6665 36.2383Z" fill="#DADADA"/>
<path d="M105.469 -4.31919e-06L168.271 36.232L105.469 72.464L42.6666 36.232L105.469 -4.31919e-06Z" fill="#F5F5F5"/>
<path d="M2.68094 45.8834C4.15368 45.8754 5.34111 44.6751 5.33313 43.2024C5.32516 41.7296 4.1248 40.5422 2.65206 40.5502C1.17933 40.5581 -0.00809893 41.7585 -0.000123739 43.2312C0.00785146 44.704 1.20821 45.8914 2.68094 45.8834ZM43.0214 43.3518C43.2156 43.1555 43.2139 42.8389 43.0176 42.6447L39.8184 39.48C39.6221 39.2858 39.3055 39.2875 39.1113 39.4839C38.9171 39.6802 38.9188 39.9967 39.1151 40.191L41.9588 43.004L39.1458 45.8477C38.9515 46.044 38.9533 46.3606 39.1496 46.5548C39.3459 46.749 39.6625 46.7473 39.8567 46.551L43.0214 43.3518ZM2.6665 43.2168L2.66921 43.7168L3.6692 43.7114L3.66649 43.2114L3.66378 42.7114L2.6638 42.7168L2.6665 43.2168ZM5.66646 43.2006L5.66917 43.7005L7.66914 43.6897L7.66643 43.1897L7.66372 42.6897L5.66375 42.7006L5.66646 43.2006ZM9.6664 43.1789L9.66911 43.6789L11.6691 43.6681L11.6664 43.1681L11.6637 42.6681L9.66369 42.6789L9.6664 43.1789ZM13.6663 43.1572L13.6691 43.6572L15.669 43.6464L15.6663 43.1464L15.6636 42.6464L13.6636 42.6572L13.6663 43.1572ZM17.6663 43.1356L17.669 43.6356L19.669 43.6247L19.6663 43.1247L19.6635 42.6247L17.6636 42.6356L17.6663 43.1356ZM21.6662 43.1139L21.6689 43.6139L23.6689 43.6031L23.6662 43.1031L23.6635 42.6031L21.6635 42.6139L21.6662 43.1139ZM25.6662 43.0922L25.6689 43.5922L27.6688 43.5814L27.6661 43.0814L27.6634 42.5814L25.6635 42.5923L25.6662 43.0922ZM29.6661 43.0706L29.6688 43.5706L31.6688 43.5598L31.6661 43.0598L31.6634 42.5598L29.6634 42.5706L29.6661 43.0706ZM33.666 43.0489L33.6688 43.5489L35.6687 43.5381L35.666 43.0381L35.6633 42.5381L33.6633 42.5489L33.666 43.0489ZM37.666 43.0273L37.6687 43.5273L39.6687 43.5164L39.666 43.0164L39.6633 42.5164L37.6633 42.5273L37.666 43.0273ZM41.6659 43.0056L41.6686 43.5056L42.6686 43.5002L42.6659 43.0002L42.6632 42.5002L41.6632 42.5056L41.6659 43.0056Z" fill="#93969A"/>
<path d="M168.667 45.6667C170.139 45.6667 171.333 44.4728 171.333 43C171.333 41.5272 170.139 40.3333 168.667 40.3333C167.194 40.3333 166 41.5272 166 43C166 44.4728 167.194 45.6667 168.667 45.6667ZM209.02 43.3536C209.215 43.1583 209.215 42.8417 209.02 42.6465L205.838 39.4645C205.643 39.2692 205.326 39.2692 205.131 39.4645C204.936 39.6597 204.936 39.9763 205.131 40.1716L207.959 43L205.131 45.8284C204.936 46.0237 204.936 46.3403 205.131 46.5355C205.326 46.7308 205.643 46.7308 205.838 46.5355L209.02 43.3536ZM168.667 43L168.667 43.5L169.667 43.5L169.667 43L169.667 42.5L168.667 42.5L168.667 43ZM171.667 43L171.667 43.5L173.667 43.5L173.667 43L173.667 42.5L171.667 42.5L171.667 43ZM175.667 43L175.667 43.5L177.667 43.5L177.667 43L177.667 42.5L175.667 42.5L175.667 43ZM179.667 43L179.667 43.5L181.667 43.5L181.667 43L181.667 42.5L179.667 42.5L179.667 43ZM183.667 43L183.667 43.5L185.667 43.5L185.667 43L185.667 42.5L183.667 42.5L183.667 43ZM187.667 43L187.667 43.5L189.667 43.5L189.667 43L189.667 42.5L187.667 42.5L187.667 43ZM191.667 43L191.667 43.5L193.667 43.5L193.667 43L193.667 42.5L191.667 42.5L191.667 43ZM195.667 43L195.667 43.5L197.667 43.5L197.667 43L197.667 42.5L195.667 42.5L195.667 43ZM199.667 43L199.667 43.5L201.667 43.5L201.667 43L201.667 42.5L199.667 42.5L199.667 43ZM203.667 43L203.667 43.5L205.667 43.5L205.667 43L205.667 42.5L203.667 42.5L203.667 43ZM207.667 43L207.667 43.5L208.667 43.5L208.667 43L208.667 42.5L207.667 42.5L207.667 43Z" fill="#93969A"/>
</svg>
