<svg width="48" height="55" viewBox="0 0 48 55" fill="none" xmlns="http://www.w3.org/2000/svg">
<path d="M33.5143 2.21306C32.9357 1.0611 31.7464 0.333496 30.45 0.333496H17.55C16.2536 0.333496 15.0643 1.0611 14.4857 2.21306L13.7143 3.7335H3.42857C1.53214 3.7335 0 5.25606 0 7.1335C0 9.01093 1.53214 10.5335 3.42857 10.5335H44.5714C46.4646 10.5335 48 9.01093 48 7.1335C48 5.25606 46.4646 3.7335 44.5714 3.7335H34.2857L33.5143 2.21306ZM44.6679 13.9335H3.42857V47.9335C3.42857 51.6841 6.50357 54.7335 10.2857 54.7335H37.8107C41.5018 54.7335 44.6679 51.6841 44.6679 47.9335V13.9335ZM36.0964 22.4335V46.2335C36.0964 47.1685 35.2286 47.9335 34.3821 47.9335C33.3429 47.9335 32.6679 47.1685 32.6679 46.2335V22.4335C32.6679 21.4985 33.3429 20.7335 34.3821 20.7335C35.2286 20.7335 36.0964 21.4985 36.0964 22.4335ZM25.8107 22.4335V46.2335C25.8107 47.1685 24.9429 47.9335 24.0964 47.9335C23.0571 47.9335 22.2857 47.1685 22.2857 46.2335V22.4335C22.2857 21.4985 23.0571 20.7335 24.0964 20.7335C24.9429 20.7335 25.8107 21.4985 25.8107 22.4335ZM15.4286 22.4335V46.2335C15.4286 47.1685 14.6571 47.9335 13.7143 47.9335C12.7714 47.9335 12 47.1685 12 46.2335V22.4335C12 21.4985 12.7714 20.7335 13.7143 20.7335C14.6571 20.7335 15.4286 21.4985 15.4286 22.4335Z" fill="#824EF2"/>
</svg>
