<svg width="32" height="32" viewBox="0 0 32 32" fill="none" xmlns="http://www.w3.org/2000/svg">
<path d="M16 2.00002C8.27812 2.00002 2 8.27814 2 16C2 23.7219 8.27812 30 16 30C23.7219 30 30 23.7219 30 16C30 8.27814 23.7219 2.00002 16 2.00002Z" fill="#EB5424"/>
<path d="M20.5558 22.2998L18.8167 17.0042L23.3717 13.7339H17.7399L16.0008 8.43878V8.43776H21.6326L23.3717 13.7328C24.3828 16.804 23.3413 20.2983 20.5558 22.2998ZM11.4458 22.2998V22.3008L16.0008 25.5732L20.5558 22.2998L16.0059 19.0274L11.4509 22.2998H11.4458ZM8.62998 13.7323C7.56834 16.9708 8.80184 20.4025 11.4509 22.3003V22.2947L13.19 16.9997L8.6401 13.7247H14.2668L16.0109 8.42968V8.42664H10.3791L8.63504 13.7217L8.62998 13.7323Z" fill="white"/>
</svg>
