<svg width="32" height="32" viewBox="0 0 32 32" fill="none" xmlns="http://www.w3.org/2000/svg">
<path d="M8.335 27.8319L2.24413 17.2821C1.91863 16.7186 1.91863 16.0238 2.24413 15.4603L8.335 4.91087C8.66006 4.34781 9.26031 4.00088 9.91 4H22.0974C22.7449 4.00306 23.3421 4.35 23.6659 4.91087L29.7559 15.4603C30.0814 16.0238 30.0814 16.7186 29.7559 17.2821L23.665 27.8319C23.3399 28.395 22.7397 28.7419 22.09 28.7428H9.90562C9.25681 28.7406 8.65875 28.3937 8.33369 27.8319H8.335Z" fill="#4386FA"/>
<path opacity="0.1" d="M19.8051 12.9741C19.8051 12.9741 21.4983 17.0354 19.19 19.3376C16.8818 21.6397 12.6787 20.1662 12.6787 20.1662L21.2283 28.7394H22.0963C22.7465 28.7386 23.3467 28.3912 23.6713 27.8286L27.7033 20.8469L19.8051 12.9741Z" fill="black"/>
<path d="M21.8044 21.2844L19.9376 19.4132C19.9173 19.3924 19.894 19.3747 19.8685 19.3607C20.6625 18.3379 21.0368 17.0508 20.9149 15.7617C20.7931 14.4725 20.1843 13.2784 19.2126 12.4225C18.241 11.5665 16.9796 11.1133 15.6854 11.155C14.3912 11.1967 13.1616 11.7303 12.2471 12.647C11.3326 13.5638 10.802 14.7947 10.7635 16.089C10.7249 17.3833 11.1813 18.6436 12.0396 19.6131C12.8979 20.5827 14.0936 21.1885 15.383 21.3072C16.6724 21.4259 17.9586 21.0485 18.9795 20.2519C18.9928 20.276 19.0094 20.2981 19.0289 20.3175L20.9001 22.1887C20.955 22.2436 21.0296 22.2744 21.1072 22.2744C21.1849 22.2744 21.2594 22.2436 21.3144 22.1887L21.8044 21.6987C21.8593 21.6437 21.8901 21.5692 21.8901 21.4915C21.8901 21.4139 21.8593 21.3394 21.8044 21.2844ZM15.8426 20.0743C15.0854 20.0744 14.3452 19.8499 13.7156 19.4293C13.086 19.0087 12.5953 18.4108 12.3055 17.7113C12.0157 17.0118 11.9399 16.242 12.0876 15.4994C12.2353 14.7568 12.5999 14.0746 13.1353 13.5392C13.6707 13.0038 14.3528 12.6392 15.0954 12.4916C15.838 12.3439 16.6078 12.4197 17.3073 12.7095C18.0068 12.9993 18.6047 13.49 19.0253 14.1196C19.4459 14.7492 19.6704 15.4894 19.6703 16.2466C19.6702 17.2617 19.2668 18.2352 18.549 18.953C17.8312 19.6708 16.8577 20.0742 15.8426 20.0743ZM13.3956 16.0423V17.6243C13.6393 18.0543 13.992 18.4131 14.4185 18.6633V16.0326L13.3956 16.0423ZM15.3097 14.7306V19.0059C15.6478 19.0682 15.9945 19.0682 16.3326 19.0059V14.7306H15.3097ZM18.269 17.6208V16.6836H17.247V18.6524C17.6729 18.4028 18.0257 18.0455 18.2698 17.6164L18.269 17.6208Z" fill="white"/>
</svg>
