<svg width="32" height="32" viewBox="0 0 32 32" fill="none" xmlns="http://www.w3.org/2000/svg">
<path d="M14.6509 18.0364C14.88 15.8473 16.2545 14.0655 17.8582 14.0655C19.4618 14.0655 20.3273 15.8473 20.0982 18.0364C19.8691 20.2255 18.5455 22.0327 17.0436 22.0327C15.5418 22.0327 14.32 20.6582 14.6509 18.0364ZM16 27.9636C12.4366 27.9687 9.05722 26.3817 6.78545 23.6364C8.77091 24.2727 10.9855 23.7127 12.7164 22.0073C12.8992 21.8239 13.0692 21.6283 13.2255 21.4218C14.0145 23.1273 15.5418 23.9927 17.0691 23.9927C19.6655 23.9927 21.8545 21.32 22.1091 18.0109C22.3636 14.7018 20.5055 12.08 18.0364 12.08C17.1404 12.0676 16.2588 12.3056 15.4909 12.7673L16.2545 8.31273C16.3307 7.95616 16.247 7.58414 16.0255 7.29455C15.7964 6.93818 15.5927 6.78545 15.2873 6.78545H11.7236C11.513 6.79643 11.3409 6.95774 11.3164 7.16727C11.2217 7.58679 11.1537 8.01188 11.1127 8.44C11.0873 8.72 11.2909 8.82182 11.52 8.82182H14.1164C13.7091 11.3673 12.8945 16.3055 12.6655 17.5527C12.4253 18.7333 11.851 19.8201 11.0109 20.6836C9.58545 22.1091 6.96364 22.44 5.41091 20.8873C4.87636 20.3273 4.03636 18.9527 4.03636 16C4.03636 9.39267 9.39267 4.03636 16 4.03636C22.6073 4.03636 27.9636 9.39267 27.9636 16C27.9636 22.6073 22.6073 27.9636 16 27.9636ZM16 2C8.26801 2 2 8.26801 2 16C2 23.732 8.26801 30 16 30C23.732 30 30 23.732 30 16C30 12.287 28.525 8.72601 25.8995 6.10051C23.274 3.475 19.713 2 16 2Z" fill="#212124"/>
</svg>
