<svg viewBox="0 0 151.92 130.26" xmlns="http://www.w3.org/2000/svg" xmlns:xlink="http://www.w3.org/1999/xlink"><linearGradient id="a" gradientUnits="userSpaceOnUse" x1="91.08" x2="35.79" y1="126.64" y2="50.66"><stop offset="0" stop-color="#efab00"/><stop offset="1" stop-color="#efb700"/></linearGradient><linearGradient id="b" gradientUnits="userSpaceOnUse" x1="83.06" x2="98.74" y1="68.88" y2="40.67"><stop offset="0" stop-color="#dd3163"/><stop offset="1" stop-color="#ff5663"/></linearGradient><linearGradient id="c" gradientUnits="userSpaceOnUse" x1="50.22" x2="144.42" y1="96.82" y2="17.17"><stop offset=".03" stop-color="#1890ff"/><stop offset="1" stop-color="#18b5ff"/></linearGradient><path d="m88.37 104.29a41.55 41.55 0 1 1 -1-78.71 3.85 3.85 0 0 0 4.73-2.19 3.91 3.91 0 0 0 -2.41-5.24 49 49 0 0 0 -14.66-2.38 49.3 49.3 0 0 0 -44.03 72.5l-15.25 9.64a9.94 9.94 0 0 0 -6.83-1.74 10 10 0 1 0 11.13 10 9.8 9.8 0 0 0 -.15-1.64l15.29-9.67a49.32 49.32 0 0 0 55.72 16.82 3.9 3.9 0 0 0 2.26-5.28 3.87 3.87 0 0 0 -4.8-2.11z" fill="url(#a)"/><path d="m74.53 94.12a3.9 3.9 0 0 1 3.41-3.86 25.36 25.36 0 0 0 0-50.26 3.91 3.91 0 0 1 -3.41-3.86 3.88 3.88 0 0 1 4.34-3.87 33.14 33.14 0 0 1 0 65.72 3.88 3.88 0 0 1 -4.34-3.87z" fill="url(#b)"/><path d="m141.16 8.45a10 10 0 0 0 -9.08 12l-6.58 4.16a65.08 65.08 0 0 0 -46.88-24.48 3.88 3.88 0 0 0 -4.09 3.87 3.91 3.91 0 0 0 3.7 3.88 57.42 57.42 0 0 1 53.64 56.34c.49 31.5-25.75 58.2-57.26 58.24a56.89 56.89 0 0 1 -37.61-14 3.9 3.9 0 0 0 -4.69-.35 3.9 3.9 0 0 0 -.44 6.22 64.62 64.62 0 0 0 43.93 15.9 65.09 65.09 0 0 0 54.2-99.23l6.53-4.13a10 10 0 1 0 4.64-18.44z" fill="url(#c)"/></svg>