<svg width="32" height="32" viewBox="0 0 32 32" fill="none" xmlns="http://www.w3.org/2000/svg">
<path d="M16 2C8.27812 2 2 8.27813 2 16C2 23.7219 8.27812 30 16 30C23.7219 30 30 23.7219 30 16C30 8.27813 23.7219 2 16 2Z" fill="#99CCEE"/>
<path d="M26.3092 12C24.5224 12 23.0322 13.2698 22.6916 14.9562V12L18.9902 15.6907L15.2993 12V14.9562C14.9587 13.2697 13.4685 12 11.6817 12C9.89505 12 8.405 13.2695 8.06421 14.9556C7.93215 14.3028 7.62793 13.7123 7.20079 13.2339C6.52483 12.4768 5.54158 12 4.44685 12H2V19.3817H4.44685C5.54155 19.3817 6.5248 18.9049 7.20072 18.1479C7.62789 17.6694 7.93212 17.079 8.06421 16.4261C8.40504 18.1122 9.89505 19.3817 11.6817 19.3817C13.4685 19.3817 14.9587 18.1119 15.2993 16.4255V19.3817H16.5225V14.9675L18.9902 17.4351L21.4472 14.9675V19.3816H22.6916V16.4254C23.0322 18.1119 24.5224 19.3816 26.3092 19.3816C28.3475 19.3816 30 17.7292 30 15.6908C30 13.6524 28.3475 12 26.3092 12ZM4.60715 18.1478H3.22318V13.2338H4.60806C5.89298 13.3169 6.90966 14.3848 6.90966 15.6908C6.90966 16.9971 5.89252 18.0652 4.60715 18.1478ZM11.6817 18.1536C10.3215 18.1536 9.21886 17.051 9.21886 15.6908C9.21886 14.3306 10.3215 13.228 11.6817 13.228C13.0418 13.228 14.1445 14.3306 14.1445 15.6908C14.1445 17.051 13.0418 18.1536 11.6817 18.1536ZM26.3092 18.1536C24.949 18.1536 23.8464 17.051 23.8464 15.6908C23.8464 14.3306 24.949 13.228 26.3092 13.228C27.6693 13.228 28.772 14.3306 28.772 15.6908C28.772 17.051 27.6693 18.1536 26.3092 18.1536Z" fill="white"/>
</svg>
