<svg width="32" height="32" viewBox="0 0 32 32" fill="none" xmlns="http://www.w3.org/2000/svg">
<path d="M22.0762 23.6966H17.6953C17.5613 23.6966 17.4273 23.6837 17.2969 23.658C17.1647 23.6323 17.0362 23.5937 16.9132 23.5423C16.7883 23.4928 16.669 23.4285 16.5588 23.3551C16.4468 23.2816 16.3422 23.1972 16.2467 23.1017L11.9044 18.7906C11.8566 18.7429 11.8162 18.6896 11.785 18.6309C11.7538 18.5721 11.73 18.5097 11.7171 18.4454C11.7043 18.3793 11.7006 18.3132 11.7079 18.2453C11.7153 18.1792 11.7318 18.1149 11.7575 18.0543C11.7832 17.9919 11.8181 17.935 11.8603 17.8836C11.9025 17.8322 11.954 17.7863 12.009 17.7496C12.066 17.7128 12.1265 17.6835 12.1908 17.6651C12.2551 17.6449 12.3212 17.6357 12.3873 17.6357H22.0725C23.0732 17.6247 23.8755 16.8168 23.8645 15.829C23.8553 14.8412 23.0364 14.048 22.0358 14.0591H7.98805C7.44458 14.0591 6.92313 13.8461 6.5394 13.4642L2.19894 9.15493C2.1512 9.10903 2.11264 9.05578 2.07959 8.99703C2.04838 8.93827 2.02635 8.87585 2.0135 8.80975C2.00064 8.74549 1.99697 8.67939 2.00248 8.61329C2.00982 8.54719 2.02635 8.48109 2.05205 8.4205C2.07776 8.35808 2.11264 8.30116 2.15487 8.24975C2.1971 8.19834 2.24668 8.15244 2.30359 8.11572C2.35868 8.07899 2.41927 8.04962 2.48353 8.02942C2.54779 8.01106 2.61389 8.00004 2.67999 8.00004H22.6068C25.2397 7.99086 27.6615 9.41932 28.899 11.7144C32.0827 17.6835 27.7735 23.6966 22.0762 23.6966V23.6966Z" fill="#FF3008"/>
</svg>
