<svg width="32" height="32" viewBox="0 0 32 32" fill="none" xmlns="http://www.w3.org/2000/svg">
<path d="M19.5388 30H19.8793L25.4367 27.221L25.5292 27.0902V4.90811L25.4367 4.7767L19.8793 2H19.5347L19.5388 30Z" fill="#5294CF"/>
<path d="M12.3068 30H11.9616L6.40898 27.221L6.2963 27.0272L6.23914 5.02108L6.40898 4.7767L11.9616 2H12.3111L12.3068 30Z" fill="#1F5B98"/>
<path d="M11.9713 2H19.874V30H11.9713V2Z" fill="#2D72B8"/>
<path d="M28.3457 15.3711L28.1579 15.3295L25.4765 15.0795L25.4367 15.0993L19.8744 14.8768H11.9713L6.40888 15.0993V10.8576L6.40306 10.8607L6.40888 10.8483L11.9713 9.55945H19.8744L25.4367 10.8483L27.4815 11.9352V11.2364L28.3457 11.1419L28.2562 10.9674L25.5201 9.01091L25.4367 9.03798L19.8744 7.31441H11.9713L6.40888 9.03798V4.77686L3.5 8.18469V11.1609L3.52252 11.1446L4.36416 11.2364V11.9496L3.5 12.412V15.3734L3.52252 15.3711L4.36416 15.3835V16.6265L3.63801 16.6374L3.5 16.6242V19.5867L4.36416 20.0514V20.7728L3.5362 20.8642L3.5 20.8371V23.8128L6.40888 27.2211V22.9604L11.9713 24.684H19.8744L25.4531 22.9553L25.5272 22.9879L28.2274 21.0602L28.3457 20.8681L27.4815 20.7728V20.0659L27.3682 20.0206L25.5201 21.0169L25.4531 21.1567L19.8744 22.438V22.4396H11.9713V22.438L6.40888 21.1512V16.8941L11.9713 17.1157V17.1212H19.8744L25.4367 16.8941L25.5633 16.9523L28.1623 16.7285L28.3457 16.6389L27.4815 16.6265V15.3835L28.3457 15.3711Z" fill="#1A476F"/>
<path d="M25.4366 22.9604V27.2211L28.3456 23.8128V20.8565L25.4534 22.9553L25.4366 22.9604ZM25.4366 21.1605L25.4534 21.1567L28.3456 19.6011V16.6265L25.4366 16.8941V21.1605ZM25.4534 10.8522L25.4366 10.8483V15.0993L28.3456 15.3711V12.398L25.4534 10.8522ZM25.4534 9.05468L28.3456 11.1419V8.18547L25.4366 4.77686V9.03798L25.4534 9.04381V9.05468Z" fill="#2D72B8"/>
</svg>
