<svg width="32" height="32" viewBox="0 0 32 32" fill="none" xmlns="http://www.w3.org/2000/svg">
<rect width="32" height="32" fill="white"/>
<g stroke="null" id="svg_6">
<path stroke="null" id="svg_1" fill="#5294CF" d="m20.63024,35.45262l0.4385,0l7.15762,-3.57925l0.11912,-0.16837l0,-28.5695l-0.11912,-0.16925l-7.15762,-3.57625l-0.44387,0l0.00537,36.06262"/>
<path stroke="null" id="svg_2" fill="#1F5B98" d="m11.31562,35.45262l-0.44462,0l-7.1515,-3.57925l-0.14512,-0.24962l-0.07362,-28.34275l0.21875,-0.31475l7.1515,-3.57625l0.45012,0l-0.0055,36.06262"/>
<path stroke="null" id="svg_3" fill="#2D72B8" d="m10.88362,-0.61l10.17825,0l0,36.06262l-10.17825,0l0,-36.06262z"/>
<path stroke="null" id="svg_4" fill="#1A476F" d="m31.97299,16.61112l-0.24187,-0.05362l-3.4535,-0.322l-0.05125,0.0255l-7.164,-0.2865l-10.17875,0l-7.16412,0.2865l0,-5.463l-0.0075,0.004l0.0075,-0.016l7.16412,-1.66l10.17875,0l7.164,1.66l2.63362,1.39987l0,-0.9l1.113,-0.12175l-0.11525,-0.22475l-3.524,-2.51987l-0.10737,0.03487l-7.164,-2.21987l-10.17875,0l-7.16412,2.21987l0,-5.48812l-3.7465,4.38912l0,3.83325l0.029,-0.021l1.084,0.11825l0,0.9185l-1.113,0.59562l0,3.81412l0.029,-0.003l1.084,0.016l0,1.60087l-0.93525,0.014l-0.17775,-0.017l0,3.81562l1.113,0.5985l0,0.92912l-1.06637,0.11775l-0.04662,-0.035l0,3.83262l3.7465,4.38975l0,-5.48762l7.16412,2.21987l10.17875,0l7.18512,-2.22637l0.0955,0.04187l3.47762,-2.48275l0.15237,-0.24737l-1.113,-0.12275l0,-0.9105l-0.14587,-0.05825l-2.38037,1.28312l-0.08625,0.18l-7.18512,1.65037l0,0.002l-10.17875,0l0,-0.002l-7.16412,-1.65737l0,-5.483l7.16412,0.2855l0,0.007l10.17875,0l7.164,-0.2925l0.16312,0.075l3.34737,-0.28825l0.23612,-0.11537l-1.113,-0.016l0,-1.60087l1.113,-0.016"/>
<path stroke="null" id="svg_5" fill="#2D72B8" d="m28.22637,26.38575l0,5.48762l3.74662,-4.38975l0,-3.80762l-3.725,2.70325l-0.02162,0.0065m0,-2.31812l0.02162,-0.005l3.725,-2.0035l0,-3.83112l-3.74662,0.34462l0,5.495m0.02162,-13.27662l-0.02162,-0.005l0,5.475l3.74662,0.35012l0,-3.82925l-3.725,-1.99087m0,-2.31512l3.725,2.68825l0,-3.80775l-3.74662,-4.39012l0,5.48812l0.02162,0.0075l0,0.014"/>
</g>
</svg>
