<svg width="32" height="32" viewBox="0 0 32 32" fill="none" xmlns="http://www.w3.org/2000/svg">
<g clip-path="url(#clip0_1225_48194)">
<path d="M30 2H2V30H30V2Z" fill="black"/>
<path fill-rule="evenodd" clip-rule="evenodd" d="M15.0813 25.1C16.0438 25.7562 17.6188 26.15 19.15 26.15C21.9938 26.15 24.1375 24.925 24.1375 22.1687C24.1375 19.8062 22.825 18.6687 19.8063 18.0125C18.275 17.6187 17.7062 17.1375 17.7062 16.3062C17.7062 15.475 18.4062 14.8187 19.675 14.8187C21.075 14.8187 22.2125 15.3 23.35 16.1312V13.4625C22.2562 12.8062 21.075 12.5 19.5875 12.5C16.9188 12.5 14.8625 13.8125 14.8625 16.4812C14.8625 18.7562 16.0437 19.85 18.7562 20.4625C20.4625 20.9 21.25 21.2937 21.25 22.3437C21.25 23.3937 20.375 23.8312 19.0625 23.8312C17.7063 23.8312 16.2625 23.2625 15.0375 22.3437L15.0813 25.1ZM14.4688 15.2562H13.1125V25.8875H10.1812V15.2562H8.125V12.8062H10.1812V10.3125C10.1812 7.075 11.975 5.5 14.775 5.5C15.825 5.5 16.6125 5.71875 17.3562 6.15625V8.825C16.6562 8.34375 16 8.08125 15.0813 8.08125C13.8125 8.08125 13.1125 8.69375 13.1125 10.3125V12.8062H16.3063C15.3438 13.2875 14.6875 14.1625 14.4688 15.2562Z" fill="white"/>
</g>
<defs>
<clipPath id="clip0_1225_48194">
<rect x="2" y="2" width="28" height="28" rx="14" fill="white"/>
</clipPath>
</defs>
</svg>
