<svg width="26" height="26" viewBox="0 0 26 26" fill="none" xmlns="http://www.w3.org/2000/svg">
<g clip-path="url(#clip0_7193_3704)">
<path d="M18.0982 13.377V11.8032H16.4458C16.3671 11.3311 16.131 10.859 15.895 10.3869L17.0753 9.20658L15.9736 8.10496L14.7933 9.28526C14.3999 9.0492 13.9278 8.81314 13.377 8.73446V7.08203H11.8032V8.73446C11.3311 8.81314 10.859 9.0492 10.3869 9.28526L9.20658 8.10496L8.10496 9.20658L9.28526 10.3869C9.0492 10.7803 8.81314 11.2524 8.73446 11.8032H7.08203V13.377H8.73446C8.81314 13.8491 9.0492 14.3212 9.28526 14.7933L8.10496 15.9736L9.20658 17.0753L10.3869 15.895C10.7803 16.131 11.2524 16.3671 11.8032 16.4458V18.0982H13.377V16.4458C13.8491 16.3671 14.3212 16.131 14.7933 15.895L15.9736 17.0753L17.0753 15.9736L15.895 14.7933C16.131 14.3999 16.3671 13.9278 16.4458 13.377H18.0982ZM12.5901 14.9507C11.2524 14.9507 10.2295 13.9278 10.2295 12.5901C10.2295 11.2524 11.2524 10.2295 12.5901 10.2295C13.9278 10.2295 14.9507 11.2524 14.9507 12.5901C14.9507 13.9278 13.9278 14.9507 12.5901 14.9507Z" fill="#2B2E35"/>
<path d="M12.5898 1.57422V3.14796C17.7832 3.14796 22.0323 7.39705 22.0323 12.5904C22.0323 17.7837 17.7832 22.0328 12.5898 22.0328V23.6065C18.6487 23.6065 23.606 18.6493 23.606 12.5904C23.606 6.53149 18.6487 1.57422 12.5898 1.57422Z" fill="#2B2E35"/>
<path d="M6.45254 19.75L5.5083 21.009C6.45254 21.7959 7.55416 22.504 8.81315 22.8975L9.36396 21.4024C8.26234 21.009 7.3181 20.4582 6.45254 19.75Z" fill="#2B2E35"/>
<path d="M3.30469 14.1641L1.73096 14.4788C1.96702 15.7378 2.43914 16.9968 3.06863 18.0984L4.40631 17.3115C3.8555 16.3673 3.46207 15.2657 3.30469 14.1641Z" fill="#2B2E35"/>
<path d="M4.40624 7.8689L3.06856 7.08203C2.43907 8.18365 1.96694 9.44264 1.80957 10.7016L3.38331 10.9377C3.46199 9.83607 3.85543 8.81314 4.40624 7.8689Z" fill="#2B2E35"/>
<path d="M9.28527 3.77728L8.73446 2.28223C7.55416 2.75435 6.45254 3.38384 5.5083 4.17071L6.53123 5.35101C7.3181 4.72152 8.26234 4.17071 9.28527 3.77728Z" fill="#2B2E35"/>
</g>
<defs>
<clipPath id="clip0_7193_3704">
<rect width="25.1798" height="25.1798" fill="white"/>
</clipPath>
</defs>
</svg>
