<svg width="32" height="32" viewBox="0 0 32 32" fill="none" xmlns="http://www.w3.org/2000/svg">
<path fill-rule="evenodd" clip-rule="evenodd" d="M6 13.816V18.03L16.262 23.49V19.276L6 13.816Z" fill="#AECBFA"/>
<path fill-rule="evenodd" clip-rule="evenodd" d="M6 20.3259V24.5399L16.262 29.9999V25.7859L6 20.3259Z" fill="#AECBFA"/>
<path fill-rule="evenodd" clip-rule="evenodd" d="M16.262 23.49L26.524 18.03V13.816L16.262 19.276V23.49Z" fill="#669DF6"/>
<path fill-rule="evenodd" clip-rule="evenodd" d="M16.262 29.9999L26.524 24.5399V20.3259L16.262 25.7859V29.9999Z" fill="#669DF6"/>
<path fill-rule="evenodd" clip-rule="evenodd" d="M26.524 11.674V7.46L16.262 2V6.214L26.524 11.674Z" fill="#4285F4"/>
<path fill-rule="evenodd" clip-rule="evenodd" d="M16.262 2L6 7.46V11.674L16.262 6.214V2Z" fill="#669DF6"/>
<path fill-rule="evenodd" clip-rule="evenodd" d="M6 7.41797V11.646L16.262 17.106V12.878L6 7.41797Z" fill="#AECBFA"/>
<path fill-rule="evenodd" clip-rule="evenodd" d="M16.262 17.106L26.524 11.646V7.41797L16.262 12.878V17.106Z" fill="#669DF6"/>
</svg>
