<svg width="25" height="24" viewBox="0 0 25 24" fill="none" xmlns="http://www.w3.org/2000/svg">
<path d="M18.1903 4C16.6452 4 15.3797 5.26745 15.3797 6.81604C15.3797 7.00027 15.3995 7.18058 15.4337 7.35515L10.4457 10.3595C9.86304 9.29029 8.73066 8.5622 7.43357 8.5622C5.54445 8.5622 4 10.1071 4 12.0005C4 13.8939 5.54464 15.4418 7.43357 15.4418C8.7309 15.4418 9.86316 14.7113 10.4457 13.6405L15.4346 16.6448C15.3999 16.8207 15.3795 17.0025 15.3795 17.1881C15.3795 18.7367 16.6452 20 18.1901 20C19.7352 20 20.9997 18.7367 20.9997 17.1881C20.9997 15.6395 19.7351 14.3722 18.1901 14.3722C17.2111 14.3722 16.3471 14.8833 15.8436 15.6501L10.8049 12.6156C10.8412 12.4156 10.863 12.2109 10.863 12.0006C10.863 11.7902 10.8413 11.5846 10.8049 11.3846L15.8439 8.35422C16.3474 9.11955 17.2117 9.62904 18.1904 9.62904C19.7355 9.62904 21 8.36469 21 6.81619C21 5.2676 19.7354 4.00015 18.1904 4.00015L18.1903 4ZM18.1903 5.06562C19.1607 5.06562 19.9357 5.84331 19.9357 6.81604C19.9357 7.78865 19.1608 8.56634 18.1903 8.56634C17.2199 8.56634 16.4438 7.78865 16.4438 6.81604C16.4438 5.84343 17.2198 5.06562 18.1903 5.06562ZM7.43362 9.62892C8.74806 9.62892 9.79988 10.6831 9.79988 12.0005C9.79988 13.3179 8.74806 14.3763 7.43362 14.3763C6.11919 14.3763 5.06323 13.3179 5.06323 12.0005C5.06323 10.6832 6.11922 9.62892 7.43362 9.62892ZM18.1903 15.4378C19.1607 15.4378 19.9357 16.2155 19.9357 17.1881C19.9357 18.1607 19.1608 18.9343 18.1903 18.9343C17.2199 18.9343 16.4438 18.1608 16.4438 17.1881C16.4438 16.2155 17.2198 15.4378 18.1903 15.4378Z" fill="black" stroke="black" stroke-width="0.5"/>
</svg>
