<svg width="32" height="32" viewBox="0 0 32 32" fill="none" xmlns="http://www.w3.org/2000/svg">
<path d="M29.6844 6.7593C29.6089 6.69535 29.5131 6.66239 29.4154 6.66677C29.1473 6.66677 28.8006 6.85378 28.614 6.9541L28.5401 6.99306C28.2271 7.14888 27.8864 7.23706 27.5389 7.25215C27.1827 7.26384 26.8758 7.28527 26.4761 7.32813C24.1079 7.57845 23.0517 9.44467 22.0344 11.2495C21.4802 12.2313 20.9081 13.2511 20.1237 14.0303C19.9615 14.1921 19.789 14.3428 19.6075 14.4813C18.7957 15.1018 17.7764 15.5449 16.9836 15.8586C16.2201 16.1586 15.3865 16.4284 14.5813 16.6894C13.8434 16.928 13.1472 17.154 12.5068 17.3985C12.2179 17.5086 11.9726 17.5933 11.7557 17.6673C11.1721 17.8621 10.7516 18.0112 10.1368 18.4465C9.89714 18.615 9.65653 18.7972 9.4936 18.9335C9.0056 19.3339 8.57368 19.8016 8.21007 20.3235C7.89738 20.8048 7.53605 21.2508 7.13209 21.654C7.00231 21.7845 6.77213 21.8488 6.42733 21.8488C6.02379 21.8488 5.53406 21.7631 5.01591 21.6725C4.48166 21.5751 3.92941 21.4825 3.45578 21.4825C3.07119 21.4825 2.77659 21.5468 2.55683 21.6774C2.55683 21.6774 2.18645 21.8994 2.03015 22.1868L2.18361 22.2579C2.42158 22.3905 2.6419 22.5542 2.83911 22.7449C3.04487 22.9403 3.27407 23.1079 3.52114 23.2436C3.6 23.2733 3.67173 23.3201 3.73143 23.3809C3.66701 23.4783 3.57229 23.604 3.47283 23.7384C2.92626 24.4738 2.60703 24.9384 2.78985 25.1916C2.87748 25.2384 2.97535 25.2612 3.07403 25.2578C4.26568 25.2578 4.90603 24.9393 5.71594 24.5361C5.95086 24.4192 6.18957 24.2994 6.47374 24.1757C6.94737 23.9643 7.457 23.6273 7.99788 23.2708C8.70549 22.7965 9.44529 22.3095 10.1633 22.0748C10.7534 21.8897 11.3681 21.801 11.9849 21.8118C12.7427 21.8118 13.5403 21.916 14.3095 22.0173C14.8826 22.0933 15.4765 22.1712 16.0591 22.2072C16.2855 22.2209 16.4948 22.2277 16.6985 22.2277C16.9709 22.2285 17.2432 22.2139 17.514 22.1838L17.5794 22.1605C17.9877 21.9024 18.179 21.3481 18.3647 20.8124C18.484 20.4676 18.5844 20.1579 18.7436 19.9611C18.753 19.9515 18.7631 19.9427 18.7739 19.9348C18.7893 19.926 18.8085 19.9293 18.8203 19.9426C18.8203 19.9426 18.8203 19.9475 18.8203 19.9582C18.7256 22.0533 17.9053 23.3838 17.0755 24.5663L16.5213 25.177C16.5213 25.177 17.2971 25.177 17.7385 25.0017C19.3489 24.5069 20.5642 23.416 21.449 21.6764C21.6671 21.2298 21.8622 20.7717 22.0334 20.304C22.0486 20.265 22.1878 20.193 22.1746 20.3946C22.1698 20.454 22.166 20.5202 22.1613 20.5894C22.1613 20.6303 22.1613 20.6722 22.1537 20.714C22.131 21.0063 22.0637 21.6238 22.0637 21.6238L22.561 21.3501C23.7603 20.5709 24.6848 18.9988 25.3858 16.553C25.6775 15.5342 25.8916 14.5222 26.0801 13.631C26.3056 12.5596 26.4997 11.6411 26.7223 11.2846C27.0719 10.7255 27.6052 10.3476 28.1215 9.98038C28.1915 9.9307 28.2626 9.88297 28.3317 9.83038C28.9806 9.36187 29.6257 8.82129 29.7678 7.81319V7.79078C29.871 7.03884 29.7839 6.84696 29.6844 6.7593Z" fill="#003545"/>
</svg>
