<svg width="32" height="32" viewBox="0 0 32 32" fill="none" xmlns="http://www.w3.org/2000/svg">
<path d="M21.9285 12.9646C20.4856 6.59923 17.4782 4.90469 16.711 3.70683C16.3947 3.17914 16.1145 2.63063 15.8722 2.06506C15.8317 2.63054 15.7573 2.98679 15.2766 3.41561C14.3115 4.27607 10.2128 7.61615 9.86784 14.8486C9.54646 21.5919 14.8252 25.75 15.5226 26.1798C16.0589 26.4436 16.712 26.1854 17.0305 25.9432C19.5752 24.1968 23.0519 19.5411 21.9313 12.9646" fill="#10AA50"/>
<path d="M16.0909 22.589C15.958 24.2581 15.8628 25.2279 15.5254 26.1816C15.5254 26.1816 15.7469 27.7706 15.9024 29.4539H16.4528C16.5841 28.2685 16.7845 27.0919 17.0531 25.93C16.3406 25.5794 16.1182 24.0536 16.0909 22.589Z" fill="#B8C4C2"/>
<path d="M17.0522 25.931C16.3321 25.5983 16.1239 24.0404 16.0918 22.589C16.2699 20.1949 16.3218 17.793 16.2473 15.3934C16.2096 14.1342 16.2652 3.73139 15.9373 2.20837C16.1616 2.7242 16.4201 3.2245 16.711 3.70594C17.4782 4.90475 20.4865 6.59929 21.9285 12.9647C23.0519 19.5298 19.594 24.1733 17.0522 25.931Z" fill="#12924F"/>
</svg>
