<svg width="32" height="32" viewBox="0 0 32 32" fill="none" xmlns="http://www.w3.org/2000/svg">
<path d="M27.7949 23.4443C26.5335 23.3572 25.268 23.5423 24.0856 23.9867C23.8121 24.0884 23.3506 24.0884 23.3164 24.4614C23.2822 24.8343 23.4873 24.8512 23.6241 25.0547C23.8727 25.5013 24.21 25.8934 24.6155 26.2074C25.0017 26.5201 25.407 26.8088 25.8292 27.0719C26.5642 27.5296 27.4018 27.8008 28.1368 28.2415C28.547 28.5128 28.9744 28.8518 29.3846 29.14C29.7949 29.4281 29.7265 29.5299 30 29.6316C29.8633 29.4621 29.8291 29.2247 29.6923 29.0383L29.1282 28.4789C28.5633 27.7543 27.8954 27.1148 27.1454 26.5803C26.53 26.1565 25.1967 25.5971 24.9574 24.8851C25.4022 24.8114 25.8419 24.7095 26.2736 24.58C26.9231 24.4105 27.5214 24.4444 28.1881 24.2749L29.094 24.0037V23.6985C28.7522 23.3595 28.5129 22.9188 28.1539 22.5967C27.1475 21.7558 26.079 20.9908 24.9574 20.3082C24.3135 19.9579 23.6516 19.641 22.9745 19.359C22.7523 19.2403 22.3592 19.1894 22.2224 19.003C21.9125 18.5467 21.6545 18.0578 21.4532 17.5451C20.8891 16.5111 20.3592 15.3584 19.8806 14.2565C19.6013 13.5195 19.2758 12.8005 18.9062 12.1037C17.1403 9.13442 14.5937 6.69694 11.5389 5.05187C10.7694 4.68721 9.95246 4.43048 9.11161 4.28905L7.67574 4.2043C7.36776 4.00745 7.07623 3.78636 6.80397 3.54319C5.70998 2.86513 2.92372 1.39034 2.12032 3.33977C1.60751 4.56028 2.87244 5.78079 3.31687 6.39104C3.68788 6.8329 4.01423 7.30984 4.29121 7.81497C4.42796 8.13705 4.46214 8.47608 4.59889 8.81511C4.86539 9.68038 5.19679 10.5247 5.59032 11.3409C5.78692 11.7514 6.02154 12.143 6.29116 12.5105C6.445 12.7309 6.70141 12.8157 6.76978 13.1547C6.55328 13.6056 6.40359 14.0852 6.32535 14.5786C5.65942 16.681 5.85596 18.9589 6.87235 20.9185C7.18003 21.3931 7.91506 22.4272 8.8723 22.0373C9.82954 21.6474 9.53895 20.6134 9.79535 19.681C9.79535 19.4437 9.79535 19.2911 9.9321 19.1555C10.1885 19.681 10.462 20.1896 10.7013 20.7151C11.379 21.6887 12.2169 22.5425 13.1799 23.2408C13.6414 23.5799 14.0004 24.1732 14.5645 24.3766C14.444 24.2295 14.2996 24.1034 14.1371 24.0037C13.7744 23.654 13.4427 23.274 13.1457 22.8679C12.3444 21.7955 11.63 20.6618 11.009 19.4776C10.7013 18.8843 10.4449 18.2571 10.1885 17.6638C10.0689 17.4434 10.0688 17.1044 9.88082 16.9857C9.52711 17.377 9.22287 17.8097 8.97486 18.2741C8.66328 19.1937 8.48487 20.1525 8.44496 21.1219C7.84668 20.9693 7.62446 20.3591 7.40225 19.8166C6.79369 18.1841 6.73373 16.4003 7.23131 14.7312C7.36806 14.3244 7.93215 13.036 7.70993 12.714C7.48772 12.3919 7.21422 12.1376 6.992 11.8494C6.72761 11.4697 6.49874 11.0669 6.30825 10.6459C5.86382 9.59488 5.62451 8.42522 5.1288 7.35728C4.86017 6.84433 4.54552 6.35642 4.18865 5.89945C3.78784 5.44929 3.43285 4.96098 3.12884 4.44162C3.04338 4.22125 2.90663 3.88222 3.12884 3.66185C3.35106 3.44148 3.2485 3.45843 3.38525 3.40757C3.522 3.35672 4.34249 3.40757 4.59889 3.57709C5.25544 3.83182 5.88522 4.14977 6.47919 4.52637C6.75269 4.71284 7.02619 5.08577 7.36806 5.17053H7.77831C8.37658 5.30614 9.06033 5.17053 9.64151 5.37395C10.6041 5.69514 11.5228 6.13358 12.3765 6.67922C14.8997 8.27336 16.9521 10.5018 18.3251 13.1377C18.5473 13.5785 18.6498 13.9684 18.855 14.4261C19.2481 15.3584 19.7609 16.2907 20.1541 17.2061C20.5042 18.097 20.9573 18.9446 21.5045 19.7319C21.7951 20.1218 22.9403 20.3421 23.4531 20.5456C23.966 20.749 24.4104 20.8676 24.7694 21.0711C25.4018 21.4609 26.0514 21.9186 26.6667 22.3594C26.9744 22.5797 27.9146 23.0544 27.983 23.4273M8.35949 7.03519C8.09962 7.03443 7.84086 7.06865 7.59028 7.13691C7.77048 7.4108 7.97043 7.6714 8.18855 7.91668L8.63299 8.81511C8.9279 8.59173 9.08351 8.23165 9.04324 7.86582C8.92358 7.73021 8.90648 7.61155 8.80392 7.47594C8.70136 7.34033 8.44496 7.18776 8.29111 7.03519" fill="#5D87A1"/>
</svg>
