<svg width="32" height="32" viewBox="0 0 32 32" fill="none" xmlns="http://www.w3.org/2000/svg">
<rect width="32" height="32" fill="white"/>
<path fill-rule="evenodd" clip-rule="evenodd" d="M14.4521 2.80615C18.7403 2.80615 25.2199 4.12675 28.2361 7.15514C29.0002 7.92299 30 9.4269 30 11.6295C30 15.5454 26.8575 21.5536 23.3877 25.0384C21.5938 26.8397 18.7403 29.1938 14.902 29.1938C11.1497 29.1938 8.28405 26.6349 7.45447 25.8015C4.27644 22.6104 2 17.7667 2 13.2503C2 10.4005 2.80901 7.90803 4.87314 5.83641C6.78482 3.91725 10.0788 2.80615 14.4521 2.80615ZM19.7598 18.4232C21.2076 16.9689 21.5976 15.1779 21.5976 14.1921C21.5976 13.4775 21.4105 12.4291 20.5201 11.5359C19.1547 10.1648 17.6423 9.77763 15.9972 9.77763C13.9134 9.77763 12.5133 10.4389 11.5809 11.376C10.8495 12.1102 10.2172 13.239 10.2172 14.843C10.2172 16.4461 11.0683 17.9949 11.9961 18.9255C12.8528 19.7859 14.1996 20.4228 15.5557 20.4228C16.9119 20.4228 18.312 19.8776 19.7598 18.4232Z" fill="#5952FF"/>
</svg>
