<svg width="32" height="32" viewBox="0 0 32 32" fill="none" xmlns="http://www.w3.org/2000/svg">
<path d="M22.7707 22.2154C22.9538 20.7501 22.8927 20.5214 24.0175 20.7755L24.3227 20.8348C25.2158 20.8645 26.1058 20.7175 26.9386 20.4028C28.3686 19.759 29.2144 18.7087 27.8105 18.9628C24.6018 19.6066 24.3838 18.5478 24.3838 18.5478C27.8105 13.6349 29.1969 7.42615 27.9762 5.90995C24.6366 1.76794 18.8643 3.72459 18.7684 3.77542C18.065 3.63798 17.3496 3.56706 16.6321 3.56366C15.4183 3.49841 14.219 3.84583 13.2402 4.54622C13.2402 4.54622 2.89889 0.429616 3.3959 9.73857C3.50053 11.7206 6.31693 24.7227 9.68267 20.7924C10.8947 19.3609 12.1154 18.1412 12.1154 18.1412C12.715 18.5338 13.4357 18.7133 14.1558 18.6494L14.2168 18.5986C14.1911 18.7841 14.1911 18.9721 14.2168 19.1576C13.3449 20.1063 13.6064 20.2673 11.8713 20.6145C10.1361 20.9618 11.1563 21.5886 11.8277 21.7496C13.2848 22.2053 14.8785 21.6995 15.7776 20.496L15.734 20.6992C16.0741 20.9618 16.0479 22.5966 16.0915 23.7655C16.0894 24.7432 16.2184 25.717 16.4752 26.6624C16.7193 27.3061 17.0158 28.9579 19.2916 28.4835C21.1924 28.0854 22.6486 27.5179 22.7794 22.2154" fill="black"/>
<path d="M18.5417 29.6355C17.7803 29.6611 17.0387 29.3967 16.4752 28.8986C16.0039 28.4258 15.6674 27.8419 15.4986 27.2045L15.4375 27.0267C15.1327 25.9768 14.9829 24.8902 14.9928 23.7994C14.9928 23.5877 14.9928 23.3675 14.9928 23.1388C14.9928 22.9101 14.9928 22.7661 14.9928 22.5458C14.6324 22.7172 14.2473 22.8343 13.8506 22.8931C13.0953 23.0111 12.3229 22.9736 11.5835 22.783C11.0053 22.671 10.4829 22.3725 10.1012 21.936C9.473 22.568 8.52942 22.798 7.66846 22.5289C6.5493 22.02 5.67715 21.109 5.23571 19.9878C4.60739 18.7704 4.09375 17.5003 3.70108 16.193C3.02768 14.1165 2.55192 11.9843 2.2798 9.82332C2.13157 6.92645 2.93376 4.8512 4.66894 3.66535C7.39815 1.78492 11.5486 2.89454 13.0571 3.3943C14.1355 2.78808 15.3699 2.49417 16.6147 2.54726C17.3047 2.55532 17.9928 2.61764 18.6725 2.73361C19.8037 2.40424 20.9794 2.2415 22.1603 2.25079C24.7555 2.19444 27.2279 3.32318 28.8394 5.30013C29.9643 6.69775 29.4062 9.64544 28.9702 11.2718C28.3119 13.6778 27.308 15.9818 25.9882 18.1158C26.5283 18.1094 27.0661 18.0469 27.5925 17.9295C29.04 17.6415 29.4585 18.3953 29.5806 18.7342C30.034 20.081 28.0372 21.1059 27.4094 21.3854C26.407 21.7851 25.3267 21.9673 24.2443 21.919H24.2007H23.9129V22.1477V22.368C23.7996 24.9768 23.4508 26.6794 22.5788 27.8059C21.828 28.7485 20.7191 29.3588 19.5008 29.5C19.183 29.568 18.8584 29.6021 18.533 29.6017L18.5417 29.6355ZM16.4228 19.8607C17.0681 20.3605 17.1291 21.3176 17.1814 23.0879C17.1814 23.3166 17.1814 23.5199 17.1814 23.7232C17.1854 24.5787 17.2877 25.431 17.4866 26.2643C17.4866 26.349 17.5477 26.4337 17.5738 26.5184C17.8267 27.2638 17.9488 27.6365 19.03 27.3655C19.7074 27.3317 20.3396 27.0246 20.7739 26.5184C21.3058 25.7815 21.6458 24.3077 21.6458 22.1308H22.7532L21.7069 22.0884V21.8259C21.8115 20.9788 21.89 20.3181 22.4916 19.8946C22.9298 19.6255 23.4625 19.5428 23.9652 19.6659C23.6345 19.4461 23.4011 19.1135 23.3113 18.7342L23.2153 18.2937L23.4769 17.921C25.0014 15.7002 26.1386 13.2505 26.8427 10.6704C27.5141 8.12924 27.3135 6.80786 27.1042 6.55375C24.4012 3.1656 19.7101 4.58015 19.2567 4.74109L19.1782 4.78344L18.7597 4.85967L18.5504 4.81732C17.9131 4.6923 17.2649 4.62706 16.6147 4.6225C15.6297 4.56478 14.655 4.84344 13.8593 5.41025L13.3623 5.78294L12.7868 5.58812C11.5399 5.08837 7.86901 4.09734 5.93327 5.42719C4.86077 6.16411 4.37248 7.61255 4.48584 9.73014C4.74871 11.7403 5.19219 13.7243 5.8112 15.6594C6.9273 19.2085 7.93876 20.3859 8.36602 20.5214C8.43577 20.5214 8.6276 20.4028 8.81943 20.1741C10.0576 18.6664 11.2435 17.4467 11.2871 17.4467L11.9236 16.7944L12.6909 17.2942C12.9918 17.4911 13.3405 17.6079 13.7024 17.633L15.5422 16.1083L15.2719 18.7511C15.261 18.8468 15.261 18.9434 15.2719 19.0391L15.3503 19.5388L15.0103 19.92L14.9667 19.9624L15.9782 20.4198L16.4054 19.9031L16.4228 19.8607Z" fill="black"/>
<path d="M24.3925 18.5139C27.8105 13.6349 29.1969 7.42615 27.9762 5.90995C24.6366 1.76794 18.8643 3.72459 18.7684 3.77542C18.065 3.63798 17.3496 3.56706 16.6321 3.56366C15.4183 3.49841 14.219 3.84583 13.2402 4.54622C13.2402 4.54622 2.89889 0.429616 3.3959 9.73857C3.50053 11.7206 6.31693 24.7227 9.68267 20.7924C10.8947 19.3609 12.1154 18.1412 12.1154 18.1412C12.715 18.5338 13.4357 18.7133 14.1558 18.6494L14.2168 18.5986C14.1911 18.7841 14.1911 18.9721 14.2168 19.1576C13.3449 20.1063 13.6064 20.2673 11.8713 20.6145C10.1361 20.9618 11.1475 21.5886 11.8277 21.7496C13.2848 22.2053 14.8785 21.6995 15.7776 20.496L15.7253 20.6992C16.0653 20.9618 16.3095 22.3933 16.2659 23.7316C16.1624 24.713 16.2332 25.7043 16.4752 26.6624C16.7455 27.3654 17.0071 28.9579 19.2916 28.4835C21.1924 28.0854 22.1777 27.0605 22.3172 25.3495C22.4132 24.1382 22.6311 24.3161 22.6486 23.2234L22.823 22.7067C23.0235 21.0635 22.823 20.5298 24.0263 20.7755L24.3227 20.8348C25.2158 20.8645 26.1058 20.7175 26.9386 20.4028C28.3686 19.759 29.2144 18.7087 27.8105 18.9628C24.6105 19.5727 24.3925 18.5139 24.3925 18.5139Z" fill="#336791"/>
<path d="M18.6551 28.9748C17.3693 28.969 16.2455 28.1304 15.9084 26.925C15.5509 26.078 15.4724 22.6898 15.5509 19.8692C15.5532 19.7748 15.594 19.6852 15.6643 19.6201C15.7346 19.5549 15.8287 19.5196 15.9259 19.5219C16.0238 19.5218 16.1174 19.5607 16.185 19.6295C16.2526 19.6984 16.2881 19.7911 16.2834 19.8861C16.1962 23.0964 16.2834 26.0102 16.5885 26.6624C16.7253 27.2485 17.1129 27.75 17.654 28.0411C18.1952 28.3323 18.8384 28.3854 19.4224 28.1871C21.114 27.8313 21.7505 27.213 22.0382 25.646C22.2562 24.4262 22.6835 20.9534 22.7358 20.2673C22.7425 20.1728 22.7877 20.0849 22.8613 20.0229C22.9349 19.9609 23.031 19.9299 23.1282 19.9369C23.2254 19.9434 23.3159 19.9873 23.3798 20.0589C23.4436 20.1304 23.4754 20.2237 23.4682 20.3181C23.4159 21.0381 22.9887 24.5025 22.7619 25.7646C22.4219 27.6111 21.5587 28.4581 19.5793 28.8817C19.2753 28.9432 18.9656 28.9744 18.6551 28.9748ZM8.36603 21.8512C8.19937 21.8516 8.03399 21.8229 7.87774 21.7665C6.63957 21.3684 5.47116 19.4202 4.38994 15.9728C3.73269 13.9345 3.26863 11.842 3.00353 9.72165C2.86402 7.07889 3.56158 5.2154 5.07878 4.16508C8.07829 2.10677 13.1269 4.0719 13.3362 4.16508C13.4266 4.20074 13.4986 4.26999 13.5363 4.35745C13.5739 4.44492 13.5741 4.54337 13.5367 4.63095C13.5 4.71879 13.4287 4.78877 13.3387 4.82534C13.2486 4.86192 13.1473 4.86207 13.0571 4.82577C13.0571 4.82577 8.16548 2.91146 5.49731 4.74106C4.19811 5.63892 3.60518 7.28218 3.75341 9.67083C4.0056 11.7335 4.45217 13.7692 5.0875 15.7526C6.05536 18.8358 7.15402 20.7755 8.10445 21.0804C8.25268 21.1313 8.71481 21.2753 9.36006 20.5214C10.5808 19.0899 11.7056 17.9803 11.723 17.9379C11.7904 17.8701 11.8833 17.8318 11.9803 17.8318C12.0773 17.8318 12.1701 17.8701 12.2375 17.9379C12.3073 18.0034 12.3467 18.0936 12.3467 18.1878C12.3467 18.282 12.3073 18.3722 12.2375 18.4377C12.2375 18.4377 11.1214 19.5727 9.91811 20.9788C9.557 21.4765 8.98289 21.788 8.35731 21.8258L8.36603 21.8512ZM24.3663 18.8358C24.2947 18.837 24.2245 18.8163 24.1658 18.7765C24.0069 18.6665 23.9614 18.4565 24.0612 18.2937C27.4879 13.3385 28.6825 7.36688 27.6623 6.09632C26.3587 4.47294 24.3401 3.54591 22.2213 3.59756C21.1041 3.57022 19.99 3.72483 18.9254 4.05496H18.8643C18.6813 4.13917 18.4627 4.06332 18.376 3.88555C18.2894 3.70779 18.3674 3.49542 18.5504 3.41121H18.6551C19.7802 3.05267 20.9588 2.87806 22.1429 2.89452C24.5113 2.84011 26.7696 3.86492 28.2465 5.66433C28.9266 6.51137 28.9266 8.46803 28.2465 11.0176C27.496 13.7487 26.2882 16.3414 24.6715 18.6918C24.6065 18.7943 24.4903 18.8556 24.3663 18.8528V18.8358ZM24.5407 21.1228C24.0496 21.1445 23.5607 21.0455 23.1194 20.8348C22.8951 20.7215 22.7467 20.5037 22.7271 20.2588C22.6399 18.7511 23.4944 18.4885 23.9304 18.3699L23.6949 18.0734C23.3387 17.6617 23.045 17.2025 22.823 16.7097C22.7794 16.6081 22.6486 16.3794 22.5004 16.1168C21.672 14.6768 19.9543 11.6868 21.0616 10.1875C21.5674 9.47601 22.5876 9.20495 24.0873 9.34048C23.6426 8.04451 21.5412 3.96179 16.5711 3.89402C15.2146 3.81646 13.8876 4.29949 12.9176 5.22387C10.8511 7.2483 10.9296 10.916 10.9296 10.9499C10.9296 11.1463 10.7656 11.3056 10.5634 11.3056C10.3611 11.3056 10.1971 11.1463 10.1971 10.9499C10.1971 10.7804 10.1099 6.93489 12.3944 4.69024C13.5043 3.62832 15.0245 3.07148 16.5798 3.1571C19.0498 3.17534 21.3868 4.24697 22.9712 6.08785C23.9042 7.09369 24.5689 8.30652 24.9069 9.62C24.9517 9.83385 24.8183 10.0448 24.6018 10.1028H24.4623C22.9974 9.87411 22.0557 10.0351 21.6633 10.5772C20.7913 11.7376 22.448 14.5667 23.1369 15.778C23.2726 15.9937 23.3949 16.2172 23.5031 16.4471C23.6933 16.879 23.9522 17.2792 24.2704 17.633C24.4763 17.8426 24.6313 18.0945 24.7238 18.3699C24.7238 18.4207 25.186 19.0306 27.7234 18.5224C28.3686 18.3953 28.7435 18.5224 28.8656 18.8527C29.0923 19.5219 27.8018 20.3096 27.1217 20.6315C26.3132 20.9503 25.4481 21.1114 24.5756 21.1058L24.5407 21.1228ZM23.4508 20.2249C23.8659 20.4065 24.326 20.4683 24.7762 20.4028C25.4644 20.3786 26.143 20.2382 26.7816 19.9878C27.2277 19.7957 27.6374 19.5323 27.9937 19.2085H27.8803C26.2498 19.5304 25.0988 19.488 24.4535 19.0814L24.3227 19.0221L24.1484 19.0814C23.7821 19.1746 23.4072 19.2847 23.4508 20.2249ZM12.9874 22.2155C12.5612 22.2133 12.1368 22.1621 11.723 22.063C11.2696 21.9529 10.511 21.6225 10.5198 21.0804C10.5285 20.5383 11.444 20.2927 11.7841 20.2334C13.0223 19.9878 13.1007 19.8861 13.4844 19.3864C13.5977 19.2508 13.7373 19.073 13.9291 18.8697C14.1509 18.589 14.4894 18.4184 14.8534 18.4038C15.0379 18.4095 15.2191 18.4527 15.3852 18.5308C15.8159 18.7195 16.1362 19.0867 16.2572 19.5304C16.3836 19.9078 16.3224 20.3209 16.0915 20.6484C15.3971 21.6481 14.2286 22.238 12.9874 22.2155ZM11.3219 21.1143C11.4948 21.2349 11.6903 21.3212 11.8974 21.3684C12.2534 21.4581 12.6196 21.5036 12.9874 21.504C13.9844 21.527 14.9247 21.0544 15.4812 20.2503C15.5796 20.0986 15.602 19.9118 15.5422 19.7421C15.4802 19.5128 15.322 19.3192 15.1062 19.2085C15.0278 19.1674 14.9419 19.1415 14.8534 19.1322C14.8534 19.1322 14.6877 19.1322 14.4784 19.3609C14.2691 19.5896 14.1732 19.7082 14.0686 19.8438C13.5803 20.4367 13.3623 20.64 11.9323 20.928C11.711 20.9556 11.4959 21.0185 11.2958 21.1143H11.3219ZM14.1471 19.4626C13.9663 19.4575 13.8137 19.3305 13.7809 19.1577C13.7809 19.0984 13.7809 19.0391 13.7809 18.9798C12.8207 18.9541 11.9107 18.5579 11.2522 17.8786C10.3723 16.9722 9.97313 15.7215 10.171 14.4905C10.3066 13.4341 10.3358 12.3675 10.2582 11.3056C10.2511 11.173 10.2511 11.0401 10.2582 10.9075C10.2582 10.7974 10.2582 10.4925 11.2871 9.9927C11.8832 9.69018 12.5297 9.49232 13.1966 9.40824C13.7444 9.31291 14.3087 9.43623 14.7616 9.75031C15.2146 10.0644 15.518 10.5427 15.6032 11.0769C16.3095 14.2618 15.6555 15.6763 15.176 16.7012C15.0888 16.8961 15.0016 17.0739 14.9405 17.2518L14.8795 17.4043C14.6197 17.9186 14.4826 18.4832 14.4784 19.056C14.5049 19.249 14.3705 19.4281 14.1732 19.4626H14.1471ZM10.9557 11.0515V11.3056C11.0422 12.4152 11.013 13.5305 10.8685 14.6345C10.7104 15.6334 11.0317 16.6476 11.7405 17.3873C12.2836 17.9288 13.0288 18.2342 13.807 18.2344C13.9068 17.8569 14.032 17.4862 14.1819 17.1248L14.243 16.9638C14.3127 16.769 14.4087 16.5742 14.4959 16.3794C14.958 15.3883 15.5335 14.1517 14.8708 11.1955C14.8092 10.6835 14.4209 10.2655 13.9029 10.1536C12.8333 10.0749 11.7706 10.3759 10.9121 11.0007L10.9557 11.0515ZM13.8244 11.5343H13.7373C13.5096 11.4986 13.3059 11.3768 13.1705 11.1955C13.0994 11.1086 13.0596 11.0015 13.0571 10.8906C13.0571 10.7296 13.2838 10.628 13.6065 10.628H13.8332C13.9943 10.6462 14.1507 10.6921 14.2953 10.7635C14.5046 10.8821 14.522 11.0091 14.5133 11.0684C14.4064 11.3471 14.1305 11.5302 13.8244 11.5258V11.5343ZM23.3549 10.6873C23.3549 10.8143 23.1194 11.1447 22.7794 11.1955C22.512 11.2265 22.2547 11.0861 22.1429 10.8482C22.1429 10.7212 22.3783 10.5856 22.7184 10.5348C23.0584 10.484 23.3113 10.5179 23.3287 10.6703L23.3549 10.6873ZM22.7009 11.2548C22.4295 11.2598 22.1831 11.1013 22.0818 10.8567C22.0818 10.6703 22.3783 10.5263 22.7096 10.4755H22.9189C23.2066 10.4755 23.3985 10.5517 23.4159 10.6873C23.4064 10.8158 23.3434 10.9351 23.2415 11.0176C23.1218 11.1451 22.9627 11.2313 22.7881 11.2633L22.7009 11.2548ZM22.7009 10.5941C22.3609 10.6364 22.169 10.772 22.1777 10.8397C22.2728 11.0215 22.4649 11.136 22.6748 11.1362H22.7445C22.8935 11.1103 23.0289 11.0355 23.1282 10.9244C23.2004 10.8625 23.2494 10.7791 23.2677 10.6873C23.2677 10.6449 23.1369 10.5856 22.8927 10.5856L22.7009 10.5941ZM23.8083 17.938C23.7367 17.9392 23.6665 17.9184 23.6077 17.8786C23.5246 17.8267 23.4665 17.7443 23.4468 17.6502C23.4271 17.5561 23.4474 17.4582 23.5031 17.3789C24.1066 16.3522 24.2873 15.1416 24.0088 13.9907C23.935 13.5113 23.9 13.027 23.9042 12.5423C23.9197 12.1133 23.9663 11.6859 24.0437 11.2633C24.1342 10.7886 24.1722 10.3058 24.1571 9.82329C24.1493 9.69619 24.2119 9.57471 24.3213 9.50461C24.4307 9.43451 24.5703 9.42644 24.6875 9.48343C24.8047 9.54043 24.8817 9.65384 24.8895 9.78094C24.9101 10.3033 24.8691 10.8262 24.7674 11.3395C24.7029 11.7352 24.6593 12.1338 24.6366 12.5338C24.6357 12.9816 24.6677 13.4288 24.7326 13.8721C25.0512 15.1999 24.8294 16.5959 24.1135 17.7685C24.0385 17.8558 23.9251 17.903 23.8083 17.8956V17.938Z" fill="white"/>
</svg>
