<svg width="32" height="32" viewBox="0 0 32 32" fill="none" xmlns="http://www.w3.org/2000/svg">
<path d="M18.8058 7.61803C16.126 8.80984 13.4538 9.99856 10.7552 11.1987C11.5939 11.6037 12.3956 11.9907 13.1966 12.3774C15.7427 11.0918 18.2733 9.81392 20.8301 8.52278C20.142 8.21525 19.481 7.91972 18.8058 7.61803ZM26.816 11.1931C25.6213 10.66 24.4503 10.1375 23.2827 9.61649C20.7064 10.9176 18.1416 12.2128 15.556 13.5185C16.6593 14.0515 17.7308 14.5691 18.7982 15.0845C21.4762 13.7848 24.1371 12.4934 26.816 11.1931ZM18.0576 16.1578C16.9855 15.64 15.9163 15.1237 14.8139 14.5911V17.4193C14.0146 17.0336 13.242 16.6604 12.4668 16.2864V13.4566C11.6386 13.0562 10.8127 12.6572 9.98405 12.2567V20.4447C12.6821 21.7367 15.3608 23.0194 18.0576 24.3107V16.1578ZM27.6201 20.4157V12.2356C24.8991 13.5559 22.2103 14.8608 19.535 16.1592V24.365C22.2513 23.0382 24.9462 21.7218 27.6201 20.4157ZM8.52307 10.7873C11.9386 9.26829 15.3678 7.74324 18.8065 6.21387C22.2236 7.73892 25.64 9.26352 29.0782 10.7978V21.1378C25.6973 22.7895 22.2872 24.4553 18.8672 26.126C15.4249 24.4776 11.9836 22.8296 8.52307 21.1726V10.7873Z" fill="#53BAD3"/>
<path d="M29.002 2.5745C28.6767 1.90692 28.3642 1.26612 28.043 0.607006C28.5444 0.428829 29.0396 0.252807 29.5566 0.0690855C30.3726 1.74075 31.1831 3.40117 32 5.07438C29.9376 5.22176 27.8999 5.36744 25.8355 5.51497C25.7907 5.05451 25.7462 4.59898 25.6999 4.12312C26.5927 4.05844 27.4671 3.9953 28.3412 3.93201C26.1333 2.62656 23.6993 1.81606 21.0428 1.53917C16.2054 1.03497 11.8322 2.0412 8.03012 4.65103C0.536917 9.79462 -0.423274 19.0286 5.51046 25.2355C11.6551 31.6633 23.2233 32.5804 30.6525 26.5331C31.027 26.865 31.4014 27.197 31.7761 27.5291C25.6916 32.6281 15.4223 33.7497 7.6553 28.8809C-0.249055 23.9258 -2.35341 14.6291 2.85345 7.5567C5.62522 3.79141 9.59068 1.37531 14.6875 0.406191C19.7778 -0.561697 24.5464 0.215385 29.002 2.5745Z" fill="#53BAD3"/>
</svg>
