<svg width="32" height="32" viewBox="0 0 32 32" fill="none" xmlns="http://www.w3.org/2000/svg">
<path d="M26.3628 5.89612L15.8866 8.43115V23.0268L26.3628 25.5605V5.89612Z" fill="#205B98"/>
<path d="M28.3718 24.5599L26.3563 25.5682V5.89612L28.3718 6.90448V24.5599Z" fill="#5294CF"/>
<path d="M5.41284 5.89612L15.8865 8.43115V23.0268L5.41284 25.5605V5.89612Z" fill="#5294CF"/>
<path d="M3.40002 24.5599L5.41291 25.5682V5.89612L3.40002 6.90448V24.5599Z" fill="#205B98"/>
<path d="M22.5462 3.98851L18.5666 2L17.3184 15.087L18.5666 29.5171L22.5462 27.5312V3.98851Z" fill="#5294CF"/>
<path d="M9.22571 3.98851L13.2066 2L14.4536 15.0421L13.2066 29.5171L9.22571 27.5312V3.98851Z" fill="#205B98"/>
<path d="M13.2067 2H18.5705V29.5171H13.2067V2Z" fill="#2D72B8"/>
</svg>
