<svg width="32" height="32" viewBox="0 0 32 32" fill="none" xmlns="http://www.w3.org/2000/svg">
<path d="M30 4.69498C29.9996 4.64995 29.9951 4.60506 29.9866 4.56085C29.9866 4.54743 29.9799 4.53536 29.9759 4.52195C29.9718 4.50853 29.9584 4.46159 29.9477 4.43208L29.9276 4.38916C29.9151 4.36356 29.9007 4.3389 29.8846 4.31538C29.8753 4.30063 29.8659 4.28588 29.8551 4.27112L29.8364 4.24564C29.8256 4.23356 29.8136 4.22417 29.8028 4.21344L29.776 4.18125L29.7545 4.1665C29.7349 4.14969 29.7143 4.13401 29.6928 4.11955L29.6405 4.08602C29.6175 4.07393 29.5937 4.06318 29.5694 4.05383L29.5131 4.03103C29.4876 4.02298 29.4608 4.01895 29.4353 4.01359L29.3776 4.00152C29.3459 3.99949 29.3141 3.99949 29.2824 4.00152H29.2287C28.8693 4.03371 24.1197 4.48707 18.7812 6.86791C15.5755 8.29373 13.094 10.4828 11.5327 13.1399L11.1303 13.3143C5.41499 15.8655 2 20.8243 2 26.5799V26.6765C2 26.947 2.15719 27.1928 2.4024 27.3069C2.49457 27.3491 2.59475 27.3713 2.69614 27.3713H21.6691C21.7059 27.3713 21.7428 27.3684 21.7791 27.3619L21.8274 27.3498C21.8502 27.3431 21.873 27.3391 21.8958 27.331C21.9186 27.323 21.9293 27.315 21.9467 27.3069C21.9642 27.2989 21.987 27.2908 22.0057 27.2801C22.0412 27.2592 22.0748 27.2354 22.1063 27.209L29.7519 20.7626C29.9101 20.6296 30.0006 20.4328 29.9987 20.2261V4.69498H30ZM23.0869 24.5612L22.3531 25.1796V11.4646L28.6091 6.19189V19.9069L23.0869 24.5612ZM10.5965 20.9249H20.9622V25.9803H4.59813L10.5965 20.9249ZM19.3459 8.13948C21.7892 7.06368 24.3451 6.26422 26.9659 5.75596L21.374 10.4707C18.7928 10.7856 16.2541 11.3834 13.8036 12.2533C15.1878 10.5632 17.0549 9.16156 19.3459 8.13948ZM12.4743 14.2532C15.1975 13.1323 18.0482 12.3507 20.9622 11.926V19.534H11.0526C11.124 17.6893 11.61 15.8844 12.4743 14.2532ZM10.5657 15.1412C9.9796 16.6619 9.66805 18.2746 9.64551 19.9042L3.47545 25.1112C3.94223 20.8807 6.45451 17.3423 10.5657 15.1412Z" fill="#3C72FF"/>
</svg>
