<?xml version="1.0" encoding="UTF-8" standalone="no"?>
<svg
   height="273"
   width="273"
   version="1.1"
   id="svg3"
   xmlns="http://www.w3.org/2000/svg"
   xmlns:svg="http://www.w3.org/2000/svg">
  <defs
     id="defs1">
    <path
       d="M 0.06,0.5 H 272.164 V 190.94 H 0.06 Z"
       id="a" />
  </defs>
  <g
     fill="none"
     fill-rule="evenodd"
     id="g3"
     transform="translate(0.388,40.78)">
    <mask
       fill="#ffffff"
       id="b">
      <use
         href="#a"
         id="use1" />
    </mask>
    <path
       d="m 113.258,21.277 c 8.777,-9.144 20.998,-14.818 34.513,-14.818 17.965,0 33.641,10.018 41.986,24.892 a 58,58 0 0 1 23.733,-5.046 c 32.404,0 58.674,26.499 58.674,59.189 0,32.69 -26.27,59.19 -58.674,59.19 -3.957,0 -7.821,-0.398 -11.559,-1.152 -7.349,13.109 -21.359,21.968 -37.435,21.968 a 42.668,42.668 0 0 1 -18.765,-4.319 C 138.281,178.71 120.917,191 100.686,191 79.613,191 61.653,177.668 54.764,158.97 a 45.117,45.117 0 0 1 -9.338,0.972 C 20.337,159.942 0,139.392 0,114.043 0,97.053 9.136,82.22 22.715,74.285 A 52.55,52.55 0 0 1 18.366,53.291 C 18.366,24.136 42.033,0.5 71.227,0.5 c 17.14,0 32.373,8.148 42.031,20.777"
       fill="#00a1e0"
       mask="url(#b)"
       id="path1" />
    <path
       d="m 39.42,99.289 c -0.171,0.446 0.061,0.539 0.116,0.618 0.511,0.37 1.03,0.638 1.554,0.939 2.775,1.469 5.398,1.9 8.138,1.9 5.583,0 9.051,-2.968 9.051,-7.748 v -0.094 c 0,-4.42 -3.915,-6.026 -7.584,-7.185 l -0.479,-0.155 c -2.767,-0.898 -5.155,-1.675 -5.155,-3.498 v -0.093 c 0,-1.561 1.396,-2.708 3.559,-2.708 2.405,0 5.255,0.799 7.093,1.814 0,0 0.542,0.35 0.739,-0.173 0.107,-0.283 1.036,-2.785 1.135,-3.056 0.106,-0.293 -0.08,-0.514 -0.271,-0.628 -2.099,-1.279 -4.998,-2.149 -7.999,-2.149 l -0.557,0.002 c -5.11,0 -8.678,3.09 -8.678,7.512 v 0.095 c 0,4.66 3.936,6.175 7.623,7.228 l 0.592,0.184 c 2.685,0.824 5.004,1.536 5.004,3.425 v 0.094 c 0,1.73 -1.507,3.015 -3.934,3.015 -0.941,0 -3.945,-0.016 -7.191,-2.069 -0.393,-0.229 -0.617,-0.394 -0.92,-0.579 -0.16,-0.097 -0.56,-0.272 -0.734,0.252 l -1.102,3.057 m 81.73,0 c -0.171,0.446 0.061,0.539 0.118,0.618 0.509,0.37 1.029,0.638 1.552,0.939 2.776,1.469 5.399,1.9 8.138,1.9 5.583,0 9.052,-2.968 9.052,-7.748 v -0.094 c 0,-4.42 -3.914,-6.026 -7.584,-7.185 l -0.479,-0.155 c -2.767,-0.898 -5.156,-1.675 -5.156,-3.498 v -0.093 c 0,-1.561 1.397,-2.708 3.561,-2.708 2.404,0 5.253,0.799 7.091,1.814 0,0 0.542,0.35 0.74,-0.173 0.106,-0.283 1.036,-2.785 1.134,-3.056 0.107,-0.293 -0.08,-0.514 -0.27,-0.628 -2.1,-1.279 -4.998,-2.149 -7.999,-2.149 l -0.558,0.002 c -5.109,0 -8.677,3.09 -8.677,7.512 v 0.095 c 0,4.66 3.935,6.175 7.623,7.228 l 0.591,0.184 c 2.686,0.824 5.005,1.536 5.005,3.425 v 0.094 c 0,1.73 -1.508,3.015 -3.933,3.015 -0.943,0 -3.947,-0.016 -7.192,-2.069 -0.393,-0.229 -0.623,-0.387 -0.921,-0.579 -0.101,-0.064 -0.572,-0.248 -0.733,0.252 l -1.103,3.057 m 55.795,-9.364 c 0,2.7 -0.504,4.832 -1.494,6.335 -0.984,1.49 -2.469,2.215 -4.54,2.215 -2.071,0 -3.548,-0.724 -4.516,-2.213 -0.977,-1.504 -1.473,-3.637 -1.473,-6.337 0,-2.698 0.496,-4.823 1.473,-6.311 0.968,-1.475 2.445,-2.191 4.516,-2.191 2.071,0 3.556,0.717 4.54,2.192 0.992,1.487 1.494,3.612 1.494,6.31 m 4.662,-5.007 c -0.459,-1.549 -1.172,-2.912 -2.121,-4.049 -0.951,-1.14 -2.154,-2.057 -3.58,-2.721 -1.424,-0.665 -3.104,-1.002 -4.995,-1.002 -1.891,0 -3.572,0.337 -4.997,1.002 -1.424,0.664 -2.628,1.581 -3.579,2.723 -0.948,1.139 -1.663,2.5 -2.12,4.047 -0.455,1.537 -0.686,3.222 -0.686,5.007 0,1.786 0.231,3.472 0.686,5.007 0.457,1.546 1.17,2.908 2.121,4.049 0.951,1.142 2.158,2.051 3.58,2.699 1.426,0.648 3.106,0.978 4.995,0.978 1.89,0 3.568,-0.33 4.993,-0.978 1.424,-0.648 2.629,-1.557 3.582,-2.699 0.949,-1.137 1.662,-2.501 2.121,-4.049 0.454,-1.538 0.685,-3.223 0.685,-5.007 0,-1.783 -0.231,-3.469 -0.685,-5.007 m 38.267,12.834 c -0.153,-0.453 -0.595,-0.282 -0.595,-0.282 -0.677,0.259 -1.397,0.499 -2.167,0.619 -0.776,0.122 -1.635,0.183 -2.554,0.183 -2.253,0 -4.048,-0.671 -5.329,-1.997 -1.287,-1.327 -2.01,-3.471 -2.002,-6.371 0.007,-2.636 0.645,-4.622 1.789,-6.136 1.134,-1.504 2.866,-2.276 5.169,-2.276 1.923,0 3.39,0.223 4.927,0.705 0,0 0.365,0.159 0.54,-0.322 0.409,-1.133 0.711,-1.939 1.147,-3.184 0.124,-0.355 -0.18,-0.505 -0.291,-0.548 -0.604,-0.236 -2.031,-0.623 -3.108,-0.786 -1.007,-0.154 -2.184,-0.234 -3.497,-0.234 -1.957,0 -3.702,0.335 -5.194,0.999 -1.489,0.663 -2.752,1.579 -3.753,2.718 -1.001,1.141 -1.763,2.504 -2.267,4.05 -0.505,1.538 -0.76,3.226 -0.76,5.016 0,3.865 1.043,6.988 3.1,9.276 2.064,2.296 5.16,3.462 9.201,3.462 2.387,0 4.836,-0.483 6.6,-1.177 0,0 0.336,-0.162 0.19,-0.554 l -1.146,-3.161 m 8.154,-10.416 c 0.223,-1.501 0.634,-2.748 1.275,-3.722 0.967,-1.475 2.439,-2.288 4.51,-2.288 2.072,0 3.437,0.814 4.421,2.289 0.65,0.975 0.934,2.274 1.045,3.723 z m 15.689,-3.297 c -0.397,-1.494 -1.375,-3.003 -2.018,-3.693 -1.015,-1.094 -2.009,-1.86 -2.996,-2.283 a 11.51,11.51 0 0 0 -4.517,-0.917 c -1.969,0 -3.758,0.333 -5.209,1.013 -1.453,0.682 -2.674,1.614 -3.631,2.772 -0.959,1.157 -1.678,2.534 -2.137,4.096 -0.46,1.553 -0.692,3.246 -0.692,5.034 0,1.818 0.241,3.513 0.715,5.037 0.479,1.537 1.248,2.886 2.286,4.009 1.037,1.127 2.372,2.011 3.967,2.627 1.587,0.615 3.515,0.934 5.726,0.927 4.558,-0.015 6.955,-1.031 7.945,-1.578 0.175,-0.098 0.34,-0.267 0.134,-0.754 l -1.032,-2.888 c -0.158,-0.431 -0.594,-0.275 -0.594,-0.275 -1.131,0.422 -2.732,1.175 -6.476,1.167 -2.446,-0.004 -4.258,-0.727 -5.397,-1.856 -1.165,-1.155 -1.737,-2.851 -1.834,-5.247 l 15.772,0.012 c 0,0 0.416,-0.004 0.459,-0.41 0.017,-0.168 0.541,-3.24 -0.471,-6.793 z m -142.028,3.297 c 0.223,-1.501 0.635,-2.748 1.275,-3.722 0.968,-1.475 2.438,-2.288 4.511,-2.288 2.072,0 3.437,0.814 4.421,2.289 0.649,0.975 0.933,2.274 1.044,3.723 z m 15.689,-3.297 c -0.396,-1.494 -1.375,-3.003 -2.017,-3.693 -1.015,-1.094 -2.008,-1.86 -2.996,-2.283 a 11.522,11.522 0 0 0 -4.517,-0.917 c -1.969,0 -3.758,0.333 -5.209,1.013 -1.453,0.682 -2.674,1.614 -3.633,2.772 -0.957,1.157 -1.676,2.534 -2.137,4.096 -0.459,1.553 -0.69,3.246 -0.69,5.034 0,1.818 0.239,3.513 0.716,5.037 0.478,1.537 1.248,2.886 2.284,4.009 1.038,1.127 2.372,2.011 3.967,2.627 1.588,0.615 3.514,0.934 5.727,0.927 4.557,-0.015 6.955,-1.031 7.945,-1.578 0.174,-0.098 0.34,-0.267 0.133,-0.754 l -1.031,-2.888 c -0.159,-0.431 -0.595,-0.275 -0.595,-0.275 -1.13,0.422 -2.731,1.175 -6.476,1.167 -2.445,-0.004 -4.258,-0.727 -5.397,-1.856 -1.164,-1.155 -1.737,-2.851 -1.834,-5.247 l 15.773,0.012 c 0,0 0.416,-0.004 0.459,-0.41 0.017,-0.168 0.541,-3.24 -0.472,-6.793 z M 67.592,97.666 c -0.619,-0.494 -0.705,-0.615 -0.91,-0.936 -0.313,-0.483 -0.473,-1.171 -0.473,-2.052 0,-1.385 0.46,-2.383 1.408,-3.053 -0.01,0.002 1.36,-1.182 4.575,-1.14 a 31.98,31.98 0 0 1 4.283,0.365 v 7.17 h 0.002 c 0,0 -2.005,0.431 -4.262,0.567 -3.208,0.193 -4.633,-0.924 -4.623,-0.921 z M 73.869,86.58 c -0.64,-0.047 -1.469,-0.07 -2.463,-0.07 -1.351,0 -2.658,0.168 -3.885,0.498 -1.232,0.332 -2.34,0.846 -3.293,1.527 a 7.633,7.633 0 0 0 -2.289,2.602 c -0.559,1.041 -0.844,2.264 -0.844,3.635 0,1.399 0.243,2.611 0.723,3.601 a 6.543,6.543 0 0 0 2.057,2.47 c 0.877,0.638 1.959,1.106 3.214,1.392 1.239,0.283 2.643,0.426 4.177,0.426 1.62,0 3.231,-0.136 4.792,-0.399 a 95.06,95.06 0 0 0 3.973,-0.772 c 0.526,-0.121 1.106,-0.28 1.106,-0.28 0.39,-0.099 0.36,-0.516 0.36,-0.516 L 81.488,86.268 c 0,-3.164 -0.844,-5.508 -2.507,-6.964 -1.655,-1.449 -4.092,-2.181 -7.245,-2.181 -1.184,0 -3.086,0.16 -4.228,0.389 0,0 -3.444,0.668 -4.862,1.779 0,0 -0.312,0.192 -0.142,0.627 l 1.117,3 c 0.139,0.389 0.518,0.256 0.518,0.256 0,0 0.119,-0.047 0.259,-0.13 3.034,-1.65 6.873,-1.601 6.873,-1.601 1.704,0 3.017,0.345 3.899,1.02 0.861,0.661 1.298,1.656 1.298,3.759 v 0.667 C 75.115,86.693 73.869,86.58 73.869,86.58 Z m 127.235,-8.127 a 0.428,0.428 0 0 0 -0.237,-0.568 c -0.269,-0.102 -1.61,-0.385 -2.644,-0.449 -1.983,-0.124 -3.082,0.21 -4.068,0.654 -0.978,0.441 -2.061,1.154 -2.665,1.967 l -0.002,-1.924 c 0,-0.264 -0.187,-0.477 -0.453,-0.477 h -4.044 c -0.262,0 -0.452,0.213 -0.452,0.477 v 23.532 a 0.48,0.48 0 0 0 0.479,0.479 h 4.145 a 0.479,0.479 0 0 0 0.478,-0.479 V 89.91 c 0,-1.579 0.174,-3.152 0.521,-4.141 0.342,-0.979 0.807,-1.759 1.383,-2.32 a 4.786,4.786 0 0 1 1.948,-1.172 7.681,7.681 0 0 1 2.116,-0.298 c 0.825,0 1.733,0.212 1.733,0.212 0.304,0.034 0.473,-0.152 0.576,-0.426 0.271,-0.721 1.039,-2.882 1.186,-3.312"
       fill="#fffffe"
       id="path2" />
    <path
       d="m 162.201,67.548 a 13.258,13.258 0 0 0 -1.559,-0.37 12.217,12.217 0 0 0 -2.144,-0.166 c -2.853,0 -5.102,0.806 -6.681,2.398 -1.568,1.58 -2.635,3.987 -3.17,7.154 l -0.193,1.069 h -3.581 c 0,0 -0.437,-0.018 -0.529,0.459 l -0.588,3.28 c -0.041,0.314 0.094,0.51 0.514,0.508 h 3.486 l -3.537,19.743 c -0.277,1.59 -0.594,2.898 -0.945,3.889 -0.346,0.978 -0.684,1.711 -1.1,2.243 -0.403,0.515 -0.785,0.894 -1.444,1.115 -0.544,0.183 -1.17,0.267 -1.856,0.267 -0.382,0 -0.89,-0.064 -1.265,-0.139 -0.375,-0.074 -0.57,-0.158 -0.851,-0.276 0,0 -0.409,-0.156 -0.57,0.254 -0.131,0.335 -1.06,2.89 -1.17,3.206 -0.112,0.312 0.045,0.558 0.243,0.629 0.464,0.166 0.809,0.272 1.441,0.421 0.878,0.207 1.618,0.22 2.311,0.22 1.452,0 2.775,-0.204 3.872,-0.6 1.104,-0.399 2.065,-1.094 2.915,-2.035 0.919,-1.015 1.497,-2.078 2.05,-3.528 0.547,-1.437 1.013,-3.221 1.386,-5.3 L 152.79,81.88 h 5.196 c 0,0 0.438,0.016 0.529,-0.459 l 0.588,-3.28 c 0.041,-0.314 -0.093,-0.51 -0.515,-0.508 h -5.043 c 0.025,-0.114 0.254,-1.888 0.833,-3.558 0.247,-0.713 0.712,-1.288 1.106,-1.683 a 3.273,3.273 0 0 1 1.321,-0.822 5.48,5.48 0 0 1 1.693,-0.244 c 0.475,0 0.941,0.057 1.296,0.131 0.489,0.104 0.679,0.159 0.807,0.197 0.514,0.157 0.583,0.005 0.684,-0.244 l 1.206,-3.312 c 0.124,-0.356 -0.178,-0.506 -0.29,-0.55 m -70.474,34.117 c 0,0.264 -0.188,0.479 -0.452,0.479 h -4.183 c -0.265,0 -0.453,-0.215 -0.453,-0.479 V 67.997 c 0,-0.263 0.188,-0.476 0.453,-0.476 h 4.183 c 0.264,0 0.452,0.213 0.452,0.476 v 33.668"
       fill="#fffffe"
       id="path3" />
  </g>
</svg>
