<svg width="32" height="32" viewBox="0 0 32 32" fill="none" xmlns="http://www.w3.org/2000/svg">
<path d="M2 11.2969H11.3511V20.648H2V11.2969Z" fill="white"/>
<path d="M2 11.2969H11.3511V20.648H2V11.2969Z" fill="#99E1F4"/>
<path d="M11.3511 20.6489H20.648V29.9458H11.3511V20.6489Z" fill="white"/>
<path d="M11.3511 20.6489H20.648V29.9458H11.3511V20.6489Z" fill="#99E1F4"/>
<path d="M2 29.9462H11.3511V30H2V29.9462ZM2 20.6493H11.3511V29.9462H2V20.6493Z" fill="#1A82E2"/>
<path d="M11.3511 2H20.648V11.2969H11.3511V2ZM20.6489 11.3511H30V20.648H20.6489V11.3511Z" fill="#00B3E3"/>
<path d="M11.3511 20.6489H20.648V11.2969H11.3511V20.6489Z" fill="#009DD9"/>
<path d="M20.6489 2H30V11.2969H20.6489V2Z" fill="#1A82E2"/>
<path d="M20.6489 11.2969H30V11.3507H20.6489V11.2969Z" fill="#1A82E2"/>
</svg>
