<svg width="32" height="32" viewBox="0 0 32 32" fill="none" xmlns="http://www.w3.org/2000/svg">
<path d="M25.3883 22.8192L19.7788 19.5406C18.9907 19.0816 17.983 19.3546 17.5268 20.1519C17.3501 20.466 17.2809 20.8115 17.3143 21.1473V27.5547C17.3143 28.4704 18.0498 29.2146 18.9573 29.2146C19.8624 29.2146 20.5979 28.4704 20.5979 27.5547V23.8702L23.7406 25.7064C24.5286 26.1679 25.5388 25.8925 25.9925 25.0952C26.4486 24.2979 26.1788 23.2783 25.3883 22.8192Z" fill="#29B5E8"/>
<path d="M11.4373 15.7934C11.4469 15.2014 11.1388 14.6506 10.6325 14.3534L5.02299 11.0772C4.7794 10.9346 4.5 10.8597 4.2206 10.8597C3.64508 10.8597 3.11015 11.1714 2.82359 11.674C2.37941 12.4519 2.64448 13.4498 3.41344 13.8992L6.64686 15.7861L3.41344 17.6755C3.0409 17.8929 2.77344 18.2432 2.66359 18.6636C2.55135 19.084 2.60866 19.5238 2.82359 19.9007C3.11015 20.4032 3.64508 20.7149 4.21821 20.7149C4.5 20.7149 4.7794 20.64 5.02299 20.4974L10.6325 17.2212C11.134 16.9265 11.4421 16.3805 11.4373 15.7934Z" fill="#29B5E8"/>
<path d="M6.29576 8.75535L11.9053 12.0315C12.5596 12.4157 13.3668 12.2901 13.8826 11.7803C14.2098 11.4758 14.4128 11.041 14.4128 10.5577V3.99087C14.4128 3.07276 13.6772 2.32861 12.7722 2.32861C11.8647 2.32861 11.1292 3.07276 11.1292 3.99087V7.72852L7.94352 5.86815C7.15546 5.40668 6.1477 5.6797 5.69158 6.477C5.23546 7.2743 5.5077 8.29388 6.29576 8.75535Z" fill="#29B5E8"/>
<path d="M18.9095 16.0592C18.9095 16.1848 18.8379 16.3588 18.7495 16.4506L16.5263 18.6999C16.4379 18.7893 16.2636 18.8618 16.1394 18.8618H15.5734C15.4493 18.8618 15.2749 18.7893 15.1866 18.6999L12.9609 16.4506C12.8725 16.3588 12.8009 16.1848 12.8009 16.0592V15.4866C12.8009 15.3585 12.8725 15.1846 12.9609 15.0952L15.1866 12.8434C15.2749 12.754 15.4493 12.6815 15.5734 12.6815H16.1394C16.2636 12.6815 16.4379 12.754 16.5263 12.8434L18.7495 15.0952C18.8379 15.1846 18.9095 15.3585 18.9095 15.4866V16.0592ZM16.9251 15.7837V15.7596C16.9251 15.6678 16.8725 15.5397 16.8081 15.4721L16.1513 14.8101C16.0869 14.7424 15.9603 14.6893 15.8672 14.6893H15.8433C15.7525 14.6893 15.626 14.7424 15.5591 14.8101L14.9048 15.4721C14.8403 15.5373 14.7878 15.6654 14.7878 15.7596V15.7837C14.7878 15.878 14.8403 16.006 14.9048 16.0713L15.5591 16.7357C15.626 16.8009 15.7525 16.8541 15.8433 16.8541H15.8672C15.9603 16.8541 16.0869 16.8009 16.1513 16.7357L16.8081 16.0713C16.8725 16.006 16.9251 15.878 16.9251 15.7837Z" fill="#29B5E8"/>
<path d="M19.7787 12.0315L25.3883 8.75535C26.1763 8.2963 26.4486 7.2743 25.9924 6.477C25.5363 5.6797 24.5286 5.40668 23.7405 5.86815L20.5978 7.70436V3.99087C20.5978 3.07276 19.8623 2.32861 18.9572 2.32861C18.0498 2.32861 17.3142 3.07276 17.3142 3.99087V10.4273C17.2832 10.7607 17.3477 11.1086 17.5268 11.4227C17.9829 12.22 18.9907 12.493 19.7787 12.0315Z" fill="#29B5E8"/>
<path d="M13.0301 19.3474C12.6575 19.2749 12.2587 19.3353 11.9053 19.5407L6.29576 22.8193C5.5077 23.2783 5.23546 24.2979 5.69158 25.0952C6.1477 25.8949 7.15546 26.168 7.94352 25.7065L11.1292 23.8461V27.5548C11.1292 28.4705 11.8647 29.2146 12.7722 29.2146C13.6772 29.2146 14.4128 28.4705 14.4128 27.5548V20.9879C14.4128 20.1592 13.8134 19.473 13.0301 19.3474Z" fill="#29B5E8"/>
<path d="M28.894 11.6546C28.4402 10.8549 27.4301 10.5819 26.642 11.0433L21.0325 14.3195C20.4952 14.6336 20.199 15.2086 20.2086 15.7933C20.2038 16.3756 20.4999 16.9434 21.0325 17.2526L26.642 20.5312C27.4301 20.9903 28.4378 20.7173 28.894 19.92C29.3501 19.1227 29.0778 18.1031 28.2898 17.6416L25.1137 15.7861L28.2898 13.9305C29.0802 13.4715 29.3501 12.4519 28.894 11.6546Z" fill="#29B5E8"/>
</svg>
