<svg width="32" height="32" viewBox="0 0 32 32" fill="none" xmlns="http://www.w3.org/2000/svg">
<path d="M24.9725 26.5467C24.6517 28.0277 24.6517 28.029 23.2719 28.0292C20.4545 28.0296 17.6371 28.0338 14.8198 28.0255C13.6575 28.0221 13.593 27.9163 13.8981 26.7797C15.9093 19.2882 17.94 11.8017 19.9021 4.29736C20.1677 3.2813 20.5876 2.97583 21.6157 3.00147C24.4636 3.07247 27.3146 3.02042 30.1643 3.02123C30.4814 3.02132 30.8108 2.96415 31.2648 3.22468C29.1798 10.9576 27.0886 18.7139 24.9725 26.5467Z" fill="black"/>
<path d="M3.33278 18.7497C4.67047 13.7409 5.98385 8.80784 7.299 3.87528C7.41832 3.42777 7.53857 3.01926 8.15869 3.02322C11.4287 3.04412 14.6988 3.03867 17.9688 3.04805C18.0919 3.0484 18.2147 3.10732 18.4295 3.16256C18.2958 4.42918 17.8515 5.6062 17.5318 6.8068C15.7438 13.5198 13.9265 20.225 12.1545 26.9421C11.9459 27.7328 11.6154 28.0606 10.7677 28.0476C7.82187 28.0025 4.87484 28.0112 1.92865 28.0385C1.09375 28.0463 0.842013 27.8315 1.09245 26.9623C1.8706 24.2614 2.57558 21.5395 3.33278 18.7497Z" fill="black"/>
</svg>
