<svg width="32" height="32" viewBox="0 0 32 32" fill="none" xmlns="http://www.w3.org/2000/svg">
<path d="M18.8964 14.7021L13.544 16.4795L8.88752 18.5696L7.5848 18.9193C7.25303 19.2402 6.90515 19.5653 6.5289 19.8944C6.11625 20.2565 5.73192 20.5857 5.43655 20.8242C5.10887 21.0876 4.62339 21.5813 4.37663 21.8939C4.00846 22.3629 3.71719 22.8607 3.59176 23.2434C3.36924 23.9346 3.47852 24.634 3.90735 25.28C4.45754 26.1028 5.55393 26.9421 6.8323 27.514C7.48369 27.8062 8.58003 28.1805 9.40531 28.3903C10.7767 28.7442 13.4307 29.1268 14.8911 29.1845C15.1864 29.1968 15.5829 29.1968 15.5991 29.1845C15.6315 29.1638 15.858 28.7236 16.121 28.1765C17.0192 26.3127 17.6665 24.5641 18.0184 23.0706C18.2288 22.1655 18.3946 20.96 18.5038 19.5324C18.5322 19.1333 18.5443 17.7962 18.52 17.3436C18.4836 16.603 18.4188 16.0024 18.3178 15.414C18.3016 15.3276 18.2975 15.2494 18.3056 15.2453C18.3217 15.233 18.3703 15.2166 19.0297 15.0231L18.8963 14.7021H18.8964ZM17.6746 15.4304C17.7231 15.4304 17.8525 16.6935 17.8849 17.4917C17.893 17.6604 17.8889 17.7714 17.8809 17.7714C17.8485 17.7714 17.1971 17.3806 16.732 17.0844C16.3274 16.8252 15.5588 16.3068 15.4374 16.208C15.3969 16.1793 15.4009 16.1752 15.7327 16.0599C16.295 15.8665 17.6301 15.4304 17.6746 15.4304ZM14.9478 16.3438C14.9843 16.3438 15.0772 16.3972 15.2998 16.5372C16.1331 17.0679 17.266 17.7097 17.7514 17.9237C17.9011 17.9895 17.9172 17.9648 17.5734 18.2035C16.8371 18.7136 15.9187 19.2155 14.794 19.7216C14.5958 19.8121 14.43 19.882 14.4259 19.882C14.4179 19.882 14.4421 19.7793 14.4744 19.6558C14.7455 18.6313 14.8992 17.5945 14.9074 16.7634C14.9114 16.352 14.9114 16.352 14.9478 16.3397C14.9397 16.3438 14.9437 16.3438 14.9478 16.3438ZM14.3855 16.5618C14.4097 16.5865 14.3936 17.5081 14.3612 17.7591C14.2884 18.3598 14.1751 18.9193 13.9891 19.5488C13.9445 19.701 13.904 19.8286 13.896 19.8368C13.8797 19.8573 13.3255 19.306 13.1435 19.0921C12.8279 18.7218 12.5812 18.3515 12.3991 17.9895C12.306 17.8043 12.1604 17.4423 12.1725 17.4299C12.2372 17.3847 14.3693 16.5454 14.3855 16.5618ZM11.7396 17.6192C11.7437 17.6192 11.7477 17.6192 11.7518 17.6233C11.7598 17.6315 11.7882 17.6974 11.8125 17.7714C11.9419 18.1294 12.2331 18.656 12.484 18.9934C12.7591 19.3637 13.1192 19.7586 13.4185 20.0178C13.5157 20.1001 13.6046 20.1782 13.6167 20.1906C13.6411 20.2153 13.6491 20.2111 12.9897 20.4663C12.2251 20.7625 11.3917 21.0587 10.4369 21.3714C10.2088 21.4461 9.98096 21.5216 9.7533 21.5977C9.71683 21.61 9.72899 21.5894 9.83417 21.4208C10.3075 20.6678 11.0276 19.1908 11.4322 18.1458C11.501 17.9648 11.5697 17.7838 11.5819 17.7426C11.5981 17.685 11.6183 17.6644 11.6708 17.6356C11.6992 17.6275 11.7275 17.6192 11.7396 17.6192ZM10.9306 17.9607C10.9427 17.9689 10.7364 18.4091 10.5341 18.8123C10.1416 19.5899 9.7128 20.3552 9.13833 21.285C9.04124 21.4454 8.94823 21.5936 8.93606 21.6101C8.91586 21.6389 8.90772 21.6306 8.84301 21.5031C8.70546 21.2274 8.59214 20.8736 8.53147 20.5485C8.47077 20.2276 8.48293 19.6681 8.55173 19.3225C8.60427 19.0674 8.60028 19.0716 8.72163 19.0098C9.23946 18.7424 10.9144 17.9442 10.9306 17.9607ZM17.9092 18.2487V18.4215C17.9092 19.339 17.8121 20.5979 17.6705 21.5155C17.6462 21.6759 17.6259 21.8075 17.6219 21.8117C17.6219 21.8117 17.5046 21.7788 17.3671 21.7376C16.7603 21.5442 16.1008 21.2603 15.5061 20.9271C15.1136 20.7091 14.5432 20.3511 14.5594 20.3346C14.5634 20.3305 14.7334 20.24 14.9316 20.133C15.7246 19.7134 16.4851 19.2608 17.1446 18.8124C17.3914 18.6437 17.7635 18.3722 17.8445 18.2981L17.9092 18.2487ZM7.87608 19.4665C7.89225 19.4665 7.8882 19.4994 7.86393 19.6475C7.84774 19.7545 7.82753 19.952 7.81949 20.0877C7.78705 20.6884 7.88421 21.1328 8.17548 21.7416C8.25639 21.9103 8.32117 22.0502 8.31706 22.0543C8.28872 22.079 5.61059 22.8772 4.76904 23.1117C4.51823 23.1816 4.29981 23.2434 4.28354 23.2474C4.25528 23.2557 4.25121 23.2516 4.26334 23.1816C4.35637 22.5768 4.8095 21.7869 5.44059 21.1204C5.86136 20.676 6.19716 20.4169 6.77163 20.0836C7.18428 19.845 7.81944 19.4871 7.86798 19.4706C7.86802 19.4665 7.87205 19.4665 7.87608 19.4665ZM14.1872 20.6143C14.1913 20.6102 14.2884 20.6638 14.4057 20.7337C15.2715 21.2439 16.477 21.717 17.5046 21.9597L17.5977 21.9803L17.4682 22.0543C16.9301 22.3588 15.1622 23.1076 13.3539 23.7947C13.0908 23.8934 12.832 23.9922 12.7833 24.0127C12.7348 24.0333 12.6903 24.0456 12.6903 24.0415C12.6903 24.0374 12.7632 23.8934 12.8561 23.7165C13.3618 22.7538 13.8716 21.5812 14.1305 20.7666C14.163 20.6884 14.1831 20.6185 14.1872 20.6143ZM13.544 20.8283C13.5481 20.8325 13.5157 20.9188 13.4752 21.0176C13.1233 21.8857 12.662 22.832 12.0714 23.8935C11.9217 24.165 11.7963 24.3831 11.7922 24.3831C11.7882 24.3831 11.6668 24.309 11.5212 24.2185C10.6634 23.6836 9.9029 23.0254 9.40533 22.3876L9.33248 22.2971L9.7006 22.1942C11.0195 21.8281 12.1401 21.4332 13.2527 20.9477C13.4105 20.8818 13.54 20.8283 13.544 20.8283ZM17.5411 22.2477C17.5411 22.2477 17.5451 22.2519 17.5411 22.2477C17.5451 22.3424 17.3388 23.1899 17.1688 23.8029C17.0272 24.3172 16.9058 24.7204 16.6834 25.4321C16.5863 25.7449 16.5014 26.004 16.4973 26.004C16.4932 26.004 16.469 25.9999 16.4447 25.9917C15.2432 25.7695 14.167 25.4609 13.1556 25.0495C12.8724 24.9343 12.4679 24.7491 12.4436 24.7286C12.4355 24.7203 12.6783 24.6052 12.9857 24.4694C14.8265 23.6506 16.736 22.7208 17.3914 22.3218C17.4682 22.2724 17.5289 22.2477 17.5411 22.2477ZM8.31303 22.5687C8.32113 22.5769 7.80733 23.3298 7.08718 24.3542C6.83637 24.7122 6.54509 25.1318 6.43588 25.2882C6.32663 25.4445 6.16078 25.6914 6.06773 25.8395L5.89774 26.1069L5.71567 25.9506C5.50124 25.7695 5.1291 25.3828 4.96323 25.1689C4.61528 24.7287 4.38068 24.2638 4.28763 23.84C4.24311 23.6425 4.24311 23.5437 4.28352 23.5314C4.34419 23.515 5.42438 23.2558 6.43585 23.0171C6.99819 22.8855 7.64948 22.7292 7.88414 22.6716C8.11881 22.6139 8.309 22.5687 8.31303 22.5687ZM8.83084 22.7703L8.96026 22.9184C9.5429 23.5808 10.1376 24.0704 10.8577 24.4982C10.9872 24.5723 11.0843 24.6381 11.0761 24.6423C11.0479 24.6629 8.57595 25.5556 7.43106 25.9588C6.78784 26.1892 6.25783 26.3743 6.25384 26.3743C6.24981 26.3743 6.21337 26.3497 6.17285 26.3208L6.10008 26.2673L6.21739 26.0946C6.59765 25.535 7.07511 24.922 8.11481 23.6466L8.83084 22.7703ZM12.0593 25.1195C12.0633 25.1154 12.2413 25.1812 12.4597 25.2635C12.9857 25.4651 13.4023 25.5926 13.9607 25.7366C14.6485 25.9136 15.6437 26.0864 16.2303 26.1357C16.3193 26.1439 16.3679 26.1522 16.3517 26.1645C16.3233 26.181 15.7287 26.3826 15.2917 26.5225C14.5958 26.7446 12.4719 27.3823 10.7404 27.8884C10.4208 27.983 10.1457 28.0612 10.1295 28.0653C10.0891 28.0736 9.95553 28.0365 9.95553 28.02C9.95553 28.0118 10.0526 27.8843 10.17 27.7444C10.7525 27.0367 11.3311 26.2468 11.8125 25.498C11.946 25.2923 12.0593 25.1236 12.0593 25.1195ZM11.3472 25.1401C11.3512 25.1442 11.064 25.6132 10.5624 26.4196C10.348 26.7611 10.1093 27.1478 10.0243 27.2836C9.94337 27.4152 9.82201 27.621 9.75326 27.7361L9.63592 27.946L9.57525 27.9295C9.42957 27.8884 8.40605 27.5222 8.13498 27.4111C7.79918 27.2753 7.45126 27.1108 7.19232 26.9709C6.86872 26.794 6.46418 26.5306 6.49651 26.5225C6.50459 26.5184 7.05886 26.3661 7.72634 26.181C9.49835 25.6913 10.4814 25.4075 11.1247 25.2018C11.2421 25.1647 11.3432 25.1359 11.3472 25.1401ZM16.384 26.3414H16.388C16.4042 26.3826 15.7489 28.234 15.5101 28.8182C15.4576 28.9498 15.4374 28.9828 15.409 28.9786C15.3402 28.9746 14.3896 28.8388 13.811 28.7524C12.8037 28.596 11.1126 28.2956 10.6878 28.1969L10.5907 28.1764L11.1934 28.0364C12.4881 27.7402 13.1111 27.5798 13.7422 27.3823C14.5392 27.1354 15.3281 26.8269 16.1251 26.4484C16.2505 26.3908 16.3557 26.3455 16.384 26.3414Z" fill="url(#paint0_linear_409_7593)"/>
<path d="M13.3781 2.01376C13.2891 2.00149 11.8529 2.5281 10.9265 2.91068C9.67634 3.42914 8.70545 3.92288 8.10668 4.35067C7.88421 4.51119 7.605 4.79504 7.56056 4.9061C7.54439 4.94725 7.53625 4.99662 7.53625 5.04598L8.07839 5.5685L9.36891 5.98815L12.4395 6.54771L15.9511 7.16074L15.9875 6.85218C15.9754 6.85218 15.9673 6.84808 15.9553 6.84808L15.4939 6.77399L15.401 6.60533C14.9236 5.74954 14.3976 4.68805 14.0902 3.97217C13.8515 3.41673 13.6249 2.77497 13.4995 2.31415C13.4307 2.03438 13.4227 2.01793 13.3782 2.01384V2.01374H13.3781V2.01376ZM13.3133 2.22365H13.3175C13.3214 2.22771 13.3376 2.34299 13.3539 2.47868C13.4226 3.05476 13.5481 3.6101 13.7463 4.2108C13.8959 4.66339 13.8959 4.63872 13.722 4.5852C13.3094 4.47004 11.4605 4.145 10.1214 3.95576C9.907 3.92694 9.72494 3.89816 9.72494 3.89406C9.70876 3.87761 10.6918 3.35505 11.1247 3.14939C11.679 2.89013 13.2001 2.2442 13.3133 2.22365ZM9.41337 4.06682L9.57121 4.12025C10.4288 4.41652 12.5851 4.83619 13.7746 4.93492C13.908 4.94727 14.0214 4.95964 14.0253 4.95964C14.0294 4.96374 13.9162 5.02546 13.7705 5.09537C13.1961 5.38749 12.5649 5.74544 12.128 6.02111C11.9986 6.10335 11.8812 6.16923 11.865 6.16923C11.8488 6.16923 11.7639 6.15276 11.6749 6.14041L11.5131 6.11569L11.1086 5.71247C10.3965 5.00897 9.83824 4.4659 9.62381 4.26015L9.41337 4.06682ZM9.2516 4.19433L9.82202 4.91847C10.1335 5.31756 10.4491 5.70839 10.5179 5.79475C10.5866 5.88121 10.6433 5.95118 10.6393 5.95527C10.6231 5.96761 9.814 5.80712 9.3851 5.70842C8.94414 5.60554 8.76209 5.55617 8.49104 5.46981L8.26851 5.39572V5.33808C8.27254 5.06241 8.61646 4.65102 9.19901 4.23141L9.2516 4.19433ZM14.0982 5.18177C14.1144 5.18177 14.1346 5.21879 14.1831 5.32987C14.3207 5.63842 14.7496 6.46954 14.8547 6.62997C14.8872 6.68351 14.9437 6.68761 14.3733 6.59297C13.0019 6.36663 12.5609 6.29266 12.5609 6.28443C12.5609 6.28033 12.6014 6.25151 12.6539 6.22269C13.0788 5.98411 13.5076 5.67962 13.8879 5.35459C13.9809 5.2764 14.0659 5.20236 14.082 5.18999C14.0861 5.18177 14.0942 5.17767 14.0982 5.18177Z" fill="url(#paint1_linear_409_7593)"/>
<path d="M7.58883 4.84851C7.58883 4.84851 7.49988 4.99257 7.58482 5.20652C7.63747 5.33813 7.79117 5.49856 7.9651 5.66317C7.9651 5.66317 9.76539 7.44873 9.98387 7.70386C10.979 8.87227 11.412 10.0243 11.4524 11.6124C11.4767 12.6327 11.2865 13.5296 10.8132 14.5706C9.9717 16.4384 8.19565 18.4997 5.45679 20.7872L5.85737 20.6514C6.11627 20.4539 6.46825 20.2442 7.29353 19.7833C9.19898 18.7218 11.3432 17.7467 13.9728 16.7429C17.7594 15.2946 23.9857 13.5995 27.5296 13.0483L27.8978 12.9906L27.8411 12.9001C27.5175 12.3899 27.295 12.0732 27.0279 11.7358C26.2512 10.7566 25.3086 9.96257 24.1556 9.30427C22.5697 8.40329 20.5185 7.69976 17.9213 7.17724C17.4318 7.07845 16.3557 6.88922 15.4818 6.75345C13.6289 6.46141 12.4314 6.25977 11.1126 6.02937C10.6393 5.94705 9.93122 5.82365 9.46193 5.72082C9.2192 5.66728 8.754 5.55622 8.38989 5.42869C8.09862 5.31343 7.67784 5.19823 7.58883 4.84851ZM8.63266 5.87712C8.63666 5.87306 8.70137 5.89766 8.78639 5.92648C8.94011 5.97991 9.13833 6.04165 9.37304 6.10752C9.5506 6.15719 9.72861 6.20518 9.90704 6.2515C10.1498 6.31318 10.352 6.3708 10.3561 6.3708C10.3844 6.39962 10.793 7.72842 10.9306 8.23861C10.9831 8.43203 11.0237 8.59656 11.0196 8.59656C11.0154 8.60074 10.971 8.53075 10.9184 8.43613C10.4451 7.58858 9.69664 6.72871 8.83086 6.03749C8.71764 5.95528 8.63266 5.88122 8.63266 5.87712ZM10.6231 6.43665C10.6433 6.43665 10.7323 6.449 10.8415 6.47367C11.5293 6.63 12.7632 6.86863 13.5521 7.00442C13.6856 7.02497 13.7908 7.04971 13.7908 7.05788C13.7908 7.06616 13.7422 7.0949 13.6815 7.12785C13.5481 7.19777 13.01 7.52276 12.832 7.64622C12.3829 7.95067 11.9784 8.2798 11.6871 8.57602C11.5698 8.69535 11.4686 8.79408 11.4686 8.79408C11.4686 8.79408 11.4444 8.72417 11.4241 8.63771C11.2785 8.06583 10.975 7.21828 10.6999 6.62175C10.6554 6.52715 10.619 6.44073 10.619 6.43253C10.619 6.44075 10.619 6.43665 10.6231 6.43665ZM14.1266 7.1155C14.1508 7.1237 14.1913 7.2636 14.2722 7.57215C14.4219 8.16875 14.4907 8.83525 14.4664 9.45651C14.4583 9.62931 14.4502 9.78974 14.4421 9.81036L14.43 9.85145L14.2196 9.78154C13.7867 9.64166 13.0828 9.43178 12.4801 9.25902C12.1361 9.16439 11.857 9.07799 11.857 9.06977C11.857 9.04505 12.3587 8.5349 12.5731 8.34156C12.9816 7.97533 14.0901 7.10313 14.1266 7.1155ZM14.4057 7.1566C14.4179 7.14432 16.0806 7.43636 16.8371 7.5845C17.3995 7.69556 18.2167 7.86838 18.2652 7.88899C18.2895 7.89718 18.2045 7.94655 17.9335 8.06997C16.8654 8.5596 16.0725 8.99976 15.2837 9.53467C15.0773 9.67455 14.9033 9.78974 14.8993 9.78974C14.8953 9.78974 14.8912 9.67046 14.8912 9.52644C14.8912 8.74476 14.7375 7.9548 14.4542 7.2883C14.4259 7.22247 14.4017 7.16077 14.4057 7.1566ZM18.7062 8.02064C18.7183 8.03297 18.6657 8.36626 18.6172 8.5637C18.4715 9.17674 18.0791 10.086 17.5978 10.9418C17.5127 11.094 17.4359 11.2174 17.4277 11.2215C17.4197 11.2256 17.3105 11.1639 17.185 11.0898C16.7158 10.8101 16.1818 10.5468 15.5992 10.2999C15.4374 10.23 15.2958 10.1723 15.2917 10.1642C15.2633 10.1395 16.5661 9.26312 17.2538 8.84347C17.8 8.50612 18.69 8.00415 18.7062 8.02064ZM19.0136 8.06998C19.0501 8.06998 19.7864 8.27572 20.1706 8.39092C21.1214 8.67894 22.2137 9.08622 22.9257 9.41535L23.221 9.55118L23.0147 9.60051C21.2752 10.0078 19.7864 10.4769 18.3502 11.0693C18.2328 11.1187 18.1276 11.1598 18.1196 11.1598C18.1115 11.1598 18.152 11.0652 18.2045 10.95C18.6374 10.0161 18.9166 9.04097 18.9853 8.20985C18.9894 8.13166 19.0015 8.06998 19.0136 8.06998ZM11.683 9.78154C11.6951 9.76917 12.2575 9.90497 12.5609 9.9913C13.0221 10.123 14.0011 10.4562 14.0011 10.4809C14.0011 10.485 13.8919 10.5797 13.7625 10.6949C13.2325 11.1434 12.7227 11.6164 12.1118 12.2171C11.9298 12.3941 11.7761 12.5381 11.768 12.5381C11.7599 12.5381 11.7559 12.5134 11.7599 12.4805C11.8529 11.7892 11.8328 10.9006 11.7033 9.99957C11.6911 9.88433 11.679 9.78564 11.683 9.78154ZM23.5003 9.79391C23.5083 9.80209 23.2413 10.23 23.0714 10.4727C22.8287 10.8265 22.4726 11.2956 21.6675 12.3242C21.2428 12.8672 20.7654 13.4803 20.6076 13.686C20.4457 13.8917 20.3123 14.0644 20.3082 14.0644C20.3042 14.0644 20.2516 13.9904 20.195 13.8999C19.7418 13.2087 19.1997 12.6039 18.5564 12.0608C18.4351 11.9579 18.3016 11.8469 18.2571 11.8139C18.2126 11.781 18.1762 11.7481 18.1762 11.744C18.1762 11.7317 18.8639 11.4313 19.3858 11.2174C20.3002 10.8389 21.5461 10.3863 22.4807 10.0942C22.9702 9.93787 23.4921 9.78564 23.5003 9.79391ZM23.8117 9.87614C23.8279 9.87206 23.925 9.92142 24.0423 9.9913C25.0255 10.5632 25.9882 11.2997 26.7489 12.0567C26.9633 12.2707 27.4932 12.8302 27.4851 12.8343C27.4851 12.8343 27.299 12.8508 27.0806 12.8672C25.3774 12.9989 23.1969 13.365 21.1012 13.8793C20.9596 13.9122 20.8342 13.941 20.8261 13.941C20.8181 13.941 20.9758 13.7805 21.1741 13.5872C22.4039 12.3817 22.9663 11.6206 23.6297 10.2629C23.7227 10.0613 23.8037 9.88851 23.8117 9.87614C23.8077 9.87614 23.8077 9.87614 23.8117 9.87614ZM14.8022 10.8142C14.8588 10.8265 15.3848 11.0776 15.7812 11.2791C16.1453 11.4642 16.6915 11.7605 16.7198 11.7851C16.7238 11.7892 16.5296 11.8921 16.291 12.0114C15.5304 12.3982 14.8791 12.7643 14.1994 13.184C14.0052 13.3033 13.8434 13.4021 13.8394 13.4021C13.8232 13.4021 13.8272 13.3856 13.9364 13.184C14.3006 12.5093 14.5918 11.7029 14.7577 10.917C14.7738 10.8553 14.7901 10.8142 14.8022 10.8142ZM14.2762 10.9129C14.2884 10.9253 14.1508 11.4313 14.0659 11.707C13.9 12.2295 13.6209 12.8837 13.3498 13.3774C13.285 13.4925 13.188 13.6612 13.1354 13.7558L13.0343 13.9204L12.8077 13.6983C12.5448 13.4391 12.3303 13.2786 12.0553 13.1346C11.946 13.077 11.861 13.0276 11.861 13.0194C11.861 12.9865 12.5528 12.3488 13.0828 11.888C13.4631 11.5548 14.2641 10.9006 14.2762 10.9129ZM17.4926 12.2583L17.6908 12.3899C18.1438 12.6903 18.6778 13.0894 19.0865 13.4391C19.317 13.6324 19.762 14.0398 19.8511 14.1385L19.8996 14.1921L19.572 14.2866C17.7191 14.8091 16.2869 15.274 14.6161 15.8994C14.43 15.9693 14.2722 16.0269 14.26 16.0269C14.2358 16.0269 14.2155 16.0475 14.6323 15.6566C15.7004 14.657 16.647 13.5543 17.3509 12.4804L17.4926 12.2583ZM16.647 12.4723C16.6551 12.4805 16.1008 13.2745 15.7691 13.723C15.3726 14.2578 14.6686 15.1547 14.1832 15.7389C13.981 15.9817 13.807 16.1833 13.7989 16.1874C13.7867 16.1915 13.7827 16.1298 13.7827 16.0352C13.7827 15.5373 13.6573 15.0066 13.4388 14.554C13.3458 14.3648 13.3296 14.3195 13.3499 14.299C13.4267 14.229 14.604 13.546 15.3483 13.1387C15.85 12.8672 16.6348 12.464 16.647 12.4723ZM11.5333 13.7477C11.5455 13.7477 11.6385 13.797 11.7437 13.8546C12.0026 13.9986 12.2332 14.1591 12.4396 14.3319C12.4476 14.3401 12.3425 14.4266 12.2049 14.5293C11.8206 14.8091 11.238 15.2576 10.8982 15.5333C10.5421 15.8213 10.5301 15.8295 10.5705 15.7678C10.8375 15.3522 10.971 15.1177 11.1126 14.8174C11.238 14.55 11.3634 14.2332 11.4524 13.9575C11.4848 13.8382 11.5252 13.7477 11.5333 13.7477ZM12.8967 14.8338C12.9169 14.8298 12.9412 14.8667 13.0504 15.0313C13.281 15.381 13.459 15.8501 13.5036 16.2286L13.5116 16.3109L12.9574 16.529C11.9662 16.9198 11.052 17.3065 10.4329 17.5945C10.259 17.6768 9.95555 17.8249 9.75735 17.9237C9.55909 18.0265 9.39727 18.1047 9.39727 18.1006C9.39727 18.0965 9.52266 18.0018 9.67638 17.8866C10.8861 16.9939 11.9339 16.0146 12.7187 15.0355C12.8037 14.9326 12.8806 14.8379 12.8886 14.8338L12.8967 14.8338ZM12.2697 14.9902C12.2859 15.0066 11.8247 15.5373 11.5091 15.8624C10.7283 16.6729 9.95559 17.3065 8.99675 17.9237C8.87539 18.0018 8.76618 18.0718 8.75402 18.08C8.72568 18.0965 8.76208 18.0553 9.18284 17.5904C9.44988 17.2983 9.65213 17.0514 9.88273 16.747C10.0365 16.5454 10.0648 16.5166 10.2873 16.3561C10.8821 15.92 12.2535 14.9737 12.2697 14.9902Z" fill="url(#paint2_radial_409_7593)"/>
<defs>
<linearGradient id="paint0_linear_409_7593" x1="7.50615" y1="25.7746" x2="9.3773" y2="24.6874" gradientUnits="userSpaceOnUse">
<stop stop-color="#909CA9"/>
<stop offset="1" stop-color="#EDEDEE"/>
</linearGradient>
<linearGradient id="paint1_linear_409_7593" x1="7.55045" y1="4.5792" x2="9.10773" y2="4.5792" gradientUnits="userSpaceOnUse">
<stop stop-color="#939FAB"/>
<stop offset="1" stop-color="#DCDEE1"/>
</linearGradient>
<radialGradient id="paint2_radial_409_7593" cx="0" cy="0" r="1" gradientUnits="userSpaceOnUse" gradientTransform="translate(-3.48298 -9.13826) rotate(-167.662) scale(2.03243 2.01705)">
<stop stop-color="#EE352C"/>
<stop offset="1" stop-color="#A91D22"/>
</radialGradient>
</defs>
</svg>
