<svg width="32" height="32" viewBox="0 0 32 32" fill="none" xmlns="http://www.w3.org/2000/svg">
<path fill-rule="evenodd" clip-rule="evenodd" d="M6.67867 2H25.3213C25.9359 1.99983 26.5444 2.12073 27.1122 2.35578C27.68 2.59082 28.1959 2.93542 28.6305 3.36989C29.0651 3.80436 29.4099 4.32019 29.6451 4.88792C29.8803 5.45565 30.0014 6.06415 30.0014 6.67867V25.3199C30.0014 27.9047 27.906 30 25.3213 30H6.67867C4.09453 29.9992 2 27.9042 2 25.3199V6.67867C2 4.09465 4.09465 2 6.67867 2ZM23.4371 24.9097C24.2526 24.9097 24.9138 24.2485 24.9138 23.433L24.9097 8.56829C24.9097 7.75273 24.2485 7.09167 23.433 7.09167H8.56969C8.37565 7.09167 8.18352 7.12991 8.00427 7.20421C7.82502 7.2785 7.66217 7.38739 7.52502 7.52465C7.38788 7.66191 7.27913 7.82486 7.20499 8.00417C7.13085 8.18349 7.09278 8.37565 7.09295 8.56969V23.433C7.09295 24.2485 7.75413 24.9097 8.56969 24.9097H23.4371Z" fill="#3E4348"/>
<path d="M13.0297 19.7963C12.806 19.7945 12.5921 19.7045 12.4346 19.5457C12.2771 19.3869 12.1887 19.1723 12.1887 18.9486V13.0147C12.1881 12.903 12.2097 12.7924 12.252 12.689C12.2944 12.5857 12.3567 12.4918 12.4355 12.4127C12.5143 12.3335 12.6079 12.2707 12.711 12.2279C12.8141 12.185 12.9246 12.163 13.0363 12.163H18.9785C19.0901 12.1632 19.2006 12.1854 19.3036 12.2283C19.4066 12.2712 19.5001 12.3341 19.5789 12.4132C19.6576 12.4923 19.7199 12.5861 19.7624 12.6893C19.8048 12.7925 19.8265 12.9031 19.8262 13.0147V18.9472C19.8266 19.0589 19.8049 19.1695 19.7625 19.2727C19.7201 19.376 19.6578 19.4698 19.579 19.5489C19.5003 19.6281 19.4067 19.6909 19.3037 19.7338C19.2007 19.7767 19.0902 19.7989 18.9785 19.7991L13.0297 19.7963Z" fill="#3E4348"/>
</svg>
