<svg width="32" height="32" viewBox="0 0 32 32" fill="none" xmlns="http://www.w3.org/2000/svg">
<path d="M16 30C23.7322 30 30 23.7322 30 16C30 8.2678 23.7322 2 16 2C8.2678 2 2 8.2678 2 16C2 23.7322 8.2678 30 16 30Z" fill="white"/>
<path d="M15.9998 25.3673C21.2918 25.3673 25.5814 21.1645 25.5814 15.9803C25.5814 10.7961 21.2918 6.59326 15.9998 6.59326C10.7085 6.59326 6.41895 10.7961 6.41895 15.9803C6.41895 21.1645 10.7085 25.3673 15.9998 25.3673Z" fill="#FDB515"/>
<path d="M22.3413 15.0577C22.9174 13.685 22.4981 12.2157 21.4047 11.7754C20.3113 11.3358 18.9582 12.0918 18.3821 13.4652C17.8067 14.8379 18.226 16.3072 19.3194 16.7475C20.4121 17.1871 21.7652 16.4311 22.3413 15.0577V15.0577ZM16.0231 27.6164C17.5407 27.6164 18.7706 26.3123 18.7706 24.7037C18.7706 23.0944 17.5407 21.7903 16.0231 21.7903C14.5055 21.7903 13.2756 23.0944 13.2756 24.7037C13.2756 26.3123 14.5055 27.6164 16.0231 27.6164ZM12.7744 16.7454C13.8671 16.3058 14.2864 14.8365 13.711 13.4638C13.1349 12.0904 11.7818 11.3344 10.6884 11.774C9.595 12.2136 9.1764 13.6836 9.7518 15.0563C10.3279 16.429 11.681 17.1857 12.7744 16.7461V16.7454Z" fill="white"/>
<path d="M20.8707 25.011C23.8352 23.4549 25.9387 20.5254 26.2887 17.0891L27.9477 18.956C27.0237 22.6408 24.3658 25.662 20.8742 27.1425C20.9071 26.8485 20.9239 26.5181 20.9239 26.1415C20.9212 25.7641 20.9035 25.3869 20.8707 25.011V25.011ZM12.6583 25.6781C13.7034 26.0246 14.8185 26.2101 15.9833 26.2101C17.1985 26.2101 18.3605 26.0078 19.4455 25.6319C19.218 26.5181 18.8645 27.293 18.4137 27.9013C17.6297 28.0553 16.8177 28.1365 15.9868 28.1365C15.2056 28.1365 14.444 28.0644 13.7034 27.9307C13.2456 27.3259 12.8886 26.5538 12.6583 25.6781V25.6781ZM11.1533 25.0404C8.14116 23.4843 6.00826 20.5156 5.67086 17.0331L4.05176 19.096C5.01356 22.7416 7.67426 25.7173 11.1526 27.1719C11.1197 26.8709 11.1029 26.5314 11.1029 26.145C11.1029 25.7726 11.1197 25.403 11.1526 25.0404H11.1533ZM24.2993 10.017L25.4746 8.36915C24.6346 7.37801 23.643 6.52607 22.5367 5.84495L20.5536 6.96005C22.026 7.6686 23.3095 8.71623 24.2986 10.017H24.2993ZM9.56426 5.76025C8.40663 6.45232 7.37098 7.33045 6.49896 8.35935L7.82406 9.81395C8.79769 8.59932 10.0322 7.61938 11.4361 6.94675L9.56356 5.76025H9.56426ZM9.16666 15.9901C9.16666 12.9493 11.2394 10.3831 14.0772 9.56895C14.2039 9.21895 14.3642 8.91445 14.5448 8.66595C11.0322 9.33025 8.38196 12.3578 8.38196 15.9901C8.38196 18.5633 9.71056 20.832 11.7336 22.1725C11.8239 21.9177 11.9205 21.672 12.0276 21.434C10.2951 20.2209 9.16666 18.2329 9.16666 15.9901V15.9901Z" fill="#333333"/>
<path d="M10.5114 13.7538L11.0889 13.9008C11.6161 12.7161 12.5592 11.7658 13.7398 11.2296C13.7548 11.0085 13.7805 10.7882 13.8168 10.5695C13.0814 10.8534 12.4102 11.2813 11.8425 11.8283C11.2749 12.3753 10.8223 13.0301 10.5114 13.7545V13.7538ZM10.7193 16.8177H10.125C10.2391 17.5746 10.502 18.3014 10.8985 18.9562C11.2949 19.611 11.8172 20.1808 12.435 20.6327C12.5351 20.4633 12.6387 20.2995 12.7493 20.1427C11.6697 19.3371 10.9426 18.1461 10.7193 16.8177V16.8177ZM20.9211 13.9204L21.4951 13.7734C20.807 12.1354 19.3783 10.8705 17.6157 10.3833C17.6591 10.5863 17.6962 10.7984 17.7228 11.0203C19.1648 11.4977 20.3268 12.5603 20.9211 13.9204V13.9204ZM21.9459 15.2574L21.325 14.6302L19.2852 14.9508L18.9716 15.8692L19.9096 16.4838L21.6316 15.8692L21.9466 15.2581L21.9459 15.2574ZM10.1383 15.2574L10.7557 14.6302L12.799 14.9508L13.1091 15.8692L12.1711 16.4838L10.4519 15.8692L10.1383 15.2581V15.2574ZM21.6561 17.7522C21.7551 17.4473 21.8287 17.1348 21.8759 16.8177H21.2816C21.2522 16.9976 21.2116 17.1705 21.1654 17.3441C21.339 17.4813 21.5021 17.615 21.6554 17.7522H21.6561ZM19.7731 19.6947C19.6191 19.8417 19.4588 19.9859 19.2887 20.1133C19.3986 20.2701 19.5057 20.4339 19.6058 20.6033C19.8692 20.4049 20.1159 20.1853 20.3436 19.9467C20.151 19.8683 19.9607 19.7843 19.7731 19.6947V19.6947Z" fill="#333333"/>
<path d="M22.8335 15.9899C22.8331 16.8361 22.6701 17.6742 22.3533 18.4588C22.5836 18.7269 22.7572 18.9852 22.8706 19.2169C23.3656 18.2132 23.6226 17.109 23.6217 15.9899C23.6217 12.1385 20.6439 8.97033 16.8177 8.57133C17.0088 8.80373 17.1789 9.09143 17.3189 9.42183C20.4605 10.0238 22.8335 12.7335 22.8335 15.9899V15.9899ZM21.2683 20.2501C20.9021 20.6837 20.4836 21.0703 20.0223 21.4009C20.1294 21.6361 20.2302 21.8846 20.3163 22.1394C21.0276 21.659 21.6528 21.0622 22.1657 20.374C21.8626 20.3709 21.561 20.3293 21.2683 20.2501V20.2501ZM16.6546 15.0771C16.6476 15.0771 16.6441 15.0743 16.6406 15.0715L16.0001 8.51953H15.4023L14.8549 15.117H14.8584C14.8584 15.1303 14.8549 15.1429 14.8549 15.1562C14.8584 15.2675 14.8682 15.3718 14.8885 15.4733C14.8983 15.5846 14.9319 15.6987 14.9851 15.8135C15.0985 16.1005 15.2819 16.3175 15.4989 16.4183C15.5493 16.4575 15.6025 16.4932 15.6564 16.5296C15.6662 16.5366 15.6795 16.5422 15.6893 16.5492V16.552L22.3393 20.1325L22.6865 19.6586L16.6546 15.0778V15.0771ZM17.5023 24.0462C16.985 24.0462 16.5475 23.6997 16.4208 23.2321L18.8813 22.3102L18.2933 20.878L16.0001 21.7866L13.7041 20.8808L13.1196 22.3102L15.5556 23.2517C15.4807 23.4991 15.3224 23.7127 15.1075 23.8563C14.8927 23.9999 14.6347 24.0646 14.3775 24.0392L13.8805 24.7231C14.0674 24.7847 14.2676 24.8176 14.4783 24.8176C15.0957 24.8176 15.6431 24.5299 15.9903 24.0826C16.2404 24.4025 16.5855 24.6346 16.9761 24.7456C17.3666 24.8566 17.7823 24.8406 18.1631 24.7L17.6759 24.0329C17.6186 24.0424 17.5605 24.0468 17.5023 24.0462V24.0462Z" fill="#333333"/>
<path d="M23.655 10.3336L22.857 11.2226C23.8633 12.6048 24.4045 14.2709 24.4026 15.9805C24.4026 18.8834 22.8668 21.437 20.547 22.9021C20.6506 23.2871 20.7339 23.6896 20.7976 24.1047C23.655 22.48 25.5779 19.4497 25.5779 15.9805C25.5849 13.8616 24.8639 11.9065 23.655 10.3336V10.3336ZM7.59705 15.9812C7.59705 14.2123 8.16825 12.5743 9.13985 11.2303L8.34185 10.3413C7.09392 11.9562 6.41756 13.9397 6.41895 15.9805C6.41895 19.4728 8.36495 22.5199 11.2559 24.1355C11.3196 23.7197 11.4001 23.3179 11.503 22.935C9.15315 21.4734 7.59705 18.9072 7.59705 15.9812ZM15.9998 6.59424C14.5277 6.59424 13.1326 6.92114 11.8873 7.49934L12.4753 8.50664C13.5824 8.00438 14.7842 7.74539 15.9998 7.74714C17.2549 7.74714 18.447 8.01874 19.5187 8.50314L20.1067 7.49514C18.8193 6.90057 17.4179 6.5934 15.9998 6.59494V6.59424Z" fill="#333333"/>
</svg>
