<svg width="32" height="32" viewBox="0 0 32 32" fill="none" xmlns="http://www.w3.org/2000/svg">
<g clip-path="url(#clip0_1120_7520)">
<path d="M25.8327 9.99995H3.19617C2.53559 9.99995 2 10.533 2 11.1906V21.1124C2 21.7699 2.53559 22.303 3.19617 22.303H25.8327C26.2802 22.303 26.6903 22.0543 26.8957 21.6585L29.8668 16.6976C30.0444 16.355 30.0444 15.9479 29.8668 15.6054L26.8957 10.6445C26.6903 10.2486 26.2802 9.99995 25.8327 9.99995Z" fill="#40BA58"/>
<path d="M28.0057 16.1515C28.0057 16.4803 27.7378 16.7468 27.4074 16.7468C27.077 16.7468 26.8091 16.4803 26.8091 16.1515C26.8091 15.8227 27.077 15.5562 27.4074 15.5562C27.7378 15.5562 28.0057 15.8227 28.0057 16.1515Z" fill="white"/>
<path d="M7.8584 14.8897H8.74138C8.80034 14.8897 8.83895 14.9511 8.81311 15.0038L6.52253 19.6904C6.47897 19.7795 6.35127 19.7797 6.30746 19.6906L4.0026 15.0039C3.97668 14.9512 4.01522 14.8897 4.07425 14.8897H4.95838C4.98947 14.8897 5.0177 14.9077 5.03079 14.9358L6.41556 17.9216L7.78579 14.9361C7.79879 14.9078 7.82721 14.8897 7.8584 14.8897Z" fill="white"/>
<path d="M12.9838 18.2053L13.5799 18.5503C13.6189 18.5729 13.6318 18.6239 13.6076 18.6618C13.0747 19.4938 12.3223 19.9099 11.3502 19.9099C10.639 19.9099 10.065 19.654 9.62814 19.1422C9.20143 18.6439 8.98804 17.9755 8.98804 17.1371C8.98804 16.8409 9.05241 16.5294 9.18111 16.2028C9.41809 15.6002 9.81608 15.1809 10.3749 14.9452C10.6695 14.8207 10.9946 14.7584 11.3502 14.7584C12.3729 14.7584 13.0603 15.186 13.4126 16.0412C13.5785 16.4419 13.6546 16.824 13.6412 17.1876L13.6337 17.3989C13.6322 17.4417 13.597 17.4755 13.554 17.4755H9.94817C9.94817 17.9335 10.0819 18.3139 10.3494 18.617C10.6339 18.9335 11.003 19.0917 11.4568 19.0917C12.029 19.0917 12.5859 18.7202 12.8744 18.235C12.897 18.1969 12.9453 18.183 12.9838 18.2053ZM12.7167 16.7735C12.6659 16.4166 12.5287 16.1287 12.3052 15.9098C12.0681 15.6775 11.7718 15.5614 11.4162 15.5614C11.0368 15.5614 10.7203 15.67 10.4663 15.8871C10.2123 16.1043 10.0531 16.3997 9.98879 16.7735H12.7167Z" fill="white"/>
<path d="M14.5795 14.8897H15.3496C15.3937 14.8897 15.4293 14.9253 15.4293 14.9691V15.5816C15.7883 15.0328 16.2912 14.7584 16.9381 14.7584C18.0725 14.7584 18.6398 15.4503 18.6398 16.8342V19.6639C18.6398 19.7077 18.6041 19.7433 18.56 19.7433H17.7849C17.7408 19.7433 17.7051 19.7077 17.7051 19.6639V16.814C17.7051 16.3998 17.6322 16.0985 17.4867 15.9099C17.3207 15.6912 17.0362 15.5816 16.6333 15.5816C15.8307 15.5816 15.4293 16.0851 15.4293 17.0917V19.6639C15.4293 19.7077 15.3937 19.7433 15.3496 19.7433H14.5795C14.5355 19.7433 14.4998 19.7077 14.4998 19.6639V14.9691C14.4998 14.9253 14.5355 14.8897 14.5795 14.8897Z" fill="white"/>
<path d="M23.561 12.3693H24.3362C24.3802 12.3693 24.4159 12.4049 24.4159 12.4487V19.6639C24.4159 19.7077 24.3802 19.7432 24.3362 19.7432H23.561C23.517 19.7432 23.4813 19.7077 23.4813 19.6639V18.9553C23.0579 19.5917 22.5024 19.9099 21.8151 19.9099C21.0496 19.9099 20.452 19.6254 20.0219 19.0564C19.6425 18.5547 19.453 17.9907 19.453 17.3644C19.453 16.8762 19.5478 16.4351 19.7375 16.0412C19.9473 15.6035 20.2505 15.2735 20.6467 15.0513C20.9955 14.856 21.3714 14.7583 21.7745 14.7583C22.1097 14.7583 22.4399 14.8493 22.765 15.0311C23.0901 15.2129 23.3289 15.4486 23.4813 15.7381V12.4487C23.4813 12.4049 23.517 12.3693 23.561 12.3693ZM23.3704 17.3438C23.3704 16.6436 23.1267 16.1469 22.6394 15.8538C22.4006 15.7105 22.1292 15.6388 21.8251 15.6388C21.2005 15.6388 20.7621 15.9434 20.5104 16.5523C20.4024 16.8129 20.3484 17.0833 20.3484 17.3633C20.3484 17.9398 20.5495 18.3991 20.9518 18.741C21.1742 18.93 21.4587 19.0244 21.8055 19.0244C22.4792 19.0244 22.9451 18.7329 23.2036 18.1499C23.3148 17.8992 23.3704 17.6305 23.3704 17.3438Z" fill="white"/>
</g>
<defs>
<clipPath id="clip0_1120_7520">
<rect width="28" height="12.303" fill="white" transform="translate(2 10)"/>
</clipPath>
</defs>
</svg>
