<svg width="24" height="24" viewBox="0 0 24 24" fill="none" xmlns="http://www.w3.org/2000/svg">
<g clip-path="url(#clip0_7050_26466)">
<path d="M12 1.5C9.9233 1.5 7.89323 2.11581 6.16652 3.26957C4.4398 4.42332 3.09399 6.0632 2.29927 7.98182C1.50455 9.90045 1.29661 12.0116 1.70176 14.0484C2.1069 16.0852 3.10693 17.9562 4.57538 19.4246C6.04383 20.8931 7.91476 21.8931 9.95156 22.2982C11.9884 22.7034 14.0996 22.4955 16.0182 21.7007C17.9368 20.906 19.5767 19.5602 20.7304 17.8335C21.8842 16.1068 22.5 14.0767 22.5 12C22.5 9.21523 21.3938 6.54451 19.4246 4.57538C17.4555 2.60625 14.7848 1.5 12 1.5ZM21 11.25H16.5C16.4125 8.48781 15.6969 5.78186 14.4075 3.3375C16.1839 3.82342 17.7685 4.84263 18.9474 6.25757C20.1263 7.6725 20.8427 9.41504 21 11.25ZM12 21C11.8327 21.0112 11.6648 21.0112 11.4975 21C9.94372 18.5221 9.08139 15.6736 9 12.75H15C14.9254 15.6715 14.0709 18.5199 12.525 21C12.3502 21.0123 12.1748 21.0123 12 21ZM9 11.25C9.07462 8.32851 9.92914 5.48012 11.475 3C11.809 2.96247 12.1461 2.96247 12.48 3C14.0417 5.4756 14.9119 8.3243 15 11.25H9ZM9.57001 3.3375C8.28848 5.78373 7.5806 8.48959 7.5 11.25H3C3.15728 9.41504 3.87371 7.6725 5.0526 6.25757C6.23149 4.84263 7.81608 3.82342 9.5925 3.3375H9.57001ZM3.0375 12.75H7.53751C7.61577 15.5098 8.32108 18.2156 9.60001 20.6625C7.82915 20.1714 6.25109 19.1499 5.07792 17.7354C3.90475 16.3209 3.19271 14.5811 3.0375 12.75ZM14.4075 20.6625C15.6969 18.2181 16.4125 15.5122 16.5 12.75H21C20.8427 14.585 20.1263 16.3275 18.9474 17.7424C17.7685 19.1574 16.1839 20.1766 14.4075 20.6625Z" fill="black"/>
</g>
<defs>
<clipPath id="clip0_7050_26466">
<rect width="24" height="24" fill="white"/>
</clipPath>
</defs>
</svg>
