<svg width="32" height="32" viewBox="0 0 32 32" fill="none" xmlns="http://www.w3.org/2000/svg">
<path fill-rule="evenodd" clip-rule="evenodd" d="M16 30C23.732 30 30 23.732 30 16C30 8.26801 23.732 2 16 2C8.26801 2 2 8.26801 2 16C2 23.732 8.26801 30 16 30ZM14.8796 10.7118L19.8843 22.9996L20.2876 23L21.9176 18.9978L18.8637 11.5076C18.765 11.2715 18.6872 11.027 18.6311 10.777C18.607 10.6801 18.5923 10.581 18.5871 10.4812C18.5779 10.2767 18.6489 10.0767 18.7846 9.92526C18.9394 9.77469 19.1464 9.69201 19.3608 9.69509V9.25398H13.8051V9.69509C13.9199 9.69941 14.0328 9.72669 14.1373 9.77536C14.2417 9.82403 14.3357 9.89314 14.4138 9.97873C14.6198 10.1857 14.7788 10.4359 14.8796 10.7118ZM8.57328 10.7118L13.5775 22.9996H13.9829L15.6125 18.9974L11.64 9.25398H7.5V9.69509C7.61483 9.69948 7.72769 9.72679 7.83212 9.77545C7.93656 9.82412 8.03053 9.89319 8.10866 9.97873C8.31418 10.1859 8.47274 10.4361 8.57328 10.7118ZM21.2794 9.78947C21.0852 10.0824 20.981 10.4273 20.9798 10.7803H20.9814C20.9805 11.2547 21.1653 11.7101 21.495 12.0463C21.8248 12.3825 22.2725 12.572 22.7399 12.5732C23.0877 12.5732 23.4278 12.4686 23.7171 12.2725C24.0064 12.0765 24.232 11.7978 24.3654 11.4717C24.4988 11.1457 24.534 10.7867 24.4666 10.4404C24.3992 10.094 24.2322 9.77561 23.9866 9.5255C23.7411 9.27539 23.4281 9.10474 23.087 9.0351C22.746 8.96545 22.3923 8.99994 22.0706 9.13421C21.7489 9.26847 21.4735 9.49649 21.2794 9.78947Z" fill="#111111"/>
</svg>
