<svg width="32" height="32" viewBox="0 0 32 32" fill="none" xmlns="http://www.w3.org/2000/svg">
<g clip-path="url(#clip0_1649_150)">
<path d="M0 32H32V0H0V32Z" fill="#1B1E23"/>
<mask id="mask0_1649_150" style="mask-type:luminance" maskUnits="userSpaceOnUse" x="2" y="2" width="28" height="28">
<path d="M30 2L2 2L2 30L30 30L30 2Z" fill="white"/>
</mask>
<g mask="url(#mask0_1649_150)">
<path d="M22.9447 25.5961C23.1424 25.6198 23.3263 25.7097 23.4664 25.8511C23.6066 25.9926 23.6948 26.1772 23.7168 26.3752C23.7168 26.3878 23.7168 26.4013 23.719 26.414V26.4013C23.7209 26.4246 23.7223 26.4479 23.7223 26.4717V29.1193C23.7222 29.2351 23.745 29.3498 23.7894 29.4569C23.8338 29.5639 23.8988 29.6611 23.9809 29.7429C24.0629 29.8246 24.1602 29.8894 24.2672 29.9336C24.3743 29.9777 24.489 30.0003 24.6048 30H29.1173C29.2353 30.0001 29.352 29.9765 29.4606 29.9305C29.6202 29.8631 29.7564 29.7502 29.8523 29.606C29.9482 29.4617 29.9996 29.2925 30 29.1193L30 15.6504C29.9974 11.3933 28.0493 7.59288 24.9963 5.09085L24.9933 5.08821C24.9375 5.0429 24.8814 4.99759 24.8251 4.95284L24.8156 4.94534C24.703 4.85605 24.5889 4.76896 24.4735 4.68441L24.4435 4.66214C24.3925 4.62433 24.341 4.58696 24.289 4.55003L24.2725 4.53791C24.2155 4.49723 24.158 4.45699 24.1003 4.4172L24.0693 4.39603C24.0223 4.3634 23.975 4.33077 23.9274 4.29814L23.8854 4.27003C23.7419 4.17523 23.5966 4.08285 23.4494 3.99279L23.4433 3.98893C23.3555 3.93471 23.2669 3.88204 23.1773 3.83096L23.1701 3.82677C23.0798 3.77452 22.989 3.72359 22.8975 3.67377L22.8942 3.67178C21.675 3.00472 20.3605 2.52929 18.9967 2.26219H18.9915L18.8451 2.23452L18.8268 2.23121C18.7811 2.22273 18.7355 2.21468 18.6899 2.20674L18.6612 2.20189L18.5308 2.18062L18.4933 2.17477L18.3711 2.15625L18.3258 2.14964C18.2869 2.1438 18.2482 2.13862 18.2094 2.13332L18.1581 2.12616L18.0463 2.11216L17.9889 2.10533L17.8823 2.09287L17.819 2.08603L17.7186 2.076L17.6501 2.06939L17.5523 2.06057L17.4789 2.05473L17.3847 2.04723L17.3067 2.04172C17.2764 2.03973 17.2464 2.03742 17.2161 2.03588C17.1859 2.03422 17.1607 2.03257 17.133 2.03092L17.0466 2.0264C17.0174 2.02474 16.9876 2.02342 16.958 2.02243L16.8764 2.0189L16.7786 2.01559L16.7056 2.01361L16.5937 2.01074H16.3614C8.82616 2.01074 2.7259 8.11783 2.7226 15.6535L2.7226 29.1193C2.72248 29.2351 2.74523 29.3498 2.78955 29.4568C2.83386 29.5638 2.89886 29.661 2.98082 29.7428C3.06279 29.8247 3.1601 29.8895 3.26718 29.9337C3.37426 29.9778 3.489 30.0004 3.60482 30H8.11734C8.35101 30 8.57513 29.9073 8.7405 29.7422C8.90608 29.5771 8.99937 29.3531 8.99989 29.1193V26.4704C9.00027 26.2367 9.09339 26.0126 9.25879 25.8475C9.4242 25.6824 9.64838 25.5896 9.88211 25.5896L16.3614 25.5896L22.9447 25.5961ZM8.99978 15.0884C8.99978 11.0228 12.2952 7.72726 16.3612 7.72726C16.798 7.72725 17.2338 7.76579 17.6638 7.84246C17.844 7.87463 18.0229 7.91361 18.2001 7.95931C19.2997 8.24293 20.3184 8.77803 21.1759 9.52246C21.975 10.2129 22.6158 11.0676 23.0547 12.0282C23.4936 12.9887 23.7201 14.0326 23.719 15.0887C23.719 19.1543 20.426 22.4495 16.3618 22.4495C12.2952 22.4495 8.99978 19.1543 8.99978 15.0884Z" fill="white"/>
</g>
</g>
<defs>
<clipPath id="clip0_1649_150">
<rect width="32" height="32" fill="white" transform="matrix(1 0 0 -1 0 32)"/>
</clipPath>
</defs>
</svg>
