<svg width="32" height="32" viewBox="0 0 32 32" fill="none" xmlns="http://www.w3.org/2000/svg">
    <g clip-path="url(#clip0_1510_7484)">
        <path
            d="M25.0417 2H6.95833C4.21992 2 2 4.27684 2 7.08547V24.9145C2 27.7232 4.21992 30 6.95833 30H25.0417C27.7801 30 30 27.7232 30 24.9145V7.08547C30 4.27684 27.7801 2 25.0417 2Z"
            fill="#584CCC" />
        <path
            d="M24.514 18.2106C23.9579 17.5981 22.8937 17.2871 21.3516 17.2871C20.4959 17.2956 19.642 17.3716 18.7976 17.5145C18.2567 16.9737 17.7642 16.3843 17.3261 15.7533C16.9934 15.2818 16.6861 14.792 16.4053 14.2862C16.9485 12.5328 17.2237 11.1095 17.2237 10.0544C17.2237 8.75895 16.7234 7.37402 15.3189 7.37402C15.0803 7.38112 14.8473 7.45011 14.6417 7.57455C14.4362 7.69898 14.2647 7.87482 14.1433 8.08563C13.5442 9.14078 13.7842 11.312 14.7404 13.5213C14.4074 14.5364 14.0447 15.5247 13.6001 16.6198C13.2197 17.5585 12.7894 18.4751 12.3109 19.3653C10.8784 19.9563 7.83335 21.3911 7.5432 22.9761C7.49958 23.2056 7.51507 23.4429 7.58813 23.6644C7.66119 23.8859 7.7893 24.084 7.95982 24.2392C8.30338 24.5446 8.74615 24.7066 9.20057 24.6932C11.0348 24.6932 12.8639 22.0889 14.0949 19.8471C14.7949 19.6027 15.5086 19.3815 16.2192 19.1889C16.9987 18.9773 17.7521 18.8036 18.4627 18.6744C20.4048 20.4126 22.1311 20.6759 22.9961 20.6759C24.1848 20.6759 24.6294 20.1473 24.7912 19.7029C24.8796 19.4515 24.9006 19.1803 24.8518 18.9178C24.8031 18.6553 24.6864 18.411 24.514 18.2106ZM23.2491 19.1245C23.184 19.4698 22.8361 19.6931 22.3599 19.6931C22.2244 19.6925 22.0895 19.6752 21.9581 19.6415C21.0838 19.4278 20.2467 18.9947 19.4115 18.3193C20.0351 18.2216 20.665 18.1719 21.2959 18.1705C21.7165 18.1635 22.1369 18.1967 22.5516 18.2697C22.9291 18.3498 23.3552 18.5635 23.2491 19.1245ZM14.8966 8.53554C14.9353 8.45817 14.9931 8.39257 15.0642 8.34534C15.1354 8.29811 15.2175 8.2709 15.3021 8.26643C15.7467 8.26643 15.8435 8.8159 15.8435 9.27575C15.8472 10.0084 15.6315 11.176 15.2613 12.4678C14.5153 10.4415 14.6195 9.02196 14.8966 8.53554ZM17.5028 17.7603C16.9987 17.8691 16.4778 17.995 15.9495 18.1381C15.5701 18.2411 15.185 18.3535 14.7999 18.4739C15.0045 18.0447 15.1925 17.6192 15.3561 17.2147C15.572 16.6803 15.7746 16.1462 15.9607 15.6233C16.124 15.8865 16.2927 16.1416 16.4667 16.3885C16.8001 16.8632 17.1598 17.3179 17.5441 17.7503L17.5028 17.7603ZM11.8607 20.5326C10.6869 22.471 9.53179 23.6959 8.85652 23.6959C8.74582 23.7009 8.63762 23.6611 8.55517 23.5852C8.49227 23.533 8.44458 23.4642 8.41734 23.3861C8.39009 23.308 8.38433 23.2237 8.4007 23.1425C8.52904 22.4481 9.86662 21.4464 11.8607 20.5326Z"
            fill="white" />
    </g>
    <defs>
        <clipPath id="clip0_1510_7484">
            <rect width="28" height="28" fill="white" transform="translate(2 2)" />
        </clipPath>
    </defs>
</svg>