<svg width="32" height="32" viewBox="0 0 32 32" fill="none" xmlns="http://www.w3.org/2000/svg">
<path d="M5.95009 13.0588H2.0708V14.2941L4.59918 14.2941C4.67428 14.2941 4.74631 14.324 4.79941 14.3771C4.85252 14.4302 4.88235 14.5022 4.88235 14.5773V16.7647H4.342C4.2669 16.7647 4.19487 16.7349 4.14177 16.6818C4.08866 16.6287 4.05883 16.5567 4.05883 16.4816V14.9118H2.99109C2.72824 14.9118 2.47615 15.0162 2.29028 15.2021C2.10442 15.3879 2 15.64 2 15.9029V17.0089C2 17.2718 2.10442 17.5239 2.29028 17.7097C2.47615 17.8956 2.72824 18 2.99109 18H6.94118V14.0499C6.94118 13.7871 6.83676 13.535 6.6509 13.3491C6.46503 13.1633 6.21295 13.0588 5.95009 13.0588Z" fill="#0ABF53"/>
<path d="M10.6469 16.7647H10.1066C10.0315 16.7647 9.95945 16.7349 9.90635 16.6818C9.85325 16.6287 9.82341 16.5566 9.82341 16.4815V13.0588H8.75574C8.49288 13.0588 8.2408 13.1632 8.05493 13.3491C7.86907 13.535 7.76465 13.787 7.76465 14.0499V17.0089C7.76465 17.2718 7.86907 17.5239 8.05493 17.7097C8.2408 17.8956 8.49288 18 8.75574 18H12.7058V11H10.647L10.6469 16.7647Z" fill="#0ABF53"/>
<path d="M16.4117 16.7647H15.8714C15.7963 16.7647 15.7243 16.7349 15.6712 16.6818C15.618 16.6287 15.5882 16.5567 15.5882 16.4816V13.0588H13.5294V17.009C13.5294 17.2718 13.6338 17.5239 13.8197 17.7098C14.0056 17.8956 14.2577 18 14.5205 18H16.4118V18.6177H13.6002V20.0586H17.4795C17.7424 20.0586 17.9945 19.9542 18.1803 19.7683C18.3662 19.5825 18.4706 19.3304 18.4706 19.0675V13.0588H16.4117V16.7647Z" fill="#0ABF53"/>
<path d="M23.2442 13.0588H19.2941V17.0089C19.2941 17.2718 19.3985 17.5239 19.5843 17.7097C19.7702 17.8956 20.0223 18 20.2852 18H24.1644V16.7647H21.6361C21.561 16.7647 21.4889 16.7349 21.4358 16.6818C21.3827 16.6287 21.3529 16.5567 21.3529 16.4816V14.2942H21.8933C21.9684 14.2942 22.0404 14.324 22.0935 14.3771C22.1466 14.4302 22.1764 14.5022 22.1764 14.5773V16.1471H23.2442C23.507 16.1471 23.7591 16.0427 23.945 15.8568C24.1308 15.6709 24.2352 15.4188 24.2352 15.156V14.0499C24.2352 13.9198 24.2096 13.7909 24.1598 13.6707C24.11 13.5504 24.037 13.4412 23.945 13.3491C23.8529 13.2571 23.7437 13.1841 23.6234 13.1343C23.5032 13.0845 23.3743 13.0588 23.2442 13.0588Z" fill="#0ABF53"/>
<path d="M29.0089 13.0588H25.0588V18H27.1177V14.2941H27.658C27.7331 14.2943 27.805 14.3242 27.858 14.3773C27.9111 14.4304 27.941 14.5023 27.9412 14.5773V18H30V14.0499C30 13.7871 29.8956 13.535 29.7097 13.3491C29.5239 13.1633 29.2718 13.0588 29.0089 13.0588Z" fill="#0ABF53"/>
</svg>
