<svg width="32" height="17" viewBox="0 0 32 17" fill="none" xmlns="http://www.w3.org/2000/svg">
<path d="M5.95009 7.05896H2.0708V8.29424L4.59918 8.29426C4.67428 8.29426 4.74631 8.32409 4.79941 8.3772C4.85252 8.4303 4.88235 8.50232 4.88235 8.57742V10.7648H4.342C4.2669 10.7648 4.19487 10.735 4.14177 10.6819C4.08866 10.6288 4.05883 10.5568 4.05883 10.4817V8.91191H2.99109C2.72824 8.91191 2.47615 9.01633 2.29028 9.2022C2.10442 9.38806 2 9.64015 2 9.903V11.0091C2 11.2719 2.10442 11.524 2.29028 11.7099C2.47615 11.8957 2.72824 12.0001 2.99109 12.0001H6.94118V8.05005C6.94118 7.7872 6.83676 7.53511 6.6509 7.34924C6.46503 7.16338 6.21295 7.05896 5.95009 7.05896Z" fill="#0ABF53"/>
<path d="M10.6469 10.7647H10.1066C10.0315 10.7647 9.95945 10.7349 9.90635 10.6818C9.85325 10.6287 9.82341 10.5566 9.82341 10.4815V7.05881H8.75574C8.49288 7.05881 8.2408 7.16323 8.05493 7.34909C7.86907 7.53496 7.76465 7.78705 7.76465 8.0499V11.0089C7.76465 11.2718 7.86907 11.5239 8.05493 11.7097C8.2408 11.8956 8.49288 12 8.75574 12H12.7058V5H10.647L10.6469 10.7647Z" fill="#0ABF53"/>
<path d="M16.4117 10.7649H15.8714C15.7963 10.7649 15.7243 10.735 15.6712 10.6819C15.618 10.6288 15.5882 10.5568 15.5882 10.4817V7.05896H13.5294V11.0091C13.5294 11.2719 13.6338 11.524 13.8197 11.7099C14.0056 11.8957 14.2577 12.0002 14.5205 12.0002H16.4118V12.6178H13.6002V14.0587H17.4795C17.7424 14.0587 17.9945 13.9543 18.1803 13.7684C18.3662 13.5826 18.4706 13.3305 18.4706 13.0676V7.05896H16.4117V10.7649Z" fill="#0ABF53"/>
<path d="M23.2442 7.05896H19.2941V11.0091C19.2941 11.2719 19.3985 11.524 19.5843 11.7099C19.7702 11.8957 20.0223 12.0001 20.2852 12.0001H24.1644V10.7648H21.6361C21.561 10.7648 21.4889 10.735 21.4358 10.6819C21.3827 10.6288 21.3529 10.5568 21.3529 10.4817V8.29428H21.8933C21.9684 8.29428 22.0404 8.32411 22.0935 8.37722C22.1466 8.43032 22.1764 8.50235 22.1764 8.57745V10.1472H23.2442C23.507 10.1472 23.7591 10.0428 23.945 9.85691C24.1308 9.67105 24.2352 9.41896 24.2352 9.15611V8.05005C24.2352 7.9199 24.2096 7.79102 24.1598 7.67078C24.11 7.55053 24.037 7.44127 23.945 7.34924C23.8529 7.25721 23.7437 7.18421 23.6234 7.1344C23.5032 7.0846 23.3743 7.05896 23.2442 7.05896Z" fill="#0ABF53"/>
<path d="M29.0089 7.05896H25.0588V12.0001H27.1177V8.29424H27.658C27.7331 8.29446 27.805 8.32437 27.858 8.37743C27.9111 8.43048 27.941 8.50238 27.9412 8.57741V12.0001H30V8.05005C30 7.7872 29.8956 7.53511 29.7097 7.34924C29.5239 7.16338 29.2718 7.05896 29.0089 7.05896Z" fill="#0ABF53"/>
</svg>
