<svg width="32" height="32" viewBox="0 0 32 32" fill="none" xmlns="http://www.w3.org/2000/svg">
<path fill-rule="evenodd" clip-rule="evenodd" d="M23.1093 2.60222C21.5302 2.23778 18.9345 2 16 2C13.0655 2 10.4698 2.23778 8.89072 2.60222C5.74228 3.2629 3.2629 5.74228 2.60222 8.89072C2.23778 10.4698 2 13.0655 2 16C2 18.9345 2.23778 21.5302 2.60222 23.1093C3.2629 26.2577 5.74228 28.7371 8.89072 29.3978C10.4698 29.7622 13.0655 30 16 30C18.9345 30 21.5302 29.7622 23.1093 29.3978C26.2577 28.7371 28.7371 26.2577 29.3978 23.1093C29.7622 21.5302 30 18.9345 30 16C30 13.0655 29.7622 10.4698 29.3978 8.89072C28.7371 5.74228 26.2577 3.2629 23.1093 2.60222Z" fill="#00B388"/>
<mask id="mask0_1136_7581" style="mask-type:luminance" maskUnits="userSpaceOnUse" x="2" y="2" width="28" height="28">
<path d="M23.1093 2.60222C21.5302 2.23778 18.9345 2 16 2C13.0655 2 10.4698 2.23778 8.89072 2.60222C5.74228 3.2629 3.2629 5.74228 2.60222 8.89072C2.23778 10.4698 2 13.0655 2 16C2 18.9345 2.23778 21.5302 2.60222 23.1093C3.2629 26.2577 5.74228 28.7371 8.89072 29.3978C10.4698 29.7622 13.0655 30 16 30C18.9345 30 21.5302 29.7622 23.1093 29.3978C26.2577 28.7371 28.7371 26.2577 29.3978 23.1093C29.7622 21.5302 30 18.9345 30 16C30 13.0655 29.7622 10.4698 29.3978 8.89072C28.7371 5.74228 26.2577 3.2629 23.1093 2.60222Z" fill="white"/>
</mask>
<g mask="url(#mask0_1136_7581)">
<path fill-rule="evenodd" clip-rule="evenodd" d="M19.3642 23.4936C19.0985 22.8612 18.5346 22.385 17.8484 22.241C17.4379 22.1462 16.763 22.0844 16 22.0844C15.2371 22.0844 14.5622 22.1462 14.1516 22.241C13.4704 22.3839 12.9096 22.8544 12.6416 23.48C12.5486 23.6971 12.3264 23.8294 12.0913 23.8078C12.0326 23.8025 11.982 23.7976 11.9393 23.7934C10.8414 23.6841 9.97847 23.5316 9.47709 23.3536C9.47628 23.3532 9.47529 23.3527 9.47411 23.3523C9.13766 23.2259 8.89825 22.9011 8.89825 22.5205C8.89825 22.5111 8.8984 22.5016 8.8987 22.4922C8.89947 22.4769 8.90037 22.4613 8.90139 22.4453C8.90169 22.4417 8.90201 22.4382 8.90235 22.4346C8.90331 22.4247 8.90391 22.415 8.90415 22.4057C8.98961 21.2631 9.68356 18.5879 10.7201 15.5345C11.905 12.0438 13.1441 9.21784 13.7029 8.66664C13.7921 8.57377 13.895 8.49599 14.0088 8.43601C14.0532 8.41065 14.1095 8.3864 14.1762 8.36352C14.178 8.36292 14.1797 8.36232 14.1815 8.36173C14.5486 8.23758 15.2253 8.15442 15.9994 8.15442C16.7748 8.15442 17.4514 8.23758 17.8179 8.36151C17.8203 8.36232 17.8221 8.36292 17.8238 8.36352C17.8906 8.3864 17.9469 8.41065 17.9913 8.43601C18.105 8.49599 18.2079 8.57377 18.2963 8.66564C18.2966 8.66594 18.2969 8.66627 18.2971 8.66664C18.8559 9.21784 20.0951 12.0438 21.28 15.5345C22.3165 18.5879 23.0104 21.2631 23.0959 22.4057C23.0961 22.415 23.0967 22.4247 23.0977 22.4346C23.098 22.4382 23.0984 22.4417 23.0987 22.4453C23.0997 22.4613 23.1006 22.4769 23.1014 22.4922C23.1017 22.5016 23.1018 22.5111 23.1018 22.5205C23.1018 22.9011 22.8624 23.2259 22.5259 23.3523C22.5248 23.3527 22.5238 23.3532 22.523 23.3536C22.022 23.5314 21.1601 23.6838 20.0636 23.7931C20.0158 23.7979 19.958 23.8034 19.8901 23.8096C19.6647 23.8301 19.4519 23.7023 19.3642 23.4936Z" fill="white"/>
</g>
</svg>
