<svg width="32" height="32" viewBox="0 0 32 32" fill="none" xmlns="http://www.w3.org/2000/svg">
<path d="M13.1591 7.11263C14.0594 5.38451 14.9158 3.72803 15.7721 2.07155C15.9117 2.0477 16.0512 2.02385 16.1907 2C20.8115 10.8675 25.3407 19.7825 30 28.8658C29.4511 28.9511 29.1393 29.0396 28.827 29.0416C26.8712 29.0545 24.9147 29.0216 22.9597 29.0621C22.2456 29.077 21.8974 28.7886 21.6005 28.1638C20.0213 24.8403 18.4009 21.5364 16.7846 18.2306C16.5982 17.8493 16.3486 17.4989 16.0009 16.9231C15.6725 17.4714 15.4468 17.7927 15.2765 18.1412C13.6775 21.4128 12.0571 24.6746 10.5169 27.9738C10.1196 28.825 9.62306 29.1046 8.71221 29.0688C6.94713 28.9992 5.17732 29.056 3.40962 29.0423C3.01963 29.0393 2.63022 28.9607 2 28.8898C5.77058 21.5267 9.4429 14.3555 13.1591 7.11263Z" fill="#F79621"/>
</svg>
