<svg width="32" height="32" viewBox="0 0 32 32" fill="none" xmlns="http://www.w3.org/2000/svg">
<path d="M16 2C23.7309 2 30 8.26908 30 16C30 23.7309 23.7309 30 16 30C8.26908 30 2 23.7365 2 16C2 8.26345 8.26908 2 16 2ZM14.1502 6.27871C12.4241 6.28434 10.861 9.06185 9.51727 14.5269C8.56707 14.5157 7.69558 14.4988 6.88032 14.4876H6.75663C6.65542 14.4819 6.55422 14.4875 6.45301 14.4988C5.99197 14.5831 5.66024 14.988 5.66024 15.4546C5.66024 15.9325 6.01446 16.343 6.48675 16.4161L6.49799 16.4273H9.07872C8.83695 17.5181 8.62892 18.6032 8.45462 19.6434L8.3759 20.0988V20.1213C8.3759 20.3406 8.48835 20.543 8.6739 20.661C8.97189 20.8522 9.37108 20.7622 9.56225 20.4643L9.57912 20.4811L10.8442 16.4273H16.939C17.4056 18.1928 17.8892 20.0088 18.5301 21.7181C18.8731 22.6345 19.6715 24.7711 21.0096 24.7823H21.0265C23.0956 24.7823 23.9052 21.4369 24.4394 19.2217C24.5574 18.7438 24.653 18.3333 24.7486 18.0297L24.788 17.906L24.7936 17.8878C24.8374 17.7298 24.7482 17.561 24.5912 17.5068C24.4281 17.4506 24.2426 17.5349 24.1863 17.7036L24.1414 17.8273C23.9671 18.3165 23.804 18.7719 23.6578 19.1823L23.6466 19.2161C22.747 21.7518 22.3422 22.91 21.5382 22.91H21.4876C20.4586 22.91 19.4972 18.7382 19.1317 17.1695C19.0699 16.8996 19.0137 16.6466 18.9574 16.4273H25.592C25.71 16.4273 25.8281 16.3992 25.9349 16.343L25.9401 16.3388C25.9462 16.3345 25.9546 16.3303 25.9631 16.3261L25.9968 16.3036L26.0137 16.2924C26.0305 16.2811 26.0474 16.2699 26.0643 16.253L26.0891 16.2324C26.2109 16.1265 26.2972 15.9786 26.3341 15.8257C26.4185 15.4265 26.1542 15.0329 25.755 14.9542H25.7213C25.6819 14.9486 25.6482 14.943 25.6088 14.943L25.5076 14.9317C23.1631 14.7631 20.751 14.6956 18.4851 14.6506L18.4795 14.6337C17.3831 10.5012 16.0056 6.27871 14.1502 6.27871ZM14.0771 8.13976C14.1727 8.13976 14.2627 8.19598 14.3414 8.29719C14.5325 8.6008 14.8699 9.28112 15.3703 10.788C15.7133 11.8225 16.0843 13.11 16.4779 14.6056C14.9823 14.5831 13.4755 14.5663 12.0137 14.5494L11.2715 14.5438C12.1092 11.2715 13.1269 8.79197 13.8747 8.20723C13.9365 8.16787 14.004 8.13976 14.0771 8.13976Z" fill="#10069F"/>
</svg>
