<svg width="32" height="32" viewBox="0 0 32 32" fill="none" xmlns="http://www.w3.org/2000/svg">
<g clip-path="url(#clip0_1768_150)">
<path d="M2.03491 14.5981L3.24871 16.9102C3.33158 17.0677 3.53586 17.1956 3.70461 17.1952L6.18074 17.19C6.34978 17.1896 6.41953 17.0614 6.33672 16.9036L5.1228 14.5916C5.04 14.4338 4.83576 14.3063 4.66685 14.3066L2.19077 14.3118C2.18695 14.3118 2.18325 14.3119 2.17943 14.3119C2.0188 14.318 1.95386 14.4438 2.03491 14.5981Z" fill="#75B82C"/>
<path d="M6.73827 17.2921L7.47332 18.6637C7.52332 18.7572 7.64561 18.8323 7.74631 18.8312L9.22161 18.8156C9.32237 18.8146 9.363 18.7378 9.31303 18.6442L8.57822 17.2728C8.52813 17.1791 8.40567 17.1042 8.30522 17.1053L6.82988 17.1208C6.82815 17.1208 6.82653 17.1208 6.8248 17.1208C6.72782 17.1244 6.68905 17.1999 6.73827 17.2921Z" fill="#75B82C"/>
<path d="M6.74685 12.0843L5.27173 13.9777C5.17091 14.1071 5.15755 14.3389 5.24173 14.4961L6.475 16.7978C6.55906 16.9548 6.70902 16.9775 6.80967 16.8484L8.28496 14.9546C8.38559 14.8255 8.39909 14.5934 8.31474 14.4363L7.08165 12.1346C7.03275 12.0437 6.96207 11.9979 6.89159 12.0004C6.84043 12.0025 6.78926 12.0299 6.74685 12.0843Z" fill="#3D90D5"/>
<path d="M6.40135 17.3151L5.52215 18.4433C5.46197 18.5203 5.45421 18.6586 5.50426 18.752L6.23914 20.1236C6.28942 20.2172 6.37865 20.2306 6.43871 20.1536L7.31766 19.0255C7.3776 18.9483 7.38561 18.81 7.3356 18.7167L6.60068 17.3451C6.57175 17.2909 6.5295 17.2636 6.48741 17.265C6.45705 17.266 6.42641 17.2825 6.40135 17.3151Z" fill="#3D90D5"/>
<path d="M22.5297 17.7167H23.0223V14.0087H22.5297V17.7167Z" fill="#3D90D5"/>
<path d="M13.7053 15.1803C12.999 15.1803 12.4264 15.753 12.4264 16.4595H12.4255V18.8212H12.9181V16.4595H12.9205C12.9205 16.0225 13.2748 15.6682 13.7114 15.6682C14.1484 15.6682 14.5025 16.0225 14.5025 16.4595C14.5025 16.8963 14.1484 17.2505 13.7114 17.2505C13.4651 17.2505 13.2449 17.1376 13.0999 16.9609V17.5862C13.2802 17.6833 13.4865 17.7386 13.7053 17.7386C14.4121 17.7386 14.9848 17.1657 14.9848 16.4595C14.9848 15.753 14.4121 15.1803 13.7053 15.1803Z" fill="#75B82C"/>
<path d="M16.4816 15.1803C15.775 15.1803 15.2025 15.753 15.2025 16.4595H15.2017V18.8212H15.6941V16.4595H15.6967C15.6967 16.0225 16.0507 15.6682 16.4875 15.6682C16.9247 15.6682 17.2788 16.0225 17.2788 16.4595C17.2788 16.8963 16.9247 17.2505 16.4875 17.2505C16.2411 17.2505 16.021 17.1376 15.876 16.9609V17.5862C16.0561 17.6833 16.2628 17.7386 16.4816 17.7386C17.1879 17.7386 17.7607 17.1657 17.7607 16.4595C17.7607 15.753 17.1879 15.1803 16.4816 15.1803Z" fill="#75B82C"/>
<path d="M10.8455 14.0087C10.1389 14.0087 9.56641 14.5815 9.56641 15.2879V17.7167H10.059V15.2879H10.0598C10.0598 14.8538 10.4114 14.502 10.8457 14.502C11.2797 14.502 11.6313 14.8538 11.6313 15.2879H11.632V15.5659H10.3665V16.0584H11.632V17.7167H12.1249V15.2879C12.1249 14.5815 11.5521 14.0087 10.8455 14.0087Z" fill="#75B82C"/>
<path d="M20.8849 15.2879C20.8849 14.8537 21.2369 14.5017 21.6714 14.5017V14.5014H22.2915V14.0087H21.6712C20.9649 14.0088 20.3922 14.5815 20.3922 15.2879V17.7167H20.8849V16.109H22.2461V15.6163H20.8849V15.2879Z" fill="#3D90D5"/>
<path d="M25.0843 15.1964V16.7448H25.084C25.0777 17.0563 24.8242 17.3071 24.5105 17.3071C24.1977 17.3071 23.9437 17.0563 23.9378 16.7448H23.9371V15.1964H23.4447V16.7463H23.4455C23.4513 17.2444 23.7989 17.6594 24.2646 17.7698V18.8212H24.7571V17.7698C25.2227 17.6594 25.5705 17.2444 25.5763 16.7463H25.5767V15.1964H25.0843Z" fill="#3D90D5"/>
<path d="M27.8534 16.6533C27.8033 16.8515 27.6765 17.0302 27.4852 17.1404C27.1092 17.3578 26.6283 17.2289 26.4111 16.8529C26.1939 16.4766 26.323 15.996 26.699 15.7787C27.0003 15.6047 27.369 15.6534 27.615 15.8732L26.5088 16.5118L26.7552 16.9386L27.2671 16.6429L28.3022 16.0453C28.2758 15.9684 28.2422 15.893 28.2 15.82C27.8467 15.2082 27.0641 14.9986 26.4525 15.3519C25.8405 15.7052 25.6312 16.4875 25.9844 17.0992C26.3376 17.7109 27.1196 17.9206 27.7315 17.5675C28.0814 17.3656 28.2994 17.0235 28.3561 16.6533H27.8534Z" fill="#3D90D5"/>
<path d="M29.9004 15.1802C29.6035 15.1802 29.331 15.2816 29.1143 15.4511V15.1919H28.6215V17.7167H29.1143V16.4594H29.1144C29.1144 16.0251 29.4664 15.6731 29.9004 15.6731V15.6728H30.0003V15.1802H29.9004Z" fill="#3D90D5"/>
<path d="M19.6298 16.5456L18.4046 15.9743L18.405 15.9738C18.3459 15.9445 18.3208 15.8738 18.3487 15.8139C18.3691 15.7698 18.4129 15.7444 18.4584 15.7443V15.7432H19.8564V15.2506H18.4584V15.2513C18.2271 15.2515 18.0058 15.3821 17.9016 15.6055C17.7585 15.9122 17.8908 16.2763 18.1964 16.4206L19.4217 16.9922L19.4216 16.9925C19.4216 16.9925 19.4217 16.9925 19.422 16.9927C19.483 17.021 19.5091 17.0931 19.4807 17.1539C19.4603 17.1982 19.4161 17.224 19.3703 17.2237V17.2243H17.938V17.7167H19.3704V17.7163C19.6016 17.716 19.8228 17.5854 19.927 17.3619C20.0706 17.0545 19.9376 16.689 19.6298 16.5456Z" fill="#75B82C"/>
</g>
<defs>
<clipPath id="clip0_1768_150">
<rect width="28" height="8.2036" fill="white" transform="translate(2 12)"/>
</clipPath>
</defs>
</svg>
