<svg width="32" height="32" viewBox="0 0 32 32" fill="none" xmlns="http://www.w3.org/2000/svg">
<circle cx="16" cy="16" r="14" fill="#FDF391"/>
<path d="M14.9246 19.4847V19.5306H14.9399L14.9246 19.4847Z" fill="#1B1E22"/>
<path d="M15.905 8.01711C15.2895 8.09792 14.7365 8.2301 14.2199 8.59929C13.6355 9.01695 13.3095 9.60957 12.9573 10.2166C12.5477 10.9223 12.1359 11.627 11.7227 12.3306C11.4592 12.7793 11.2008 13.2311 10.9355 13.6787C10.8725 13.785 10.657 14.039 10.7538 14.1637C10.8506 14.2883 11.0052 14.1484 11.0948 14.0916C11.4203 13.8854 11.7868 13.7741 12.1671 13.729C13.0959 13.6191 14.0497 14.1626 14.4978 14.9655C15.5139 16.7868 16.4399 18.661 17.4322 20.4957C17.7269 21.0405 17.9746 21.6488 18.363 22.1349C19.0871 23.0415 20.2507 23.4554 21.3893 23.2797C23.1589 23.0062 24.326 21.1568 23.9188 19.4387C23.8108 18.9833 23.5819 18.5942 23.3694 18.1825C23.0378 17.5402 22.6883 16.9071 22.351 16.2676C21.2638 14.2071 20.1797 12.1433 19.0713 10.094C18.8602 9.70362 18.6602 9.31903 18.3547 8.99104C17.7761 8.36985 16.7704 7.90351 15.905 8.01711Z" fill="#1B1E22"/>
<path d="M11.2173 16.3507C10.5006 16.4449 9.86312 16.6497 9.28712 17.1051C8.95286 17.3692 8.66945 17.7063 8.45759 18.0753C7.55835 19.6415 8.02237 21.6804 9.51691 22.7012C9.85883 22.9349 10.2496 23.1003 10.6505 23.1999C11.0706 23.3045 11.5096 23.3204 11.9373 23.2642C12.4416 23.1979 12.9377 23.019 13.362 22.7374C13.7511 22.4793 14.0923 22.1573 14.3524 21.7672C15.3688 20.2431 15.0225 18.1262 13.5459 17.0279C13.2156 16.7824 12.839 16.5927 12.4429 16.48C12.0579 16.3704 11.6181 16.2981 11.2173 16.3507Z" fill="#1B1E22"/>
</svg>
