<svg width="32" height="32" viewBox="0 0 32 32" fill="none" xmlns="http://www.w3.org/2000/svg">
<path d="M5.3335 27.8875V24.4094H8.23225V7.47812H5.3335V4H16.8085C22.0259 4 25.2722 6.319 25.2722 10.4927C25.2722 13.1552 23.6485 14.7827 21.562 15.5942C24.577 16.4057 26.6635 18.3767 26.6635 21.1592C26.6665 25.5651 23.1887 28 17.3875 28H5.3335V27.8875ZM12.1735 7.48187V13.975H16.4635C19.7099 13.975 21.3332 12.8155 21.3332 10.7286C21.3332 8.52588 19.594 7.48225 16.3476 7.48225L12.1735 7.48187ZM12.1735 24.4094H17.0432C20.8694 24.4094 22.7245 23.2499 22.7245 20.9313C22.7245 18.6126 20.7535 17.4531 16.8115 17.4531H12.1739L12.1735 24.4094Z" fill="#3E3C42"/>
</svg>
