<svg width="32" height="32" viewBox="0 0 32 32" fill="none" xmlns="http://www.w3.org/2000/svg">
<g clip-path="url(#clip0_1868_150)">
<path d="M20.72 16.3662C20.7332 16.3755 20.7464 16.3848 20.76 16.3944C20.6874 16.4966 20.6148 16.5989 20.54 16.7042C20.54 16.5871 20.5849 16.5311 20.64 16.4507C20.6862 16.3979 20.6862 16.3979 20.72 16.3662Z" fill="#CBCA00"/>
<g clip-path="url(#clip1_1868_150)">
<path d="M12.6462 7.97647C7.50202 10.0329 5.6789 16.2427 8.72624 20.8269C11.3956 24.8402 17.1636 25.8949 21.2469 23.4387C22.8035 22.5022 23.9624 21.1442 24.7236 19.3647C24.7285 19.353 24.731 19.3404 24.7308 19.3277C24.7306 19.315 24.7278 19.3025 24.7225 19.291C24.7173 19.2794 24.7097 19.2691 24.7002 19.2606C24.6907 19.2522 24.6796 19.2457 24.6676 19.2418L20.5173 17.8589C20.4759 17.8444 20.4453 17.8574 20.4256 17.8978C18.2058 22.4976 11.6522 20.6916 12.0007 15.6236C12.3211 10.9818 18.2571 10.0282 20.4287 13.8674C20.4567 13.9161 20.4971 13.9317 20.55 13.914L24.6396 12.5514C24.6487 12.5483 24.657 12.5434 24.6641 12.5369C24.6711 12.5304 24.6768 12.5225 24.6806 12.5137C24.6844 12.5049 24.6863 12.4954 24.6862 12.4858C24.6861 12.4762 24.684 12.4667 24.68 12.458C22.5676 7.76647 17.26 6.13313 12.6462 7.97647Z" stroke="#80CDDA" stroke-width="2"/>
<path d="M5.32267 2H26.696C28.6404 2.27067 29.7418 3.37822 30 5.32267V26.696C29.7293 28.6394 28.6213 29.7407 26.6758 30H5.304C3.36059 29.7293 2.25926 28.6213 2 26.6758V5.30556C2.27067 3.36007 3.37822 2.25822 5.32267 2ZM12.6462 7.97644C7.502 10.0329 5.67889 16.2427 8.72622 20.8269C11.3956 24.8402 17.1636 25.8949 21.2469 23.4387C22.8035 22.5022 23.9624 21.1442 24.7236 19.3647C24.7285 19.353 24.7309 19.3404 24.7308 19.3277C24.7306 19.315 24.7278 19.3025 24.7225 19.2909C24.7172 19.2794 24.7096 19.2691 24.7002 19.2606C24.6907 19.2521 24.6796 19.2457 24.6676 19.2418L20.5173 17.8589C20.4759 17.8444 20.4453 17.8573 20.4256 17.8978C18.2058 22.4976 11.6522 20.6916 12.0007 15.6236C12.3211 10.9818 18.2571 10.0282 20.4287 13.8673C20.4567 13.9161 20.4971 13.9316 20.55 13.914L24.6396 12.5513C24.6486 12.5483 24.657 12.5433 24.6641 12.5369C24.6711 12.5304 24.6767 12.5225 24.6806 12.5137C24.6844 12.5049 24.6863 12.4954 24.6862 12.4858C24.6861 12.4762 24.684 12.4667 24.68 12.458C22.5676 7.76645 17.26 6.13311 12.6462 7.97644Z" fill="#009BB5"/>
<path d="M12.6462 7.97647C17.26 6.13313 22.5676 7.76647 24.68 12.458C24.684 12.4667 24.6861 12.4762 24.6862 12.4858C24.6863 12.4954 24.6844 12.5049 24.6806 12.5137C24.6768 12.5225 24.6711 12.5304 24.6641 12.5369C24.657 12.5434 24.6487 12.5483 24.6396 12.5514L20.55 13.914C20.4971 13.9317 20.4567 13.9161 20.4287 13.8674C18.2571 10.0282 12.3211 10.9818 12.0007 15.6236C11.6522 20.6916 18.2058 22.4976 20.4256 17.8978C20.4453 17.8574 20.4759 17.8444 20.5173 17.8589L24.6676 19.2418C24.6796 19.2457 24.6907 19.2522 24.7002 19.2606C24.7097 19.2691 24.7173 19.2794 24.7225 19.291C24.7278 19.3025 24.7306 19.315 24.7308 19.3277C24.731 19.3404 24.7285 19.353 24.7236 19.3647C23.9624 21.1442 22.8035 22.5022 21.2469 23.4387C17.1636 25.8949 11.3956 24.8402 8.72624 20.8269C5.6789 16.2427 7.50202 10.0329 12.6462 7.97647Z" fill="white"/>
</g>
</g>
<defs>
<clipPath id="clip0_1868_150">
<rect width="32" height="32" fill="white"/>
</clipPath>
<clipPath id="clip1_1868_150">
<rect width="28" height="28" fill="white" transform="translate(2 2)"/>
</clipPath>
</defs>
</svg>
