<svg width="32" height="32" viewBox="0 0 32 32" fill="none" xmlns="http://www.w3.org/2000/svg">
<path d="M27.3963 16.7512L28.0854 25.5449L15.8879 27.7338L14.8379 18.94L16.5804 18.6968C16.8639 18.8184 17.0669 18.8586 17.3911 18.94C17.9179 19.0616 18.526 19.2235 19.4167 18.7374C19.6193 18.6158 20.0651 18.2509 20.2274 18.0081L27.3963 16.7512ZM8.55187 27.2074C8.34931 26.8837 7.98444 26.5184 7.417 26.0726C6.60631 25.4242 6.89025 24.2893 7.37631 23.6007C7.98881 22.4256 11.1856 20.8856 11.0238 18.9807C10.9428 18.2916 10.8619 17.4 10.2131 16.7516C10.1724 16.9949 10.2131 17.2381 10.2131 17.2381C10.2131 17.2381 9.92956 16.9144 9.80794 16.4274C9.68631 16.2656 9.56469 16.1842 9.44306 15.9409C9.36213 16.2244 9.36212 16.5084 9.36212 16.5084C9.36212 16.5084 9.15956 15.9816 9.11888 15.5765C8.99725 15.7791 8.957 16.1439 8.957 16.1439C8.957 16.1439 8.6735 15.3333 8.75444 14.8883C8.63281 14.5234 8.22769 13.7534 8.34931 12.0516C9.03837 12.5381 10.5784 12.4164 11.1861 11.5248C11.3886 11.2413 11.5098 10.4311 11.1051 8.84994C10.8216 7.83669 10.1326 6.33738 9.8495 5.76994L9.80881 5.81063C9.97069 6.25688 10.2551 7.229 10.3763 7.7155C10.7 9.13388 10.8225 9.62038 10.6598 10.2688C10.5381 10.8362 10.2135 11.2006 9.363 11.6062C8.55231 12.0113 7.41787 10.9937 7.37675 10.9578C6.56606 10.3094 5.95838 9.25156 5.87744 8.76944C5.7965 8.202 6.20119 7.87781 6.40419 7.432C6.12069 7.51294 5.79169 7.67525 5.79169 7.67525C5.79169 7.67525 6.15656 7.27013 6.64262 6.94594C6.8274 6.83815 7.00352 6.71616 7.16937 6.58106H6.64787C6.64787 6.58106 7.13437 6.29756 7.66112 6.13481H6.93225L8.87738 5.28388C9.48987 5.04063 10.0525 5.122 10.3767 5.56738C10.8229 6.17988 11.2683 6.49925 12.2002 6.7425C12.7676 6.49925 12.9702 6.33738 13.6995 6.13C14.3479 5.40069 14.8746 5.31931 14.8746 5.31931C14.8746 5.31931 14.5098 5.64306 14.4695 6.00838C14.8344 5.72488 15.2395 5.48163 15.2395 5.48163C15.2395 5.48163 15.0776 5.68419 14.956 5.96813L14.9967 6.00881C15.4429 5.76556 15.9286 5.56256 15.9286 5.56256C15.9286 5.56256 15.7667 5.72444 15.6048 5.96769C15.9286 5.96769 16.5774 5.96769 16.8211 6.00838C18.3204 6.04906 18.6446 4.42769 19.212 4.18488C19.9413 3.94163 20.2655 3.77975 21.4813 4.99556C22.5348 6.04906 23.3451 7.873 22.9404 8.27813C22.6166 8.60188 21.9271 8.1565 21.1571 7.22463C20.752 6.73813 20.4681 6.13088 20.3062 5.40113C20.2252 4.78863 19.7794 4.42856 19.7794 4.42856C19.7794 4.42856 20.0629 5.04106 20.0629 5.56344C20.0629 5.84694 20.1036 6.90088 20.5494 7.50856C20.5087 7.5895 20.4685 7.95481 20.4278 7.99506C19.9011 7.34669 18.7216 6.90131 18.5641 6.73944C19.2124 7.26619 20.6715 8.44569 21.2389 9.57619C21.7657 10.6699 21.4415 11.6429 21.7254 11.8862C21.8064 11.9671 22.8603 13.2643 23.0629 13.9529C23.4277 15.1281 23.1036 16.3439 22.6166 17.0732L21.3199 17.2758C21.1505 17.2463 20.9865 17.1916 20.8334 17.1134C20.9143 16.9516 21.1169 16.546 21.1169 16.4651L21.0359 16.3434C20.6308 16.9109 19.9422 17.4783 19.3743 17.8025C18.645 18.2076 17.7936 18.1674 17.2306 17.9644C15.6499 17.4779 14.1506 16.4244 13.8268 16.1409C13.8268 16.1409 13.8268 16.3434 13.8675 16.4244C14.5238 17.115 15.2582 17.727 16.0559 18.2479L14.1921 18.4504L15.0838 25.3398C14.6786 25.3804 14.6375 25.4207 14.1921 25.5016C13.8273 24.1642 13.0984 23.3133 12.2873 22.7865C11.5982 22.3403 10.6256 22.2191 9.69375 22.4216L9.65306 22.5026C10.3014 22.4216 11.0714 22.5433 11.8414 23.0293C12.6114 23.5154 13.2196 24.7719 13.4624 25.5012C13.7459 26.4738 13.9489 27.4874 13.1789 28.5812C12.6114 29.3512 10.9905 29.7974 9.69375 28.8647C10.0586 29.4321 10.5044 29.8779 11.1528 29.9584C12.0847 30.0801 12.9763 29.9178 13.6247 29.3101C14.1514 28.7833 14.4354 27.6484 14.354 26.4326L15.2049 26.311L15.4884 28.4548L29.3016 26.8063L28.0854 15.7834L27.3963 15.9051L26.0186 2L3 4.67488L5.83675 27.6121L8.55187 27.2074Z" fill="#5C2D90"/>
<path d="M19.5038 15.1513C20.1163 15.5975 20.6387 15.8806 21.1654 15.8403C21.4892 15.7996 21.8138 15.2729 22.0164 14.7868C22.1782 14.4631 22.1782 14.0978 21.9354 13.9761C21.8138 13.9354 21.3229 13.9354 20.9629 13.9761C20.2738 14.0571 19.5847 14.2999 19.4229 14.4224C19.1796 14.5843 19.3012 14.9898 19.5038 15.1517M19.6657 10.4092V10.4499L19.7064 10.5308C19.8682 10.8546 20.0301 11.1792 20.3547 11.3415C20.4357 11.3415 20.5166 11.3008 20.598 11.3008C20.8815 11.3008 21.0442 11.3415 21.1654 11.3818V11.1385C21.1247 10.7334 21.2464 10.0036 20.4361 9.5985C20.1124 9.43663 19.7068 9.51757 19.5445 9.67944H19.6254C19.828 9.76038 19.7064 9.84132 19.6661 9.92269C19.6254 10.0846 19.5852 10.1253 19.6661 10.4092" fill="#5C2D90"/>
<path d="M16.0182 10.4906C16.2208 10.3287 15.0864 10.0854 14.1947 10.6524C13.5464 11.0987 13.5464 12.0306 14.1541 12.5573C14.215 12.5876 14.2699 12.6288 14.3159 12.6789C14.4778 12.598 14.7211 12.5171 14.9284 12.4357C15.3336 12.3141 15.6577 12.2331 15.9417 12.1924C16.0633 12.0306 16.2252 11.7873 16.1849 11.3415C16.1442 10.729 15.6582 10.855 16.0231 10.4906M22.6284 20.3343L20.6833 23.5718L18.414 22.8827L16.4277 25.9221L16.5087 26.8946L27.3696 24.9084L26.7212 18.1402L24.938 21.8686L22.6284 20.3343Z" fill="#5C2D90"/>
</svg>
