<svg width="32" height="32" viewBox="0 0 32 32" fill="none" xmlns="http://www.w3.org/2000/svg">
<path d="M11.758 6H8.93V13.9185H11.758V6ZM23.084 17.878H20.256V25.7965H23.084V17.878ZM14.2975 25.7965H17.7165L12.3235 17.8555V22.8895L14.2975 25.7965ZM8.3645 22.889V17.855L2.974 25.796H6.393L8.364 22.889H8.3645ZM23.65 8.907V13.941L29.04 6H25.6235L23.6495 8.907H23.65ZM19.6905 8.907L17.7165 6H14.2975L19.6905 13.941V8.907ZM19.688 14.484H12.324V17.312H19.688V14.484ZM31 14.484H23.636V17.312H31V14.484ZM8.3645 14.484H1V17.312H8.3645V14.484Z" fill="#2B2E35"/>
</svg>
