<svg width="32" height="32" viewBox="0 0 32 32" fill="none" xmlns="http://www.w3.org/2000/svg">
<rect width="32" height="32" fill="white"/>
<path d="M16 2C8.26806 2 2 8.26806 2 16C2 23.7319 8.26806 30 16 30C23.7319 30 30 23.7319 30 16C30 8.26806 23.7319 2 16 2ZM10.9976 22.7146C14.1834 25.2968 19.1706 24.5747 22.0432 21.1367C19.2566 20.7673 15.9664 19.8945 13.2973 18.8537C12.5756 20.247 12.0216 21.3549 10.9976 22.7146ZM19.1895 8.63633C17.4436 9.08389 15.1607 12.9784 13.8177 17.2422C17.0743 18.7194 19.6259 19.3237 23.151 19.7489C23.151 19.7489 26.4077 12.4636 19.1895 8.63633ZM18.0144 26.542C14.2103 27.2735 9.28536 25.283 7.45563 22.3621C7.45563 22.3621 10.0735 19.4594 10.7962 17.7626C10.017 17.1581 9.5483 16.8102 9.05119 16.367C6.1825 13.8091 6.23347 10.2888 9.16045 7.789C12.4239 5.00191 17.3913 4.55117 21.2239 6.69459C25.0939 8.85891 27.3014 13.312 26.6004 17.5405C25.8318 22.1763 22.3535 25.7076 18.0144 26.542ZM16.6715 8.07677C14.4777 8.04505 12.8196 8.48528 11.2786 9.57455C8.74559 11.365 8.86875 14.2215 11.5827 15.9256C12.8777 12.9448 13.9258 10.2335 16.6715 8.07677Z" fill="#4C4C4B"/>
</svg>
