<svg width="32" height="32" viewBox="0 0 32 32" fill="none" xmlns="http://www.w3.org/2000/svg">
<path d="M6 25L16.3868 6.29143C16.6057 5.89714 17.1975 5.90434 17.4055 6.30453L21 13.2105L6 25Z" fill="#FF8F00"/>
<path d="M6 25L9.69733 2.52071C9.794 1.93242 10.5953 1.8049 10.8753 2.33338L18 15.7977L6 25Z" fill="#FFA000"/>
<path d="M6 25L6.13537 24.8952L18 15.3242L14.6536 9L6 25Z" fill="#FF6F00"/>
<path d="M6 24.3401L23.4996 8.16891C23.8664 7.82993 24.4787 8.02992 24.5535 8.51293L27 24.3401L17.1562 29.8387C16.7566 30.0538 16.269 30.0538 15.8693 29.8387L6 24.3401Z" fill="#FFC400"/>
</svg>
