<svg width="32" height="32" viewBox="0 0 32 32" fill="none" xmlns="http://www.w3.org/2000/svg">
<path d="M15.9995 0C7.16214 0 0 7.16382 0 16C0 24.8354 7.16214 32 15.9995 32C24.8343 32 32 24.8354 32 16C32 7.16382 24.8343 0 15.9995 0Z" fill="white"/>
<path d="M15.9683 5.60238C15.9683 5.14934 15.7249 4.89647 15.291 4.89647H14V3H16.1799C17.5027 3 18.0529 3.57948 18.0529 4.95969V10.8177C18.0529 11.5552 17.9894 12.1347 17.9894 12.1347H18.0529C18.0529 12.1347 19.3439 9.04764 23.291 9.04764C27.4286 9.04764 30 12.5245 30 17.5396C30 22.6496 27.09 26 23.037 26C19.3545 26 17.9788 22.8814 17.9788 22.8814H17.9153C17.9153 22.8814 17.9788 23.4292 17.9788 24.1984V25.6102H15.9577L15.9683 5.60238ZM22.8889 24.0719C25.619 24.0719 27.8519 21.6592 27.8519 17.5396C27.8519 13.5781 25.8307 11.0389 22.9735 11.0389C20.4021 11.0389 17.9788 12.967 17.9788 17.5712C17.9894 20.8163 19.5873 24.0719 22.8889 24.0719Z" fill="black"/>
<path d="M5.11628 11.5106H3V9.65957H5.12791V9.07447C5.12791 3.68085 9.06977 3 10.9535 3C11.593 3 12 3.06383 12 3.06383V5.04255C12 5.04255 11.6977 4.97872 11.186 4.97872C9.90698 4.97872 7.4186 5.43617 7.4186 9.07447V9.65957H11.7326V11.5106H7.40698V26H5.11628V11.5106Z" fill="black"/>
</svg>
