<svg width="32" height="32" viewBox="0 0 32 32" fill="none" xmlns="http://www.w3.org/2000/svg">
<g clip-path="url(#clip0_1430_7484)">
<path d="M16 2.00005C13.2381 2.00714 10.5404 2.83515 8.24792 4.37938C5.95545 5.9236 4.1712 8.11469 3.12081 10.6756C2.07042 13.2364 1.80107 16.052 2.34681 18.7664C2.89256 21.4807 4.22888 23.9719 6.18681 25.9248C8.14473 27.8777 10.6363 29.2047 13.3465 29.7379C16.0567 30.2712 18.8637 29.9867 21.4126 28.9206C23.9615 27.8544 26.1379 26.0544 27.6664 23.7482C29.195 21.442 30.0071 18.7332 30 15.9642C29.9953 14.1257 29.6295 12.3062 28.9234 10.6094C28.2173 8.91263 27.1847 7.37192 25.8847 6.07522C24.5847 4.77852 23.0427 3.75124 21.3466 3.05202C19.6506 2.3528 17.8338 1.99534 16 2.00005Z" fill="#009B00"/>
<path d="M24.5 15.0332H16.9286V7.44238H15V15.0332H7.42859V16.9667H15V24.5575H16.9286V16.9667H24.5V15.0332Z" fill="white"/>
</g>
<defs>
<clipPath id="clip0_1430_7484">
<rect width="28" height="28" fill="white" transform="translate(2 2)"/>
</clipPath>
</defs>
</svg>
