<svg xmlns="http://www.w3.org/2000/svg" width="512" height="512" viewBox="0 0 512 512" version="1.1"><path d="M 0 256.002 L 0 512.004 256.250 511.752 L 512.500 511.500 512.752 255.750 L 513.004 0 256.502 0 L 0 0 0 256.002 M 0.492 256.500 C 0.492 397.300, 0.608 454.751, 0.750 384.170 C 0.892 313.588, 0.892 198.388, 0.750 128.170 C 0.608 57.951, 0.492 115.700, 0.492 256.500 M 235 67.105 C 170.153 74.419, 113.523 114.578, 84.968 173.500 C 49.219 247.266, 65.007 335.548, 124.136 392.523 C 139.821 407.636, 154.090 417.610, 173.500 427.026 C 267.691 472.720, 381.192 433.089, 427.032 338.500 C 468.890 252.128, 439.831 149.318, 358.500 96.036 C 323.763 73.280, 277.125 62.354, 235 67.105 M 243 191.500 L 243 243 191.500 243 L 140 243 140 256 L 140 269 191.500 269 L 243 269 243 320.500 L 243 372 256 372 L 269 372 269 320.500 L 269 269 320.500 269 L 372 269 372 256 L 372 243 320.500 243 L 269 243 269 191.500 L 269 140 256 140 L 243 140 243 191.500" stroke="none" fill="#fbfbfb" fill-rule="evenodd"/><path d="M 235 67.105 C 170.153 74.419, 113.523 114.578, 84.968 173.500 C 49.219 247.266, 65.007 335.548, 124.136 392.523 C 139.821 407.636, 154.090 417.610, 173.500 427.026 C 267.691 472.720, 381.192 433.089, 427.032 338.500 C 468.890 252.128, 439.831 149.318, 358.500 96.036 C 323.763 73.280, 277.125 62.354, 235 67.105 M 243 191.500 L 243 243 191.500 243 L 140 243 140 256 L 140 269 191.500 269 L 243 269 243 320.500 L 243 372 256 372 L 269 372 269 320.500 L 269 269 320.500 269 L 372 269 372 256 L 372 243 320.500 243 L 269 243 269 191.500 L 269 140 256 140 L 243 140 243 191.500" stroke="none" fill="#049c04" fill-rule="evenodd"/></svg>