<svg width="32" height="32" viewBox="0 0 32 32" fill="none" xmlns="http://www.w3.org/2000/svg">
<path fill-rule="evenodd" clip-rule="evenodd" d="M14.4498 2.08058C9.6723 2.61952 5.50021 5.57863 3.39648 9.92029C0.762743 15.3557 1.92589 21.8608 6.2821 26.059C7.43766 27.1726 8.48889 27.9075 9.91889 28.6013C16.8582 31.9683 25.2202 29.0481 28.5973 22.0783C31.6811 15.714 29.5403 8.13844 23.5484 4.21236C20.9892 2.53559 17.5532 1.73051 14.4498 2.08058ZM15.0392 11.2466V15.0414H11.245H7.45084V15.9993V16.9572H11.245H15.0392V20.752V24.5467H15.9969H16.9546V20.752V16.9572H20.7488H24.543V15.9993V15.0414H20.7488H16.9546V11.2466V7.45184H15.9969H15.0392V11.2466Z" fill="#049C04"/>
</svg>
