<svg width="32" height="32" viewBox="0 0 32 32" fill="none" xmlns="http://www.w3.org/2000/svg">
<g clip-path="url(#clip0_1705_150)">
<path d="M10.8429 15.2008H8.17857C8.03146 15.2008 7.91705 15.3643 7.96608 15.4951L8.60356 17.146C8.63625 17.2113 8.57087 17.2931 8.48914 17.2931L7.67186 17.244C7.63917 17.244 7.60648 17.2604 7.57379 17.2931L6.95266 18.1921C6.91996 18.2411 6.85458 18.2575 6.7892 18.2248L5.84116 17.5873C5.80846 17.5546 5.75943 17.5546 5.71039 17.5873L4.40274 18.47C4.32101 18.5353 4.2066 18.4536 4.23929 18.3555L4.61524 17.0479C4.63158 16.9988 4.59889 16.9335 4.54985 16.9171L3.86334 16.6392C3.79796 16.6066 3.76526 16.5248 3.8143 16.4758L4.41909 15.7239C4.45178 15.6912 4.45178 15.6258 4.41909 15.5931L3.91237 14.8576C3.86334 14.7922 3.91237 14.6941 3.9941 14.6941L4.79504 14.6287C4.86042 14.6287 4.89311 14.5797 4.89311 14.5143L4.82773 13.4028C4.82773 13.3211 4.90946 13.2721 4.97484 13.2884L5.95557 13.697C6.00461 13.7134 6.05365 13.697 6.08634 13.6643L6.77285 12.9124C6.82189 12.8471 6.91996 12.8634 6.95266 12.9451L7.3613 13.9913C7.41033 14.122 7.57379 14.1711 7.68821 14.0893L9.29007 12.8961C9.46988 12.7653 9.35546 12.4711 9.12662 12.5038L8.09685 12.6346C8.04781 12.6346 7.99877 12.6182 7.98243 12.5692L7.42668 11.1471C7.3613 11 7.18149 10.9673 7.06707 11.0817L5.8575 12.3894C5.82481 12.4221 5.77577 12.4384 5.72674 12.4221L4.14121 11.7519C3.9941 11.6865 3.84699 11.7846 3.83065 11.9481L3.76526 13.5826C3.76526 13.648 3.71623 13.6807 3.66719 13.6807L2.21243 13.7788C2.04898 13.7951 1.9509 13.9749 2.04898 14.122L3.01337 15.5441C3.04606 15.5768 3.04606 15.6422 3.01337 15.6749L2.03263 16.8027C1.9509 16.8844 1.99994 17.0642 2.13071 17.1133L3.25855 17.6036C3.30759 17.62 3.34028 17.6854 3.32393 17.7344L2.60473 20.5295C2.55569 20.7256 2.78453 20.8728 2.94798 20.7583L5.64501 18.8296C5.6777 18.7969 5.72674 18.7969 5.77577 18.8296L7.00169 19.6959C7.09977 19.7613 7.24688 19.7449 7.31226 19.6305L8.0805 18.4536C8.09685 18.4209 8.14588 18.4046 8.17857 18.4046L10.0093 18.6334C10.1564 18.6498 10.3035 18.5353 10.2545 18.3882L9.48622 16.4104C9.46988 16.3614 9.48622 16.296 9.5516 16.2633L10.941 15.6095C11.1371 15.5114 11.0717 15.2008 10.8429 15.2008Z" fill="#8039E9"/>
<path d="M29.9182 15.2008H27.8586C27.8259 15.2008 27.7769 15.2335 27.7769 15.2825V16.1979C27.7769 16.2306 27.8096 16.2796 27.8586 16.2796H28.7413C28.7903 16.2796 28.823 16.3123 28.823 16.3613C28.823 16.8354 28.725 17.6853 27.8586 17.6853C27.1558 17.6853 26.8779 16.8354 26.8779 15.8546C26.8779 14.6778 27.1721 13.9585 27.8096 13.9585C28.2836 13.9585 28.4307 14.3508 28.4798 14.498C28.4961 14.5306 28.5125 14.547 28.5452 14.547H29.624C29.673 14.547 29.7057 14.5143 29.7057 14.4653C29.6567 13.8768 29.1663 12.847 27.8423 12.847C26.9106 12.847 26.0443 13.4191 25.7664 14.8085V13.0105C25.7664 12.9942 25.7501 12.9778 25.7337 12.9778H24.5895C24.5732 12.9778 24.5568 12.9942 24.5568 13.0105V16.2142C24.5568 16.2469 24.5078 16.2633 24.4914 16.2306L23.004 12.9942C23.004 12.9778 22.9877 12.9778 22.9713 12.9778H21.9415C21.9252 12.9778 21.9088 12.9942 21.9088 13.0105V14.8085C21.5329 13.6643 20.5195 12.847 19.2118 12.847C17.7407 12.847 16.6456 13.8605 16.4004 15.2172H14.3408C14.3245 15.2172 14.3081 15.2335 14.3081 15.2498V16.2306C14.3081 16.2469 14.3245 16.2633 14.3408 16.2633H15.3052C15.3216 16.2633 15.3379 16.2796 15.3379 16.296C15.3379 16.7536 15.2562 17.6527 14.3735 17.6527C13.6707 17.6527 13.3928 16.8027 13.3928 15.8219C13.3928 14.6451 13.687 13.9259 14.3245 13.9259C14.8312 13.9259 14.962 14.3835 14.9947 14.498C14.9947 14.5143 15.011 14.5306 15.0273 14.5306H16.1715C16.1879 14.5306 16.2042 14.5143 16.2042 14.498C16.1879 13.9259 15.6812 12.847 14.3245 12.847C13.1966 12.847 12.1669 13.6807 12.1669 15.8219C12.1669 17.293 12.739 18.7642 14.3408 18.7642C15.5341 18.7642 16.286 17.8488 16.4494 16.7373C16.809 17.9142 17.8388 18.7642 19.1791 18.7642C20.4704 18.7642 21.5002 17.9469 21.8762 16.8027V18.617C21.8762 18.6334 21.8925 18.6497 21.9088 18.6497H23.053C23.0694 18.6497 23.0857 18.6334 23.0857 18.617V15.446C23.0857 15.4133 23.1348 15.397 23.1511 15.4296L24.6386 18.617C24.6386 18.6334 24.6549 18.6334 24.6712 18.6334H25.6847C25.701 18.6334 25.7174 18.617 25.7174 18.6007V16.8027C25.9462 17.8815 26.5673 18.7642 27.8096 18.7642C29.1663 18.7642 29.9509 17.5709 29.9509 16.2633V15.2825C29.9999 15.2335 29.9509 15.2008 29.9182 15.2008ZM19.1955 17.5709C18.2474 17.5709 17.5773 16.8354 17.5773 15.8056C17.5773 14.7758 18.2474 14.0403 19.1955 14.0403C20.1435 14.0403 20.8137 14.7758 20.8137 15.8056C20.8137 16.8354 20.1599 17.5709 19.1955 17.5709Z" fill="#3E0075"/>
</g>
<defs>
<clipPath id="clip0_1705_150">
<rect width="28" height="9.80735" fill="white" transform="translate(2 11)"/>
</clipPath>
</defs>
</svg>
