<svg width="32" height="26" viewBox="0 0 32 26" fill="none" xmlns="http://www.w3.org/2000/svg">
<g clip-path="url(#clip0_1705_150)">
<path d="M8.84291 12.2008H6.17857C6.03146 12.2008 5.91705 12.3643 5.96608 12.4951L6.60356 14.146C6.63625 14.2113 6.57087 14.2931 6.48914 14.2931L5.67186 14.244C5.63917 14.244 5.60648 14.2604 5.57379 14.2931L4.95266 15.1921C4.91996 15.2411 4.85458 15.2575 4.7892 15.2248L3.84116 14.5873C3.80846 14.5546 3.75943 14.5546 3.71039 14.5873L2.40274 15.47C2.32101 15.5353 2.2066 15.4536 2.23929 15.3555L2.61524 14.0479C2.63158 13.9988 2.59889 13.9335 2.54985 13.9171L1.86334 13.6392C1.79796 13.6066 1.76526 13.5248 1.8143 13.4758L2.41909 12.7239C2.45178 12.6912 2.45178 12.6258 2.41909 12.5931L1.91237 11.8576C1.86334 11.7922 1.91237 11.6941 1.9941 11.6941L2.79504 11.6287C2.86042 11.6287 2.89311 11.5797 2.89311 11.5143L2.82773 10.4028C2.82773 10.3211 2.90946 10.2721 2.97484 10.2884L3.95557 10.697C4.00461 10.7134 4.05365 10.697 4.08634 10.6643L4.77285 9.91245C4.82189 9.84707 4.91996 9.86341 4.95266 9.94514L5.3613 10.9913C5.41033 11.122 5.57379 11.1711 5.68821 11.0893L7.29007 9.8961C7.46988 9.76534 7.35546 9.47112 7.12662 9.50381L6.09685 9.63457C6.04781 9.63457 5.99877 9.61823 5.98243 9.56919L5.42668 8.14713C5.3613 8.00002 5.18149 7.96732 5.06707 8.08174L3.8575 9.38939C3.82481 9.42208 3.77577 9.43843 3.72674 9.42208L2.14121 8.75191C1.9941 8.68653 1.84699 8.7846 1.83065 8.94806L1.76526 10.5826C1.76526 10.648 1.71623 10.6807 1.66719 10.6807L0.212433 10.7788C0.0489773 10.7951 -0.0490963 10.9749 0.0489773 11.122L1.01337 12.5441C1.04606 12.5768 1.04606 12.6422 1.01337 12.6749L0.0326317 13.8027C-0.0490963 13.8844 -5.9511e-05 14.0642 0.130705 14.1133L1.25855 14.6036C1.30759 14.62 1.34028 14.6854 1.32393 14.7344L0.604727 17.5295C0.555691 17.7256 0.784529 17.8728 0.947985 17.7583L3.64501 15.8296C3.6777 15.7969 3.72674 15.7969 3.77577 15.8296L5.00169 16.6959C5.09977 16.7613 5.24688 16.7449 5.31226 16.6305L6.0805 15.4536C6.09685 15.4209 6.14588 15.4046 6.17857 15.4046L8.00928 15.6334C8.15639 15.6498 8.3035 15.5353 8.25447 15.3882L7.48622 13.4104C7.46988 13.3614 7.48622 13.296 7.5516 13.2633L8.94098 12.6095C9.13713 12.5114 9.07174 12.2008 8.84291 12.2008Z" fill="#8039E9"/>
<path d="M27.9182 12.2008H25.8586C25.8259 12.2008 25.7769 12.2335 25.7769 12.2825V13.1979C25.7769 13.2306 25.8096 13.2796 25.8586 13.2796H26.7413C26.7903 13.2796 26.823 13.3123 26.823 13.3613C26.823 13.8354 26.725 14.6853 25.8586 14.6853C25.1558 14.6853 24.8779 13.8354 24.8779 12.8546C24.8779 11.6778 25.1721 10.9585 25.8096 10.9585C26.2836 10.9585 26.4307 11.3508 26.4798 11.498C26.4961 11.5306 26.5125 11.547 26.5452 11.547H27.624C27.673 11.547 27.7057 11.5143 27.7057 11.4653C27.6567 10.8768 27.1663 9.84705 25.8423 9.84705C24.9106 9.84705 24.0443 10.4191 23.7664 11.8085V10.0105C23.7664 9.99416 23.7501 9.97781 23.7337 9.97781H22.5895C22.5732 9.97781 22.5568 9.99416 22.5568 10.0105V13.2142C22.5568 13.2469 22.5078 13.2633 22.4914 13.2306L21.004 9.99416C21.004 9.97781 20.9877 9.97781 20.9713 9.97781H19.9415C19.9252 9.97781 19.9088 9.99416 19.9088 10.0105V11.8085C19.5329 10.6643 18.5195 9.84705 17.2118 9.84705C15.7407 9.84705 14.6456 10.8605 14.4004 12.2172H12.3408C12.3245 12.2172 12.3081 12.2335 12.3081 12.2498V13.2306C12.3081 13.2469 12.3245 13.2633 12.3408 13.2633H13.3052C13.3216 13.2633 13.3379 13.2796 13.3379 13.296C13.3379 13.7536 13.2562 14.6527 12.3735 14.6527C11.6707 14.6527 11.3928 13.8027 11.3928 12.8219C11.3928 11.6451 11.687 10.9259 12.3245 10.9259C12.8312 10.9259 12.962 11.3835 12.9947 11.498C12.9947 11.5143 13.011 11.5306 13.0273 11.5306H14.1715C14.1879 11.5306 14.2042 11.5143 14.2042 11.498C14.1879 10.9259 13.6812 9.84705 12.3245 9.84705C11.1966 9.84705 10.1669 10.6807 10.1669 12.8219C10.1669 14.293 10.739 15.7642 12.3408 15.7642C13.5341 15.7642 14.286 14.8488 14.4494 13.7373C14.809 14.9142 15.8388 15.7642 17.1791 15.7642C18.4704 15.7642 19.5002 14.9469 19.8762 13.8027V15.617C19.8762 15.6334 19.8925 15.6497 19.9088 15.6497H21.053C21.0694 15.6497 21.0857 15.6334 21.0857 15.617V12.446C21.0857 12.4133 21.1348 12.397 21.1511 12.4296L22.6386 15.617C22.6386 15.6334 22.6549 15.6334 22.6712 15.6334H23.6847C23.701 15.6334 23.7174 15.617 23.7174 15.6007V13.8027C23.9462 14.8815 24.5673 15.7642 25.8096 15.7642C27.1663 15.7642 27.9509 14.5709 27.9509 13.2633V12.2825C27.9999 12.2335 27.9509 12.2008 27.9182 12.2008ZM17.1955 14.5709C16.2474 14.5709 15.5773 13.8354 15.5773 12.8056C15.5773 11.7758 16.2474 11.0403 17.1955 11.0403C18.1435 11.0403 18.8137 11.7758 18.8137 12.8056C18.8137 13.8354 18.1599 14.5709 17.1955 14.5709Z" fill="#3E0075"/>
</g>
<defs>
<clipPath id="clip0_1705_150">
<rect width="28" height="9.80735" fill="white" transform="translate(0 8)"/>
</clipPath>
</defs>
</svg>
