<svg width="32" height="32" viewBox="0 0 32 32" fill="none" xmlns="http://www.w3.org/2000/svg">
<path d="M21.4001 5.34091V26.3409C21.4001 28.6907 23.0229 30 24.7411 30C26.332 30 28.082 28.8864 28.082 26.3409V5.5C28.082 3.34591 26.4911 2 24.7411 2C22.9911 2 21.4001 3.48432 21.4001 5.34091Z" fill="#F9AB00"/>
<path d="M12.65 16.0001V26.341C12.65 28.6908 14.2728 30.0001 15.991 30.0001C17.5819 30.0001 19.3319 28.8865 19.3319 26.341V16.1592C19.3319 14.0051 17.741 12.6592 15.991 12.6592C14.2409 12.6592 12.65 14.1435 12.65 16.0001Z" fill="#E37400"/>
<path d="M7.24095 30.0001C9.08609 30.0001 10.5819 28.5043 10.5819 26.6591C10.5819 24.814 9.08609 23.3182 7.24095 23.3182C5.39581 23.3182 3.90002 24.814 3.90002 26.6591C3.90002 28.5043 5.39581 30.0001 7.24095 30.0001Z" fill="#E37400"/>
</svg>
