<svg width="32" height="32" viewBox="0 0 32 32" fill="none" xmlns="http://www.w3.org/2000/svg">
<path d="M28.9031 30H27.2173C27.0734 30 26.9295 29.9589 26.8062 29.8767L22.859 27.1013C22.7357 27.0191 22.5918 26.978 22.4479 26.978H6.26872C4.45962 26.9574 3 25.4978 3 23.7093V5.26872C3 3.45962 4.45962 2 6.26872 2H20.2276C22.0367 2 23.4963 3.45962 23.4963 5.26872V6.93391C23.4963 7.32452 23.8253 7.65345 24.2159 7.65345H26.3744C28.1836 7.65345 29.6432 9.11308 29.6432 10.9222V29.2805C29.6226 29.6711 29.2937 30 28.9031 30ZM6.30984 24.3671H23.2907C23.4347 24.3671 23.5786 24.4082 23.7019 24.4905L26.3333 26.3407C26.6211 26.5463 27.0323 26.3407 27.0323 25.9706V10.9633C27.0323 10.5727 26.7034 10.2438 26.3128 10.2438H24.1953C23.8047 10.2438 23.4758 10.5727 23.4758 10.9633V20.605C23.4758 20.9956 23.1468 21.3245 22.7562 21.3245H9.84583C9.45522 21.3245 9.12628 20.9956 9.12628 20.605V8.373C9.12628 7.98239 9.45522 7.65345 9.84583 7.65345H20.1865C20.5771 7.65345 20.906 7.32452 20.906 6.93391V5.30984C20.906 4.91924 20.5771 4.59031 20.1865 4.59031H6.30984C5.91924 4.59031 5.59031 4.91924 5.59031 5.30984V23.6476C5.59031 24.0587 5.89868 24.3671 6.30984 24.3671ZM12.0661 18.7137H20.536C20.7416 18.7137 20.8855 18.5492 20.8855 18.3642V10.5932C20.8855 10.3877 20.721 10.2438 20.536 10.2438H12.0661C11.8605 10.2438 11.7166 10.4082 11.7166 10.5932V18.3642C11.7166 18.5698 11.881 18.7137 12.0661 18.7137Z" fill="#161616"/>
</svg>
