<svg width="32" height="32" viewBox="0 0 32 32" fill="none" xmlns="http://www.w3.org/2000/svg">
<path d="M17.1042 30C16.2925 30 15.4807 30 14.6373 29.9737C14.4017 29.9149 14.1936 29.8987 13.9947 29.8471C12.6997 29.5109 11.5949 28.8659 10.6899 27.865C9.94695 27.0433 9.43819 26.1122 9.18005 25.0373C9.15133 24.9177 9.06149 24.8128 9 24.7011C9 23.8478 9 22.9946 9.02455 22.1103C9.07145 22.0617 9.10937 22.0474 9.11391 22.0259C9.31838 21.0615 9.70806 20.1831 10.309 19.3978C11.0094 18.4826 11.8649 17.7746 12.9408 17.3341C13.4216 17.1372 13.8956 16.9135 14.3458 16.6551C14.807 16.3905 14.8593 15.858 14.4649 15.497C14.2034 15.2576 13.9017 15.0527 13.5929 14.8761C12.8475 14.4495 12.143 13.9758 11.6371 13.2667C10.9894 12.3585 10.6475 11.3565 10.6769 10.2224C10.7147 8.76973 11.2549 7.57276 12.3436 6.60894C13.2949 5.76679 14.4105 5.38655 15.6627 5.37966C16.1679 5.37688 16.6732 5.43092 17.1787 5.43454C17.7681 5.43876 18.0554 5.06113 17.988 4.48318C17.9384 4.05749 17.8927 3.6131 17.9613 3.19615C18.0667 2.55566 18.8669 1.95041 19.662 2.00322C20.2987 2.04551 20.9887 2.50402 21.1933 3.26021C21.3789 3.94597 21.1493 4.6422 20.5497 5.01428C20.2491 5.20077 19.9086 5.32251 19.5878 5.47683C19.1554 5.68478 18.9364 6.11608 19.2232 6.56122C19.3781 6.80162 19.5072 7.06014 19.6763 7.28963C20.5827 8.52005 20.9008 9.88927 20.5864 11.3774C20.3407 12.54 19.7292 13.5055 18.7642 14.2119C18.205 14.6212 17.5903 14.9545 17.0291 15.3614C16.5774 15.689 16.4798 16.2964 16.9839 16.6209C17.3572 16.8612 17.7716 17.0465 18.1846 17.2145C19.6951 17.8291 20.8528 18.8392 21.6194 20.2757C22.3375 21.6214 22.554 23.0475 22.2875 24.5616C22.0565 25.8748 21.4852 27.0055 20.5901 27.9707C19.6811 28.951 18.549 29.5661 17.25 29.8782C17.1948 29.8915 17.1525 29.9582 17.1042 30ZM13.7724 19.215C13.4957 19.3868 13.1892 19.5246 12.9472 19.7361C11.5776 20.9334 11.0154 22.4587 11.323 24.2399C11.6101 25.9025 12.5853 27.0776 14.1486 27.7427C14.38 27.8411 14.6176 27.9807 14.8574 27.9919C15.3523 28.015 15.8533 27.9891 16.3472 27.9389C17.3013 27.8417 18.1063 27.4017 18.772 26.7328C19.5321 25.9692 19.9946 25.0271 20.0843 23.9575C20.2232 22.3026 19.7543 20.8615 18.4319 19.7569C17.1709 18.7035 15.2635 18.4625 13.7724 19.215ZM18.0421 8.59071C17.9913 8.53862 17.9357 8.49045 17.8906 8.43385C17.2093 7.57795 16.2952 7.21592 15.2466 7.38945C13.5462 7.67081 12.4466 9.30285 12.8772 11.006C13.2585 12.5141 14.576 13.4708 16.1532 13.207C17.6318 12.9598 18.548 11.7471 18.5961 10.2721C18.6157 9.66916 18.3514 9.14043 18.0421 8.59071Z" fill="#26A580"/>
</svg>
