<svg width="16" height="32" viewBox="0 0 16 32" fill="none" xmlns="http://www.w3.org/2000/svg">
<path d="M9.10418 30C8.29246 30 7.48074 30 6.63731 29.9737C6.40173 29.9149 6.19361 29.8987 5.99469 29.8471C4.6997 29.5109 3.59488 28.8659 2.68995 27.865C1.94695 27.0433 1.43819 26.1122 1.18005 25.0373C1.15133 24.9177 1.06149 24.8128 1 24.7011C1 23.8478 1 22.9946 1.02455 22.1103C1.07145 22.0617 1.10937 22.0474 1.11391 22.0259C1.31838 21.0615 1.70806 20.1831 2.30901 19.3978C3.00943 18.4826 3.86494 17.7746 4.94077 17.3341C5.42156 17.1372 5.89557 16.9135 6.3458 16.6551C6.80704 16.3905 6.85927 15.858 6.46488 15.497C6.20336 15.2576 5.90165 15.0527 5.59294 14.8761C4.84748 14.4495 4.14299 13.9758 3.63714 13.2667C2.98936 12.3585 2.64748 11.3565 2.67695 10.2224C2.71469 8.76973 3.25489 7.57276 4.34363 6.60894C5.29493 5.76679 6.41053 5.38655 7.66267 5.37966C8.16789 5.37688 8.67325 5.43092 9.17872 5.43454C9.76808 5.43876 10.0554 5.06113 9.98801 4.48318C9.93841 4.05749 9.89268 3.6131 9.96131 3.19615C10.0667 2.55566 10.8669 1.95041 11.662 2.00322C12.2987 2.04551 12.9887 2.50402 13.1933 3.26021C13.3789 3.94597 13.1493 4.6422 12.5497 5.01428C12.2491 5.20077 11.9086 5.32251 11.5878 5.47683C11.1554 5.68478 10.9364 6.11608 11.2232 6.56122C11.3781 6.80162 11.5072 7.06014 11.6763 7.28963C12.5827 8.52005 12.9008 9.88927 12.5864 11.3774C12.3407 12.54 11.7292 13.5055 10.7642 14.2119C10.205 14.6212 9.59026 14.9545 9.02908 15.3614C8.57736 15.689 8.47977 16.2964 8.98389 16.6209C9.35716 16.8612 9.77156 17.0465 10.1846 17.2145C11.6951 17.8291 12.8528 18.8392 13.6194 20.2757C14.3375 21.6214 14.554 23.0475 14.2875 24.5616C14.0565 25.8748 13.4852 27.0055 12.5901 27.9707C11.6811 28.951 10.549 29.5661 9.25002 29.8782C9.19484 29.8915 9.1525 29.9582 9.10418 30ZM5.77238 19.215C5.49569 19.3868 5.18922 19.5246 4.94723 19.7361C3.57761 20.9334 3.01544 22.4587 3.32303 24.2399C3.61012 25.9025 4.58527 27.0776 6.1486 27.7427C6.37997 27.8411 6.61756 27.9807 6.85738 27.9919C7.35234 28.015 7.85327 27.9891 8.3472 27.9389C9.30126 27.8417 10.1063 27.4017 10.772 26.7328C11.5321 25.9692 11.9946 25.0271 12.0843 23.9575C12.2232 22.3026 11.7543 20.8615 10.4319 19.7569C9.1709 18.7035 7.26353 18.4625 5.77238 19.215ZM10.0421 8.59071C9.99133 8.53862 9.93568 8.49045 9.89063 8.43385C9.20931 7.57795 8.29518 7.21592 7.24655 7.38945C5.54621 7.67081 4.44663 9.30285 4.8772 11.006C5.25848 12.5141 6.57598 13.4708 8.15322 13.207C9.63183 12.9598 10.548 11.7471 10.5961 10.2721C10.6157 9.66916 10.3514 9.14043 10.0421 8.59071Z" fill="#26A580"/>
</svg>
