<svg width="32" height="32" viewBox="0 0 32 32" fill="none" xmlns="http://www.w3.org/2000/svg">
<path d="M15.9641 9.28568C17.976 9.28568 19.607 7.65473 19.607 5.64284C19.607 3.63096 17.976 2 15.9641 2C13.9522 2 12.3213 3.63096 12.3213 5.64284C12.3213 7.65473 13.9522 9.28568 15.9641 9.28568Z" fill="#6A266D"/>
<path d="M26.2855 19.6786C28.2974 19.6786 29.9284 18.0477 29.9284 16.0358C29.9284 14.0239 28.2974 12.3929 26.2855 12.3929C24.2737 12.3929 22.6427 14.0239 22.6427 16.0358C22.6427 18.0477 24.2737 19.6786 26.2855 19.6786Z" fill="#36C3F2"/>
<path d="M15.9641 29.9999C17.976 29.9999 19.607 28.369 19.607 26.3571C19.607 24.3452 17.976 22.7142 15.9641 22.7142C13.9522 22.7142 12.3213 24.3452 12.3213 26.3571C12.3213 28.369 13.9522 29.9999 15.9641 29.9999Z" fill="#59C1A7"/>
<path d="M5.64284 19.6429C7.65473 19.6429 9.28568 18.0119 9.28568 16C9.28568 13.9881 7.65473 12.3572 5.64284 12.3572C3.63095 12.3572 2 13.9881 2 16C2 18.0119 3.63095 19.6429 5.64284 19.6429Z" fill="#EF3D55"/>
</svg>
