<?xml version="1.0" encoding="UTF-8"?>
<svg xmlns="http://www.w3.org/2000/svg" xmlns:xlink="http://www.w3.org/1999/xlink" width="32px" height="32px" viewBox="0 0 32 32" version="1.1">
<g id="surface1">
<path style=" stroke:none;fill-rule:nonzero;fill:rgb(100%,100%,100%);fill-opacity:1;" d="M 15.28125 32.078125 C 10.1875 32.078125 5.136719 32.078125 0.0820312 32.078125 C 0.0820312 21.417969 0.0820312 10.757812 0.0820312 0.0859375 C 10.738281 0.0859375 21.398438 0.0859375 32.066406 0.0859375 C 32.066406 10.746094 32.066406 21.414062 32.066406 32.078125 C 26.488281 32.078125 20.90625 32.078125 15.28125 32.078125 M 14.039062 14.160156 C 17.910156 14.160156 21.785156 14.160156 25.648438 14.160156 C 25.648438 12.527344 25.648438 10.949219 25.648438 9.378906 C 19.25 9.378906 12.882812 9.378906 6.503906 9.378906 C 6.503906 10.976562 6.503906 12.554688 6.503906 14.160156 C 9.007812 14.160156 11.484375 14.160156 14.039062 14.160156 M 15.558594 15.121094 C 13.183594 15.121094 10.804688 15.121094 8.425781 15.121094 C 8.425781 16.433594 8.425781 17.675781 8.425781 18.925781 C 13.546875 18.925781 18.640625 18.925781 23.730469 18.925781 C 23.730469 17.648438 23.730469 16.402344 23.730469 15.121094 C 21.015625 15.121094 18.328125 15.121094 15.558594 15.121094 M 10.320312 20.371094 C 10.320312 21.167969 10.320312 21.960938 10.320312 22.761719 C 14.1875 22.761719 18 22.761719 21.804688 22.761719 C 21.804688 21.800781 21.804688 20.875 21.804688 19.9375 C 17.976562 19.9375 14.179688 19.9375 10.351562 19.9375 C 10.339844 20.066406 10.328125 20.179688 10.320312 20.371094 Z M 10.320312 20.371094 "/>
<path style=" stroke:none;fill-rule:nonzero;fill:rgb(49.411765%,34.117647%,76.078431%);fill-opacity:1;" d="M 14 14.160156 C 11.484375 14.160156 9.007812 14.160156 6.503906 14.160156 C 6.503906 12.554688 6.503906 10.976562 6.503906 9.378906 C 12.882812 9.378906 19.25 9.378906 25.648438 9.378906 C 25.648438 10.949219 25.648438 12.527344 25.648438 14.160156 C 21.785156 14.160156 17.910156 14.160156 14 14.160156 Z M 14 14.160156 "/>
<path style=" stroke:none;fill-rule:nonzero;fill:rgb(69.803922%,60.392157%,85.490196%);fill-opacity:1;" d="M 15.601562 15.121094 C 18.328125 15.121094 21.015625 15.121094 23.730469 15.121094 C 23.730469 16.402344 23.730469 17.648438 23.730469 18.925781 C 18.640625 18.925781 13.546875 18.925781 8.425781 18.925781 C 8.425781 17.675781 8.425781 16.433594 8.425781 15.121094 C 10.804688 15.121094 13.183594 15.121094 15.601562 15.121094 Z M 15.601562 15.121094 "/>
<path style=" stroke:none;fill-rule:nonzero;fill:rgb(84.705882%,80%,92.54902%);fill-opacity:1;" d="M 10.320312 20.332031 C 10.328125 20.179688 10.339844 20.066406 10.351562 19.9375 C 14.179688 19.9375 17.976562 19.9375 21.804688 19.9375 C 21.804688 20.875 21.804688 21.800781 21.804688 22.761719 C 18 22.761719 14.1875 22.761719 10.320312 22.761719 C 10.320312 21.960938 10.320312 21.167969 10.320312 20.332031 Z M 10.320312 20.332031 "/>
</g>
</svg>
