<svg width="32" height="22" viewBox="0 0 32 22" fill="none" xmlns="http://www.w3.org/2000/svg">
<path opacity="0.25" d="M18.3759 6.91858L15.2452 10.0492L16.8183 11.6222L19.9489 8.49164L18.3759 6.91858Z" fill="#59C1A7"/>
<path opacity="0.25" d="M16.8032 3.76581L15.2301 5.33887L18.3607 8.46948L19.9338 6.89642L16.8032 3.76581Z" fill="#36C3F2"/>
<path opacity="0.15" d="M13.6243 6.92182L12.0513 8.49487L15.1819 11.6255L16.7549 10.0524L13.6243 6.92182Z" fill="#EF3D55"/>
<path opacity="0.15" d="M15.2566 3.69495L12.126 6.82556L13.7068 8.40637L16.8374 5.27575L15.2566 3.69495Z" fill="#6A266D"/>
<path d="M16 5.64382C16.6174 5.64382 17.1178 5.14336 17.1178 4.52601C17.1178 3.90866 16.6174 3.4082 16 3.4082C15.3827 3.4082 14.8822 3.90866 14.8822 4.52601C14.8822 5.14336 15.3827 5.64382 16 5.64382Z" fill="#6A266D"/>
<path d="M19.1671 8.83291C19.7845 8.83291 20.2849 8.33245 20.2849 7.7151C20.2849 7.09775 19.7845 6.59729 19.1671 6.59729C18.5498 6.59729 18.0493 7.09775 18.0493 7.7151C18.0493 8.33245 18.5498 8.83291 19.1671 8.83291Z" fill="#36C3F2"/>
<path d="M16 12C16.6174 12 17.1178 11.4996 17.1178 10.8822C17.1178 10.2649 16.6174 9.7644 16 9.7644C15.3827 9.7644 14.8822 10.2649 14.8822 10.8822C14.8822 11.4996 15.3827 12 16 12Z" fill="#59C1A7"/>
<path d="M12.8329 8.82192C13.4502 8.82192 13.9507 8.32146 13.9507 7.70411C13.9507 7.08676 13.4502 6.5863 12.8329 6.5863C12.2155 6.5863 11.7151 7.08676 11.7151 7.70411C11.7151 8.32146 12.2155 8.82192 12.8329 8.82192Z" fill="#EF3D55"/>
<path d="M12.7891 15.2987H11.4192C11.3973 15.2987 11.3754 15.3206 11.3754 15.3425V17.7535C11.3754 17.7754 11.3973 17.7973 11.4192 17.7973H12.7891C12.811 17.7973 12.8329 17.7754 12.8329 17.7535V17.3699C12.8329 17.348 12.811 17.3261 12.7891 17.3261H11.9562C11.9124 17.3261 11.8685 17.2932 11.8685 17.2384V16.8439C11.8685 16.8001 11.9014 16.7562 11.9562 16.7562H12.7233C12.7452 16.7562 12.7671 16.7343 12.7671 16.7124V16.3727C12.7671 16.3508 12.7452 16.3288 12.7233 16.3288H11.9562C11.9124 16.3288 11.8685 16.296 11.8685 16.2412V15.8686C11.8685 15.8247 11.9014 15.7809 11.9562 15.7809H12.7891C12.811 15.7809 12.8329 15.759 12.8329 15.7371V15.3535C12.8329 15.3206 12.811 15.2987 12.7891 15.2987Z" fill="#333332"/>
<path d="M18.4767 17.7973C18.4876 17.7973 18.5095 17.7863 18.5095 17.7754C18.5205 17.7644 18.5205 17.7425 18.5095 17.7316L17.5451 15.3206C17.5342 15.2987 17.5232 15.2877 17.5013 15.2877H17.2602C17.2383 15.2877 17.2273 15.2987 17.2164 15.3206L16.252 17.7316C16.241 17.7425 16.241 17.7644 16.252 17.7754C16.263 17.7863 16.2739 17.7973 16.2849 17.7973H16.7232C16.7451 17.7973 16.7561 17.7864 16.7671 17.7644L16.8876 17.4357C16.8986 17.4028 16.9314 17.3809 16.9753 17.3809H17.7862C17.8191 17.3809 17.852 17.4028 17.8739 17.4357L17.9945 17.7644C18.0054 17.7864 18.0164 17.7973 18.0383 17.7973H18.4767ZM17.6438 16.9096C17.6328 16.9316 17.5999 16.9425 17.578 16.9425H17.1945C17.1616 16.9425 17.1397 16.9316 17.1287 16.9096C17.1177 16.8877 17.1068 16.8548 17.1177 16.8329L17.304 16.3069C17.315 16.2631 17.3698 16.2411 17.4136 16.2521C17.4356 16.2631 17.4575 16.285 17.4684 16.3069L17.6547 16.8329C17.6657 16.8658 17.6547 16.8877 17.6438 16.9096Z" fill="#333332"/>
<path d="M23.2439 17.7973C23.2658 17.7973 23.2877 17.7754 23.2877 17.7535V17.3699C23.2877 17.348 23.2658 17.3261 23.2439 17.3261H22.5315C22.4877 17.3261 22.4439 17.2932 22.4439 17.2384V15.3425C22.4439 15.3206 22.4219 15.2987 22.4 15.2987H22.0055C21.9836 15.2987 21.9617 15.3206 21.9617 15.3425V17.7535C21.9617 17.7754 21.9836 17.7973 22.0055 17.7973H23.2439Z" fill="#333332"/>
<path d="M19.3644 17.7973H20.3069C20.4493 17.7973 20.6027 17.7645 20.7233 17.6987C20.9425 17.5782 21.0849 17.348 21.0849 17.085C21.0959 16.822 20.9425 16.5809 20.7123 16.4713C20.7014 16.4713 20.7014 16.4604 20.7014 16.4494V16.4384L20.7123 16.4275C20.8548 16.3069 20.9315 16.1316 20.9315 15.9562C20.9315 15.8467 20.8986 15.7261 20.8438 15.6275C20.789 15.5288 20.7014 15.4412 20.5918 15.3864C20.4603 15.3206 20.3178 15.2877 20.1754 15.2987H19.3754C19.3534 15.2987 19.3315 15.3206 19.3206 15.3425V17.7535C19.3206 17.7754 19.3315 17.7973 19.3644 17.7973ZM19.8027 15.8467C19.8027 15.8028 19.8356 15.7699 19.8795 15.7699H20.0986C20.1863 15.7699 20.263 15.7919 20.3288 15.8467C20.3726 15.8905 20.4055 15.9453 20.4164 16.0001C20.4274 16.0877 20.3945 16.1754 20.3288 16.2302C20.263 16.285 20.1863 16.3179 20.0986 16.3179H19.8795C19.8356 16.3179 19.8027 16.285 19.8027 16.2412V15.8467ZM19.8027 16.811C19.8027 16.7672 19.8356 16.7343 19.8795 16.7343H20.2082C20.2959 16.7343 20.3836 16.7562 20.4493 16.822C20.5151 16.8768 20.548 16.9535 20.548 17.0302C20.548 17.1179 20.5151 17.1946 20.4603 17.2494C20.3945 17.3151 20.3069 17.3371 20.2192 17.3371H19.8904C19.8466 17.3371 19.8137 17.3042 19.8137 17.2604L19.8027 16.811Z" fill="#333332"/>
<path d="M15.0904 16.9315C15.0684 16.8877 15.0794 16.8329 15.1232 16.811C15.2328 16.7452 15.3205 16.6576 15.3862 16.548C15.463 16.4165 15.5068 16.263 15.4958 16.1096C15.4958 15.9671 15.452 15.8247 15.3862 15.7041C15.3205 15.5836 15.2109 15.474 15.0904 15.3973C14.9588 15.3206 14.7945 15.2767 14.641 15.2767H13.8739C13.852 15.2767 13.8301 15.2987 13.8301 15.3206V17.7315C13.8301 17.7534 13.852 17.7754 13.8739 17.7754H14.2684C14.2904 17.7754 14.3123 17.7534 14.3123 17.7315V17.0082C14.3123 16.9644 14.3451 16.9206 14.3999 16.9206H14.5205C14.5534 16.9206 14.5862 16.9425 14.5972 16.9644L15.0136 17.7534C15.0246 17.7644 15.0356 17.7754 15.0575 17.7754H15.5178C15.5397 17.7754 15.5616 17.7534 15.5616 17.7315C15.5616 17.7206 15.5616 17.7206 15.5616 17.7096L15.0904 16.9315ZM14.8821 16.3726C14.8054 16.4384 14.7068 16.4713 14.6082 16.4713H14.4109C14.3671 16.4713 14.3232 16.4384 14.3232 16.3836V15.8685C14.3232 15.8247 14.3561 15.7808 14.4109 15.7808H14.6082C14.7068 15.7808 14.8054 15.8137 14.8821 15.8795C15.0246 16.011 15.0246 16.2302 14.8821 16.3726Z" fill="#333332"/>
<path d="M10.4548 15.2987H8.87672C8.8548 15.2987 8.83289 15.3206 8.83289 15.3425V15.7261C8.83289 15.748 8.8548 15.7699 8.87672 15.7699H9.337C9.38083 15.7699 9.42467 15.8028 9.42467 15.8576V17.7535C9.42467 17.7754 9.44658 17.7973 9.4685 17.7973H9.87398C9.8959 17.7973 9.91782 17.7754 9.91782 17.7535V15.8467C9.91782 15.8028 9.95069 15.759 10.0055 15.759H10.4548C10.4767 15.759 10.4986 15.7371 10.4986 15.7151V15.3425C10.4986 15.3206 10.4767 15.2987 10.4548 15.2987Z" fill="#333332"/>
<path d="M25.578 17.326H24.7451C24.7013 17.326 24.6575 17.2932 24.6575 17.2384V16.8438C24.6575 16.8 24.6903 16.7562 24.7451 16.7562H25.5123C25.5342 16.7562 25.5561 16.7343 25.5561 16.7123V16.3726C25.5561 16.3507 25.5342 16.3288 25.5123 16.3288H24.7451C24.7013 16.3288 24.6575 16.2959 24.6575 16.2521V15.8795C24.6575 15.8356 24.6903 15.7918 24.7451 15.7918H25.578C25.5999 15.7918 25.6218 15.7699 25.6218 15.748V15.3644C25.6218 15.3425 25.5999 15.3206 25.578 15.3206H24.2081C24.1862 15.3206 24.1643 15.3425 24.1643 15.3644V17.7754C24.1643 17.7973 24.1862 17.8192 24.2081 17.8192H25.578C25.5999 17.8192 25.6218 17.7973 25.6218 17.7754V17.3918C25.6218 17.348 25.5999 17.326 25.578 17.326Z" fill="#333332"/>
<path d="M7.90134 17.3261H7.50682C7.46298 17.3261 7.41915 17.2932 7.41915 17.2384V15.8576C7.41915 15.8138 7.45202 15.7699 7.50682 15.7699H7.90134C7.92326 15.7699 7.94517 15.748 7.94517 15.7261V15.3425C7.94517 15.3206 7.92326 15.2987 7.90134 15.2987H6.42189C6.39997 15.2987 6.37805 15.3206 6.37805 15.3425V15.7261C6.37805 15.748 6.39997 15.7699 6.42189 15.7699H6.83833C6.88216 15.7699 6.926 15.8028 6.926 15.8576V17.2384C6.926 17.2823 6.88216 17.3261 6.83833 17.3261H6.42189C6.39997 17.3261 6.37805 17.348 6.37805 17.3699V17.7535C6.37805 17.7754 6.39997 17.7973 6.42189 17.7973H6.95887H6.96983H7.37531H7.38627H7.9123C7.93422 17.7973 7.95613 17.7754 7.95613 17.7535V17.3699C7.95613 17.348 7.93422 17.3261 7.90134 17.3261Z" fill="#333332"/>
</svg>
