<svg width="32" height="32" viewBox="0 0 32 32" fill="none" xmlns="http://www.w3.org/2000/svg">
<path d="M12.9635 12.9929C9.28423 12.9929 5.66211 12.9929 2 12.9929C2 10.6448 2 8.33667 2 6C11.3295 6 20.6419 6 30 6C30 8.29667 30 10.6048 30 12.9929C24.3497 12.9929 18.6823 12.9929 12.9635 12.9929Z" fill="#7E57C2"/>
<path d="M15.3059 14.3983C19.2937 14.3983 23.2243 14.3983 27.1949 14.3983C27.1949 16.2722 27.1949 18.0947 27.1949 19.9629C19.7507 19.9629 12.3008 19.9629 4.81091 19.9629C4.81091 18.1347 4.81091 16.3179 4.81091 14.3983C8.2902 14.3983 11.7695 14.3983 15.3059 14.3983Z" fill="#B29ADA"/>
<path d="M7.58167 22.0197C7.59309 21.7968 7.61023 21.6312 7.62737 21.4426C13.2262 21.4426 18.7794 21.4426 24.3782 21.4426C24.3782 22.8138 24.3782 24.1678 24.3782 25.5732C18.8137 25.5732 13.2377 25.5732 7.58167 25.5732C7.58167 24.402 7.58167 23.2423 7.58167 22.0197Z" fill="#D8CCEC"/>
</svg>
