<svg width="32" height="32" viewBox="0 0 32 32" fill="none" xmlns="http://www.w3.org/2000/svg">
<path d="M21.368 30C26.1156 30 29.973 26.1595 30 21.3658V10.6342C29.973 5.84047 26.1156 2 21.368 2H10.632C5.88439 2 2.02697 5.84047 2 10.6342V21.3658C2.02697 26.1595 5.88439 30 10.632 30H21.368Z" fill="#FFFFFE"/>
<path d="M17.5375 12.1051V15.9728C17.5375 16.1907 17.6184 16.3814 17.7803 16.5448C17.9421 16.681 18.131 16.7899 18.3468 16.7627H20.9364C21.1522 16.7627 21.341 16.681 21.5028 16.5448C21.6377 16.4086 21.7456 16.1907 21.7456 15.9728V13.3853C21.7456 13.1674 21.6647 12.9767 21.5028 12.8133C21.368 12.6771 21.1522 12.5681 20.9364 12.5954H19.129V12.0779C19.129 11.0701 19.9383 10.2802 20.9364 10.2802C21.368 10.2802 21.7186 9.92612 21.7186 9.49032C21.7186 9.05452 21.368 8.70044 20.9364 8.70044C20.0462 8.70044 19.183 9.05453 18.5626 9.68099C17.8882 10.3347 17.5375 11.2063 17.5375 12.1051ZM10.3082 12.1051V15.9728C10.3082 16.1907 10.3892 16.3814 10.551 16.5448C10.6859 16.681 10.9017 16.7899 11.1175 16.7627H13.7071C13.9229 16.7627 14.1117 16.681 14.2735 16.5448C14.4354 16.4086 14.5163 16.1907 14.5163 15.9728V13.3853C14.5163 13.1674 14.4354 12.9767 14.2735 12.8133C14.1117 12.6771 13.9229 12.5681 13.7071 12.5954H11.9267V12.0779C11.9267 11.0973 12.736 10.2802 13.7071 10.2802C14.1387 10.2802 14.4893 9.92612 14.4893 9.49032C14.4893 9.05452 14.1387 8.70044 13.7071 8.70044C12.8169 8.70044 11.9537 9.05453 11.3333 9.68099C10.6859 10.3347 10.3082 11.2063 10.3082 12.1051ZM11.2793 20.4125C11.1445 20.4125 11.0366 20.4942 10.9556 20.6032C10.9017 20.7121 10.9017 20.8755 10.9556 20.9845C11.0366 21.0934 12.709 23.9534 16.0269 23.9534C19.3448 23.9534 21.0173 21.0934 21.0982 20.9845C21.1522 20.8755 21.1522 20.7121 21.0982 20.6032C21.0443 20.4942 20.9094 20.4125 20.7745 20.4125H11.2793Z" fill="#0A0B09"/>
<path d="M10.632 2C5.88439 2 2.02697 5.84047 2 10.6342V21.3658C2.02697 26.1595 5.88439 30 10.632 30H17.9152L13.1137 26.5409H10.632C7.77264 26.5409 5.45279 24.2257 5.45279 21.3658V10.6342C5.47977 7.77432 7.79961 5.45915 10.632 5.45915H21.368C24.2274 5.45915 26.5202 7.77432 26.5472 10.6342V21.3658C26.5202 24.2257 24.2004 26.5409 21.368 26.5409H19.3179V30H21.368C26.1156 30 29.973 26.1595 30 21.3658V10.6342C29.973 5.84047 26.1156 2 21.368 2H10.632Z" fill="#FF5551"/>
</svg>
