<svg width="32" height="32" viewBox="0 0 32 32" fill="none" xmlns="http://www.w3.org/2000/svg">
<path d="M29.7488 14.3095C29.1836 12.4568 27.1006 11.5357 25.3421 12.3521L25.1536 12.4464C25.049 12.4987 24.9129 12.4464 24.871 12.3312C24.8292 12.2056 24.892 12.0695 25.0176 12.0172L25.1746 11.9649C26.9959 11.3054 27.8228 9.18056 26.9122 7.46393C26.3783 6.4486 25.5514 5.62168 24.5361 5.08785C22.8194 4.1772 20.6946 4.99364 20.0351 6.82542L19.9723 7.00336C19.9305 7.1185 19.7944 7.18131 19.6793 7.12897H19.6688C19.5536 7.07664 19.5013 6.95103 19.5536 6.83589L19.6374 6.65794C20.4643 4.89944 19.5432 2.81645 17.68 2.25121C16.5809 1.91626 15.4086 1.91626 14.32 2.25121C12.4673 2.81645 11.5462 4.89944 12.3626 6.65794L12.4464 6.82542C12.4987 6.94056 12.4464 7.07664 12.3312 7.12897C12.2161 7.18131 12.08 7.1185 12.0381 7.00336L11.9753 6.82542C11.3159 5.00411 9.19103 4.1772 7.47439 5.08785C6.45907 5.62168 5.63215 6.4486 5.09832 7.46393C4.18766 9.18056 5.00411 11.3054 6.83589 11.9649L7.00336 12.0277C7.1185 12.0695 7.18131 12.1951 7.14991 12.3103C7.14991 12.3207 7.14991 12.3207 7.13944 12.3312C7.09757 12.4464 6.9615 12.5092 6.84636 12.4464L6.65794 12.3626C4.89944 11.5357 2.81645 12.4568 2.25121 14.32C1.91626 15.4191 1.91626 16.5914 2.25121 17.68C2.81645 19.5327 4.89944 20.4538 6.65794 19.6374L6.83589 19.5536C6.95103 19.5013 7.0871 19.5536 7.12897 19.6688C7.12897 19.6688 7.12897 19.6688 7.12897 19.6793C7.18131 19.7944 7.1185 19.9305 7.00336 19.9723L6.82542 20.0351C5.00411 20.6946 4.1772 22.8194 5.08785 24.5361C5.62168 25.5514 6.4486 26.3783 7.46393 26.9121C9.18056 27.8228 11.3054 27.0064 11.9649 25.1746L12.0277 24.9966C12.0695 24.8815 12.2056 24.8187 12.3207 24.871C12.4359 24.9234 12.4882 25.049 12.4359 25.1641L12.3522 25.3421C11.5252 27.1006 12.4464 29.1836 14.3095 29.7488C15.4086 30.0837 16.5809 30.0837 17.6695 29.7488C19.5222 29.1836 20.4434 27.1006 19.6269 25.3421L19.5432 25.1641C19.4908 25.049 19.5432 24.9129 19.6583 24.871C19.7735 24.8187 19.9095 24.8815 19.9514 24.9966L20.0142 25.1746C20.6736 26.9959 22.7985 27.8228 24.5151 26.9121C25.5305 26.3783 26.3574 25.5514 26.8912 24.5361C27.8019 22.8194 26.9854 20.6946 25.1536 20.0351L24.9862 19.9723C24.871 19.9305 24.8082 19.8049 24.8396 19.6897V19.6793C24.892 19.5536 25.0176 19.5013 25.1432 19.5536L25.3211 19.6374C27.0796 20.4643 29.1626 19.5432 29.7279 17.68C30.0837 16.5809 30.0837 15.4086 29.7488 14.3095ZM24.243 16.6961C24.2535 16.9054 24.1802 17.0101 23.9918 17.0834C23.3533 17.345 22.7148 17.6172 22.0763 17.8893C21.6366 18.0778 21.4692 18.465 21.6576 18.9047C21.9297 19.5432 22.1914 20.1921 22.4636 20.8307C22.5264 20.9877 22.5368 21.1028 22.4007 21.2284C22.003 21.6157 21.6052 22.003 21.2284 22.4007C21.1028 22.5368 20.9877 22.5368 20.8307 22.4636C20.1817 22.1809 19.5327 21.9088 18.8837 21.6366C18.5069 21.4796 18.0778 21.6576 17.9103 22.0449C17.6381 22.6938 17.3555 23.3428 17.1043 24.0022C17.031 24.1907 16.9264 24.2639 16.717 24.2535C16.2041 24.243 15.7017 24.243 15.1888 24.2535C14.9899 24.2535 14.8748 24.1907 14.8015 24.0022C14.5398 23.3533 14.2677 22.7148 14.006 22.0763C13.8176 21.6366 13.4303 21.4692 13.0011 21.6471C12.3626 21.9193 11.7241 22.1809 11.0856 22.4636C10.9077 22.5473 10.7925 22.5159 10.6669 22.3798C10.311 22.003 9.94467 21.6262 9.55738 21.2703C9.40037 21.1237 9.36897 20.9981 9.45271 20.7888C9.73533 20.1503 9.99701 19.5118 10.2692 18.8733C10.4262 18.4964 10.2482 18.0673 9.86093 17.8998C9.21196 17.6277 8.56299 17.345 7.91402 17.0834C7.72561 17.0101 7.65234 16.895 7.6628 16.6961C7.67327 16.1832 7.67327 15.6703 7.6628 15.1574C7.6628 14.9585 7.72561 14.8434 7.91402 14.7701C8.55252 14.5084 9.19103 14.2363 9.82953 13.9641C10.2692 13.7757 10.4366 13.3779 10.2587 12.9488C9.99701 12.3207 9.73533 11.6822 9.46318 11.0542C9.36897 10.8553 9.40037 10.7297 9.55738 10.5727C9.93421 10.2273 10.2901 9.86093 10.6355 9.48411C10.7821 9.31664 10.9077 9.2957 11.117 9.38991C11.745 9.67252 12.3731 9.92374 13.0011 10.1854C13.4093 10.3634 13.8385 10.1854 14.0164 9.75626C14.2781 9.12822 14.5503 8.50019 14.8015 7.86168C14.8852 7.64187 15.0108 7.5686 15.2411 7.57907C15.754 7.6 16.2564 7.58953 16.7693 7.57907C16.9473 7.57907 17.0415 7.6314 17.1043 7.80935C17.366 8.47925 17.6486 9.12822 17.9312 9.79813C18.0987 10.1959 18.5174 10.3738 18.9047 10.2064C19.5536 9.93421 20.2026 9.65159 20.8516 9.38991C20.9563 9.34804 21.1447 9.3585 21.2179 9.43178C21.6366 9.81907 22.0344 10.2378 22.4426 10.646C22.495 10.6983 22.5264 10.7611 22.5682 10.8135C22.5264 10.9181 22.495 11.0019 22.4636 11.0751C22.2019 11.6927 21.9402 12.3207 21.6785 12.9383C21.5006 13.357 21.6785 13.7757 22.1077 13.9536C22.7357 14.2153 23.3637 14.4979 23.9918 14.7387C24.2116 14.8224 24.2849 14.948 24.2744 15.1783C24.2221 15.6912 24.2221 16.1936 24.243 16.6961Z" fill="#1A4C49"/>
<path d="M16.0052 13.1896C14.4666 13.1896 13.2105 14.4456 13.2 15.9948C13.2 17.544 14.4456 18.8 15.9948 18.8C17.5439 18.8 18.8 17.5544 18.8 16.0053C18.8 14.4561 17.5439 13.1896 16.0052 13.1896Z" fill="#1A4C49"/>
</svg>
