<svg width="32" height="32" viewBox="0 0 32 32" fill="none" xmlns="http://www.w3.org/2000/svg">
<path d="M26.7534 4.99589C28.2 6.19099 28.3081 9.15496 28.4805 10.8594C29.6303 23.4089 29.6303 23.4089 27.0291 26.586C26.7185 26.9305 26.7185 26.9305 26.4214 26.9529C26.1736 26.9366 26.0113 26.8842 25.7844 26.7852C25.7454 26.7685 25.7063 26.7518 25.6661 26.7346C25.5798 26.6976 25.4936 26.6603 25.4076 26.6227C25.1596 26.5146 24.9103 26.4094 24.6611 26.304C24.6056 26.2804 24.55 26.2568 24.4927 26.2326C23.7392 25.9143 22.9788 25.6129 22.2189 25.3101C22.0573 25.2457 21.8958 25.1812 21.7342 25.1167C21.4132 24.9886 21.0921 24.8606 20.771 24.7327C20.0913 24.4618 19.4119 24.19 18.7326 23.9181C18.4412 23.8015 18.1498 23.685 17.8584 23.5684C17.7635 23.5304 17.6686 23.4925 17.5737 23.4545C17.5081 23.4283 17.4426 23.4021 17.375 23.375C17.3756 23.4107 17.3761 23.4464 17.3767 23.4832C17.3822 23.8563 17.386 24.2294 17.3887 24.6026C17.39 24.7417 17.3917 24.8807 17.3939 25.0198C17.3969 25.2202 17.3983 25.4207 17.3994 25.6211C17.4007 25.6828 17.402 25.7445 17.4033 25.808C17.4035 26.1823 17.369 26.5134 17.125 26.8125C16.8678 27.0051 16.6476 27.027 16.3361 27.0247C16.2886 27.0251 16.2412 27.0254 16.1923 27.0258C16.0334 27.0269 15.8747 27.0266 15.7158 27.0263C15.6019 27.0267 15.4879 27.0273 15.3739 27.0279C15.0645 27.0293 14.7551 27.0295 14.4457 27.0293C14.1874 27.0293 13.9291 27.0299 13.6708 27.0304C13.0615 27.0316 12.4521 27.0318 11.8428 27.0313C11.2141 27.0309 10.5855 27.0324 9.95688 27.0347C9.41712 27.0366 8.87736 27.0373 8.33759 27.0371C8.01522 27.0369 7.69287 27.0373 7.37051 27.0388C7.06737 27.0402 6.76426 27.0401 6.46112 27.0388C6.34991 27.0386 6.2387 27.0389 6.12749 27.0398C5.97556 27.0409 5.82376 27.0402 5.67183 27.0389C5.6279 27.0397 5.58398 27.0404 5.53872 27.0413C5.18955 27.035 5.04735 26.9286 4.81251 26.6875C4.69557 26.5117 4.67195 26.3795 4.67248 26.1702C4.6723 26.1173 4.67213 26.0643 4.67196 26.0098C4.6724 25.9523 4.67285 25.8947 4.67332 25.8354C4.6733 25.7744 4.67328 25.7134 4.67326 25.6506C4.67335 25.449 4.67432 25.2475 4.6753 25.0459C4.67553 24.9062 4.67571 24.7664 4.67584 24.6266C4.67631 24.2588 4.67754 23.8909 4.67892 23.5231C4.6802 23.1477 4.68077 22.7724 4.6814 22.397C4.68274 21.6605 4.68488 20.924 4.68751 20.1875C4.56404 20.1915 4.44057 20.1954 4.3171 20.1994C4.13625 20.1829 4.0187 20.1033 3.88955 19.9787C3.60949 19.6019 3.56647 19.0478 3.4922 18.5977C3.48164 18.5369 3.47109 18.4761 3.46021 18.4135C3.3606 17.8264 3.30302 17.2472 3.29981 16.6516C3.29938 16.5967 3.29894 16.5418 3.29849 16.4853C3.29741 16.3092 3.29701 16.1331 3.29688 15.9571C3.29682 15.8969 3.29676 15.8368 3.29669 15.7749C3.29733 14.8777 3.33257 14.0084 3.50001 13.125C3.51764 13.0176 3.53522 12.9102 3.55274 12.8028C3.57131 12.7005 3.59018 12.5983 3.60938 12.4961C3.62065 12.4285 3.62065 12.4285 3.63215 12.3595C3.70915 11.997 3.89405 11.8265 4.18751 11.625C4.37233 11.5326 4.52027 11.5734 4.72546 11.5924C8.81347 11.9375 11.9319 10.8871 15.6264 9.20582C16.4239 8.84293 17.2273 8.51855 18.0475 8.21092C18.6552 7.98197 19.2569 7.73767 19.8596 7.49613C19.9868 7.44524 20.1139 7.39436 20.241 7.34348C20.5653 7.21368 20.8895 7.08375 21.2137 6.9538C21.4755 6.84887 21.7373 6.74402 21.9991 6.63919C22.1288 6.58727 22.2585 6.53534 22.3882 6.4834C22.7035 6.3571 23.0189 6.23088 23.3343 6.10481C23.8318 5.90586 24.3293 5.70691 24.825 5.50357C25.0013 5.43127 25.1777 5.35939 25.3542 5.28753C25.4701 5.24007 25.5857 5.19191 25.7014 5.14373C25.7694 5.11605 25.8374 5.08837 25.9075 5.05985C25.9652 5.03599 26.0229 5.01213 26.0824 4.98754C26.3152 4.9181 26.5287 4.89378 26.7534 4.99589Z" fill="#3599E0"/>
<path d="M5.8245 14.3662C5.87059 14.366 5.91668 14.3658 5.96416 14.3656C6.11904 14.3651 6.27392 14.365 6.42879 14.3649C6.53966 14.3646 6.65053 14.3643 6.76141 14.3639C7.06293 14.3631 7.36446 14.3627 7.66599 14.3624C7.85433 14.3623 8.04266 14.362 8.231 14.3617C8.82013 14.3609 9.40926 14.3603 9.9984 14.36C10.6787 14.3597 11.359 14.3587 12.0393 14.3568C12.565 14.3555 13.0907 14.3549 13.6164 14.3548C13.9305 14.3547 14.2445 14.3543 14.5586 14.3532C14.854 14.3522 15.1494 14.3521 15.4449 14.3526C15.5532 14.3527 15.6616 14.3524 15.77 14.3518C15.9181 14.351 16.0661 14.3513 16.2142 14.352C16.257 14.3515 16.2998 14.351 16.3439 14.3505C16.6295 14.3534 16.8246 14.4038 17.0625 14.5625C17.3006 14.8374 17.3488 15.0656 17.3443 15.419C17.3446 15.4663 17.345 15.5135 17.3454 15.5622C17.3464 15.72 17.3456 15.8777 17.3449 16.0355C17.3452 16.1488 17.3456 16.2622 17.3462 16.3756C17.3473 16.683 17.3469 16.9905 17.3461 17.2979C17.3455 17.6198 17.346 17.9417 17.3464 18.2636C17.3469 18.8041 17.3463 19.3446 17.3451 19.8852C17.3437 20.51 17.3442 21.1347 17.3456 21.7595C17.3467 22.2961 17.3468 22.8327 17.3462 23.3692C17.3458 23.6896 17.3458 24.01 17.3466 24.3304C17.3473 24.6317 17.3468 24.9329 17.3454 25.2341C17.345 25.3446 17.3451 25.4551 17.3457 25.5656C17.3464 25.7166 17.3455 25.8675 17.3443 26.0184C17.3448 26.0621 17.3454 26.1057 17.3459 26.1507C17.341 26.4604 17.2605 26.639 17.0625 26.875C16.8475 27.0389 16.6035 27.018 16.3436 27.0171C16.2725 27.0176 16.2725 27.0176 16.1999 27.0181C16.0409 27.019 15.8819 27.0191 15.7229 27.0191C15.609 27.0196 15.495 27.0201 15.3811 27.0207C15.0714 27.0221 14.7617 27.0226 14.4521 27.0229C14.2586 27.0232 14.0652 27.0235 13.8718 27.024C13.197 27.0255 12.5223 27.0263 11.8475 27.0266C11.2184 27.0268 10.5893 27.0287 9.96021 27.0313C9.42018 27.0334 8.88016 27.0344 8.34013 27.0344C8.01755 27.0345 7.69499 27.035 7.37242 27.0368C7.06902 27.0385 6.76566 27.0386 6.46226 27.0376C6.35095 27.0375 6.23964 27.0379 6.12833 27.0389C5.97626 27.0402 5.82432 27.0395 5.67225 27.0384C5.62828 27.0392 5.58431 27.04 5.53901 27.0409C5.18959 27.0349 5.04746 26.9288 4.81251 26.6875C4.65352 26.4706 4.6698 26.2374 4.67121 25.9781C4.67097 25.9317 4.67073 25.8853 4.67049 25.8375C4.66984 25.6819 4.67009 25.5264 4.67034 25.3708C4.67007 25.2593 4.66974 25.1478 4.66937 25.0364C4.66853 24.7334 4.6685 24.4305 4.66866 24.1275C4.66872 23.8747 4.66842 23.6218 4.66812 23.3689C4.66742 22.7724 4.6674 22.1758 4.66778 21.5793C4.66815 20.9638 4.66738 20.3483 4.66605 19.7329C4.66495 19.2045 4.66458 18.6762 4.66478 18.1478C4.66489 17.8322 4.66473 17.5167 4.66386 17.2011C4.66307 16.9042 4.66319 16.6074 4.66401 16.3106C4.66416 16.2017 4.66399 16.0928 4.66347 15.9839C4.66282 15.8352 4.66332 15.6865 4.66412 15.5377C4.66366 15.4947 4.66319 15.4517 4.66272 15.4074C4.66591 15.1227 4.72679 14.9298 4.87501 14.6875C5.18192 14.4036 5.4201 14.3657 5.8245 14.3662Z" fill="#005389"/>
<path d="M27.25 5.02827C27.9099 5.37543 28.1602 6.22702 28.3677 6.89302C29.9909 12.4388 30.2619 20.7089 27.9375 26.2783C27.7542 26.5701 27.5512 26.852 27.25 27.0283C26.9269 27.0527 26.7046 27.0048 26.4094 26.8759C26.3704 26.8592 26.3313 26.8425 26.2911 26.8253C26.2048 26.7884 26.1186 26.7511 26.0325 26.7135C25.7848 26.6054 25.5358 26.5003 25.2869 26.395C25.2313 26.3714 25.1758 26.3479 25.1185 26.3236C24.3611 26.0037 23.5966 25.7013 22.8327 25.3971C22.6299 25.3163 22.4272 25.2354 22.2245 25.1545C22.1845 25.1385 22.1445 25.1225 22.1033 25.1061C22.0228 25.074 21.9424 25.0419 21.862 25.0098C21.7424 24.962 21.6228 24.9143 21.5032 24.8666C20.8177 24.5931 20.1326 24.3187 19.4482 24.0425C19.3352 23.9969 19.2221 23.9514 19.109 23.906C18.9553 23.8443 18.8018 23.7823 18.6482 23.7202C18.5814 23.6934 18.5814 23.6934 18.5132 23.6661C18.3274 23.5907 18.1676 23.515 18 23.4033C18 22.3926 18 21.382 18 20.3408C20.31 20.3408 22.62 20.3408 25 20.3408C24.9381 19.6911 24.9381 19.6911 24.875 19.0283C24.8596 18.8014 24.8452 18.5763 24.8364 18.3493C24.8341 18.2933 24.8317 18.2373 24.8293 18.1796C24.8041 17.5212 24.8029 16.8628 24.8047 16.2041C24.8048 16.14 24.8049 16.076 24.805 16.0101C24.8067 15.0148 24.8211 14.0223 24.875 13.0283C24.88 12.9225 24.88 12.9225 24.8852 12.8145C25.1874 6.57726 25.1874 6.57726 26.6562 5.17281C26.862 5.01883 26.9917 4.95973 27.25 5.02827Z" fill="#018ADE"/>
<path d="M26.0625 5.12496C26.0398 5.1509 26.0171 5.17684 25.9937 5.20357C24.6826 6.81049 24.5971 9.84799 24.375 11.625C17.7544 11.625 11.1337 11.625 4.3125 11.625C4.3125 11.6043 4.3125 11.5837 4.3125 11.5625C4.39358 11.5702 4.39358 11.5702 4.4763 11.5782C8.73634 11.9625 11.9635 10.8726 15.8135 9.12062C16.5475 8.78698 17.2914 8.49448 18.0463 8.21134C18.658 7.98082 19.2638 7.73482 19.8706 7.49166C19.9985 7.44047 20.1264 7.38929 20.2542 7.33811C20.5802 7.20764 20.906 7.07705 21.2319 6.94643C21.4961 6.84052 21.7604 6.73468 22.0247 6.62886C22.22 6.55067 22.4153 6.47246 22.6106 6.39425C22.8616 6.29373 23.1126 6.19328 23.3637 6.09288C23.8772 5.88745 24.3905 5.68168 24.9024 5.47243C24.9769 5.44211 25.0515 5.41179 25.1283 5.38054C25.2593 5.32713 25.3903 5.27335 25.521 5.21909C25.5758 5.19682 25.6306 5.17455 25.687 5.1516C25.7561 5.12309 25.7561 5.12309 25.8266 5.09401C25.9375 5.06246 25.9375 5.06246 26.0625 5.12496Z" fill="#83BEEB"/>
<path d="M17.375 20.25C19.685 20.25 21.995 20.25 24.375 20.25C24.4781 21.0337 24.5813 21.8175 24.6875 22.625C24.9282 24.0695 25.1734 25.51 26 26.75C25.6878 26.7114 25.4142 26.6148 25.1249 26.4965C25.0761 26.4768 25.0272 26.4572 24.9768 26.4369C24.8148 26.3717 24.653 26.306 24.4912 26.2402C24.3761 26.1938 24.2611 26.1474 24.146 26.101C23.841 25.978 23.5363 25.8546 23.2316 25.7311C22.9321 25.6098 22.6324 25.4889 22.3328 25.3679C21.798 25.152 21.2634 24.9356 20.729 24.7191C20.359 24.5693 19.9889 24.4199 19.6186 24.271C19.3735 24.1724 19.1285 24.0737 18.8836 23.975C18.7673 23.9282 18.6511 23.8815 18.5348 23.8348C18.3746 23.7706 18.2146 23.7061 18.0545 23.6415C18.0071 23.6226 17.9598 23.6036 17.911 23.5841C17.7178 23.506 17.549 23.4285 17.375 23.3125C17.375 22.3019 17.375 21.2912 17.375 20.25Z" fill="#0069AE"/>
<path d="M4.73632 11.5824C4.78942 11.5823 4.84252 11.5823 4.89723 11.5822C5.07144 11.5825 5.2455 11.5854 5.41969 11.5883C5.54097 11.589 5.66225 11.5896 5.78354 11.5899C6.10178 11.5914 6.41995 11.595 6.73817 11.5992C7.12049 11.6037 7.50284 11.6054 7.88519 11.6076C8.46517 11.6113 9.04502 11.6184 9.62501 11.625C9.62501 12.5325 9.62501 13.44 9.62501 14.375C9.17134 14.3785 9.17134 14.3785 8.7085 14.382C8.51653 14.3839 8.32455 14.3859 8.13258 14.388C7.82808 14.3914 7.5236 14.3946 7.21909 14.3966C6.9735 14.3982 6.72794 14.4008 6.48236 14.4039C6.38882 14.4049 6.29528 14.4057 6.20174 14.4061C6.07037 14.4067 5.93907 14.4084 5.80772 14.4104C5.73305 14.4111 5.65838 14.4118 5.58145 14.4125C5.29601 14.447 5.08113 14.5354 4.88673 14.75C4.73165 15.0111 4.73941 15.2601 4.73717 15.5542C4.73625 15.6292 4.73625 15.6292 4.7353 15.7058C4.73333 15.8711 4.73178 16.0365 4.73023 16.2019C4.72895 16.3165 4.72763 16.4311 4.7263 16.5458C4.72285 16.8475 4.71976 17.1493 4.71674 17.4511C4.7136 17.759 4.71012 18.0669 4.70667 18.3748C4.69995 18.979 4.69361 19.5832 4.68751 20.1875C4.60928 20.1899 4.53105 20.1924 4.45045 20.195C4.40644 20.1964 4.36244 20.1978 4.3171 20.1993C4.13625 20.1828 4.0187 20.1032 3.88955 19.9786C3.60949 19.6018 3.56647 19.0477 3.4922 18.5976C3.48164 18.5368 3.47109 18.476 3.46021 18.4134C3.3606 17.8263 3.30302 17.2471 3.29981 16.6516C3.29938 16.5967 3.29894 16.5417 3.29849 16.4852C3.29741 16.3091 3.29701 16.1331 3.29688 15.957C3.29682 15.8969 3.29676 15.8367 3.29669 15.7748C3.29733 14.8776 3.33257 14.0083 3.50001 13.125C3.51764 13.0175 3.53522 12.9101 3.55274 12.8027C3.57131 12.7004 3.59018 12.5982 3.60938 12.496C3.6169 12.451 3.62441 12.4059 3.63215 12.3594C3.69834 12.0478 3.82214 11.8969 4.05951 11.7031C4.27959 11.5687 4.4842 11.5755 4.73632 11.5824Z" fill="#1481CC"/>
<path d="M10.25 16.8751C10.3847 16.8538 10.3847 16.8538 10.5493 16.8567C10.6081 16.8574 10.6669 16.858 10.7275 16.8586C10.8199 16.8609 10.8199 16.8609 10.9141 16.8633C11.0071 16.8646 11.0071 16.8646 11.1021 16.8659C11.2556 16.8681 11.409 16.8712 11.5625 16.8751C11.8592 17.561 12.1176 18.261 12.3789 18.961C12.4276 19.0912 12.4763 19.2214 12.525 19.3516C12.6558 19.7015 12.7863 20.0515 12.9167 20.4015C12.9879 20.5925 13.0591 20.7836 13.1304 20.9747C13.2908 21.4046 13.4509 21.8347 13.6108 22.2649C13.6671 22.4164 13.7235 22.5679 13.78 22.7193C13.8589 22.9312 13.9375 23.1431 14.0161 23.355C14.0399 23.4187 14.0637 23.4824 14.0882 23.5479C14.1203 23.6349 14.1203 23.6349 14.1531 23.7237C14.1719 23.7743 14.1907 23.8249 14.2101 23.8771C14.25 24.0001 14.25 24.0001 14.25 24.1251C13.8169 24.1251 13.3837 24.1251 12.9375 24.1251C12.7312 23.5476 12.525 22.9701 12.3125 22.3751C11.3637 22.3544 10.415 22.3338 9.4375 22.3126C9.37563 22.5188 9.31375 22.7251 9.25 22.9376C9.18576 23.1371 9.12093 23.3363 9.05469 23.5352C9.03817 23.5855 9.02166 23.6358 9.00464 23.6877C8.88248 24.0551 8.88248 24.0551 8.8125 24.1251C8.71946 24.1305 8.62616 24.1317 8.53296 24.1312C8.47676 24.131 8.42057 24.1308 8.36267 24.1305C8.27403 24.1298 8.27403 24.1298 8.18359 24.129C8.12426 24.1287 8.06492 24.1284 8.00378 24.1281C7.85669 24.1274 7.7096 24.1263 7.5625 24.1251C7.65797 23.6081 7.83945 23.1303 8.02661 22.6412C8.06073 22.5512 8.0948 22.4611 8.12885 22.3711C8.21924 22.1323 8.31007 21.8936 8.401 21.655C8.49445 21.4096 8.58749 21.164 8.68054 20.9184C8.71755 20.8207 8.75457 20.7231 8.79158 20.6254C8.80977 20.5774 8.82796 20.5294 8.8467 20.4799C8.90141 20.3355 8.95618 20.1912 9.01096 20.0469C9.20814 19.5271 9.404 19.0069 9.59644 18.4854C9.61592 18.4326 9.6354 18.3798 9.65548 18.3254C9.73987 18.0964 9.82389 17.8673 9.90755 17.638C9.93548 17.562 9.96341 17.4861 9.99219 17.4078C10.0152 17.3446 10.0383 17.2813 10.062 17.2162C10.125 17.0626 10.125 17.0626 10.25 16.8751Z" fill="#FAFCFC"/>
<path d="M24.375 11.625C24.5038 11.6182 24.6328 11.6134 24.7617 11.6094C24.8335 11.6065 24.9053 11.6036 24.9793 11.6006C25.2352 11.6306 25.3274 11.6849 25.5 11.875C25.6442 12.2371 25.675 12.6268 25.7227 13.0117C25.7305 13.072 25.7384 13.1323 25.7465 13.1945C25.77 13.3795 25.7917 13.5646 25.8125 13.75C25.8188 13.804 25.825 13.858 25.8315 13.9137C25.8978 14.5769 25.8901 15.2444 25.8906 15.9102C25.8907 15.9754 25.8908 16.0406 25.8909 16.1078C25.8906 17.2762 25.8384 18.4122 25.6028 19.5601C25.5892 19.6262 25.5757 19.6922 25.5617 19.7603C25.4914 19.9622 25.4152 20.054 25.25 20.1875C25.0532 20.2531 24.9132 20.2563 24.707 20.2539C24.6449 20.2533 24.5828 20.2528 24.5188 20.2522C24.4476 20.2511 24.4476 20.2511 24.375 20.25C24.355 20.0599 24.3356 19.8698 24.3164 19.6797C24.311 19.6286 24.3055 19.5775 24.2999 19.5249C24.1874 18.3913 24.1766 17.2515 24.1797 16.1133C24.1798 16.0494 24.1799 15.9856 24.18 15.9198C24.1825 14.4817 24.2171 13.0556 24.375 11.625Z" fill="#1480CC"/>
<path d="M10.8125 18.125C10.8537 18.125 10.895 18.125 10.9375 18.125C11.2917 19.1875 11.6458 20.25 12 21.3125C11.2575 21.3125 10.515 21.3125 9.75 21.3125C10.1042 20.25 10.4583 19.1875 10.8125 18.125Z" fill="#06578C"/>
</svg>
