<svg width="32" height="32" viewBox="0 0 32 32" fill="none" xmlns="http://www.w3.org/2000/svg">
<rect width="32" height="32" fill="white"/>
<path d="M16.0403 2C7.74766 2 1 8.74777 1 17.0403C1 22.3248 3.76422 26.9587 7.8291 29.6416L8.56082 29.1539C8.72336 29.0725 8.96734 28.9099 9.12988 28.8287C9.37375 28.7473 9.61774 28.5847 9.78027 28.5035C10.0241 28.4221 10.2681 28.3408 10.512 28.1783C10.6745 28.097 10.9185 28.0156 11.0811 27.9343C11.3249 27.8531 11.6501 27.7718 11.8941 27.6904C12.1379 27.6091 12.3005 27.6091 12.5445 27.5279C12.7882 27.4466 12.9509 27.4466 13.1949 27.3652C13.4386 27.2839 13.6826 27.2839 13.9265 27.2839C14.1705 27.2839 14.4957 27.2027 14.7395 27.2027V18.2598H13.9265V16.6338H17.9915V27.3652C20.2679 27.6904 22.3004 28.5035 24.1702 29.6416C28.3164 26.9587 30.9993 22.3248 30.9993 17.0403C31.0806 8.74766 24.3327 2 16.0403 2ZM20.5117 17.0403C20.5117 14.6013 18.4792 12.5689 16.0403 12.5689C13.6013 12.5689 11.5689 14.6013 11.5689 17.0403C11.5689 18.7476 12.5445 20.2923 14.0078 21.024V21.9181C12.138 21.1052 10.7559 19.2354 10.7559 17.0403C10.7559 14.1136 13.1136 11.7559 16.0403 11.7559C18.9671 11.7559 21.3248 14.1136 21.3248 17.0403C21.3248 18.9102 20.3492 20.5361 18.8857 21.5117V20.5361C19.8613 19.6419 20.5117 18.4224 20.5117 17.0403ZM18.8857 25.9019V25.0075C22.219 23.8694 24.5767 20.6988 24.5767 16.959C24.5767 12.3249 20.7556 8.50391 16.0403 8.50391C11.3249 8.50391 7.50391 12.3249 7.50391 17.0403C7.50391 21.024 10.2681 24.4385 14.0078 25.3327V26.1458C9.8616 25.2515 6.69098 21.5117 6.69098 17.0403C6.69098 11.8372 10.8371 7.69098 16.0402 7.69098C21.2433 7.69098 25.3896 11.8371 25.3896 17.0402C25.3896 21.1865 22.6255 24.7637 18.8857 25.9019Z" fill="#E44A49"/>
</svg>
