<svg width="32" height="32" viewBox="0 0 32 32" fill="none" xmlns="http://www.w3.org/2000/svg">
<g clip-path="url(#clip0_1836_161)">
<path d="M22.6954 16.0073C22.6954 16.0168 22.6947 16.026 22.6946 16.0355L25.929 17.8295C25.929 17.8295 26.869 18.3643 27.8998 18.7521C26.8032 18.6535 25.725 18.7263 25.725 18.7263L22.0369 18.9354C21.9024 19.2183 21.7483 19.49 21.5776 19.7496L27.2019 24.2418C27.4487 23.9018 27.6806 23.5504 27.8967 23.1881L25.3538 21.1555C24.3654 20.3306 23.3756 19.8699 23.3756 19.8699C24.2963 20.0588 25.6234 19.9765 25.6234 19.9765L29.3605 19.7656C29.4776 19.3428 29.576 18.9122 29.6536 18.4745L26.3779 16.6586C26.3779 16.6586 25.2177 16.0071 24.3064 15.7768C24.3064 15.7768 25.3973 15.7924 26.6447 15.479L29.8133 14.7542C29.7759 14.3311 29.7205 13.9132 29.6465 13.5017L22.6339 15.103C22.6733 15.3991 22.6954 15.7006 22.6954 16.0073Z" fill="black"/>
<path d="M20.8055 20.7195C20.5906 20.9443 20.3607 21.1541 20.117 21.3477L20.7354 25.0043C20.7354 25.0043 20.9048 26.075 21.2452 27.1253C20.6384 26.2037 19.9093 25.4034 19.9093 25.4034L17.4457 22.6396C17.1461 22.7093 16.8392 22.7596 16.526 22.788L16.5316 29.9998C16.9549 29.9812 17.3733 29.9435 17.786 29.8878L17.7847 26.6266C17.8112 25.337 17.5533 24.2734 17.5533 24.2734C17.9802 25.1133 18.8717 26.1029 18.8717 26.1029L21.3664 28.9029C21.7728 28.7295 22.1695 28.5375 22.5552 28.3277L21.9281 24.6261C21.9281 24.6261 21.7126 23.31 21.3239 22.4516C21.3239 22.4516 21.9921 23.317 23.014 24.1L25.5544 26.1334C25.8579 25.8422 26.148 25.5373 26.4244 25.22L20.8055 20.7195Z" fill="black"/>
<path d="M20.1603 10.7012L23.5755 9.28274C23.5755 9.28274 24.5784 8.87881 25.5234 8.3122C24.7628 9.11072 24.1473 10.0019 24.1473 10.0019L22.0108 13.0249C22.1465 13.3039 22.2628 13.5939 22.3601 13.8925L29.3694 12.2816C29.2574 11.8733 29.1274 11.4725 28.9804 11.0799L25.8091 11.8076C24.55 12.0686 23.5737 12.5576 23.5737 12.5576C24.2949 11.9531 25.0582 10.861 25.0582 10.861L27.2223 7.80042C26.9635 7.44199 26.6884 7.09627 26.3977 6.76455L22.9427 8.20059C22.9427 8.20059 21.7117 8.70433 20.964 9.27561C20.964 9.27561 21.6564 8.42952 22.1898 7.25584L23.6009 4.31777C23.2513 4.08574 22.8911 3.86874 22.5205 3.66846L19.397 10.1657C19.6641 10.3267 19.9188 10.5061 20.1603 10.7012Z" fill="black"/>
<path d="M9.80248 13.0256L7.66572 10.0027C7.66572 10.0027 7.05012 9.11172 6.28928 8.31346C7.23452 8.87968 8.23751 9.28348 8.23751 9.28348L11.6526 10.7016C11.8943 10.5064 12.1488 10.327 12.4161 10.166L9.29181 3.66907C8.92121 3.86948 8.56095 4.08661 8.21128 4.31864L9.62287 7.25658C10.1565 8.43 10.849 9.27609 10.849 9.27609C10.1012 8.7052 8.87004 8.20146 8.87004 8.20146L5.41486 6.7658C5.12424 7.09766 4.84914 7.44338 4.59031 7.80181L6.75486 10.8622C6.75486 10.8622 7.51815 11.9544 8.23958 12.5585C8.23958 12.5585 7.26333 12.0695 6.00409 11.8088L2.83267 11.0816C2.68562 11.4741 2.55576 11.8748 2.44373 12.2831L9.45333 13.8933C9.55051 13.5946 9.6668 13.3046 9.80248 13.0256Z" fill="black"/>
<path d="M14.369 22.6399L11.9056 25.4039C11.9056 25.4039 11.1766 26.2044 10.5703 27.126C10.9103 26.0755 11.0795 25.0048 11.0795 25.0048L11.6976 21.3482C11.4539 21.1546 11.2239 20.9447 11.009 20.72L5.39099 25.2214C5.66752 25.5387 5.95762 25.8436 6.26128 26.1348L8.80147 24.101C9.82307 23.3179 10.4911 22.4523 10.4911 22.4523C10.1027 23.3109 9.88729 24.627 9.88729 24.627L9.26045 28.3287C9.64604 28.5385 10.0427 28.7305 10.4493 28.9038L12.9437 26.1034C12.9437 26.1034 13.8351 25.1138 14.2617 24.2737C14.2617 24.2737 14.0038 25.3373 14.0307 26.6268L14.0299 29.8881C14.4426 29.9437 14.8609 29.9813 15.2842 29.9999L15.2889 22.7881C14.9753 22.7598 14.6685 22.7095 14.369 22.6399Z" fill="black"/>
<path d="M14.4244 9.36196L15.4485 5.79998C15.4485 5.79998 15.759 4.76164 15.9067 3.66717C16.0548 4.76164 16.3654 5.79998 16.3654 5.79998L17.3894 9.36196C17.6956 9.43041 17.9942 9.51868 18.2833 9.62705L21.3988 3.12571C21.0143 2.96056 20.6207 2.81265 20.2195 2.68198L18.8088 5.62278C18.2271 6.77299 17.9994 7.8436 17.9994 7.8436C17.9781 6.90106 17.603 5.62148 17.603 5.62148L16.5677 2.01607C16.3486 2.00583 16.1284 2 15.9068 2C15.6854 2 15.4652 2.00583 15.2461 2.01607L14.2107 5.62148C14.2107 5.62148 13.8356 6.90106 13.8145 7.8436C13.8145 7.8436 13.587 6.77299 13.005 5.62278L11.5943 2.68198C11.1931 2.81265 10.7996 2.96056 10.4152 3.12571L13.5306 9.62705C13.8196 9.51855 14.1183 9.43041 14.4244 9.36196Z" fill="black"/>
<path d="M5.16884 15.4805C6.41606 15.7935 7.50718 15.7779 7.50718 15.7779C6.59593 16.0085 5.4358 16.6602 5.4358 16.6602L2.16023 18.4763C2.23789 18.9141 2.33623 19.3446 2.45343 19.7673L6.19083 19.9778C6.19083 19.9778 7.51791 20.06 8.43859 19.8707C8.43859 19.8707 7.4489 20.3316 6.46051 21.1568L3.91774 23.1898C4.13379 23.552 4.36574 23.9033 4.61255 24.2433L10.2363 19.7504C10.0656 19.4908 9.91156 19.2192 9.77691 18.9362L6.08874 18.7274C6.08874 18.7274 5.01054 18.6548 3.91399 18.7538C4.94464 18.3655 5.88458 17.8306 5.88458 17.8306L9.11867 16.0363C9.11867 16.0265 9.11789 16.0169 9.11789 16.0071C9.11789 15.7005 9.14012 15.3994 9.17914 15.1036L2.16669 13.5034C2.09265 13.915 2.03734 14.3329 2 14.756L5.16884 15.4805Z" fill="black"/>
</g>
<defs>
<clipPath id="clip0_1836_161">
<rect width="27.8133" height="28" fill="white" transform="translate(2 2)"/>
</clipPath>
</defs>
</svg>
