<svg width="32" height="32" viewBox="0 0 32 32" fill="none" xmlns="http://www.w3.org/2000/svg">
<g clip-path="url(#clip0_1803_179)">
<path d="M13.6528 12.2823H15.4341L14.4878 10.7608L12.7621 13.507H11.9642L14.0795 10.2227C14.1723 10.0742 14.3208 10 14.4878 10C14.6548 10 14.8032 10.0742 14.896 10.2041L17.0113 13.507H16.2134L15.8423 12.8946H14.0424L13.6528 12.2823Z" fill="#E42313"/>
<path d="M21.8356 12.8946V10.0371H21.1676V13.1915C21.1676 13.2843 21.2047 13.3585 21.2604 13.4142C21.316 13.4698 21.4088 13.507 21.5016 13.507H24.5447L24.9343 12.8946H21.8356Z" fill="#E42313"/>
<path d="M10.7767 12.3936C11.4262 12.3936 11.9457 11.8741 11.9457 11.2247C11.9457 10.5752 11.4262 10.0557 10.7767 10.0557H7.84497V13.5255H8.51296V10.6494H10.721C11.0365 10.6494 11.2777 10.9092 11.2777 11.2061C11.2777 11.5215 11.0179 11.7628 10.721 11.7628H8.8284L10.8324 13.507H11.7973L10.4613 12.3751L10.7767 12.3936Z" fill="#E42313"/>
<path d="M3.7442 13.507C2.77932 13.507 2 12.7276 2 11.7813C2 10.8164 2.77932 10.0371 3.7442 10.0371H5.76673C6.73161 10.0371 7.51093 10.8164 7.51093 11.7813C7.51093 12.7462 6.73161 13.5255 5.76673 13.5255L3.7442 13.507ZM5.71107 12.8946C6.34195 12.8946 6.84294 12.3936 6.84294 11.7628C6.84294 11.1319 6.34195 10.6309 5.71107 10.6309H3.78131C3.15043 10.6309 2.64944 11.1319 2.64944 11.7628C2.64944 12.3751 3.15043 12.8946 3.78131 12.8946H5.71107Z" fill="#E42313"/>
<path d="M18.4029 13.507C17.438 13.507 16.6587 12.7276 16.6587 11.7628C16.6587 10.7979 17.438 10.0186 18.4029 10.0186H20.7965L20.4069 10.6309H18.4586C17.8277 10.6309 17.3267 11.1319 17.3267 11.7628C17.3267 12.3751 17.8277 12.8946 18.4586 12.8946H20.8708L20.4811 13.507H18.4029Z" fill="#E42313"/>
<path d="M26.5859 12.8946C26.0663 12.8946 25.6396 12.5421 25.5097 12.0782H28.3672L28.7569 11.4659H25.5097C25.6396 10.9834 26.0849 10.6494 26.5859 10.6494H28.5527L28.9424 10.0371H26.5488C25.5839 10.0371 24.8046 10.8164 24.8046 11.7813C24.8046 12.7462 25.5839 13.5255 26.5488 13.5255H28.6084L28.9981 12.9132L26.5859 12.8946Z" fill="#E42313"/>
<path d="M29.2949 10.4082C29.2949 10.2412 29.4248 10.0928 29.6104 10.0928C29.7774 10.0928 29.9258 10.2227 29.9258 10.4082C29.9258 10.5752 29.7959 10.7237 29.6104 10.7237C29.4434 10.7051 29.2949 10.5752 29.2949 10.4082ZM29.6104 10.7979C29.833 10.7979 30 10.6309 30 10.4082C30 10.1856 29.833 10.0186 29.6104 10.0186C29.3877 10.0186 29.2207 10.2041 29.2207 10.4082C29.2207 10.6309 29.3877 10.7979 29.6104 10.7979ZM29.5733 10.167C29.6289 10.167 29.666 10.167 29.6846 10.1856C29.7588 10.2041 29.7588 10.2783 29.7588 10.3154C29.7588 10.3154 29.7588 10.334 29.7588 10.3526C29.7588 10.3711 29.7403 10.4082 29.7031 10.4268C29.7031 10.4268 29.7031 10.4268 29.6846 10.4453L29.7774 10.6309H29.6846L29.5918 10.4639H29.5361V10.6309H29.4619V10.167H29.5733ZM29.5918 10.3711C29.6104 10.3711 29.6475 10.3711 29.666 10.3526C29.6846 10.334 29.6846 10.334 29.6846 10.3154C29.6846 10.2969 29.666 10.2783 29.6475 10.2598C29.6289 10.2598 29.6104 10.2598 29.5733 10.2598H29.5547V10.3711H29.5918Z" fill="#E42313"/>
<path d="M3.11328 18.7767H3.92972V19.3519C4.09671 18.9622 4.35649 18.7025 4.83893 18.721V19.5746H4.80182C4.26371 19.5746 3.92972 19.9086 3.92972 20.5766V21.6342H3.11328V18.7767Z" fill="black"/>
<path d="M4.89465 20.2426C4.89465 19.4076 5.46987 18.7396 6.30486 18.7396C7.26974 18.7396 7.69651 19.4818 7.69651 20.2983C7.69651 20.3539 7.69651 20.4467 7.67795 20.5209H5.71109C5.78531 20.892 6.04508 21.0776 6.41619 21.0776C6.69452 21.0776 6.88007 20.9848 7.10274 20.7807L7.56662 21.1889C7.30685 21.5229 6.91718 21.727 6.39764 21.727C5.52553 21.727 4.89465 21.1147 4.89465 20.2426ZM6.91718 20.0014C6.86152 19.6303 6.65741 19.3891 6.30486 19.3891C5.97086 19.3891 5.7482 19.6303 5.69253 20.0014H6.91718Z" fill="black"/>
<path d="M8.25307 20.7065C8.47573 20.9292 8.75406 21.0962 9.0695 21.0962C9.27361 21.0962 9.5705 21.0405 9.5705 20.8178C9.5705 20.725 9.51483 20.6879 9.45917 20.6508C9.32928 20.5952 9.14373 20.5766 8.97673 20.5395C8.84684 20.5209 8.71695 20.4838 8.60562 20.4467C8.43862 20.391 8.27163 20.3354 8.14174 20.2055C8.01185 20.0756 7.93763 19.8901 7.93763 19.6859C7.93763 19.2221 8.32729 18.7582 9.10662 18.7582C9.75605 18.7582 10.1643 19.0365 10.3498 19.1664L9.84883 19.6303C9.58905 19.4262 9.34783 19.3519 9.14373 19.3519C8.82829 19.3519 8.75406 19.4818 8.75406 19.5561C8.75406 19.7231 8.92106 19.7416 9.19939 19.7973C9.75605 19.8901 10.4055 20.0571 10.4055 20.7065C10.4055 21.3559 9.7375 21.6899 9.08806 21.6899C8.30874 21.6899 7.91907 21.3188 7.73352 21.1518L8.25307 20.7065Z" fill="black"/>
<path d="M10.6096 18.7953H11.4261V19.2035C11.6302 18.9437 11.8899 18.7396 12.3167 18.7396C12.9847 18.7396 13.6156 19.2592 13.6156 20.2241V20.2426C13.6156 21.1889 12.9847 21.727 12.3167 21.727C11.8899 21.727 11.6116 21.5229 11.4261 21.3003V22.5249H10.6096V18.7953ZM12.7991 20.2241C12.7991 19.7416 12.4837 19.4262 12.094 19.4262C11.7229 19.4262 11.4075 19.7416 11.4075 20.2241V20.2426C11.4075 20.725 11.7229 21.0405 12.094 21.0405C12.4837 21.0219 12.7991 20.7065 12.7991 20.2241Z" fill="black"/>
<path d="M13.8197 20.2426C13.8197 19.4076 14.4877 18.7396 15.3783 18.7396C16.269 18.7396 16.9184 19.3891 16.9184 20.2241V20.2426C16.9184 21.059 16.2505 21.727 15.3598 21.727C14.4691 21.727 13.8197 21.059 13.8197 20.2426ZM16.1206 20.2426C16.1206 19.8158 15.8237 19.4447 15.3598 19.4447C14.8959 19.4447 14.6176 19.7973 14.6176 20.2241V20.2426C14.6176 20.6694 14.9145 21.0405 15.3783 21.0405C15.8422 21.0219 16.1206 20.6694 16.1206 20.2426Z" fill="black"/>
<path d="M17.1226 18.7953H17.939V19.2035C18.1245 18.9623 18.3658 18.7396 18.774 18.7396C19.3863 18.7396 19.7389 19.1478 19.7389 19.7973V21.6528H18.9224V20.0571C18.9224 19.6674 18.7369 19.4818 18.44 19.4818C18.1245 19.4818 17.939 19.6859 17.939 20.0571V21.6528H17.1226V18.7953Z" fill="black"/>
<path d="M20.4625 20.7065C20.6852 20.9292 20.9635 21.0962 21.279 21.0962C21.4831 21.0962 21.78 21.0405 21.78 20.8178C21.78 20.725 21.7243 20.6879 21.6686 20.6508C21.5388 20.5952 21.3532 20.5766 21.1862 20.5395C21.0563 20.5209 20.9264 20.4838 20.8151 20.4467C20.6481 20.391 20.4811 20.3354 20.3512 20.2055C20.2213 20.0756 20.1471 19.8901 20.1471 19.6859C20.1471 19.2221 20.5368 18.7582 21.3161 18.7582C21.9655 18.7582 22.3737 19.0365 22.5593 19.1664L22.0583 19.6303C21.7985 19.4262 21.5573 19.3519 21.3532 19.3519C21.0378 19.3519 20.9635 19.4818 20.9635 19.5561C20.9635 19.7231 21.1491 19.7416 21.4089 19.7973C21.9655 19.8901 22.615 20.0571 22.615 20.7065C22.615 21.3559 21.947 21.6899 21.2975 21.6899C20.5182 21.6899 20.1285 21.3188 19.943 21.1518L20.4625 20.7065Z" fill="black"/>
<path d="M22.8005 22.3208L23.0789 21.727C23.1902 21.7827 23.3201 21.8384 23.4314 21.8384C23.5613 21.8384 23.6355 21.8013 23.7098 21.6528L22.5964 18.7767H23.45L24.0994 20.725L24.7303 18.7767H25.5653L24.4705 21.7085C24.2479 22.2837 24.0066 22.5064 23.5242 22.5064C23.2273 22.5249 23.0232 22.4507 22.8005 22.3208Z" fill="black"/>
<path d="M25.825 20.7065C26.0476 20.9292 26.326 21.0962 26.6414 21.0962C26.8455 21.0962 27.1424 21.0405 27.1424 20.8178C27.1424 20.725 27.0867 20.6879 27.0311 20.6508C26.9012 20.5952 26.7156 20.5766 26.5486 20.5395C26.4187 20.5209 26.2889 20.4838 26.1775 20.4467C26.0105 20.391 25.8435 20.3354 25.7136 20.2055C25.5838 20.0756 25.5095 19.8901 25.5095 19.6859C25.5095 19.2221 25.8992 18.7582 26.6785 18.7582C27.328 18.7582 27.7362 19.0365 27.9217 19.1664L27.4207 19.6303C27.161 19.4262 26.9197 19.3519 26.7156 19.3519C26.4002 19.3519 26.326 19.4818 26.326 19.5561C26.326 19.7231 26.493 19.7416 26.7713 19.7973C27.328 19.8901 27.9774 20.0571 27.9774 20.7065C27.9774 21.3559 27.3094 21.6899 26.66 21.6899C25.8806 21.6899 25.491 21.3188 25.3054 21.1518L25.825 20.7065Z" fill="black"/>
<path d="M28.3856 18.9994H28.5155C28.5712 18.9994 28.6083 18.9994 28.6454 19.0365C28.664 19.0551 28.6825 19.0922 28.6825 19.1293C28.6825 19.2035 28.6268 19.2221 28.6083 19.2406L28.7011 19.4076H28.6083L28.5341 19.2592H28.4598V19.4076H28.3856V18.9994ZM28.4598 19.0551V19.1849H28.4784C28.497 19.1849 28.5155 19.1849 28.5341 19.1849C28.5526 19.1849 28.6083 19.1849 28.6083 19.1293C28.6083 19.1293 28.6083 19.0922 28.5712 19.0736C28.5526 19.0736 28.5341 19.0736 28.497 19.0736C28.497 19.0551 28.4598 19.0551 28.4598 19.0551Z" fill="black"/>
<path d="M28.8866 19.1849C28.8866 19.3705 28.7196 19.5375 28.5341 19.5375C28.3485 19.5375 28.1815 19.3705 28.1815 19.1849C28.1815 18.9994 28.33 18.8324 28.5341 18.8324C28.7196 18.8324 28.8866 18.9994 28.8866 19.1849ZM28.5341 18.8881C28.3671 18.8881 28.2372 19.018 28.2372 19.1849C28.2372 19.3519 28.3671 19.4818 28.5341 19.4818C28.7011 19.4818 28.831 19.3519 28.831 19.1849C28.831 19.018 28.7011 18.8881 28.5341 18.8881Z" fill="black"/>
<path d="M29.7031 15.9934H2.27832V16.2717H29.7031V15.9934Z" fill="black"/>
</g>
<defs>
<clipPath id="clip0_1803_179">
<rect width="28" height="12.5249" fill="none" transform="translate(2 10)"/>
</clipPath>
</defs>
</svg>
