<svg width="32" height="32" viewBox="0 0 32 32" fill="none" xmlns="http://www.w3.org/2000/svg">
<path d="M16 28.4444C22.8729 28.4444 28.4444 22.8729 28.4444 16C28.4444 9.12711 22.8729 3.55554 16 3.55554C9.12711 3.55554 3.55554 9.12711 3.55554 16C3.55554 22.8729 9.12711 28.4444 16 28.4444Z" fill="white"/>
<path d="M12.3442 8.82801C12.0847 8.93037 11.8389 9.16868 11.7294 9.42099C11.6134 9.67984 11.6065 10.1365 11.6205 16.2418L11.627 22.7835H13.7442L13.751 20.0716C13.7578 18.586 13.7715 17.3525 13.7852 17.3322C13.8054 17.3185 14.707 17.2912 15.7928 17.2775C17.8617 17.2433 17.9986 17.2367 18.661 17.0118C19.2959 16.8005 19.781 16.5009 20.2794 15.9966C21.7886 14.4769 21.8296 11.7717 20.368 10.1571C19.808 9.54357 19.221 9.21628 18.0462 8.86224C17.862 8.80748 12.4739 8.77357 12.3442 8.82801ZM17.9781 10.9199C18.8865 11.3356 19.3165 12.058 19.2754 13.1142C19.2278 14.218 18.6473 14.9609 17.6162 15.2198C17.1107 15.3492 13.7849 15.4105 13.7715 15.2879C13.7647 15.1924 13.7647 10.9541 13.7715 10.8042C13.7784 10.6816 13.867 10.6748 15.6768 10.7018L17.5683 10.7292L17.9781 10.9199Z" fill="black"/>
<path d="M18.0462 18.2454C17.9373 18.2724 17.4454 18.2998 16.9536 18.3135C16.4689 18.3204 16.0523 18.3406 16.0454 18.3543C16.0317 18.368 16.7009 19.3697 17.5341 20.5824L19.057 22.7835H20.3749C21.106 22.7835 21.6999 22.7699 21.6999 22.7425C21.6999 22.7083 21.3993 22.2655 20.737 21.3185C19.5622 19.6491 18.9136 18.7223 18.7428 18.47C18.5449 18.1704 18.4628 18.1499 18.0462 18.2454Z" fill="black"/>
<path d="M23.3649 4.0917C27.3474 6.56005 30 10.9704 30 16.0001C30 16.6873 29.9502 17.3628 29.855 18.0232L27.7758 17.7233L27.7889 17.6337C27.8626 17.0961 27.9 16.5511 27.9 16.0001C27.9 11.83 25.7396 8.0341 22.2586 5.87654L22.2399 5.86503L23.363 4.09045L23.3649 4.0917Z" fill="#4CC7E8"/>
<path d="M5.31049 6.9585L6.90337 8.3277L6.88782 8.34574C5.08258 10.4872 4.0948 13.1992 4.09995 16C4.09995 22.5137 9.33346 27.8051 15.8248 27.8988V29.9981H15.7685C8.14315 29.8746 1.99995 23.6546 1.99995 16C1.99504 12.7048 3.1573 9.51424 5.28062 6.99427L5.31049 6.9585Z" fill="#72C6B8"/>
<path d="M27.7755 17.7235L29.8547 18.0237C29.8469 18.0791 29.8385 18.1345 29.8298 18.1896C28.7786 24.8815 22.9872 29.9999 16 29.9999L15.8248 29.9984V27.8984C15.883 27.8996 15.9415 27.8999 16 27.8999C21.8787 27.8999 26.8528 23.6082 27.7553 17.8635L27.7755 17.7235Z" fill="#FDB900"/>
<path d="M11.8271 2.63269L12.4294 4.64433L12.4017 4.65304C10.2587 5.33456 8.35228 6.60859 6.90281 8.32789L5.31085 6.95869L5.40512 6.84824C7.09738 4.88834 9.29958 3.43565 11.7673 2.65136L11.8271 2.63269Z" fill="#F25D0F"/>
<path d="M16 2.00002C18.6021 1.99589 21.1534 2.72044 23.3649 4.09162L23.3631 4.09037L22.24 5.86495L22.2586 5.87646C20.3941 4.72099 18.2453 4.10002 16 4.10002C14.7792 4.0986 13.5654 4.28517 12.4014 4.65317L12.4291 4.64446L11.8271 2.63282L11.9904 2.58273C13.2916 2.19512 14.6423 1.99883 16 2.00002Z" fill="#8AC734"/>
</svg>
