<svg width="32" height="32" viewBox="0 0 32 32" fill="none" xmlns="http://www.w3.org/2000/svg">
<path fill-rule="evenodd" clip-rule="evenodd" d="M30 8V23.1461H26.787V12.8186H26.7473C26.7233 12.9664 26.6981 13.1142 26.6716 13.2619C26.644 13.4085 26.6146 13.5551 26.5833 13.7016C26.5521 13.8482 26.5191 13.9948 26.4842 14.1413C26.4482 14.2867 26.4109 14.4315 26.3725 14.5756C26.2295 15.0958 26.0746 15.6352 25.9076 16.1938L23.6424 23.1407H20.6997L18.4526 16.1938L18.2183 15.4046L18.0057 14.6459C17.9408 14.3792 17.8723 14.0897 17.8002 13.7773C17.7281 13.4638 17.6525 13.0877 17.5732 12.6492H17.5317V23.1461H11.8085L8.59544 17.8517L5.49234 23.1461H2L6.83846 15.1451L2.42888 8.00541H6.22036L8.92521 12.5501L11.4805 8.00541H18.9409L22.3125 19.1402H22.3522L25.4967 8.00541L30 8ZM14.5494 21.5891V8.60729L10.6011 15.1649L14.5494 21.5891Z" fill="url(#paint0_linear_1643_168)"/>
<defs>
<linearGradient id="paint0_linear_1643_168" x1="5.71579" y1="8.12074" x2="28.58" y2="24.6742" gradientUnits="userSpaceOnUse">
<stop stop-color="#21DBAA"/>
<stop offset="0.4" stop-color="#01A7EC"/>
<stop offset="0.6" stop-color="#0487E4"/>
<stop offset="0.7" stop-color="#0768DD"/>
<stop offset="1" stop-color="#5F1AE5"/>
</linearGradient>
</defs>
</svg>
