<svg width="32" height="32" viewBox="0 0 32 32" fill="none" xmlns="http://www.w3.org/2000/svg">
<rect width="32" height="32" fill="white"/>
<path fill-rule="evenodd" clip-rule="evenodd" d="M30 16C30 23.7362 23.7362 30 16 30C8.26377 30 2 23.7362 2 16C2 8.26378 8.26377 2 16 2C23.7362 2 30 8.26378 30 16ZM10.414 21.5392H17.3556C17.4725 21.5392 17.5192 21.399 17.4725 21.3055L11.8631 14.3639C11.7696 14.2705 11.6528 14.3172 11.6294 14.4107L10.2738 21.3523C10.2504 21.4691 10.3205 21.5392 10.414 21.5392ZM10.2738 11.0684H17.2154C17.3088 11.0684 17.379 11.1619 17.3556 11.2321L16 18.1736C15.9766 18.2905 15.8364 18.3139 15.7663 18.2204L10.1569 11.2554C10.1102 11.1853 10.1569 11.0684 10.2738 11.0684ZM17.9165 11.1619C17.9399 11.1152 17.9866 11.0451 18.0568 11.0451H23.0584C23.1519 11.0451 23.222 11.1386 23.1987 11.2087L22.2638 15.7195C22.2404 15.7896 22.1937 15.8364 22.1235 15.8364H21.9833C19.5292 15.8364 17.5659 13.5693 17.9165 11.1619Z" fill="#3901F1"/>
</svg>