<svg width="32" height="32" viewBox="0 0 32 32" fill="none" xmlns="http://www.w3.org/2000/svg">
<g clip-path="url(#clip0_1515_146)">
<mask id="mask0_1515_146" style="mask-type:luminance" maskUnits="userSpaceOnUse" x="0" y="0" width="32" height="32">
<path d="M0 -2.38419e-07H32V32H0V-2.38419e-07Z" fill="white"/>
</mask>
<g mask="url(#mask0_1515_146)">
<path d="M16 1.77772C8.14518 1.77772 1.77777 8.14533 1.77777 15.9999C1.77777 23.8548 8.14518 30.2222 16 30.2222C23.8548 30.2222 30.2222 23.8548 30.2222 15.9999C30.2222 8.14533 23.8548 1.77772 16 1.77772Z" fill="#723080"/>
<path d="M18.0217 17.0792C20.0747 16.5595 22.1039 14.8407 22.1039 12.0374C22.1039 8.60212 19.7476 6.9632 16.018 6.96182H16.014C12.7224 6.96301 10.8204 8.51619 10.3759 11.2087H8.74292L12.0067 13.9836L15.4562 11.2087H13.603C13.603 11.2087 13.6178 9.28083 16.0575 9.28083C18.1395 9.28083 18.8508 10.7981 18.8508 12.0605C18.8508 13.8997 17.8783 15.2925 15.5479 15.2925H10.3716L10.3696 24.2418H13.6346V17.5062H13.645C14.3637 17.5062 15.0619 17.7727 16.2673 19.5574L19.1741 24.2418H22.8075L19.808 19.4381C19.0191 18.2106 18.431 17.4007 18.0217 17.0792Z" fill="white"/>
</g>
</g>
<defs>
<clipPath id="clip0_1515_146">
<rect width="32" height="32" fill="white"/>
</clipPath>
</defs>
</svg>
