<svg width="32" height="32" viewBox="0 0 32 32" fill="none" xmlns="http://www.w3.org/2000/svg">
<rect width="32" height="32" fill="white"/>
<path d="M13.6049 8.39786C14.5258 7.43298 15.8022 6.88723 17.1368 6.88787C18.9259 6.89525 20.5707 7.86986 21.4349 9.43468C22.1992 9.09078 23.0278 8.9129 23.8661 8.91279C26.1915 8.88468 28.328 10.1883 29.3646 12.2678C30.4012 14.3474 30.1551 16.836 28.7312 18.6728C27.3073 20.5095 24.9568 21.3704 22.6818 20.8884C21.5437 22.9155 19.0231 23.708 16.9278 22.6976C16.1254 24.5883 14.248 25.7973 12.1928 25.7466C10.1376 25.6959 8.32205 24.3959 7.61406 22.4679C7.30057 22.5358 6.98046 22.5685 6.6597 22.5654C4.5435 22.5461 2.70093 21.1171 2.15786 19.0739C1.6148 17.0307 2.50508 14.8769 4.33301 13.8116C3.24313 11.3032 4.19974 8.37678 6.56155 6.99422C8.92337 5.61165 11.9468 6.2082 13.6049 8.38395V8.39786Z" fill="#1797C0"/>
</svg>
