<svg width="32" height="32" viewBox="0 0 32 32" fill="none" xmlns="http://www.w3.org/2000/svg">
<path d="M2.64965 12.8287C2.57544 12.7075 2.55452 12.561 2.59182 12.4239C3.31977 9.54162 4.94848 6.96686 7.24094 5.07426C10.8863 2.07312 15.8358 1.19729 20.2897 2.76526C20.4223 2.81306 20.5298 2.91258 20.5877 3.0411C20.6409 3.17081 20.6409 3.31623 20.5877 3.44595L19.9204 5.22552C19.828 5.4894 19.5394 5.6287 19.2753 5.53694C15.7792 4.31691 11.8999 5.01013 9.04276 7.36545C7.26212 8.85589 5.9978 10.8707 5.43023 13.1224C5.37153 13.3497 5.16676 13.5088 4.93195 13.5094H4.81628L2.98332 13.069C2.84669 13.0368 2.72927 12.95 2.65855 12.8287" fill="black"/>
<path d="M29.232 17.2509C29.1462 17.1408 29.0194 17.0702 28.8805 17.0552L27.0075 16.8594C26.7315 16.833 26.484 17.0295 26.447 17.3043C26.1128 19.8496 24.8938 22.1963 23.0035 23.9332C20.0337 26.6882 15.7536 27.51 11.9746 26.0509C11.849 26.0016 11.7089 26.0044 11.5853 26.0586C11.4617 26.1129 11.3648 26.2142 11.3162 26.3401L10.5865 28.1197C10.5309 28.2489 10.5309 28.3953 10.5865 28.5245C10.6377 28.6565 10.743 28.7602 10.8757 28.8093C12.4412 29.4263 14.1091 29.7418 15.7918 29.7391C19.1942 29.7392 22.4709 28.4536 24.9655 26.1399C27.3697 23.9101 28.9118 20.9048 29.321 17.6513C29.3403 17.5117 29.3018 17.3703 29.2142 17.2598" fill="black"/>
<path d="M18.8883 19.8403V17.9228C18.8895 17.7847 18.8358 17.6519 18.739 17.5534C18.6422 17.455 18.5103 17.399 18.3722 17.3978H3.05457C2.91651 17.399 2.78458 17.455 2.6878 17.5534C2.59101 17.6519 2.5373 17.7847 2.53847 17.9228V19.8403C2.5373 19.9783 2.59101 20.1112 2.6878 20.2097C2.78458 20.3081 2.91651 20.3641 3.05457 20.3653H18.3722C18.5103 20.3641 18.6422 20.3081 18.739 20.2097C18.8358 20.1112 18.8895 19.9783 18.8883 19.8403Z" fill="black"/>
<path d="M12.9934 10.9602V12.8777C12.991 13.1634 13.2193 13.3978 13.5051 13.4026H28.8227C28.9608 13.4015 29.0927 13.3455 29.1895 13.247C29.2863 13.1486 29.34 13.0157 29.3388 12.8777V10.9602C29.3316 10.6796 29.1034 10.4553 28.8227 10.453H13.5051C13.2193 10.4579 12.991 10.6922 12.9934 10.978" fill="black"/>
<path d="M24.1914 4.60265C23.5539 4.59181 22.9731 4.96749 22.7216 5.5534C22.4701 6.1393 22.5978 6.81912 23.0448 7.27382C23.4918 7.72853 24.1693 7.86785 24.7594 7.62642C25.3495 7.38499 25.7351 6.81072 25.7353 6.17312C25.7402 5.31412 25.0504 4.61242 24.1914 4.60265Z" fill="black"/>
<path d="M7.14311 23.5907C6.50559 23.5798 5.9248 23.9555 5.67329 24.5414C5.42178 25.1273 5.54947 25.8072 5.99644 26.2619C6.44342 26.7166 7.12095 26.8559 7.71108 26.6145C8.30121 26.373 8.68679 25.7988 8.68691 25.1612C8.69183 24.3022 8.00206 23.6005 7.14311 23.5907Z" fill="black"/>
</svg>
