<svg width="32" height="32" viewBox="0 0 32 32" fill="none" xmlns="http://www.w3.org/2000/svg">
<path d="M16.8599 12.6009C16.4768 12.8874 15.9398 12.8976 15.5346 12.6496C15.1408 12.4086 14.9149 11.942 15.0029 11.487C15.0126 11.437 15.0266 11.3881 15.0433 11.34C14.9929 11.4744 14.9499 11.5882 15.0506 11.3176C15.1535 11.0445 15.1103 11.161 15.0596 11.2963C15.2315 10.8694 15.6677 10.5978 16.1286 10.606C16.6102 10.6145 17.0574 10.9228 17.2228 11.3736C17.3843 11.814 17.2377 12.3183 16.8599 12.6009ZM29.5696 10.9714C29.205 10.095 28.6204 9.31998 27.865 8.738C27.0722 8.12709 26.1154 7.74142 25.122 7.60842C24.5425 7.53084 23.9546 7.54267 23.3776 7.63532C22.7742 7.73222 22.2047 7.92722 21.6449 8.16623C21.3707 8.28335 21.0989 8.40584 20.8253 8.52448C19.9907 9.01675 19.0492 9.29692 18.0764 9.30967C17.5725 9.31624 17.0697 9.26011 16.5776 9.15279C16.3184 9.09635 16.0624 9.02596 15.8102 8.94453C15.5655 8.86544 15.3179 8.81497 15.0613 8.79322C14.4784 8.74376 13.8912 8.82195 13.3123 8.88354L11.9152 9.03364C11.9133 9.03091 11.9118 9.02909 11.9102 9.02636L11.8693 9.03051C11.5143 8.63867 11.075 8.33049 10.6447 8.02655C10.522 7.93987 10.4027 7.86411 10.2485 7.85005C9.8125 7.846 9.70893 8.36508 9.68375 8.70148C9.653 9.11203 9.70216 9.53411 9.79642 9.93413C9.83253 10.0874 9.87248 10.2497 9.94885 10.389C9.94885 10.389 10.0161 10.6863 10.1339 10.9643C9.98243 11.1485 9.86075 11.3578 9.77619 11.5804C9.74656 11.6586 9.71642 11.7271 9.67019 11.7974C9.53436 12.0043 9.37 12.1937 9.20847 12.3807C8.66229 13.0132 8.0802 13.6156 7.49771 14.2149C7.22492 14.4955 4.87408 15.2714 3.52025 15.7019C3.65056 9.50265 8.7161 4.51724 14.9465 4.51724C17.8965 4.51724 20.5852 5.63509 22.6129 7.46995C22.8749 7.39399 23.1278 7.33593 23.3776 7.29588C23.7189 7.24106 24.0639 7.21325 24.4028 7.21325C24.4369 7.21325 24.4709 7.21436 24.5049 7.21496C22.1376 4.62496 18.7319 3.00007 14.9465 3.00007C7.79639 3.00007 2 8.79646 2 15.9466C2 23.0967 7.79639 28.8931 14.9465 28.8931C21.5188 28.8931 26.9466 23.9956 27.7811 17.6513C27.7311 17.6816 27.6819 17.7133 27.6306 17.7422C27.3051 17.926 26.9671 18.0628 26.6402 18.195C26.5273 18.2408 26.4208 18.2838 26.3147 18.3287C26.2464 18.3575 26.1766 18.3883 26.1068 18.419C25.0099 23.3925 20.6739 27.1497 15.4237 27.3655C16.5584 25.6752 18.836 22.3531 19.5036 21.8961C20.4175 21.2704 21.3424 20.66 22.2849 20.0775C23.1477 19.5443 24.0253 19.032 24.9304 18.5721C25.3228 18.3727 25.7206 18.1834 26.1263 18.0119C26.5582 17.8296 26.9978 17.6738 27.4071 17.4428C28.1445 17.0267 28.7825 16.4416 29.2359 15.7283C29.6697 15.0459 29.9262 14.2601 29.9861 13.4557C30.0492 12.609 29.8955 11.7548 29.5696 10.9714Z" fill="#93D33D"/>
</svg>
