<svg width="32" height="32" viewBox="0 0 32 32" fill="none" xmlns="http://www.w3.org/2000/svg">
<path d="M18.1329 29.9971H13.8699L13.3061 26.2764C12.3697 26.0298 11.4717 25.6558 10.637 25.165L7.60804 27.4002L4.59245 24.3877L6.82782 21.3571C6.33786 20.5222 5.96577 19.6234 5.7221 18.6865L2 18.1265V13.8697L5.72114 13.3068C5.96624 12.3708 6.3386 11.4729 6.82782 10.6381L4.59245 7.60651L7.60804 4.59218L10.637 6.82732C11.4716 6.3376 12.3698 5.96524 13.3061 5.72076L13.8699 2H18.1329L18.693 5.72076C19.63 5.96494 20.5288 6.33731 21.3639 6.82732L24.392 4.59218L27.4085 7.60651L25.1731 10.6352C25.6623 11.4699 26.0343 12.3679 26.2789 13.304L30 13.8697V18.1332L26.2789 18.6932C26.0347 19.6296 25.6626 20.528 25.1731 21.3629L27.4085 24.3925L24.3929 27.4078L21.3639 25.1727C20.5284 25.6619 19.6297 26.0343 18.693 26.2792L18.1329 30V29.9971ZM16 11.3177C15.074 11.3175 14.1688 11.5919 13.3988 12.1062C12.6288 12.6204 12.0287 13.3515 11.6742 14.2068C11.3198 15.0622 11.227 16.0034 11.4076 16.9115C11.5882 17.8196 12.0341 18.6537 12.6888 19.3084C13.3436 19.9631 14.1778 20.409 15.086 20.5895C15.9942 20.7701 16.9355 20.6773 17.791 20.3229C18.6464 19.9685 19.3775 19.3684 19.8918 18.5985C20.4062 17.8286 20.6806 16.9235 20.6804 15.9976C20.6791 14.7568 20.1856 13.5672 19.3081 12.6898C18.4307 11.8124 17.2409 11.319 16 11.3177Z" fill="#6CBE45"/>
</svg>
