<svg width="32" height="32" viewBox="0 0 32 32" fill="none" xmlns="http://www.w3.org/2000/svg">
<path d="M6.31909 18.4507V18.5334H7.38144V17.4754V17.4711H6.31909V18.3636C6.31909 18.3897 6.31909 18.4159 6.31909 18.442C6.31909 18.4463 6.31909 18.4507 6.31909 18.4507Z" fill="#D8276C"/>
<path d="M2 17.4711L2.32219 17.7845L3.07976 18.5682V17.4667H6.31906V16.3782H3.08412C3.05364 16.3695 2 15.2985 2 15.2985V17.4711Z" fill="#D8276C"/>
<path d="M3.06235 13.2347V13.1564H2V14.2144V14.2187H3.06235V13.3218C3.06235 13.2957 3.06235 13.2696 3.06235 13.2434C3.06235 13.2434 3.06235 13.2391 3.06235 13.2347Z" fill="#D8276C"/>
<path d="M7.38144 14.2188L7.05925 13.9053L6.30167 13.1216V14.2188H3.06238V15.3116H6.29732C6.3278 15.3246 7.38144 16.3914 7.38144 16.3914V14.2188Z" fill="#D8276C"/>
<path d="M16.0371 14.6584H16.9209V15.1025L16.9427 15.1199C17.2083 14.7237 17.5871 14.5583 18.0486 14.5757C18.5275 14.5975 18.8584 14.8413 19.0456 15.2897C19.0631 15.2636 19.0805 15.2462 19.0892 15.2288C19.3809 14.7281 19.8381 14.5365 20.3954 14.5844C20.9831 14.6367 21.3576 15.0111 21.4795 15.6381C21.5056 15.7817 21.523 15.9254 21.523 16.0734C21.5274 16.8746 21.523 17.68 21.523 18.4811C21.523 18.5073 21.5187 18.5334 21.5187 18.5682H20.613V18.4376C20.613 17.6757 20.613 16.9137 20.613 16.1562C20.613 16.056 20.6043 15.9559 20.5826 15.8557C20.5303 15.625 20.3997 15.4552 20.1559 15.4073C19.8903 15.355 19.6465 15.3986 19.4636 15.6119C19.272 15.8383 19.2372 16.1126 19.2329 16.3956C19.2285 17.0748 19.2329 17.7584 19.2329 18.4376V18.5639H18.3316C18.3316 18.5203 18.3273 18.4768 18.3273 18.4332C18.3273 17.7236 18.3273 17.0139 18.3273 16.3085C18.3273 16.1736 18.3185 16.0386 18.2968 15.9036C18.2576 15.6468 18.127 15.4639 17.8614 15.4073C17.5784 15.3463 17.3302 15.416 17.143 15.6555C16.995 15.8514 16.9427 16.0821 16.9384 16.3216C16.934 17.0269 16.934 17.7323 16.9297 18.4376C16.9297 18.4768 16.9297 18.5203 16.9297 18.5682H16.0371V14.6584Z" fill="#1D1D1B"/>
<path d="M13.7121 14.9153H12.7499C12.7369 14.8587 12.7238 14.7934 12.7107 14.7324C12.5888 14.1577 12.2536 13.8747 11.6658 13.8443C11.4394 13.8312 11.213 13.8399 10.9997 13.9226C10.721 14.0315 10.5381 14.223 10.4902 14.5278C10.4511 14.7803 10.5468 14.9632 10.7602 15.0851C11.004 15.2288 11.2783 15.281 11.5482 15.342C11.9357 15.4291 12.3189 15.5161 12.702 15.6163C12.8283 15.6555 12.9502 15.7121 13.0634 15.7774C13.5467 16.043 13.76 16.4566 13.7382 17.0008C13.6991 17.8977 13.1243 18.5116 12.2274 18.6335C11.779 18.6988 11.3218 18.6771 10.8821 18.5595C10.081 18.3418 9.62382 17.7976 9.43225 17.0095C9.41484 16.9442 9.40613 16.8789 9.39307 16.818C9.39307 16.8005 9.39307 16.7831 9.39307 16.7701H10.364C10.3858 16.8528 10.4075 16.9355 10.4293 17.0139C10.5599 17.458 10.8429 17.7323 11.3088 17.8106C11.6136 17.8629 11.9183 17.8672 12.2187 17.7802C12.5932 17.6713 12.8022 17.4057 12.8196 17.0313C12.8326 16.8528 12.7499 16.683 12.6019 16.5872C12.3929 16.4392 12.1491 16.3782 11.9053 16.3216C11.5178 16.2302 11.1259 16.1518 10.7384 16.043C10.5512 15.9864 10.3727 15.908 10.2072 15.8035C9.74573 15.5379 9.54545 15.1287 9.57158 14.6018C9.61076 13.8921 10.0592 13.3305 10.7732 13.1172C11.3523 12.9386 11.9793 12.9648 12.5409 13.1912C13.1766 13.4393 13.5162 13.9357 13.6642 14.5801C13.6816 14.6628 13.6947 14.7499 13.7078 14.8369C13.7121 14.8631 13.7121 14.8892 13.7121 14.9153Z" fill="#1D1D1B"/>
<path d="M25.707 15.4509C25.3717 14.9241 24.8754 14.6498 24.2615 14.6019C23.4647 14.541 22.8073 14.8022 22.3806 15.5075C22.1324 15.9168 22.0671 16.3696 22.102 16.8398C22.1847 17.9065 22.964 18.6336 24.1047 18.638C24.5488 18.638 24.9799 18.4812 25.3238 18.1982C26.1598 17.5234 26.2077 16.2346 25.707 15.4509ZM25.1148 16.8094C25.0931 17.0793 24.9886 17.3362 24.8188 17.5452C24.5009 17.9196 23.8435 17.9675 23.4517 17.6932C23.308 17.5887 23.1991 17.4494 23.1338 17.2839C22.951 16.8616 22.951 16.3783 23.1382 15.956C23.2906 15.6033 23.604 15.3987 23.9828 15.3769C24.2049 15.3595 24.4226 15.4074 24.6141 15.5206C25.0321 15.7775 25.1671 16.3304 25.1148 16.8094Z" fill="#1D1D1B"/>
<path d="M26.604 14.6585H27.5009V15.1635C27.5314 15.1287 27.5444 15.1156 27.5575 15.0982C27.8492 14.6889 28.2585 14.5496 28.7418 14.5801C29.5342 14.6323 29.8955 15.1766 29.9783 15.8514C29.9913 15.9864 30 16.1214 30 16.2563C30 16.9834 30 17.7062 30 18.4333V18.5639H29.0901V18.4333C29.0901 17.667 29.0901 16.9051 29.0857 16.1388C29.0857 16.0604 29.0727 15.9864 29.0552 15.9124C28.9943 15.6424 28.8419 15.4509 28.5589 15.403C28.2324 15.342 27.9494 15.4291 27.7491 15.7077C27.601 15.9211 27.5183 16.1736 27.5183 16.4305C27.5053 17.0008 27.5053 17.5669 27.5009 18.1372C27.5009 18.2765 27.5009 18.4115 27.5009 18.5595H26.604V14.6585Z" fill="#1D1D1B"/>
<path d="M15.2881 18.5595H14.3868V14.6541H15.2881V18.5595Z" fill="#1D1D1B"/>
<path d="M14.3608 14.1273V13.2H15.31V14.1273H14.3608Z" fill="#1D1D1B"/>
<path d="M25.0321 16.069C24.9581 15.8383 24.8057 15.6423 24.6055 15.5117C24.8101 15.638 24.9625 15.8383 25.0321 16.069Z" fill="#1D1D1B"/>
<path d="M25.1147 16.8006C25.1191 16.7396 25.1235 16.683 25.1235 16.6221C25.1235 16.6003 25.1235 16.5785 25.1235 16.5568C25.1278 16.5785 25.1322 16.6003 25.1322 16.6221C25.1278 16.683 25.1235 16.7396 25.1147 16.8006Z" fill="#1D1D1B"/>
</svg>
