<svg width="32" height="24" viewBox="0 0 32 24" fill="none" xmlns="http://www.w3.org/2000/svg">
<path d="M7.09998 14.4V14.476H8.07598V13.504V13.5H7.09998V14.32C7.09998 14.344 7.09998 14.368 7.09998 14.392C7.09998 14.396 7.09998 14.4 7.09998 14.4Z" fill="#D8276C"/>
<path d="M3.13196 13.5L3.42796 13.788L4.12396 14.508V13.496H7.09996V12.496H4.12796C4.09996 12.488 3.13196 11.504 3.13196 11.504V13.5Z" fill="#D8276C"/>
<path d="M4.10796 9.60801V9.53601H3.13196V10.508V10.512H4.10796V9.68801C4.10796 9.66401 4.10796 9.64001 4.10796 9.61601C4.10796 9.61601 4.10796 9.61201 4.10796 9.60801Z" fill="#D8276C"/>
<path d="M8.07603 10.512L7.78003 10.224L7.08403 9.50403V10.512H4.10803V11.516H7.08003C7.10803 11.528 8.07603 12.508 8.07603 12.508V10.512Z" fill="#D8276C"/>
<path d="M16.028 10.916H16.84V11.324L16.86 11.34C17.104 10.976 17.452 10.824 17.876 10.84C18.316 10.86 18.62 11.084 18.792 11.496C18.808 11.472 18.824 11.456 18.832 11.44C19.1 10.98 19.52 10.804 20.032 10.848C20.572 10.896 20.916 11.24 21.028 11.816C21.052 11.948 21.068 12.08 21.068 12.216C21.072 12.952 21.068 13.692 21.068 14.428C21.068 14.452 21.064 14.476 21.064 14.508H20.232V14.388C20.232 13.688 20.232 12.988 20.232 12.292C20.232 12.2 20.224 12.108 20.204 12.016C20.156 11.804 20.036 11.648 19.812 11.604C19.568 11.556 19.344 11.596 19.176 11.792C19 12 18.968 12.252 18.964 12.512C18.96 13.136 18.964 13.764 18.964 14.388V14.504H18.136C18.136 14.464 18.132 14.424 18.132 14.384C18.132 13.732 18.132 13.08 18.132 12.432C18.132 12.308 18.124 12.184 18.104 12.06C18.068 11.824 17.948 11.656 17.704 11.604C17.444 11.548 17.216 11.612 17.044 11.832C16.908 12.012 16.86 12.224 16.856 12.444C16.852 13.092 16.852 13.74 16.848 14.388C16.848 14.424 16.848 14.464 16.848 14.508H16.028V10.916Z" fill="#1D1D1B"/>
<path d="M13.8919 11.152H13.008C12.996 11.1 12.9839 11.04 12.9719 10.984C12.8599 10.456 12.5519 10.196 12.0119 10.168C11.8039 10.156 11.5959 10.164 11.3999 10.24C11.1439 10.34 10.9759 10.516 10.9319 10.796C10.8959 11.028 10.9839 11.196 11.1799 11.308C11.4039 11.44 11.656 11.488 11.904 11.544C12.26 11.624 12.612 11.704 12.964 11.796C13.08 11.832 13.1919 11.884 13.2959 11.944C13.7399 12.188 13.9359 12.568 13.9159 13.068C13.8799 13.892 13.352 14.456 12.528 14.568C12.116 14.628 11.6959 14.608 11.2919 14.5C10.5559 14.3 10.1359 13.8 9.95995 13.076C9.94395 13.016 9.93595 12.956 9.92395 12.9C9.92395 12.884 9.92395 12.868 9.92395 12.856H10.8159C10.8359 12.932 10.8559 13.008 10.8759 13.08C10.9959 13.488 11.256 13.74 11.684 13.812C11.964 13.86 12.2439 13.864 12.5199 13.784C12.8639 13.684 13.0559 13.44 13.0719 13.096C13.0839 12.932 13.0079 12.776 12.8719 12.688C12.6799 12.552 12.4559 12.496 12.2319 12.444C11.8759 12.36 11.5159 12.288 11.1599 12.188C10.9879 12.136 10.8239 12.064 10.6719 11.968C10.2479 11.724 10.0639 11.348 10.0879 10.864C10.1239 10.212 10.5359 9.69597 11.1919 9.49997C11.7239 9.33597 12.2999 9.35997 12.8159 9.56797C13.3999 9.79597 13.712 10.252 13.848 10.844C13.864 10.92 13.876 11 13.888 11.08C13.892 11.104 13.8919 11.128 13.8919 11.152Z" fill="#1D1D1B"/>
<path d="M24.912 11.6441C24.604 11.1601 24.148 10.9081 23.584 10.8641C22.852 10.8081 22.248 11.0481 21.856 11.6961C21.628 12.0721 21.568 12.4881 21.6 12.9201C21.676 13.9001 22.392 14.5681 23.44 14.5721C23.848 14.5721 24.244 14.4281 24.56 14.1681C25.328 13.5481 25.372 12.3641 24.912 11.6441ZM24.368 12.8921C24.348 13.1401 24.252 13.3761 24.096 13.5681C23.804 13.9121 23.2 13.9561 22.84 13.7041C22.708 13.6081 22.608 13.4801 22.548 13.3281C22.38 12.9401 22.38 12.4961 22.552 12.1081C22.692 11.7841 22.98 11.5961 23.328 11.5761C23.532 11.5601 23.732 11.6041 23.908 11.7081C24.292 11.9441 24.416 12.4521 24.368 12.8921Z" fill="#1D1D1B"/>
<path d="M25.736 10.916H26.56V11.38C26.588 11.348 26.6 11.336 26.612 11.32C26.88 10.944 27.256 10.816 27.7 10.844C28.428 10.892 28.76 11.392 28.836 12.012C28.848 12.136 28.856 12.26 28.856 12.384C28.856 13.052 28.856 13.716 28.856 14.384V14.504H28.02V14.384C28.02 13.68 28.02 12.98 28.016 12.276C28.016 12.204 28.004 12.136 27.988 12.068C27.932 11.82 27.792 11.644 27.532 11.6C27.232 11.544 26.972 11.624 26.788 11.88C26.652 12.076 26.576 12.308 26.576 12.544C26.564 13.068 26.564 13.588 26.56 14.112C26.56 14.24 26.56 14.364 26.56 14.5H25.736V10.916Z" fill="#1D1D1B"/>
<path d="M15.34 14.5H14.512V10.912H15.34V14.5Z" fill="#1D1D1B"/>
<path d="M14.488 10.4281V9.57605H15.36V10.4281H14.488Z" fill="#1D1D1B"/>
<path d="M24.292 12.212C24.224 12 24.084 11.82 23.9 11.7C24.088 11.816 24.228 12 24.292 12.212Z" fill="#1D1D1B"/>
<path d="M24.368 12.884C24.372 12.828 24.376 12.776 24.376 12.72C24.376 12.7 24.376 12.68 24.376 12.66C24.38 12.68 24.384 12.7 24.384 12.72C24.38 12.776 24.376 12.828 24.368 12.884Z" fill="#1D1D1B"/>
</svg>
