<svg width="32" height="32" viewBox="0 0 32 32" fill="none" xmlns="http://www.w3.org/2000/svg">
<g clip-path="url(#clip0_1512_7494)">
<path d="M24.2031 29.3957V29.821H29.6643V24.3821V24.3597H24.2031V28.9481C24.2031 29.0824 24.2031 29.2167 24.2031 29.3509C24.2031 29.3733 24.2031 29.3957 24.2031 29.3957Z" fill="#D8276C"/>
<path d="M2 24.3597L3.65627 25.9712L7.55076 30V24.3373H24.203V18.7418H7.57314C7.41647 18.697 2 13.191 2 13.191V24.3597Z" fill="#D8276C"/>
<path d="M7.46123 2.58196V2.17908H2V7.61793V7.64031H7.46123V3.0296C7.46123 2.8953 7.46123 2.76101 7.46123 2.62672C7.46123 2.62672 7.46123 2.60434 7.46123 2.58196Z" fill="#D8276C"/>
<path d="M29.6643 7.64028L28.008 6.02878L24.1135 2V7.64028H7.46124V13.2582H24.0911C24.2478 13.3253 29.6643 18.809 29.6643 18.809V7.64028Z" fill="#D8276C"/>
</g>
<defs>
<clipPath id="clip0_1512_7494">
<rect width="27.6643" height="28" fill="white" transform="translate(2 2)"/>
</clipPath>
</defs>
</svg>
