<svg width="32" height="32" viewBox="0 0 32 32" fill="none" xmlns="http://www.w3.org/2000/svg">
<path d="M26.5002 14.9998C27.8808 14.9998 29 13.8806 29 12.5V12.5C29 11.1194 27.8807 10.0002 26.5001 10.0002V10.0002C25.1194 10.0002 24 11.1195 24 12.5002V14.9998H26.5002ZM19.5 14.9998C20.8807 14.9998 22 13.8805 22 12.4998V5.50021C22 4.1195 20.8807 3.00021 19.5 3.00021V3.00021C18.1193 3.00021 17 4.1195 17 5.50021V12.4998C17 13.8805 18.1193 14.9998 19.5 14.9998V14.9998Z" fill="#2EB67D"/>
<path d="M5.49979 17.0002C4.11919 17.0002 3 18.1194 3 19.5V19.5C3 20.8806 4.1193 21.9998 5.49989 21.9998V21.9998C6.88061 21.9998 8 20.8805 8 19.4998V17.0002H5.49979ZM12.5 17.0002C11.1193 17.0002 10 18.1195 10 19.5002V26.4998C10 27.8805 11.1193 28.9998 12.5 28.9998V28.9998C13.8807 28.9998 15 27.8805 15 26.4998V19.5002C15 18.1195 13.8807 17.0002 12.5 17.0002V17.0002Z" fill="#E01E5A"/>
<path d="M17.0002 26.5002C17.0002 27.8808 18.1194 29 19.5 29V29C20.8806 29 21.9998 27.8807 21.9998 26.5001V26.5001C21.9998 25.1194 20.8805 24 19.4998 24L17.0002 24L17.0002 26.5002ZM17.0002 19.5C17.0002 20.8807 18.1195 22 19.5002 22L26.4998 22C27.8805 22 28.9998 20.8807 28.9998 19.5V19.5C28.9998 18.1193 27.8805 17 26.4998 17L19.5002 17C18.1195 17 17.0002 18.1193 17.0002 19.5V19.5Z" fill="#ECB22E"/>
<path d="M14.9998 5.49979C14.9998 4.11919 13.8806 3 12.5 3V3C11.1194 3 10.0002 4.1193 10.0002 5.49989V5.49989C10.0002 6.88061 11.1195 8 12.5002 8L14.9998 8L14.9998 5.49979ZM14.9998 12.5C14.9998 11.1193 13.8805 10 12.4998 10L5.50018 10C4.11947 10 3.00018 11.1193 3.00018 12.5V12.5C3.00018 13.8807 4.11947 15 5.50018 15L12.4998 15C13.8805 15 14.9998 13.8807 14.9998 12.5V12.5Z" fill="#36C5F0"/>
</svg>
