<svg width="32" height="32" viewBox="0 0 32 32" fill="none" xmlns="http://www.w3.org/2000/svg">
<path d="M20.72 16.3662C20.7332 16.3755 20.7464 16.3848 20.76 16.3944C20.6874 16.4966 20.6148 16.5989 20.54 16.7042C20.54 16.5871 20.5849 16.5311 20.64 16.4507C20.6862 16.3979 20.6862 16.3979 20.72 16.3662Z" fill="#CBCA00"/>
<g clip-path="url(#clip0_1858_150)">
<path d="M6.23272 1.95914C6.31981 1.95851 6.40689 1.95788 6.49661 1.95723C6.78581 1.95551 7.07495 1.956 7.36415 1.9565C7.57257 1.95574 7.78099 1.95484 7.98941 1.95384C8.55381 1.95154 9.11818 1.95123 9.68258 1.95142C10.1547 1.95144 10.6268 1.95055 11.0989 1.94968C12.2133 1.94769 13.3277 1.94739 14.4421 1.94809C15.5895 1.94878 16.7368 1.94641 17.8841 1.94256C18.8712 1.93937 19.8582 1.9382 20.8453 1.93861C21.4339 1.93882 22.0225 1.93826 22.6112 1.93571C23.1651 1.93339 23.7191 1.93361 24.273 1.93571C24.4755 1.93606 24.6779 1.93554 24.8804 1.93405C26.4928 1.923 27.727 2.10639 28.9233 3.27649C29.6735 4.12384 30.0322 4.96831 30.0278 6.1016C30.0282 6.18948 30.0287 6.27737 30.0292 6.36792C30.0305 6.66166 30.0303 6.95539 30.0301 7.24913C30.0308 7.46006 30.0315 7.67098 30.0323 7.8819C30.0341 8.45443 30.0346 9.02695 30.0347 9.59948C30.0349 9.95738 30.0353 10.3153 30.0358 10.6732C30.0378 11.9223 30.0386 13.1715 30.0385 14.4207C30.0383 15.5841 30.0405 16.7475 30.0438 17.9109C30.0465 18.9106 30.0476 19.9102 30.0475 20.9098C30.0474 21.5065 30.048 22.1032 30.0502 22.6999C30.0522 23.2613 30.0522 23.8227 30.0507 24.3842C30.0505 24.5898 30.051 24.7954 30.0523 25.001C30.0613 26.5792 29.8948 27.708 28.7446 28.8731C27.925 29.6377 27.1659 30.0156 26.0356 30.0153C25.9476 30.0157 25.8596 30.0161 25.7689 30.0165C25.4727 30.0176 25.1766 30.018 24.8804 30.0184C24.6685 30.0191 24.4566 30.0197 24.2447 30.0205C23.6681 30.0223 23.0915 30.0234 22.5149 30.0242C22.1546 30.0248 21.7943 30.0254 21.434 30.026C20.3065 30.028 19.179 30.0295 18.0516 30.0304C16.7504 30.0314 15.4493 30.0341 14.1482 30.0383C13.1424 30.0414 12.1366 30.0429 11.1308 30.0433C10.5302 30.0435 9.92955 30.0445 9.32892 30.0471C8.76347 30.0495 8.19805 30.0499 7.63259 30.0489C7.4255 30.0488 7.2184 30.0495 7.01131 30.0509C5.37098 30.0615 4.28563 29.8626 3.06622 28.6875C2.29475 27.8531 1.98449 26.9428 1.98476 25.8276C1.98438 25.7407 1.98399 25.6539 1.9836 25.5644C1.98246 25.2729 1.98206 24.9814 1.98166 24.6898C1.98101 24.481 1.98032 24.2721 1.9796 24.0633C1.97742 23.377 1.97634 22.6907 1.97531 22.0043C1.97489 21.768 1.97446 21.5316 1.97403 21.2952C1.97205 20.1846 1.97058 19.0739 1.96971 17.9633C1.9687 16.6819 1.96597 15.4005 1.96178 14.1191C1.95865 13.1282 1.95712 12.1374 1.95677 11.1466C1.95653 10.555 1.9556 9.96345 1.95299 9.37186C1.95057 8.81501 1.95014 8.25818 1.9512 7.70132C1.95125 7.4974 1.9506 7.29348 1.94917 7.08957C1.93613 5.11267 1.93613 5.11267 2.41483 4.28153C2.47486 4.17538 2.53488 4.06924 2.59672 3.95988C3.51305 2.68137 4.64891 1.94813 6.23272 1.95914Z" fill="#FEFB00"/>
<path d="M18.8891 8.001C19.1517 8.20064 19.3915 8.40898 19.6296 8.63699C19.6902 8.69341 19.7507 8.74982 19.8131 8.80794C20.6852 9.71317 20.8352 10.8087 20.8159 12.007C20.8116 12.1713 20.8072 12.3356 20.8028 12.5C20.8002 12.6691 20.7978 12.8383 20.7957 13.0075C20.79 13.4175 20.7811 13.8272 20.7704 14.237C20.8341 14.2157 20.8979 14.1945 20.9636 14.1726C22.0678 13.8045 22.0678 13.8045 22.4815 13.7963C22.5617 13.7936 22.6419 13.7909 22.7245 13.7881C22.9481 13.8222 22.9481 13.8222 23.1329 13.9469C23.3072 14.2039 23.3097 14.347 23.2593 14.6518C22.703 15.3555 21.8286 15.8357 21.0815 16.3111C21.1279 17.7275 21.978 18.6845 22.9481 19.6296C23.4567 20.0768 24.0209 20.4014 24.6171 20.7193C24.6824 20.7703 24.7476 20.8214 24.8148 20.874C24.8148 21.0109 24.8148 21.1478 24.8148 21.2888C24.7358 21.3215 24.6568 21.3541 24.5754 21.3877C24.3526 21.48 24.1302 21.5734 23.9082 21.6676C23.7045 21.7519 23.499 21.8323 23.2909 21.905C22.8271 22.069 22.8271 22.069 22.5143 22.4288C22.4161 22.6811 22.4161 22.6811 22.3259 23.0518C22.1499 23.2278 21.9272 23.1728 21.6917 23.1802C20.4062 23.2248 19.3847 23.5523 18.283 24.2059C17.2504 24.8133 16.2468 24.9379 15.0667 24.8148C14.3313 24.6138 13.6905 24.243 13.0594 23.8223C12.2357 23.377 11.4074 23.2996 10.4877 23.2414C10.399 23.2344 10.3103 23.2275 10.2189 23.2203C10.0991 23.2127 10.0991 23.2127 9.9769 23.2049C9.77777 23.1555 9.77777 23.1555 9.57037 22.8444C9.55112 22.7439 9.53187 22.6433 9.51203 22.5398C9.31529 22.1206 9.10979 22.0608 8.69091 21.8977C8.36134 21.7838 8.03162 21.6716 7.69803 21.57C7.49629 21.4963 7.49629 21.4963 7.18518 21.2888C7.20544 21.0474 7.20544 21.0474 7.28888 20.7703C7.50844 20.6164 7.50844 20.6164 7.79444 20.4851C9.19743 19.7691 10.288 18.6583 10.8606 17.1772C10.9339 16.8686 10.9585 16.627 10.9185 16.3111C10.7233 16.1006 10.7233 16.1006 10.4518 15.9481C10.3107 15.8575 10.3107 15.8575 10.1667 15.765C10.0726 15.7056 9.97844 15.6463 9.88148 15.5851C9.72457 15.4747 9.56886 15.3625 9.41481 15.2481C9.34957 15.2005 9.28434 15.1529 9.21713 15.1039C8.94003 14.8675 8.84804 14.6959 8.81851 14.3342C8.84444 14.0296 8.84444 14.0296 9.05185 13.8222C9.61779 13.7581 10.0436 13.8593 10.5859 14.032C10.7067 14.0702 10.8274 14.1083 10.9518 14.1476C11.0435 14.1771 11.1352 14.2066 11.2296 14.237C11.2275 14.1393 11.2253 14.0416 11.223 13.9409C11.2159 13.5731 11.2107 13.2054 11.2068 12.8375C11.2048 12.6793 11.202 12.5211 11.1983 12.363C11.1652 10.8771 11.4151 9.67051 12.4473 8.54342C14.1154 6.96191 16.9705 6.74813 18.8891 8.001Z" fill="#FDFDFD"/>
<path d="M15.9871 6.0898C16.1642 6.09139 16.1642 6.09139 16.345 6.09302C17.2557 6.11597 17.9863 6.23399 18.8 6.66665C18.9001 6.71932 19.0003 6.77199 19.1034 6.82626C20.4999 7.64136 21.2827 8.72441 21.8261 10.2177C21.9381 10.7311 21.9334 11.2182 21.9241 11.7417C21.9232 11.8422 21.9222 11.9428 21.9213 12.0465C21.9188 12.2927 21.9154 12.5389 21.9111 12.7852C22.0138 12.7509 22.1165 12.7167 22.2222 12.6815C22.8082 12.643 23.1669 12.6657 23.6741 12.9926C24.2742 13.5394 24.2742 13.5394 24.3283 13.9782C24.3569 14.6562 24.3104 15.1286 23.8953 15.6771C23.4632 16.1052 22.9504 16.4167 22.4296 16.7259C22.5175 17.7352 23.1905 18.4016 23.9423 19.0366C24.3198 19.3053 24.7227 19.5275 25.1339 19.7409C25.5417 19.9586 25.8096 20.1722 26.0593 20.563C26.1681 20.963 26.1454 21.3357 25.9483 21.7033C25.466 22.316 24.8568 22.5712 24.1213 22.7667C23.7387 22.8854 23.5921 23.0118 23.3889 23.3565C23.3552 23.4258 23.3215 23.4952 23.2868 23.5667C23.1002 23.8669 22.9427 24.0083 22.637 24.1926C22.2846 24.2618 21.9324 24.2792 21.5741 24.2963C20.8002 24.3338 20.214 24.4533 19.5259 24.8148C19.4572 24.85 19.3885 24.8852 19.3178 24.9214C19.184 24.9905 19.0505 25.0602 18.9173 25.1306C17.517 25.8639 16.0302 26.2761 14.4574 25.8065C13.842 25.5755 13.2663 25.2609 12.6957 24.9366C11.9786 24.5358 11.3244 24.3854 10.4972 24.3546C9.79587 24.3104 9.31344 24.2609 8.81205 23.7324C8.63705 23.4667 8.63705 23.4667 8.5694 23.2617C8.35479 22.9394 8.02975 22.8678 7.67779 22.7472C6.98773 22.5093 6.47008 22.2457 6.05742 21.613C5.91761 21.2246 5.8822 20.9728 5.94075 20.563C6.29027 20.07 6.60884 19.8249 7.15279 19.5454C8.17914 18.9894 9.15842 18.2186 9.67409 17.1407C9.68611 16.9193 9.68611 16.9193 9.57038 16.7259C9.35631 16.5467 9.35631 16.5467 9.09075 16.3889C8.50402 15.9983 7.93267 15.5461 7.70372 14.8592C7.64962 14.344 7.64436 13.9409 7.87872 13.4722C8.16665 13.1454 8.4531 12.8771 8.84446 12.6815C9.05607 12.6741 9.26792 12.6727 9.47964 12.675C9.59327 12.6759 9.7069 12.6769 9.82397 12.6778C9.95511 12.6796 9.95511 12.6796 10.0889 12.6815C10.0841 12.5723 10.0793 12.463 10.0743 12.3505C10.0188 10.5438 10.4038 9.0856 11.6639 7.72962C12.8704 6.58649 14.3438 6.06746 15.9871 6.0898ZM12.0305 9.00282C11.4606 9.8208 11.2123 10.6194 11.2195 11.6039C11.2197 11.717 11.2197 11.717 11.22 11.8323C11.2205 12.0722 11.2218 12.312 11.2232 12.5518C11.2237 12.7148 11.2242 12.8778 11.2246 13.0408C11.2257 13.4395 11.2275 13.8383 11.2296 14.237C11.138 14.2075 11.0463 14.178 10.9518 14.1477C10.8311 14.1095 10.7103 14.0714 10.586 14.032C10.4067 13.975 10.4067 13.975 10.2239 13.9167C9.80153 13.8001 9.48568 13.7731 9.05187 13.8222C8.81811 14.0154 8.81811 14.0154 8.79909 14.3148C8.85905 14.7602 9.03232 14.9886 9.36298 15.2741C9.64714 15.4708 9.93599 15.6542 10.2319 15.8327C10.3664 15.9155 10.3664 15.9155 10.5037 16C10.5834 16.0489 10.6631 16.0978 10.7452 16.1483C10.9185 16.3111 10.9185 16.3111 10.9619 16.5246C10.8475 17.7056 10.1216 18.7389 9.25927 19.5259C8.60249 20.0289 7.91516 20.4836 7.1852 20.8741C7.1852 21.011 7.1852 21.1478 7.1852 21.2889C7.77394 21.6059 8.35654 21.8262 8.99596 22.0221C9.25927 22.1185 9.25927 22.1185 9.46668 22.3259C9.53861 22.5671 9.60787 22.809 9.67409 23.0518C9.83199 23.2097 9.98507 23.1813 10.2052 23.1965C12.0797 23.3421 12.0797 23.3421 12.8889 23.7778C13.0173 23.8458 13.1457 23.9139 13.2741 23.9819C13.4802 24.0915 13.6857 24.2017 13.8896 24.3152C14.9018 24.8741 15.9326 24.9669 17.0597 24.7508C17.7236 24.5491 18.2967 24.2196 18.8896 23.8679C19.7889 23.3438 20.6498 23.2236 21.6721 23.1947C22.0975 23.1932 22.0975 23.1932 22.4296 22.9481C22.4489 22.8326 22.4681 22.7171 22.488 22.5981C22.6494 22.191 22.6665 22.1656 23.0389 22.0018C23.2155 21.9356 23.3928 21.8709 23.5704 21.8074C23.7976 21.7132 24.0245 21.6182 24.2509 21.5222C24.4389 21.4443 24.6268 21.3665 24.8148 21.2889C24.8148 21.152 24.8148 21.0151 24.8148 20.8741C24.5493 20.6712 24.5493 20.6712 24.2056 20.4917C22.9514 19.7659 21.678 18.6511 21.1852 17.2444C21.1594 17.0811 21.1388 16.9169 21.1232 16.7522C21.1151 16.6693 21.1069 16.5864 21.0985 16.5009C21.0929 16.4383 21.0873 16.3756 21.0815 16.3111C21.1528 16.2633 21.1528 16.2633 21.2256 16.2146C21.4437 16.068 21.6612 15.9206 21.8787 15.7731C21.9535 15.7231 22.0283 15.673 22.1054 15.6214C22.8852 15.1351 22.8852 15.1351 23.3111 14.3796C23.2495 14.087 23.1796 14.0061 22.9482 13.8222C22.3934 13.7106 21.8839 13.834 21.3744 14.0551C21.1755 14.1373 20.9794 14.1868 20.7704 14.237C20.7731 14.1336 20.7758 14.0302 20.7786 13.9236C20.7881 13.534 20.794 13.1443 20.7989 12.7546C20.8014 12.5871 20.805 12.4195 20.8095 12.252C20.8436 10.956 20.7552 9.80208 19.8111 8.80554C18.8092 7.77559 17.7304 7.27916 16.2899 7.24589C16.19 7.2451 16.09 7.24432 15.9871 7.24351C15.8442 7.24193 15.8442 7.24193 15.6985 7.24032C14.2205 7.25911 12.9815 7.86435 12.0305 9.00282Z" fill="#080804"/>
<path d="M21.4963 15.8962C21.5648 15.9305 21.6332 15.9647 21.7037 15.9999C21.6224 16.0791 21.5412 16.1582 21.4574 16.2398C21.1777 16.509 21.1777 16.509 20.9778 16.8296C20.9454 16.5962 20.9454 16.5962 20.9778 16.3111C21.2371 16.0712 21.2371 16.0712 21.4963 15.8962Z" fill="#3C3C3C"/>
</g>
<defs>
<clipPath id="clip0_1858_150">
<rect width="28" height="28" fill="white" transform="translate(2 2)"/>
</clipPath>
</defs>
</svg>
