<svg width="32" height="32" viewBox="0 0 32 32" fill="none" xmlns="http://www.w3.org/2000/svg">
<path d="M15.8525 27.1991C13.3413 27.1991 11.3052 25.1632 11.3052 22.6519C11.3052 20.1405 13.3413 18.1047 15.8525 18.1047C18.3639 18.1047 20.3997 20.1405 20.3997 22.6519C20.3997 25.1632 18.3639 27.1991 15.8525 27.1991ZM20.4655 12.9068C19.0196 13.9976 18.7398 15.9225 18.6971 17.2236C16.4118 14.5807 22.9295 6.80537 15.5233 2C20.1078 7.93297 9 13.7659 9 22.5063C9 25.9325 11.1409 28.9519 15.8432 30C20.4558 29.0179 22.7318 25.9325 22.7318 22.5064C22.7318 17.398 19.5515 15.6889 20.4655 12.9068Z" fill="#F15022"/>
</svg>
