<svg width="32" height="32" viewBox="0 0 32 32" fill="none" xmlns="http://www.w3.org/2000/svg">
<path d="M26.6989 17.1441C26.4325 17.1454 26.1672 17.1787 25.9087 17.2432C25.4268 15.3472 24.4096 13.6299 22.9785 12.2961C21.5473 10.9624 19.7627 10.0686 17.8374 9.72129C17.6619 9.69014 17.5033 9.66748 17.3249 9.64483C17.3532 8.68194 17.3985 7.56895 18.8173 6.56641L18.5936 6C18.5936 6 15.8324 6.84961 15.5123 9.22002C15.3736 8.57715 14.0963 7.77285 13.4506 7.61992L13.1334 8.13252C13.4155 8.3028 13.6561 8.53372 13.8378 8.80851C14.0195 9.08331 14.1378 9.39511 14.1841 9.72129C12.2588 10.0679 10.4737 10.961 9.04209 12.2943C7.61044 13.6275 6.59259 15.3445 6.11 17.2403C5.6044 17.114 5.0761 17.1088 4.56814 17.2254C4.06018 17.3419 3.58695 17.5768 3.18701 17.9109C2.78707 18.2451 2.47174 18.669 2.26672 19.1481C2.0617 19.6273 1.97279 20.148 2.00723 20.6681C2.04168 21.1881 2.19852 21.6926 2.46495 22.1405C2.73138 22.5884 3.09988 22.967 3.5404 23.2455C3.98092 23.5239 4.48101 23.6944 4.9999 23.7429C5.51879 23.7914 6.0418 23.7166 6.52631 23.5246C6.80814 24.2292 7.16817 24.8998 7.59965 25.524L10.3439 23.6747L10.3212 23.6436C9.55542 22.5645 9.12314 21.2844 9.07797 19.9619C8.99584 18.4553 9.36117 16.9571 10.3269 16.0764C12.3093 14.3772 14.473 15.156 15.8267 16.7759H16.192C17.5457 15.156 19.7066 14.3857 21.6918 16.0764C22.6547 16.9571 23.0229 18.4553 22.9408 19.9619C22.8956 21.2844 22.4633 22.5645 21.6975 23.6436L21.6749 23.6747L24.4191 25.524C24.8506 24.8998 25.2106 24.2292 25.4924 23.5246C25.9447 23.7013 26.4304 23.7762 26.9149 23.7439C27.3994 23.7115 27.8708 23.5729 28.2957 23.3377C28.7205 23.1025 29.0883 22.7766 29.3729 22.3832C29.6575 21.9898 29.8519 21.5384 29.9422 21.0614C30.0326 20.5843 30.0168 20.0931 29.8958 19.6228C29.7748 19.1526 29.5517 18.7147 29.2423 18.3405C28.933 17.9662 28.5449 17.6647 28.1058 17.4575C27.6667 17.2502 27.1873 17.1422 26.7017 17.1412L26.6989 17.1441ZM5.25472 21.4261C5.00506 21.4126 4.77005 21.304 4.59808 21.1225C4.42611 20.941 4.33026 20.7005 4.33026 20.4505C4.33026 20.2004 4.42611 19.9599 4.59808 19.7784C4.77005 19.5969 5.00506 19.4883 5.25472 19.4748C5.44974 19.476 5.64001 19.5351 5.80131 19.6447C5.80974 20.1569 5.84471 20.6683 5.90609 21.1769C5.72702 21.3372 5.49511 21.426 5.25472 21.4261ZM26.764 21.4261C26.5236 21.426 26.2917 21.3372 26.1127 21.1769C26.174 20.6683 26.209 20.1569 26.2174 19.6447C26.3642 19.5453 26.5353 19.4877 26.7123 19.4783C26.8893 19.4689 27.0655 19.508 27.222 19.5913C27.3784 19.6746 27.5092 19.7991 27.6002 19.9512C27.6911 20.1034 27.7389 20.2774 27.7382 20.4547C27.7379 20.5826 27.7123 20.7092 27.663 20.8273C27.6137 20.9454 27.5416 21.0525 27.4509 21.1427C27.3602 21.2329 27.2526 21.3044 27.1342 21.353C27.0159 21.4016 26.8891 21.4265 26.7612 21.4261H26.764Z" fill="#00BF6F"/>
</svg>
