<svg width="32" height="32" viewBox="0 0 32 32" fill="none" xmlns="http://www.w3.org/2000/svg">
<g clip-path="url(#clip0_1792_174)">
<path d="M3.02026 12.9661C3.0639 12.959 3.10753 12.9636 3.15117 12.9636C8.7068 12.964 14.2624 12.9639 19.8181 12.9639C19.9659 12.9639 19.966 12.9639 19.966 13.1108C19.966 14.6967 19.966 16.2825 19.966 17.8684C19.966 17.9117 19.966 17.955 19.966 18.0117C17.9773 18.0117 15.9983 18.0117 14.0038 18.0117C14.0038 18.0778 14.0038 18.1307 14.0038 18.1836C14.0038 22.0655 14.0038 25.9473 14.0038 29.8292C14.0038 29.9756 14.0038 29.9757 13.8538 29.9757C12.2747 29.9757 10.6956 29.9757 9.11651 29.9757C8.98489 29.9756 8.98502 29.9754 8.98502 29.8404C8.98505 25.9518 8.98513 22.0631 8.98485 18.1745C8.98483 17.9831 8.99889 18.0154 8.82081 18.0153C6.89344 18.0143 4.96607 18.0142 3.02948 18.0113C3.02026 16.331 3.02026 14.6533 3.02026 12.9661Z" fill="#1D2A41"/>
<path d="M16.0166 2.02026C16.134 2.05397 16.2442 2.08138 16.3492 2.12241C16.9958 2.3751 17.3647 2.84648 17.4466 3.5368C17.4617 3.6638 17.462 3.79304 17.4622 3.92126C17.4633 4.95234 17.4631 5.98342 17.4627 7.0145C17.4625 7.39968 17.3721 7.75979 17.1348 8.06895C16.7194 8.61005 16.1635 8.84653 15.4951 8.72523C14.8246 8.60355 14.3805 8.19126 14.1842 7.53182C14.1462 7.404 14.1215 7.26696 14.121 7.13405C14.1163 5.96439 14.1116 4.79466 14.1211 3.62506C14.1273 2.87268 14.7234 2.18891 15.4622 2.05505C15.4919 2.04967 15.5208 2.04006 15.5548 2.02634C15.7087 2.02026 15.8579 2.02026 16.0166 2.02026Z" fill="#FC5120"/>
<path d="M29.7285 14.5735C29.799 14.7119 29.8732 14.8486 29.9383 14.9895C29.9658 15.0492 29.974 15.1178 29.9984 15.1854C30.0058 15.3782 30.0058 15.568 30.0058 15.7673C29.9981 15.7776 29.9905 15.7783 29.9745 15.7712C29.9657 15.7465 29.964 15.7296 29.9651 15.7129C29.9893 15.3279 29.9568 14.955 29.7355 14.6213C29.7275 14.6092 29.7306 14.5896 29.7285 14.5735Z" fill="#FD8A68"/>
<path d="M24.2774 9.72411C23.617 10.3321 22.5603 10.2789 21.9452 9.61162C21.3221 8.93572 21.341 7.9409 22.0026 7.26259C22.6489 6.59999 23.3048 5.94668 23.9596 5.29241C24.1598 5.09233 24.3534 4.87971 24.5792 4.71212C25.4445 4.06981 26.7417 4.47376 27.0989 5.49052C27.3361 6.16584 27.2048 6.77491 26.7057 7.28505C25.905 8.10331 25.0911 8.90856 24.2774 9.72411Z" fill="#FC511F"/>
<path d="M29.7276 14.5696C29.7306 14.5896 29.7275 14.6092 29.7355 14.6213C29.9568 14.9549 29.9893 15.3279 29.9651 15.7129C29.964 15.7296 29.9657 15.7465 29.9687 15.773C29.9711 15.7903 29.9707 15.798 29.9626 15.8153C29.9468 15.8354 29.9356 15.8447 29.9313 15.8565C29.8811 15.9967 29.8406 16.1412 29.7798 16.2766C29.7314 16.3844 29.6585 16.4813 29.5965 16.583C29.5965 16.583 29.5965 16.5852 29.5895 16.5864C29.5741 16.6005 29.5657 16.6132 29.5574 16.626C29.5574 16.626 29.5584 16.6277 29.5507 16.6282C29.5141 16.6619 29.4852 16.695 29.4563 16.7281C29.4563 16.7281 29.4573 16.7299 29.4503 16.7299C29.4337 16.7418 29.4242 16.7539 29.4146 16.7659C29.4066 16.7738 29.3986 16.7817 29.3779 16.7911C28.9832 17.0853 28.5433 17.1611 28.0743 17.1576C27.0854 17.1502 26.0964 17.1555 25.1074 17.1548C25.0573 17.1547 25.0071 17.1471 24.957 17.1426C24.8176 17.1303 24.6782 17.1179 24.5387 17.1054C24.5317 17.1048 24.5247 17.1041 24.5096 17.0948C24.3286 17.0009 24.1556 16.9155 23.9826 16.8301C23.9654 16.8182 23.9482 16.8063 23.9253 16.7838C23.8265 16.677 23.7333 16.5808 23.6402 16.4846C23.6402 16.4846 23.6351 16.478 23.6342 16.4667C23.6283 16.443 23.6236 16.4305 23.6183 16.4183C23.5452 16.2518 23.4691 16.0865 23.4002 15.9182C23.3682 15.8401 23.3504 15.7562 23.3261 15.675C23.3244 15.6427 23.3226 15.6104 23.3246 15.5606C23.3261 15.5031 23.3238 15.4633 23.3215 15.4234C23.3221 15.3912 23.3227 15.359 23.3308 15.3142C23.3484 15.2698 23.3589 15.2381 23.3686 15.2061C23.4108 15.0662 23.444 14.9228 23.4976 14.7873C23.5435 14.6712 23.6126 14.5642 23.6715 14.4532C23.6774 14.4439 23.6834 14.4346 23.7009 14.4215C23.7395 14.3822 23.7665 14.3468 23.7934 14.3113C23.7966 14.306 23.8008 14.3015 23.8169 14.2957C23.8587 14.2612 23.8896 14.2289 23.9204 14.1965C23.9204 14.1965 23.9193 14.1947 23.9273 14.1948C24.1869 14.0182 24.4563 13.884 24.7661 13.8451C24.7766 13.8437 24.7854 13.8288 24.7949 13.8201C24.829 13.8177 24.863 13.8153 24.9122 13.8188C24.9407 13.8262 24.954 13.8287 24.9674 13.8287C26.0865 13.8289 27.2055 13.8289 28.3246 13.8282C28.3503 13.8282 28.3761 13.8194 28.4019 13.8147C28.436 13.8152 28.4702 13.8156 28.516 13.8244C28.5463 13.8391 28.5644 13.8479 28.5836 13.8512C28.95 13.9136 29.2673 14.0686 29.5215 14.3448C29.5357 14.3603 29.561 14.3655 29.5811 14.3755C29.5811 14.3755 29.5797 14.3768 29.58 14.3828C29.5982 14.4061 29.6161 14.4233 29.634 14.4406C29.634 14.4406 29.6405 14.4457 29.6416 14.4566C29.6692 14.498 29.6958 14.5285 29.7224 14.559C29.7224 14.559 29.7267 14.5657 29.7276 14.5696Z" fill="#FC511F"/>
<path d="M24.5432 17.111C24.6782 17.1178 24.8176 17.1303 24.9571 17.1426C25.0072 17.147 25.0573 17.1547 25.1075 17.1547C26.0964 17.1554 27.0854 17.1501 28.0743 17.1575C28.5433 17.161 28.9832 17.0853 29.3726 16.7931C29.234 16.8857 29.095 16.9923 28.9406 17.0665C28.7212 17.1719 28.4789 17.186 28.2383 17.1862C27.1839 17.1871 26.1295 17.1898 25.0752 17.1835C24.8992 17.1824 24.7235 17.14 24.5432 17.111Z" fill="#FD8A68"/>
<path d="M28.3958 13.809C28.3762 13.8193 28.3504 13.8281 28.3246 13.8281C27.2056 13.8289 26.0865 13.8288 24.9675 13.8286C24.9541 13.8286 24.9407 13.8261 24.9208 13.8197C24.9495 13.8078 24.9848 13.7949 25.0201 13.7949C26.1133 13.7938 27.2065 13.7939 28.2997 13.7944C28.3297 13.7944 28.3597 13.8003 28.3958 13.809Z" fill="#FD8A68"/>
<path d="M29.5804 14.3687C29.561 14.3655 29.5357 14.3602 29.5215 14.3448C29.2673 14.0686 28.95 13.9136 28.5836 13.8511C28.5644 13.8479 28.5463 13.839 28.5243 13.8265C28.663 13.8512 28.8101 13.868 28.9461 13.9161C29.1964 14.0047 29.4098 14.1545 29.5804 14.3687Z" fill="#FD8A68"/>
<path d="M23.6649 14.455C23.6127 14.5643 23.5436 14.6712 23.4976 14.7874C23.4441 14.9228 23.4109 15.0663 23.3686 15.2062C23.3589 15.2381 23.3485 15.2698 23.332 15.3062C23.3595 15.1516 23.3753 14.9855 23.4326 14.8353C23.4842 14.7001 23.5813 14.5822 23.6649 14.455Z" fill="#FD8A68"/>
<path d="M24.7864 13.817C24.7854 13.8287 24.7766 13.8437 24.7661 13.845C24.4563 13.8839 24.1869 14.0181 23.9282 14.1953C24.0374 14.1158 24.145 14.0156 24.2722 13.9611C24.4324 13.8925 24.6086 13.8613 24.7864 13.817Z" fill="#FD8A68"/>
<path d="M23.3221 15.6813C23.3504 15.7562 23.3682 15.84 23.4002 15.9181C23.4691 16.0864 23.5452 16.2517 23.6183 16.4182C23.6236 16.4304 23.6283 16.4429 23.6326 16.4627C23.5704 16.3729 23.4909 16.2824 23.4513 16.1769C23.3922 16.0193 23.3611 15.8513 23.3221 15.6813Z" fill="#FD8A68"/>
<path d="M29.6033 16.582C29.6586 16.4812 29.7314 16.3844 29.7799 16.2765C29.8407 16.1411 29.8812 15.9967 29.9314 15.8565C29.9356 15.8446 29.9468 15.8353 29.9615 15.8209C29.9237 15.9615 29.8932 16.1124 29.8307 16.2485C29.7758 16.3679 29.685 16.4708 29.6033 16.582Z" fill="#FD8A68"/>
<path d="M23.9834 16.8369C24.1556 16.9155 24.3286 17.0009 24.5046 17.0932C24.4428 17.0812 24.3729 17.0721 24.3143 17.0413C24.2009 16.9819 24.0939 16.9102 23.9834 16.8369Z" fill="#FD8A68"/>
<path d="M23.6396 16.4915C23.7334 16.5807 23.8265 16.6769 23.9203 16.7799C23.8271 16.6906 23.733 16.5945 23.6396 16.4915Z" fill="#FD8A68"/>
<path d="M29.4633 16.7279C29.4853 16.695 29.5142 16.6619 29.5498 16.6279C29.5277 16.6606 29.499 16.6942 29.4633 16.7279Z" fill="#FD8A68"/>
<path d="M23.7869 14.3129C23.7665 14.3467 23.7395 14.3822 23.7057 14.4184C23.726 14.3843 23.7531 14.3494 23.7869 14.3129Z" fill="#FD8A68"/>
<path d="M23.9136 14.1968C23.8896 14.2289 23.8588 14.2612 23.8208 14.2932C23.8447 14.2609 23.8757 14.229 23.9136 14.1968Z" fill="#FD8A68"/>
<path d="M23.3163 15.4279C23.3239 15.4632 23.3262 15.5031 23.3251 15.5525C23.3182 15.5188 23.3146 15.4756 23.3163 15.4279Z" fill="#FD8A68"/>
<path d="M29.7224 14.552C29.6958 14.5285 29.6692 14.498 29.6437 14.4601C29.6706 14.4835 29.6965 14.5142 29.7224 14.552Z" fill="#FD8A68"/>
<path d="M29.6347 14.4339C29.6161 14.4233 29.5982 14.406 29.5807 14.3821C29.5992 14.3927 29.6173 14.41 29.6347 14.4339Z" fill="#FD8A68"/>
<path d="M29.5638 16.6256C29.5658 16.6132 29.5742 16.6004 29.5885 16.5864C29.5863 16.5986 29.5783 16.612 29.5638 16.6256Z" fill="#FD8A68"/>
<path d="M29.421 16.7661C29.4241 16.7538 29.4337 16.7418 29.4494 16.7292C29.4461 16.7413 29.4368 16.7538 29.421 16.7661Z" fill="#FD8A68"/>
</g>
<defs>
<clipPath id="clip0_1792_174">
<rect width="26.9855" height="28" fill="white" transform="translate(3 2)"/>
</clipPath>
</defs>
</svg>
