<svg version="1.1" id="Layer_1" xmlns="http://www.w3.org/2000/svg" xmlns:xlink="http://www.w3.org/1999/xlink" x="0px" y="0px"
	 width="100%" viewBox="0 0 1330 1380" enable-background="new 0 0 1330 1380" xml:space="preserve">
<path fill="#FFFFFF" opacity="1.000000" stroke="none" 
	d="
M1.000001,540.000000 
	C1.000000,360.397949 1.000000,180.795929 1.000000,1.000000 
	C206.694656,1.000000 412.389374,1.000000 618.310181,1.299626 
	C617.093506,1.975647 615.668335,2.449154 614.205383,2.714246 
	C577.795044,9.311847 548.413269,43.012138 548.111023,80.093620 
	C547.641235,137.737946 547.873596,195.389221 548.104187,253.036377 
	C548.130371,259.587036 549.346863,266.341370 551.221436,272.641205 
	C560.892578,305.141937 582.781494,325.462158 615.829407,331.459259 
	C648.771729,337.437256 676.170837,325.782318 696.640869,299.113800 
	C708.336548,283.876556 712.792664,266.128479 712.801086,247.144501 
	C712.823547,196.326920 712.834412,145.509323 712.777222,94.691818 
	C712.770081,88.372665 712.753052,82.003075 712.009888,75.743607 
	C707.970459,41.720749 689.789124,18.488306 657.923706,6.034182 
	C652.750244,4.012190 647.314514,2.661162 642.000000,1.000000 
	C871.595276,1.000000 1101.190552,1.000000 1331.000000,1.000000 
	C1331.000000,217.027985 1331.000000,433.056061 1330.638184,649.392334 
	C1329.437378,646.519043 1329.030762,643.138123 1327.673218,640.195923 
	C1324.468140,633.250000 1320.810669,626.513000 1317.290527,619.500854 
	C1317.244995,619.310242 1317.034790,618.979492 1317.033325,618.633728 
	C1315.756958,616.773010 1314.482056,615.258118 1313.103271,613.567688 
	C1312.999268,613.392212 1312.677002,613.141968 1312.709717,612.815552 
	C1311.849976,611.635620 1310.957520,610.782227 1310.032471,609.964172 
	C1310.000000,609.999512 1310.071777,609.936157 1310.034424,609.598572 
	C1301.624023,599.045471 1291.106567,591.662476 1278.771973,587.296204 
	C1272.069458,584.923645 1264.819824,584.097168 1257.410156,582.467773 
	C1255.318970,582.339539 1253.634521,582.316895 1251.649658,582.017334 
	C1249.870605,581.586548 1248.392090,581.298889 1246.913574,581.298279 
	C1193.033569,581.275452 1139.153564,581.269775 1085.273560,581.322205 
	C1083.534302,581.323853 1081.795654,581.957275 1079.635254,582.250977 
	C1077.535889,582.324646 1075.857666,582.443604 1073.760010,582.412720 
	C1064.996826,584.595276 1056.312256,586.131958 1048.417725,589.513000 
	C1042.148071,592.198059 1036.845093,597.140015 1031.067871,601.051758 
	C1031.022705,601.023499 1031.079346,601.113586 1030.740967,601.126404 
	C1028.873169,602.713074 1027.343750,604.286926 1025.623047,605.983154 
	C1025.182129,606.284790 1024.978271,606.506348 1024.493896,606.849304 
	C1022.829834,608.649353 1021.492371,610.370300 1019.923279,612.240601 
	C1019.397522,612.847778 1019.103394,613.305542 1018.482666,613.848511 
	C1014.361084,620.120605 1009.577087,625.930298 1007.035461,632.595093 
	C1004.211975,639.999207 1003.433289,648.183044 1001.706909,656.422241 
	C1001.620361,658.405334 1001.591248,659.993591 1001.303589,661.802979 
	C1001.219666,664.154724 1001.394226,666.285156 1001.546448,668.811890 
	C1001.612671,670.798584 1001.701172,672.388977 1001.592590,674.293945 
	C1003.514160,682.671692 1005.043701,690.955994 1007.958191,698.720581 
	C1009.910034,703.920471 1013.828064,708.382385 1016.941284,713.365479 
	C1017.016296,713.556519 1017.269043,713.880005 1017.238770,714.224609 
	C1021.841858,719.303406 1026.475220,724.037598 1031.355347,728.962341 
	C1032.449097,729.739380 1033.296021,730.325867 1034.183594,731.245117 
	C1039.628906,734.859375 1044.903564,738.389282 1050.492432,741.320007 
	C1053.380249,742.834412 1056.825928,743.285156 1060.267456,744.298340 
	C1060.861084,744.413818 1061.206787,744.447327 1061.771729,744.759888 
	C1070.656738,746.187195 1079.316895,748.277222 1087.989258,748.329285 
	C1139.954102,748.641052 1191.921753,748.510132 1243.888550,748.464233 
	C1255.745972,748.453796 1267.689209,747.761169 1278.498169,742.565186 
	C1286.111450,738.905334 1292.959106,733.653137 1300.413574,729.011536 
	C1301.073486,728.522705 1301.468628,728.134216 1302.180908,727.758667 
	C1302.958496,727.153259 1303.419067,726.534851 1303.922974,725.944702 
	C1303.966309,725.973022 1303.918335,725.881409 1304.259033,725.872925 
	C1306.018433,724.210876 1307.437256,722.557251 1308.902954,720.919800 
	C1308.949707,720.935974 1308.899414,720.850830 1309.217529,720.836304 
	C1309.931030,720.161682 1310.326294,719.501648 1310.774902,718.839905 
	C1310.828125,718.838196 1310.828003,718.731750 1311.159180,718.683960 
	C1315.185181,713.205200 1319.663452,708.134216 1322.367798,702.248291 
	C1325.450562,695.539429 1326.951538,688.103882 1329.198242,680.704163 
	C1329.272583,680.044128 1329.288696,679.664185 1329.588501,679.196655 
	C1330.248169,679.072754 1330.624023,679.036377 1331.000000,679.000000 
	C1331.000000,912.962891 1331.000000,1146.925781 1331.000000,1380.944336 
	C887.774048,1380.944336 444.548126,1380.944336 1.000000,1380.944336 
	C1.000000,1183.972046 1.000000,986.943970 1.454180,789.584473 
	C96.900208,789.269653 191.892059,789.274353 286.883911,789.322754 
	C295.660675,789.327209 294.967926,787.734619 294.968628,797.170959 
	C294.982819,988.823730 294.978882,1180.476562 294.977234,1372.129272 
	C294.977173,1378.785767 294.970612,1378.796997 301.457672,1378.797241 
	C379.285370,1378.800537 457.113037,1378.800903 534.940735,1378.800049 
	C542.332336,1378.800049 542.332031,1378.794067 542.332031,1371.577637 
	C542.332092,1180.258179 542.332153,988.938660 542.332275,797.619202 
	C542.332275,795.011475 542.332275,792.403748 542.332275,789.143311 
	C640.631348,789.143311 738.168640,789.143311 836.180481,789.143311 
	C836.180481,786.350586 836.180420,784.216858 836.180420,782.083191 
	C836.180664,703.922180 836.181213,625.761169 836.181030,547.600159 
	C836.181030,540.361694 836.178894,540.362488 828.892090,540.362488 
	C555.078613,540.362671 281.265106,540.363525 7.451623,540.347778 
	C5.301075,540.347656 3.150542,540.120911 1.000001,540.000000 
M1048.937744,380.452209 
	C1088.776855,340.493927 1128.893188,300.806854 1168.353516,260.477966 
	C1192.954590,235.335571 1199.424805,205.317276 1187.733276,172.033401 
	C1170.130737,121.921539 1106.193604,102.012604 1063.546631,133.669296 
	C1052.419189,141.929138 1042.879517,152.408600 1033.010986,162.269302 
	C1000.739319,194.515686 968.414001,226.714447 936.560242,259.371368 
	C903.951538,292.802368 903.018921,341.832642 933.728027,375.144897 
	C964.044556,408.031342 1016.125854,410.656433 1048.937744,380.452209 
z"/>
<path fill="#1D2A41" opacity="1.000000" stroke="none" 
	d="
M1.000001,540.468628 
	C3.150542,540.120911 5.301075,540.347656 7.451623,540.347778 
	C281.265106,540.363525 555.078613,540.362671 828.892090,540.362488 
	C836.178894,540.362488 836.181030,540.361694 836.181030,547.600159 
	C836.181213,625.761169 836.180664,703.922180 836.180420,782.083191 
	C836.180420,784.216858 836.180481,786.350586 836.180481,789.143311 
	C738.168640,789.143311 640.631348,789.143311 542.332275,789.143311 
	C542.332275,792.403748 542.332275,795.011475 542.332275,797.619202 
	C542.332153,988.938660 542.332092,1180.258179 542.332031,1371.577637 
	C542.332031,1378.794067 542.332336,1378.800049 534.940735,1378.800049 
	C457.113037,1378.800903 379.285370,1378.800537 301.457672,1378.797241 
	C294.970612,1378.796997 294.977173,1378.785767 294.977234,1372.129272 
	C294.978882,1180.476562 294.982819,988.823730 294.968628,797.170959 
	C294.967926,787.734619 295.660675,789.327209 286.883911,789.322754 
	C191.892059,789.274353 96.900208,789.269653 1.454180,789.126465 
	C1.000000,706.312439 1.000000,623.624878 1.000001,540.468628 
z"/>
<path fill="#FC5120" opacity="1.000000" stroke="none" 
	d="
M641.531372,1.000000 
	C647.314514,2.661162 652.750244,4.012190 657.923706,6.034182 
	C689.789124,18.488306 707.970459,41.720749 712.009888,75.743607 
	C712.753052,82.003075 712.770081,88.372665 712.777222,94.691818 
	C712.834412,145.509323 712.823547,196.326920 712.801086,247.144501 
	C712.792664,266.128479 708.336548,283.876556 696.640869,299.113800 
	C676.170837,325.782318 648.771729,337.437256 615.829407,331.459259 
	C582.781494,325.462158 560.892578,305.141937 551.221436,272.641205 
	C549.346863,266.341370 548.130371,259.587036 548.104187,253.036377 
	C547.873596,195.389221 547.641235,137.737946 548.111023,80.093620 
	C548.413269,43.012138 577.795044,9.311847 614.205383,2.714246 
	C615.668335,2.449154 617.093506,1.975647 618.768188,1.299626 
	C626.354248,1.000000 633.708496,1.000000 641.531372,1.000000 
z"/>
<path fill="#FD8A68" opacity="1.000000" stroke="none" 
	d="
M1317.336060,619.691467 
	C1320.810669,626.513000 1324.468140,633.250000 1327.673218,640.195923 
	C1329.030762,643.138123 1329.437378,646.519043 1330.638184,649.850281 
	C1331.000000,659.354248 1331.000000,668.708435 1331.000000,678.531372 
	C1330.624023,679.036377 1330.248169,679.072754 1329.457764,678.721191 
	C1329.023926,677.504639 1328.942627,676.672180 1328.994507,675.848022 
	C1330.187134,656.871521 1328.587036,638.492249 1317.681396,622.049438 
	C1317.284180,621.450500 1317.438721,620.485718 1317.336060,619.691467 
z"/>
<path fill="#FC511F" opacity="1.000000" stroke="none" 
	d="
M1048.673706,380.688782 
	C1016.125854,410.656433 964.044556,408.031342 933.728027,375.144897 
	C903.018921,341.832642 903.951538,292.802368 936.560242,259.371368 
	C968.414001,226.714447 1000.739319,194.515686 1033.010986,162.269302 
	C1042.879517,152.408600 1052.419189,141.929138 1063.546631,133.669296 
	C1106.193604,102.012604 1170.130737,121.921539 1187.733276,172.033401 
	C1199.424805,205.317276 1192.954590,235.335571 1168.353516,260.477966 
	C1128.893188,300.806854 1088.776855,340.493927 1048.673706,380.688782 
z"/>
<path fill="#FC511F" opacity="1.000000" stroke="none" 
	d="
M1317.290527,619.500854 
	C1317.438721,620.485718 1317.284180,621.450500 1317.681396,622.049438 
	C1328.587036,638.492249 1330.187134,656.871521 1328.994507,675.848022 
	C1328.942627,676.672180 1329.023926,677.504639 1329.174072,678.808716 
	C1329.288696,679.664185 1329.272583,680.044128 1328.871094,680.895508 
	C1328.092407,681.884033 1327.538818,682.343872 1327.330078,682.927124 
	C1324.856201,689.837646 1322.859497,696.957825 1319.862793,703.630066 
	C1317.475708,708.944519 1313.884521,713.718079 1310.827881,718.731689 
	C1310.828003,718.731750 1310.828125,718.838196 1310.483643,718.901611 
	C1309.725830,719.593567 1309.312622,720.222229 1308.899414,720.850830 
	C1308.899414,720.850830 1308.949707,720.935974 1308.571289,720.962036 
	C1306.768066,722.619141 1305.343140,724.250244 1303.918213,725.881348 
	C1303.918335,725.881409 1303.966309,725.973022 1303.621338,725.969604 
	C1302.805420,726.559387 1302.334473,727.152527 1301.863647,727.745728 
	C1301.468628,728.134216 1301.073486,728.522705 1300.054077,728.989075 
	C1280.599609,743.490234 1258.920898,747.223328 1235.804077,747.050293 
	C1187.066040,746.685425 1138.323120,746.948425 1089.582275,746.912842 
	C1087.110840,746.911011 1084.638916,746.532837 1082.168457,746.314697 
	C1075.296143,745.707825 1068.424438,745.092712 1061.552490,744.480835 
	C1061.206787,744.447327 1060.861084,744.413818 1060.118652,743.957642 
	C1051.195679,739.327454 1042.669434,735.119873 1034.143066,730.912354 
	C1033.296021,730.325867 1032.449097,729.739380 1031.319336,728.629639 
	C1026.447388,723.364258 1021.858215,718.622131 1017.269043,713.880005 
	C1017.269043,713.880005 1017.016296,713.556519 1016.971069,712.997681 
	C1016.680420,711.830505 1016.450439,711.215332 1016.187012,710.614868 
	C1012.585510,702.406677 1008.833191,694.260376 1005.439514,685.967346 
	C1003.864319,682.118103 1002.984619,677.984253 1001.789673,673.979370 
	C1001.701172,672.388977 1001.612671,670.798584 1001.711914,668.341248 
	C1001.787170,665.510132 1001.674683,663.545959 1001.562134,661.581787 
	C1001.591248,659.993591 1001.620361,658.405334 1002.020020,656.197998 
	C1002.888000,654.010437 1003.403992,652.447693 1003.879700,650.872803 
	C1005.962219,643.976868 1007.600098,636.906189 1010.239868,630.231323 
	C1012.503540,624.507568 1015.908813,619.235229 1018.809204,613.763306 
	C1019.103394,613.305542 1019.397522,612.847778 1020.261475,612.201050 
	C1022.161011,610.264832 1023.490723,608.517517 1024.820435,606.770203 
	C1024.978271,606.506348 1025.182129,606.284790 1025.974854,606.000671 
	C1028.038330,604.301758 1029.558838,602.707642 1031.079346,601.113586 
	C1031.079346,601.113586 1031.022705,601.023499 1031.417114,601.028442 
	C1044.211548,592.323425 1057.487915,585.707642 1072.757202,583.791077 
	C1073.274536,583.726074 1073.707397,582.987305 1074.179565,582.562561 
	C1075.857666,582.443604 1077.535889,582.324646 1079.958008,582.498657 
	C1081.362061,582.859009 1082.021851,582.985474 1082.681763,582.985596 
	C1137.834473,582.993469 1192.987061,582.996216 1248.139771,582.961243 
	C1249.410034,582.960449 1250.680054,582.526184 1251.950195,582.294189 
	C1253.634521,582.316895 1255.318970,582.339539 1257.576294,582.774048 
	C1259.066650,583.494446 1259.961914,583.931946 1260.904541,584.092468 
	C1278.965820,587.169067 1294.603394,594.808533 1307.129761,608.420715 
	C1307.831177,609.182861 1309.078491,609.442566 1310.071777,609.936157 
	C1310.071777,609.936157 1310.000000,609.999512 1310.014648,610.295044 
	C1310.911743,611.441101 1311.794434,612.291565 1312.677002,613.141968 
	C1312.677002,613.141968 1312.999268,613.392212 1313.050903,613.930298 
	C1314.413330,615.972046 1315.723999,617.475769 1317.034790,618.979492 
	C1317.034790,618.979492 1317.244995,619.310242 1317.290527,619.500854 
z"/>
<path fill="#FD8A68" opacity="1.000000" stroke="none" 
	d="
M1061.771729,744.759888 
	C1068.424438,745.092712 1075.296143,745.707825 1082.168457,746.314697 
	C1084.638916,746.532837 1087.110840,746.911011 1089.582275,746.912842 
	C1138.323120,746.948425 1187.066040,746.685425 1235.804077,747.050293 
	C1258.920898,747.223328 1280.599609,743.490234 1299.789307,729.089478 
	C1292.959106,733.653137 1286.111450,738.905334 1278.498169,742.565186 
	C1267.689209,747.761169 1255.745972,748.453796 1243.888550,748.464233 
	C1191.921753,748.510132 1139.954102,748.641052 1087.989258,748.329285 
	C1079.316895,748.277222 1070.656738,746.187195 1061.771729,744.759888 
z"/>
<path fill="#FD8A68" opacity="1.000000" stroke="none" 
	d="
M1251.649658,582.017273 
	C1250.680054,582.526184 1249.410034,582.960449 1248.139771,582.961243 
	C1192.987061,582.996216 1137.834473,582.993469 1082.681763,582.985596 
	C1082.021851,582.985474 1081.362061,582.859009 1080.379395,582.543884 
	C1081.795654,581.957275 1083.534302,581.323853 1085.273560,581.322205 
	C1139.153564,581.269775 1193.033569,581.275452 1246.913574,581.298279 
	C1248.392090,581.298889 1249.870605,581.586548 1251.649658,582.017273 
z"/>
<path fill="#FD8A68" opacity="1.000000" stroke="none" 
	d="
M1310.034424,609.598572 
	C1309.078491,609.442566 1307.831177,609.182861 1307.129761,608.420715 
	C1294.603394,594.808533 1278.965820,587.169067 1260.904541,584.092468 
	C1259.961914,583.931946 1259.066650,583.494446 1257.983154,582.879639 
	C1264.819824,584.097168 1272.069458,584.923645 1278.771973,587.296204 
	C1291.106567,591.662476 1301.624023,599.045471 1310.034424,609.598572 
z"/>
<path fill="#FD8A68" opacity="1.000000" stroke="none" 
	d="
M1018.482666,613.848511 
	C1015.908813,619.235229 1012.503540,624.507568 1010.239868,630.231323 
	C1007.600098,636.906189 1005.962219,643.976868 1003.879700,650.872803 
	C1003.403992,652.447693 1002.888000,654.010437 1002.077454,655.803101 
	C1003.433289,648.183044 1004.211975,639.999207 1007.035461,632.595093 
	C1009.577087,625.930298 1014.361084,620.120605 1018.482666,613.848511 
z"/>
<path fill="#FD8A68" opacity="1.000000" stroke="none" 
	d="
M1073.760010,582.412720 
	C1073.707397,582.987305 1073.274536,583.726074 1072.757202,583.791077 
	C1057.487915,585.707642 1044.211548,592.323425 1031.462158,601.056641 
	C1036.845093,597.140015 1042.148071,592.198059 1048.417725,589.513000 
	C1056.312256,586.131958 1064.996826,584.595276 1073.760010,582.412720 
z"/>
<path fill="#FD8A68" opacity="1.000000" stroke="none" 
	d="
M1001.592529,674.293945 
	C1002.984619,677.984253 1003.864319,682.118103 1005.439514,685.967346 
	C1008.833191,694.260376 1012.585510,702.406677 1016.187012,710.614868 
	C1016.450439,711.215332 1016.680420,711.830505 1016.896057,712.806641 
	C1013.828064,708.382385 1009.910034,703.920471 1007.958191,698.720581 
	C1005.043701,690.955994 1003.514160,682.671692 1001.592529,674.293945 
z"/>
<path fill="#FD8A68" opacity="1.000000" stroke="none" 
	d="
M1311.159180,718.683960 
	C1313.884521,713.718079 1317.475708,708.944519 1319.862793,703.630066 
	C1322.859497,696.957825 1324.856201,689.837646 1327.330078,682.927124 
	C1327.538818,682.343872 1328.092407,681.884033 1328.812866,681.175537 
	C1326.951538,688.103882 1325.450562,695.539429 1322.367798,702.248291 
	C1319.663452,708.134216 1315.185181,713.205200 1311.159180,718.683960 
z"/>
<path fill="#FD8A68" opacity="1.000000" stroke="none" 
	d="
M1034.183594,731.245056 
	C1042.669434,735.119873 1051.195679,739.327454 1059.870850,743.875732 
	C1056.825928,743.285156 1053.380249,742.834412 1050.492432,741.320007 
	C1044.903564,738.389282 1039.628906,734.859375 1034.183594,731.245056 
z"/>
<path fill="#FD8A68" opacity="1.000000" stroke="none" 
	d="
M1017.238770,714.224609 
	C1021.858215,718.622131 1026.447388,723.364258 1031.072510,728.439087 
	C1026.475220,724.037598 1021.841858,719.303406 1017.238770,714.224609 
z"/>
<path fill="#FD8A68" opacity="1.000000" stroke="none" 
	d="
M1304.258911,725.872925 
	C1305.343140,724.250244 1306.768066,722.619141 1308.524536,720.945801 
	C1307.437256,722.557251 1306.018433,724.210876 1304.258911,725.872925 
z"/>
<path fill="#FD8A68" opacity="1.000000" stroke="none" 
	d="
M1024.493896,606.849304 
	C1023.490723,608.517517 1022.161011,610.264832 1020.493103,612.051636 
	C1021.492371,610.370300 1022.829834,608.649353 1024.493896,606.849304 
z"/>
<path fill="#FD8A68" opacity="1.000000" stroke="none" 
	d="
M1030.740967,601.126404 
	C1029.558838,602.707642 1028.038330,604.301758 1026.166138,605.878296 
	C1027.343750,604.286926 1028.873169,602.713074 1030.740967,601.126404 
z"/>
<path fill="#FD8A68" opacity="1.000000" stroke="none" 
	d="
M1001.303589,661.802979 
	C1001.674683,663.545959 1001.787170,665.510132 1001.734253,667.944946 
	C1001.394226,666.285156 1001.219666,664.154724 1001.303589,661.802979 
z"/>
<path fill="#FD8A68" opacity="1.000000" stroke="none" 
	d="
M1317.033325,618.633728 
	C1315.723999,617.475769 1314.413330,615.972046 1313.154785,614.105713 
	C1314.482056,615.258118 1315.756958,616.773010 1317.033325,618.633728 
z"/>
<path fill="#FD8A68" opacity="1.000000" stroke="none" 
	d="
M1312.709717,612.815552 
	C1311.794434,612.291565 1310.911743,611.441101 1310.047119,610.259766 
	C1310.957520,610.782227 1311.849976,611.635620 1312.709717,612.815552 
z"/>
<path fill="#FD8A68" opacity="1.000000" stroke="none" 
	d="
M1309.217529,720.836304 
	C1309.312622,720.222229 1309.725830,719.593567 1310.430420,718.903320 
	C1310.326294,719.501648 1309.931030,720.161682 1309.217529,720.836304 
z"/>
<path fill="#FD8A68" opacity="1.000000" stroke="none" 
	d="
M1302.180908,727.758667 
	C1302.334473,727.152527 1302.805420,726.559387 1303.578003,725.941284 
	C1303.419067,726.534851 1302.958496,727.153259 1302.180908,727.758667 
z"/>
</svg>