<svg width="32" height="32" viewBox="0 0 32 32" fill="none" xmlns="http://www.w3.org/2000/svg">
<path d="M15.44 12.5467C15.44 14.1333 14.1333 15.44 12.5467 15.44C10.96 15.44 9.65333 14.1333 9.65333 12.5467C9.65333 10.96 10.96 9.65333 12.5467 9.65333C14.1333 9.65333 15.44 10.96 15.44 12.5467ZM12.5467 16.56C10.96 16.56 9.65333 17.8667 9.65333 19.4533C9.65333 21.04 10.96 22.3467 12.5467 22.3467C14.1333 22.3467 15.44 21.04 15.44 19.4533C15.44 17.8667 14.1333 16.56 12.5467 16.56ZM30 16C30 23.7467 23.7467 30 16 30C8.25333 30 2 23.7467 2 16C2 8.25333 8.25333 2 16 2C23.7467 2 30 8.25333 30 16ZM26.2667 16C26.2667 10.3067 21.6933 5.73333 16 5.73333C10.3067 5.73333 5.73333 10.3067 5.73333 16C5.73333 21.6933 10.3067 26.2667 16 26.2667C21.6933 26.2667 26.2667 21.6933 26.2667 16ZM19.4533 16.56C17.8667 16.56 16.56 17.8667 16.56 19.4533C16.56 21.04 17.8667 22.3467 19.4533 22.3467C21.04 22.3467 22.3467 21.04 22.3467 19.4533C22.3467 17.8667 21.04 16.56 19.4533 16.56ZM19.4533 9.65333C17.8667 9.65333 16.56 10.96 16.56 12.5467C16.56 14.1333 17.8667 15.44 19.4533 15.44C21.04 15.44 22.3467 14.1333 22.3467 12.5467C22.3467 10.96 21.04 9.65333 19.4533 9.65333Z" fill="#F22F46"/>
</svg>
