<svg width="32" height="32" viewBox="0 0 32 32" fill="none" xmlns="http://www.w3.org/2000/svg">
<g clip-path="url(#clip0_1654_150)">
<path d="M0 16V32H16H32V16V-5.24521e-06H16H0V16ZM18.224 12.872C18.304 12.92 18.312 13.024 18.272 13.24C18.224 13.52 18.208 13.536 17.976 13.488C17.824 13.456 17.664 13.48 17.544 13.56C17.392 13.664 17.36 13.752 17.36 14.08V14.48H17.72H18.08V14.8V15.12H17.72H17.36V16.48V17.84H16.96H16.56V16.48V15.12H16.36C16.184 15.12 16.16 15.088 16.16 14.8C16.16 14.512 16.184 14.48 16.36 14.48C16.528 14.48 16.56 14.44 16.56 14.216C16.568 13.576 16.832 13.048 17.24 12.88C17.448 12.792 18.088 12.784 18.224 12.872ZM5.28 13.48V13.84H4.6H3.92V15.84V17.84H3.52H3.12V15.84V13.84H2.4H1.68V13.48V13.12H3.48H5.28V13.48ZM11.256 14.552C11.768 14.784 12.016 15.224 12.064 15.96C12.128 16.984 11.736 17.656 10.952 17.84C10.504 17.952 10.168 17.896 9.88 17.672L9.68 17.512V18.352V19.2H9.32H8.96V16.84V14.48H9.32C9.656 14.48 9.68 14.496 9.68 14.696V14.904L9.864 14.744C10.288 14.36 10.696 14.304 11.256 14.552ZM14.92 14.56C15.312 14.752 15.52 15.072 15.52 15.504C15.52 16.08 15.112 16.392 14.144 16.56C13.84 16.616 13.6 16.688 13.6 16.728C13.6 16.776 13.688 16.896 13.8 17C14.088 17.296 14.664 17.28 15.096 16.968L15.408 16.744L15.584 17.008L15.76 17.272L15.496 17.464C15.056 17.8 14.856 17.864 14.36 17.872C13.752 17.88 13.328 17.672 13 17.208C12.8 16.92 12.76 16.776 12.736 16.28C12.712 15.792 12.736 15.624 12.88 15.32C13.264 14.528 14.16 14.192 14.92 14.56ZM20.848 14.552C21.48 14.84 21.84 15.424 21.84 16.16C21.84 17.016 21.32 17.672 20.504 17.84C19.04 18.144 17.984 16.64 18.704 15.272C19.104 14.512 20.056 14.192 20.848 14.552ZM24.688 14.576C24.664 14.68 24.64 14.856 24.64 14.976C24.64 15.184 24.616 15.2 24.296 15.2C23.576 15.2 23.344 15.592 23.296 16.896L23.264 17.84H22.912H22.56V16.16V14.48H22.92H23.28V14.816L23.288 15.16L23.504 14.904C23.776 14.584 24.12 14.4 24.472 14.4C24.712 14.4 24.736 14.416 24.688 14.576ZM27.48 14.512C27.624 14.576 27.808 14.728 27.888 14.856C27.968 14.976 28.04 15.096 28.048 15.112C28.064 15.128 28.184 15.008 28.32 14.856C28.952 14.136 30.008 14.344 30.232 15.232C30.28 15.432 30.32 16.096 30.32 16.712V17.84H29.92H29.52V16.696C29.52 15.352 29.464 15.168 29.016 15.136C28.776 15.112 28.672 15.152 28.488 15.344C28.176 15.656 28.08 16.04 28.08 17.016V17.84H27.728H27.376L27.344 16.656C27.312 15.272 27.256 15.12 26.816 15.12C26.584 15.12 26.456 15.176 26.304 15.336C25.984 15.672 25.92 15.928 25.92 16.928V17.84H25.52H25.12V16.16V14.48H25.52H25.92V14.808V15.144L26.096 14.92C26.472 14.432 26.952 14.296 27.48 14.512ZM6.2 15.64C6.456 16.28 6.68 16.8 6.688 16.8C6.696 16.8 6.896 16.28 7.128 15.64L7.56 14.48H7.976C8.208 14.48 8.4 14.496 8.4 14.504C8.4 14.52 8.008 15.464 7.528 16.608C7.008 17.84 6.576 18.768 6.448 18.896C6.096 19.264 5.512 19.288 4.976 18.96L4.712 18.8L4.88 18.56C5.072 18.288 5.168 18.264 5.368 18.448C5.576 18.632 5.872 18.536 6.072 18.208C6.168 18.064 6.24 17.888 6.24 17.824C6.24 17.76 5.936 17.008 5.56 16.16C5.184 15.312 4.88 14.584 4.88 14.544C4.88 14.512 5.072 14.48 5.304 14.48H5.728L6.2 15.64Z" fill="black"/>
<path d="M9.91997 15.32C9.76797 15.48 9.71997 15.64 9.69597 16.032C9.64797 16.808 9.91197 17.2 10.48 17.2C10.616 17.2 10.8 17.16 10.888 17.12C11.408 16.84 11.408 15.48 10.888 15.2C10.592 15.048 10.12 15.104 9.91997 15.32Z" fill="black"/>
<path d="M13.896 15.208C13.728 15.312 13.52 15.696 13.52 15.928C13.52 16.088 13.544 16.096 13.936 16.056C14.592 15.976 14.984 15.56 14.72 15.232C14.608 15.104 14.104 15.088 13.896 15.208Z" fill="black"/>
<path d="M19.632 15.24C19.376 15.416 19.256 15.784 19.296 16.28C19.344 16.88 19.64 17.2 20.128 17.2C20.736 17.2 21.088 16.728 21.024 15.992C20.968 15.424 20.672 15.12 20.16 15.12C19.96 15.12 19.72 15.176 19.632 15.24Z" fill="black"/>
</g>
<defs>
<clipPath id="clip0_1654_150">
<rect width="32" height="32" fill="white"/>
</clipPath>
</defs>
</svg>
