<svg width="32" height="12" viewBox="0 0 32 12" fill="none" xmlns="http://www.w3.org/2000/svg">
<path d="M19.0499 6.93409C18.5003 6.93409 18.2201 6.48144 18.2201 5.92101C18.2201 5.36058 18.5003 4.94026 19.0499 4.94026C19.6104 4.94026 19.8798 5.39292 19.8798 5.92101C19.8798 6.49222 19.5996 6.93409 19.0499 6.93409ZM13.672 4.94026C13.9953 4.94026 14.1246 5.12348 14.1246 5.28514C14.1246 5.68391 13.7259 5.84557 12.8852 5.8779C12.896 5.39292 13.1654 4.94026 13.672 4.94026ZM10.1047 6.93409C9.58733 6.93409 9.37178 6.51377 9.37178 5.92101C9.37178 5.33903 9.59811 4.94026 10.1047 4.94026C10.6327 4.94026 10.8806 5.36058 10.8806 5.92101C10.8806 6.51377 10.622 6.93409 10.1047 6.93409ZM5.70745 4.35828H4.89914L6.24632 7.45141C5.98766 8.02262 5.84755 8.16272 5.67511 8.16272C5.4919 8.16272 5.30868 8.01184 5.17935 7.88251L4.82369 8.35672C5.07158 8.61538 5.3949 8.75548 5.73978 8.75548C6.17088 8.75548 6.4942 8.5076 6.67742 8.06573L8.22937 4.35828H7.43184L6.62353 6.56766L5.70745 4.35828ZM27.2193 4.94026C27.618 4.94026 27.6935 5.2097 27.6935 5.84557V7.51608H28.394V5.40369C28.394 4.64927 27.8767 4.31517 27.3917 4.31517C26.9606 4.31517 26.5726 4.58461 26.3571 5.06959C26.2385 4.59538 25.8397 4.31517 25.3763 4.31517C24.9775 4.31517 24.5788 4.57383 24.3525 5.04804V4.35828H23.6519V7.5053H24.3525V6.15812C24.3525 5.47914 24.7081 4.92949 25.1931 4.92949C25.5919 4.92949 25.6673 5.19892 25.6673 5.83479V7.5053H26.3678V6.15812C26.3786 5.47914 26.7343 4.94026 27.2193 4.94026ZM21.5934 4.35828H21.2593V7.5053H21.9599V6.29822C21.9599 5.53302 22.294 5.01571 22.8005 5.01571C22.9298 5.01571 23.0376 5.01571 23.1562 5.06959L23.2639 4.32595C23.1777 4.31517 23.0915 4.30439 23.016 4.30439C22.5203 4.30439 22.1646 4.63849 21.9599 5.08037V4.3475L21.5934 4.35828ZM19.0499 4.31517C18.1231 4.31517 17.4872 5.02648 17.4872 5.92101C17.4872 6.84787 18.1231 7.54841 19.0499 7.54841C19.9876 7.54841 20.6235 6.8371 20.6235 5.92101C20.6235 5.01571 19.9768 4.31517 19.0499 4.31517ZM13.7151 6.93409C13.3487 6.93409 13.0792 6.75088 12.9607 6.37367C13.8875 6.33056 14.8036 6.10423 14.8036 5.28514C14.8036 4.81093 14.3402 4.32595 13.672 4.32595C12.7667 4.32595 12.1631 5.05882 12.1631 5.93179C12.1631 6.8371 12.7667 7.55919 13.6612 7.55919C14.2863 7.55919 14.6851 7.3113 14.9976 6.94487L14.6527 6.48144C14.2863 6.8371 14.06 6.93409 13.7151 6.93409ZM10.2448 4.31517C9.8891 4.31517 9.53345 4.51994 9.39334 4.84327V4.35828H8.6928V8.73393H9.39334V7.1712C9.54422 7.39752 9.87832 7.54841 10.1909 7.54841C11.1285 7.54841 11.6243 6.85865 11.6243 5.92101C11.6135 4.99415 11.1285 4.31517 10.2448 4.31517ZM5.31946 3.10809H2V3.78708H3.2933V7.5053H4.02616V3.78708H5.30868L5.31946 3.10809ZM15.7736 4.35828H15.3533V4.98337H15.7736V7.49452H16.4741V4.99415H17.1531V4.36906H16.4741V3.87329C16.4741 3.56075 16.6035 3.45297 16.8945 3.45297C17.0022 3.45297 17.0992 3.48531 17.2393 3.52842L17.401 2.93566C17.2717 2.86021 17.013 2.82788 16.8513 2.82788C16.1831 2.82788 15.7844 3.22665 15.7844 3.92718L15.7736 4.35828Z" fill="#131313"/>
</svg>
