<svg width="32" height="12" viewBox="0 0 32 12" fill="none" xmlns="http://www.w3.org/2000/svg">
<path d="M19.7894 4.56179C19.3126 4.56179 19.0695 4.16915 19.0695 3.68303C19.0695 3.1969 19.3126 2.83231 19.7894 2.83231C20.2755 2.83231 20.5092 3.22495 20.5092 3.68303C20.5092 4.1785 20.2661 4.56179 19.7894 4.56179ZM15.1245 2.83231C15.4049 2.83231 15.5171 2.99124 15.5171 3.13146C15.5171 3.47736 15.1712 3.61759 14.442 3.64563C14.4514 3.22495 14.6851 2.83231 15.1245 2.83231ZM12.0301 4.56179C11.5814 4.56179 11.3944 4.1972 11.3944 3.68303C11.3944 3.17821 11.5907 2.83231 12.0301 2.83231C12.4882 2.83231 12.7032 3.1969 12.7032 3.68303C12.7032 4.1972 12.4788 4.56179 12.0301 4.56179ZM8.21589 2.32749H7.51475L8.68332 5.01052C8.45895 5.50599 8.33742 5.62752 8.18785 5.62752C8.02892 5.62752 7.87 5.49664 7.75781 5.38446L7.44931 5.79579C7.66433 6.02016 7.94479 6.14169 8.24394 6.14169C8.61788 6.14169 8.89833 5.92667 9.05726 5.54338L10.4034 2.32749H9.71166L9.01052 4.24394L8.21589 2.32749ZM26.8756 2.83231C27.2214 2.83231 27.2869 3.06602 27.2869 3.61759V5.06661H27.8945V3.2343C27.8945 2.5799 27.4458 2.2901 27.0251 2.2901C26.6512 2.2901 26.3146 2.52381 26.1277 2.94449C26.0248 2.53316 25.6789 2.2901 25.277 2.2901C24.9311 2.2901 24.5852 2.51446 24.3888 2.9258V2.32749H23.7812V5.05726H24.3888V3.88869C24.3888 3.29974 24.6973 2.82296 25.118 2.82296C25.4639 2.82296 25.5294 3.05668 25.5294 3.60824V5.05726H26.137V3.88869C26.1464 3.29974 26.4549 2.83231 26.8756 2.83231ZM21.9956 2.32749H21.7058V5.05726H22.3135V4.01022C22.3135 3.34648 22.6033 2.89775 23.0427 2.89775C23.1548 2.89775 23.2483 2.89775 23.3512 2.94449L23.4446 2.29945C23.3699 2.2901 23.2951 2.28075 23.2296 2.28075C22.7996 2.28075 22.4911 2.57055 22.3135 2.95384V2.31814L21.9956 2.32749ZM19.7894 2.2901C18.9854 2.2901 18.4338 2.9071 18.4338 3.68303C18.4338 4.487 18.9854 5.09465 19.7894 5.09465C20.6027 5.09465 21.1543 4.47765 21.1543 3.68303C21.1543 2.89775 20.5933 2.2901 19.7894 2.2901ZM15.1618 4.56179C14.844 4.56179 14.6103 4.40286 14.5074 4.07566C15.3114 4.03827 16.106 3.84195 16.106 3.13146C16.106 2.72013 15.7041 2.29945 15.1245 2.29945C14.3392 2.29945 13.8157 2.93514 13.8157 3.69238C13.8157 4.47765 14.3392 5.104 15.1151 5.104C15.6573 5.104 16.0032 4.88899 16.2743 4.57114L15.9752 4.16915C15.6573 4.47765 15.461 4.56179 15.1618 4.56179ZM12.1516 2.2901C11.8431 2.2901 11.5346 2.46772 11.4131 2.74817V2.32749H10.8054V6.12299H11.4131V4.76746C11.544 4.96377 11.8338 5.09465 12.1049 5.09465C12.9182 5.09465 13.3482 4.49635 13.3482 3.68303C13.3389 2.87905 12.9182 2.2901 12.1516 2.2901ZM7.87935 1.24306H5V1.83202H6.12182V5.05726H6.75752V1.83202H7.87L7.87935 1.24306ZM16.9474 2.32749H16.5828V2.86971H16.9474V5.04791H17.5551V2.87905H18.144V2.33684H17.5551V1.90681C17.5551 1.6357 17.6673 1.54221 17.9197 1.54221C18.0131 1.54221 18.0973 1.57026 18.2188 1.60765L18.359 1.09349C18.2469 1.02805 18.0225 1 17.8823 1C17.3027 1 16.9568 1.3459 16.9568 1.95355L16.9474 2.32749Z" fill="#131313"/>
</svg>
