<svg width="32" height="32" viewBox="0 0 32 32" fill="none" xmlns="http://www.w3.org/2000/svg">
<g clip-path="url(#clip0_1695_150)">
<path d="M2.00867 13.8633V13.0448H5.63549V13.8633H4.30873V17.4715H3.33543V13.8633H2.00867Z" fill="#33393F"/>
<path d="M6.56188 18.4262C6.39234 18.5379 6.15676 18.5936 5.85512 18.5936C5.76414 18.5936 5.67425 18.5906 5.58545 18.5843C5.4965 18.578 5.40661 18.5709 5.31579 18.5626V17.8373C5.39841 17.8455 5.48314 17.8538 5.56998 17.862C5.65674 17.8702 5.7435 17.8723 5.83034 17.8682C5.94595 17.8559 6.03185 17.8103 6.08766 17.7318C6.14249 17.6561 6.17178 17.5649 6.17129 17.4715C6.17129 17.4013 6.15887 17.335 6.13409 17.273L5.01196 14.2662H5.94814L6.6735 16.4608H6.68585L7.38644 14.2662H8.29775L6.95864 17.8682C6.86352 18.1285 6.73126 18.3146 6.56188 18.4262ZM9.44739 14.2662V14.6754H9.45982C9.56722 14.5018 9.70361 14.3757 9.86893 14.2972C10.0342 14.2187 10.2161 14.1794 10.4146 14.1794C10.6666 14.1794 10.8836 14.227 11.0655 14.322C11.2474 14.4171 11.3982 14.5432 11.5181 14.7002C11.6379 14.8573 11.7267 15.0402 11.7847 15.2489C11.8425 15.4577 11.8715 15.6757 11.8715 15.903C11.8715 16.118 11.8425 16.3246 11.7847 16.5229C11.7267 16.7213 11.639 16.897 11.5212 17.0499C11.4034 17.2028 11.2567 17.3248 11.081 17.4157C10.9053 17.5065 10.6997 17.5521 10.4642 17.5521C10.2658 17.5521 10.0829 17.5118 9.91544 17.4312C9.74801 17.3506 9.6106 17.2318 9.5032 17.0747H9.49077V18.6436H8.61041V14.2662H9.44739ZM10.5916 16.8051C10.6868 16.7491 10.7675 16.6716 10.8272 16.5788C10.8871 16.4857 10.9295 16.3773 10.9543 16.2533C10.9792 16.1292 10.9916 16.0032 10.9916 15.875C10.9917 15.7479 10.9782 15.6211 10.9513 15.4969C10.9243 15.3729 10.88 15.2623 10.8179 15.1652C10.7573 15.0695 10.6757 14.9889 10.5792 14.9296C10.4821 14.8698 10.3632 14.8397 10.2228 14.8397C10.078 14.8397 9.95718 14.8698 9.8601 14.9296C9.76469 14.9879 9.68405 15.0675 9.62451 15.1621C9.56456 15.2572 9.52227 15.3667 9.49742 15.4906C9.47238 15.6172 9.45991 15.746 9.46021 15.875C9.46021 16.0032 9.47358 16.1292 9.50054 16.2533C9.52735 16.3773 9.57073 16.4857 9.63069 16.5788C9.69056 16.6718 9.77021 16.7472 9.8694 16.8051C9.96859 16.863 10.0884 16.8918 10.229 16.8918C10.3736 16.8918 10.4945 16.863 10.5916 16.8051ZM13.2814 16.7027C13.4136 16.8309 13.6039 16.8949 13.8518 16.8949C14.0295 16.8949 14.1824 16.8506 14.3106 16.7616C14.4386 16.6727 14.5172 16.5787 14.5461 16.4795H15.3211C15.1971 16.8639 15.0069 17.1389 14.7508 17.304C14.4945 17.4694 14.1845 17.5521 13.8208 17.5521C13.5687 17.5521 13.3413 17.5118 13.1389 17.4312C12.9363 17.3506 12.7648 17.236 12.6244 17.0871C12.4838 16.9385 12.3753 16.7606 12.2988 16.5541C12.2223 16.3473 12.1842 16.12 12.1842 15.872C12.1842 15.6323 12.2234 15.4092 12.3019 15.2025C12.3804 14.9958 12.492 14.8171 12.6367 14.6662C12.7813 14.5154 12.9538 14.3965 13.1544 14.3097C13.3547 14.2228 13.5769 14.1795 13.8208 14.1795C14.0936 14.1795 14.3312 14.2322 14.5337 14.3376C14.7362 14.443 14.9026 14.5846 15.0328 14.7622C15.163 14.94 15.2569 15.1426 15.3149 15.3698C15.3727 15.5973 15.3933 15.8349 15.3768 16.0828H13.0644C13.0769 16.3679 13.1492 16.5745 13.2814 16.7027ZM14.2765 15.0164C14.1711 14.9007 14.0109 14.8427 13.7961 14.8427C13.6555 14.8427 13.5388 14.8666 13.4458 14.914C13.3529 14.9617 13.2785 15.0206 13.2227 15.0907C13.1669 15.161 13.1276 15.2356 13.105 15.314C13.0822 15.3925 13.0687 15.4627 13.0646 15.5247H14.4967C14.4552 15.3015 14.3818 15.1322 14.2765 15.0164ZM15.3878 14.8552V14.2662H15.9147V14.0182C15.9147 13.733 16.0035 13.4996 16.1813 13.3176C16.359 13.1358 16.6277 13.0448 16.9873 13.0448C17.0657 13.0448 17.1444 13.048 17.2229 13.0541C17.3013 13.0604 17.3779 13.0656 17.4523 13.0697V13.7268C17.3454 13.7142 17.2377 13.708 17.13 13.7082C17.0101 13.7082 16.9243 13.7362 16.8727 13.792C16.8209 13.8477 16.7952 13.9418 16.7952 14.0741V14.2662H17.4027V14.8552H16.7952V17.4715H15.9149V14.8552H15.3878ZM17.5191 15.1745C17.5976 14.9658 17.7092 14.788 17.8539 14.6412C17.9985 14.4947 18.172 14.3809 18.3746 14.3004C18.577 14.2197 18.8044 14.1794 19.0566 14.1794C19.3085 14.1794 19.5371 14.2197 19.7418 14.3004C19.9463 14.3809 20.1212 14.4947 20.2656 14.6412C20.4105 14.788 20.522 14.9658 20.6005 15.1745C20.6788 15.3832 20.7182 15.6157 20.7182 15.8719C20.7182 16.1281 20.6788 16.3596 20.6005 16.5663C20.522 16.7731 20.4104 16.9496 20.2656 17.0964C20.1211 17.2431 19.9463 17.3557 19.7418 17.4342C19.5371 17.5127 19.3085 17.5521 19.0566 17.5521C18.8044 17.5521 18.577 17.5127 18.3746 17.4342C18.172 17.3557 17.9985 17.2431 17.8539 17.0964C17.7091 16.9496 17.5976 16.773 17.5191 16.5663C17.4405 16.3596 17.4012 16.1282 17.4012 15.8719C17.4012 15.6156 17.4405 15.3832 17.5191 15.1745ZM18.3188 16.247C18.3436 16.369 18.3859 16.4786 18.446 16.5756C18.5049 16.6718 18.5869 16.7518 18.6847 16.8082C18.7838 16.866 18.9078 16.8949 19.0566 16.8949C19.2054 16.8949 19.3303 16.866 19.4315 16.8082C19.5328 16.7503 19.6135 16.6728 19.6735 16.5756C19.7334 16.4786 19.7759 16.3689 19.8008 16.247C19.8254 16.1251 19.838 16.0001 19.838 15.8719C19.838 15.7439 19.8255 15.6177 19.8008 15.4937C19.7759 15.3697 19.7334 15.2603 19.6735 15.1652C19.6135 15.0702 19.5328 14.9927 19.4315 14.9326C19.3303 14.8728 19.2054 14.8427 19.0566 14.8427C18.9078 14.8427 18.7838 14.8728 18.6847 14.9326C18.5879 14.9902 18.5061 15.0699 18.446 15.1652C18.3859 15.2603 18.3436 15.3697 18.3188 15.4937C18.294 15.6182 18.2815 15.7449 18.2816 15.8719C18.2816 16.0001 18.294 16.1251 18.3188 16.247ZM21.8729 14.2662V14.8613H21.8853C21.9265 14.7621 21.9824 14.6702 22.0526 14.5855C22.1229 14.5008 22.2035 14.4284 22.2945 14.3686C22.3848 14.3089 22.4828 14.262 22.5859 14.2291C22.6901 14.1958 22.7989 14.1791 22.9082 14.1794C22.9662 14.1794 23.0302 14.1898 23.1006 14.2104V15.0288C23.0513 15.0194 23.0016 15.0122 22.9517 15.0071C22.8961 15.001 22.8402 14.9979 22.7842 14.9977C22.6231 14.9977 22.4867 15.0247 22.3751 15.0784C22.2635 15.1322 22.1736 15.2055 22.1055 15.2984C22.0373 15.3914 21.9886 15.4999 21.9598 15.6239C21.9309 15.7479 21.9164 15.8822 21.9164 16.027V17.4715H21.0361V14.2662H21.8729ZM24.244 14.2662V14.7002H24.2562C24.3718 14.535 24.5116 14.4067 24.6747 14.3157C24.8379 14.225 25.025 14.1794 25.2358 14.1794C25.4383 14.1794 25.6232 14.2187 25.7907 14.2972C25.9581 14.3757 26.0851 14.5142 26.1721 14.7126C26.2671 14.5721 26.3961 14.4481 26.5596 14.3406C26.7228 14.2331 26.9159 14.1794 27.1392 14.1794C27.3087 14.1794 27.4656 14.2001 27.6103 14.2414C27.7551 14.2828 27.879 14.349 27.9823 14.4398C28.0854 14.5308 28.1661 14.6496 28.2242 14.7962C28.2818 14.943 28.3108 15.1197 28.3108 15.3264V17.4715H27.4303V15.6549C27.4303 15.5475 27.4263 15.4462 27.418 15.3511C27.4098 15.2561 27.3871 15.1735 27.3498 15.1032C27.3126 15.033 27.2578 14.9772 27.1856 14.9357C27.1132 14.8945 27.0152 14.8738 26.8911 14.8738C26.767 14.8738 26.667 14.8976 26.5903 14.945C26.5155 14.9908 26.4537 15.0548 26.4106 15.1311C26.3672 15.2076 26.3382 15.2944 26.3238 15.3914C26.3093 15.4889 26.3021 15.5873 26.3023 15.6859V17.4715H25.4217V15.6735C25.4217 15.5784 25.4197 15.4845 25.4155 15.3914C25.4113 15.2984 25.3939 15.2127 25.3627 15.1342C25.3318 15.0557 25.2801 14.9927 25.208 14.945C25.1355 14.8976 25.029 14.8738 24.8886 14.8738C24.8471 14.8738 24.7924 14.8831 24.7241 14.9017C24.6558 14.9203 24.5899 14.9554 24.5258 15.0071C24.4619 15.0588 24.407 15.1332 24.3615 15.2302C24.316 15.3274 24.2934 15.4544 24.2934 15.6116V17.4715H23.4129V14.2662H24.244Z" fill="#33393F"/>
<path d="M29.2097 12H29.9914V19.4256H29.2097V12Z" fill="#89C6BE"/>
</g>
<defs>
<clipPath id="clip0_1695_150">
<rect width="28" height="7.4256" fill="white" transform="translate(2 12)"/>
</clipPath>
</defs>
</svg>
