<svg width="32" height="9" viewBox="0 0 32 9" fill="none" xmlns="http://www.w3.org/2000/svg">
<g clip-path="url(#clip0_1694_159)">
<path d="M0.0098877 2.12947V1.19409H4.15482V2.12947H2.63853V6.25315H1.52618V2.12947H0.0098877Z" fill="#33393F"/>
<path d="M5.21347 7.34432C5.01972 7.47188 4.75047 7.53558 4.40575 7.53558C4.30177 7.53558 4.19904 7.53209 4.09756 7.52495C3.9959 7.5178 3.89317 7.50958 3.78937 7.5002V6.67121C3.88379 6.68059 3.98062 6.69006 4.07987 6.69944C4.17903 6.70882 4.27818 6.71123 4.37743 6.70659C4.50955 6.69247 4.60772 6.6404 4.67151 6.55071C4.73417 6.46419 4.76765 6.35997 4.76709 6.25315C4.76709 6.17293 4.75289 6.09718 4.72457 6.02634L3.44214 2.58997H4.51205L5.34104 5.0981H5.35515L6.15582 2.58997H7.19733L5.66692 6.70659C5.5582 7.00406 5.40705 7.21667 5.21347 7.34432ZM8.5112 2.58997V3.05762H8.5254C8.64814 2.85921 8.80402 2.71512 8.99296 2.62543C9.18189 2.53575 9.38977 2.49081 9.61658 2.49081C9.90458 2.49081 10.1526 2.54513 10.3605 2.65375C10.5683 2.76247 10.7407 2.90656 10.8777 3.08593C11.0147 3.26549 11.1162 3.47452 11.1824 3.71303C11.2485 3.95164 11.2816 4.20078 11.2816 4.46064C11.2816 4.7063 11.2485 4.9424 11.1824 5.16903C11.1162 5.39584 11.0158 5.59666 10.8812 5.7713C10.7466 5.94612 10.5789 6.08556 10.3782 6.18937C10.1774 6.29317 9.94245 6.34534 9.67321 6.34534C9.44649 6.34534 9.23746 6.29924 9.04611 6.20714C8.85476 6.11504 8.69772 5.97926 8.57498 5.79971H8.56078V7.59275H7.55465V2.58997H8.5112ZM9.81891 5.4916C9.92767 5.42763 10.0199 5.33902 10.0882 5.2329C10.1566 5.1266 10.2051 5.0027 10.2334 4.86093C10.2618 4.71916 10.276 4.57516 10.276 4.42866C10.2761 4.28337 10.2607 4.13848 10.2299 3.99648C10.1991 3.8548 10.1484 3.7284 10.0775 3.61736C10.0082 3.50803 9.91494 3.41595 9.80471 3.34812C9.69376 3.27978 9.55788 3.24539 9.39736 3.24539C9.23192 3.24539 9.09381 3.27978 8.98286 3.34812C8.87382 3.41475 8.78167 3.50571 8.71362 3.61388C8.64511 3.72259 8.59678 3.84766 8.56837 3.98933C8.53975 4.13402 8.52551 4.28117 8.52585 4.42866C8.52585 4.57516 8.54112 4.71916 8.57194 4.86093C8.60258 5.0027 8.65216 5.1266 8.72068 5.2329C8.78911 5.33921 8.88013 5.42541 8.99349 5.4916C9.10686 5.55771 9.2438 5.59067 9.40442 5.59067C9.56977 5.59067 9.70787 5.55771 9.81891 5.4916ZM12.8929 5.37449C13.044 5.52108 13.2614 5.59416 13.5448 5.59416C13.7479 5.59416 13.9227 5.54359 14.0692 5.44185C14.2155 5.34028 14.3053 5.23281 14.3383 5.11945H15.224C15.0823 5.55878 14.8649 5.87305 14.5722 6.0618C14.2793 6.25074 13.9251 6.34534 13.5094 6.34534C13.2212 6.34534 12.9614 6.29924 12.7301 6.20714C12.4986 6.11504 12.3025 5.98399 12.142 5.81391C11.9814 5.644 11.8574 5.44069 11.77 5.20468C11.6825 4.9684 11.6389 4.70862 11.6389 4.42518C11.6389 4.15129 11.6838 3.89625 11.7735 3.66006C11.8632 3.42378 11.9908 3.21957 12.1562 3.04707C12.3214 2.87476 12.5186 2.73888 12.7478 2.63973C12.9767 2.54039 13.2306 2.4909 13.5094 2.4909C13.8212 2.4909 14.0927 2.55111 14.3241 2.67153C14.5556 2.79204 14.7458 2.9539 14.8945 3.15686C15.0433 3.36 15.1507 3.59154 15.2169 3.85123C15.283 4.11118 15.3066 4.38274 15.2877 4.6661H12.645C12.6592 4.99189 12.7418 5.22808 12.8929 5.37449ZM14.0302 3.44736C13.9097 3.31507 13.7267 3.24887 13.4812 3.24887C13.3205 3.24887 13.1871 3.27612 13.0808 3.33034C12.9746 3.38483 12.8896 3.4521 12.8259 3.53232C12.7621 3.61263 12.7171 3.69785 12.6913 3.78745C12.6652 3.87713 12.6499 3.95744 12.6451 4.02828H14.2819C14.2344 3.77315 14.1505 3.57966 14.0302 3.44736ZM15.3002 3.26308V2.58997H15.9024V2.30652C15.9024 1.98065 16.0039 1.71382 16.2071 1.50586C16.4102 1.29807 16.7173 1.19409 17.1282 1.19409C17.2179 1.19409 17.3078 1.19775 17.3974 1.20472C17.4871 1.21187 17.5746 1.21785 17.6597 1.2225V1.9735C17.5374 1.95915 17.4144 1.95205 17.2913 1.95224C17.1543 1.95224 17.0562 1.98422 16.9972 2.048C16.9381 2.1117 16.9087 2.21925 16.9087 2.3704V2.58997H17.603V3.26308H16.9087V6.25315H15.9026V3.26308H15.3002ZM17.736 3.62799C17.8257 3.38948 17.9533 3.18634 18.1186 3.01858C18.2839 2.85108 18.4822 2.72111 18.7137 2.62901C18.9451 2.53682 19.2049 2.49081 19.4931 2.49081C19.781 2.49081 20.0423 2.53682 20.2762 2.62901C20.51 2.72111 20.7098 2.85108 20.8748 3.01858C21.0404 3.18634 21.1679 3.38948 21.2576 3.62799C21.3471 3.8665 21.3921 4.13226 21.3921 4.42509C21.3921 4.71791 21.3471 4.98242 21.2576 5.2187C21.1679 5.45498 21.0403 5.65678 20.8748 5.82445C20.7097 5.99212 20.51 6.12085 20.2762 6.21054C20.0423 6.30022 19.781 6.34525 19.4931 6.34525C19.2049 6.34525 18.9451 6.30022 18.7137 6.21054C18.4822 6.12085 18.2839 5.99212 18.1186 5.82445C17.9532 5.65678 17.8257 5.45489 17.736 5.2187C17.6461 4.98242 17.6013 4.718 17.6013 4.42509C17.6013 4.13217 17.6461 3.8665 17.736 3.62799ZM18.6499 4.8537C18.6783 4.99314 18.7266 5.11838 18.7953 5.22924C18.8626 5.33924 18.9564 5.43064 19.0681 5.49509C19.1814 5.56119 19.3231 5.59416 19.4931 5.59416C19.6632 5.59416 19.806 5.56119 19.9217 5.49509C20.0373 5.42898 20.1296 5.34037 20.1981 5.22924C20.2666 5.11838 20.3152 4.99305 20.3437 4.8537C20.3718 4.71443 20.3862 4.57159 20.3862 4.42509C20.3862 4.27876 20.3719 4.1345 20.3437 3.99282C20.3152 3.85114 20.2666 3.72608 20.1981 3.61736C20.1296 3.50882 20.0373 3.42021 19.9217 3.3516C19.806 3.28326 19.6632 3.24887 19.4931 3.24887C19.3231 3.24887 19.1814 3.28326 19.0681 3.3516C18.9575 3.41743 18.864 3.50849 18.7953 3.61736C18.7266 3.72608 18.6783 3.85114 18.6499 3.99282C18.6216 4.13515 18.6073 4.27995 18.6074 4.42509C18.6074 4.57159 18.6216 4.71443 18.6499 4.8537ZM22.7118 2.58997V3.27013H22.7259C22.773 3.15677 22.8369 3.05172 22.9172 2.95489C22.9975 2.85805 23.0896 2.77533 23.1936 2.70699C23.2968 2.63883 23.4089 2.58517 23.5267 2.54754C23.6457 2.50956 23.77 2.49042 23.895 2.49081C23.9613 2.49081 24.0344 2.50269 24.1148 2.52619V3.46148C24.0585 3.45075 24.0018 3.4425 23.9447 3.43673C23.8812 3.42978 23.8173 3.4262 23.7533 3.42601C23.5691 3.42601 23.4132 3.45683 23.2858 3.5182C23.1582 3.57966 23.0555 3.66346 22.9777 3.76967C22.8997 3.87597 22.844 3.99996 22.8111 4.14164C22.7781 4.28332 22.7615 4.43688 22.7615 4.60232V6.25315H21.7554V2.58997H22.7118ZM25.4216 2.58997V3.08593H25.4356C25.5677 2.89718 25.7274 2.75059 25.9139 2.64661C26.1004 2.54289 26.3141 2.49081 26.5551 2.49081C26.7865 2.49081 26.9979 2.53575 27.1893 2.62543C27.3806 2.71512 27.5257 2.87342 27.6252 3.10014C27.7337 2.93952 27.8812 2.79784 28.068 2.67501C28.2545 2.55218 28.4752 2.49081 28.7304 2.49081C28.9241 2.49081 29.1035 2.51449 29.2688 2.56165C29.4343 2.60891 29.5759 2.68457 29.694 2.78837C29.8118 2.89235 29.904 3.02814 29.9704 3.19572C30.0363 3.36348 30.0694 3.56546 30.0694 3.80165V6.25315H29.0631V4.17711C29.0631 4.05428 29.0586 3.93859 29.049 3.82988C29.0397 3.72134 29.0137 3.62692 28.9711 3.54652C28.9286 3.4663 28.866 3.40252 28.7834 3.35518C28.7007 3.30801 28.5887 3.28434 28.4469 3.28434C28.3051 3.28434 28.1907 3.31158 28.1031 3.36581C28.0177 3.41806 27.947 3.49123 27.8977 3.57841C27.8481 3.66587 27.815 3.76502 27.7986 3.87597C27.782 3.98737 27.7737 4.09985 27.7739 4.21248V6.25315H26.7676V4.19837C26.7676 4.08965 26.7653 3.98228 26.7604 3.87597C26.7556 3.76967 26.7358 3.67167 26.7001 3.58199C26.6649 3.4923 26.6057 3.42021 26.5233 3.36581C26.4405 3.31158 26.3188 3.28434 26.1583 3.28434C26.1108 3.28434 26.0484 3.29497 25.9703 3.31623C25.8922 3.33749 25.8169 3.3776 25.7437 3.43673C25.6706 3.49578 25.6079 3.58082 25.5559 3.69168C25.5039 3.80281 25.4781 3.94797 25.4781 4.12753V6.25315H24.4718V2.58997H25.4216Z" fill="#33393F"/>
<path d="M31.0968 0H31.9901V8.4864H31.0968V0Z" fill="#89C6BE"/>
</g>
<defs>
<clipPath id="clip0_1694_159">
<rect width="32" height="8.4864" fill="white"/>
</clipPath>
</defs>
</svg>
