<svg width="32" height="32" viewBox="0 0 32 32" fill="none" xmlns="http://www.w3.org/2000/svg">
<rect width="32" height="32" fill="white"/>
<g clip-path="url(#clip0_1142_7491)">
<path d="M16 1C24.2895 1 31 7.71053 31 16C31 24.2895 24.2895 31 16 31C7.71053 31 1 24.2895 1 16C1 7.71053 7.71053 1 16 1ZM19.4962 5.96241C18.8759 5.76504 18.1992 6.0188 17.8609 6.55451C17.2688 6.44173 16.6767 6.38534 16.0564 6.38534C10.7274 6.38534 6.44173 10.6992 6.44173 16C6.44173 19.7218 8.55639 22.9643 11.6579 24.5432C11.5733 25.1635 11.968 25.7838 12.5883 26.0094C12.7293 26.0658 12.8985 26.094 13.0395 26.094C13.265 26.094 13.4906 26.0376 13.688 25.9248C13.9135 25.812 14.0827 25.6429 14.2237 25.4173C14.2801 25.3327 14.3365 25.2481 14.3647 25.1353L15.4643 21.8929L19.2989 10.9812L20.3985 7.73872C20.4267 7.65414 20.4549 7.54135 20.4549 7.42857C20.4831 7.11842 20.3985 6.83647 20.2575 6.58271C20.0883 6.30075 19.8346 6.07519 19.4962 5.96241ZM22.2312 8.69737L20.906 12.7011C21.5545 13.6316 21.9211 14.7876 21.9211 16C21.9211 18.594 20.2857 20.765 18.0019 21.5827L16.6767 25.5865C21.6673 25.2199 25.5865 21.0752 25.6147 16C25.6147 13.0677 24.2895 10.4455 22.2312 8.69737ZM16 10.0789C16.1692 10.0789 16.3665 10.0789 16.5357 10.1071L12.8139 20.9906C11.1786 19.9192 10.0789 18.0865 10.0789 16C10.0789 12.7293 12.7293 10.0789 16 10.0789Z" fill="#303030"/>
</g>
<defs>
<clipPath id="clip0_1142_7491">
<rect width="30" height="30" fill="white" transform="translate(1 1)"/>
</clipPath>
</defs>
</svg>
