<svg width="32" height="32" viewBox="0 0 29 34" fill="none" xmlns="http://www.w3.org/2000/svg">
<path d="M20.5483 4.72658V29.3846C20.5483 32.1437 22.4537 33.6811 24.4712 33.6811C26.3393 33.6811 28.3941 32.3734 28.3941 29.3846V4.91338C28.3941 2.38407 26.5261 0.803711 24.4712 0.803711C22.4164 0.803711 20.5483 2.54658 20.5483 4.72658Z" fill="#F9AB00"/>
<path d="M10.2744 17.2422V29.3844C10.2744 32.1435 12.1798 33.6809 14.1973 33.6809C16.0653 33.6809 18.1202 32.3733 18.1202 29.3844V17.429C18.1202 14.8997 16.2521 13.3193 14.1973 13.3193C12.1425 13.3193 10.2744 15.0622 10.2744 17.2422Z" fill="#E37400"/>
<path d="M3.92289 33.6807C6.08944 33.6807 7.84577 31.9244 7.84577 29.7578C7.84577 27.5913 6.08944 25.835 3.92289 25.835C1.75634 25.835 0 27.5913 0 29.7578C0 31.9244 1.75634 33.6807 3.92289 33.6807Z" fill="#E37400"/>
</svg>
