<svg width="32" height="32" viewBox="0 0 32 32" fill="none" xmlns="http://www.w3.org/2000/svg">
<path d="M27.2374 5.3335H1.36706C0.612107 5.3335 0 6.25786 0 7.39802V24.6023C0 25.7425 0.612107 26.6668 1.36706 26.6668H27.2374C27.7488 26.6668 28.2175 26.2356 28.4522 25.5492L31.8477 16.9471C32.0508 16.3531 32.0508 15.6473 31.8477 15.0532L28.4522 6.45109C28.2175 5.76471 27.7488 5.3335 27.2374 5.3335Z" fill="#40BA58"/>
<path d="M29.7206 16C29.7206 16.5701 29.4144 17.0323 29.0368 17.0323C28.6592 17.0323 28.353 16.5701 28.353 16C28.353 15.4299 28.6592 14.9678 29.0368 14.9678C29.4144 14.9678 29.7206 15.4299 29.7206 16Z" fill="white"/>
<path d="M6.69532 13.8121H7.70443C7.77181 13.8121 7.81593 13.9185 7.78641 14.0099L5.16861 22.1364C5.11882 22.2909 4.97288 22.2913 4.92281 22.1367L2.28869 14.0101C2.25906 13.9187 2.30311 13.812 2.37057 13.812H3.381C3.41654 13.812 3.4488 13.8433 3.46377 13.892L5.04635 19.0694L6.61233 13.8924C6.62719 13.8434 6.65967 13.8121 6.69532 13.8121Z" fill="white"/>
<path d="M12.553 19.5614L13.2342 20.1596C13.2787 20.1989 13.2935 20.2872 13.2658 20.3529C12.6568 21.7957 11.7969 22.5172 10.6859 22.5172C9.87316 22.5172 9.21712 22.0735 8.71788 21.186C8.2302 20.322 7.98633 19.163 7.98633 17.7093C7.98633 17.1956 8.0599 16.6555 8.20698 16.0892C8.47782 15.0442 8.93266 14.3172 9.5713 13.9084C9.90798 13.6925 10.2796 13.5845 10.6859 13.5845C11.8547 13.5845 12.6404 14.326 13.043 15.8089C13.2325 16.5037 13.3196 17.1662 13.3042 17.7968L13.2957 18.1631C13.294 18.2373 13.2537 18.296 13.2045 18.296H9.08362C9.08362 19.0901 9.23644 19.7498 9.54222 20.2753C9.86733 20.8241 10.2892 21.0985 10.8078 21.0985C11.4617 21.0985 12.0982 20.4542 12.4279 19.613C12.4538 19.5469 12.5089 19.5227 12.553 19.5614ZM12.2476 17.0787C12.1896 16.4599 12.0327 15.9607 11.7774 15.5811C11.5063 15.1783 11.1677 14.9769 10.7614 14.9769C10.3278 14.9769 9.96606 15.1652 9.67578 15.5418C9.3855 15.9183 9.20353 16.4306 9.13005 17.0787H12.2476Z" fill="white"/>
<path d="M14.3768 13.8121H15.2569C15.3073 13.8121 15.348 13.8738 15.348 13.9497V15.0118C15.7583 14.0603 16.333 13.5845 17.0723 13.5845C18.3688 13.5845 19.0171 14.7842 19.0171 17.1837V22.0905C19.0171 22.1665 18.9763 22.2281 18.9259 22.2281H18.04C17.9897 22.2281 17.9489 22.1665 17.9489 22.0905V17.1488C17.9489 16.4306 17.8656 15.9081 17.6992 15.5811C17.5095 15.2018 17.1844 15.0118 16.7239 15.0118C15.8067 15.0118 15.348 15.8849 15.348 17.6303V22.0905C15.348 22.1665 15.3073 22.2281 15.2569 22.2281H14.3768C14.3265 22.2281 14.2856 22.1665 14.2856 22.0905V13.9497C14.2856 13.8738 14.3265 13.8121 14.3768 13.8121Z" fill="white"/>
<path d="M24.6412 9.44189H25.5271C25.5774 9.44189 25.6182 9.50356 25.6182 9.57953V22.0905C25.6182 22.1666 25.5774 22.2282 25.5271 22.2282H24.6412C24.5908 22.2282 24.55 22.1666 24.55 22.0905V20.862C24.0662 21.9654 23.4314 22.5172 22.6458 22.5172C21.771 22.5172 21.088 22.0239 20.5965 21.0372C20.1629 20.1673 19.9463 19.1893 19.9463 18.1033C19.9463 17.2568 20.0546 16.4919 20.2714 15.8089C20.5113 15.0499 20.8577 14.4778 21.3105 14.0924C21.7091 13.7538 22.1388 13.5844 22.5994 13.5844C22.9826 13.5844 23.3599 13.7421 23.7314 14.0573C24.103 14.3726 24.3759 14.7814 24.55 15.2834V9.57953C24.55 9.50356 24.5908 9.44189 24.6412 9.44189ZM24.4233 18.0676C24.4233 16.8535 24.1448 15.9922 23.5879 15.4838C23.3149 15.2355 23.0048 15.1112 22.6573 15.1112C21.9434 15.1112 21.4425 15.6393 21.1547 16.6952C21.0313 17.1471 20.9697 17.6158 20.9697 18.1014C20.9697 19.1011 21.1994 19.8975 21.6592 20.4904C21.9133 20.8181 22.2385 20.9817 22.6348 20.9817C23.4047 20.9817 23.9373 20.4763 24.2327 19.4654C24.3597 19.0306 24.4233 18.5647 24.4233 18.0676Z" fill="white"/>
</svg>
