<svg width="32" height="32" viewBox="0 0 32 32" fill="none" xmlns="http://www.w3.org/2000/svg">
<path d="M16 30.3459C23.732 30.3459 30 23.8885 30 15.923C30 7.95738 23.732 1.5 16 1.5C8.26801 1.5 2 7.95738 2 15.923C2 23.8885 8.26801 30.3459 16 30.3459Z" fill="#0042E4"/>
<path d="M8.17529 10.3401H9.82484L11.0937 12.6664L12.3203 10.3401H13.8853L11.8128 14.0621V16.0501H10.2901V14.1044L8.17529 10.3401Z" fill="white"/>
<path d="M13.42 13.216C13.42 11.4819 14.8158 10.2976 16.4231 10.2976C18.0303 10.2976 19.4261 11.5242 19.4261 13.216C19.4261 14.9502 18.0303 16.1768 16.4231 16.1768C14.8158 16.1345 13.42 14.9502 13.42 13.216ZM17.8611 13.216C17.8611 12.3278 17.3113 11.6088 16.3808 11.6088C15.4503 11.6088 14.9004 12.3278 14.9004 13.216C14.9004 14.1043 15.4503 14.8233 16.3808 14.8233C17.3536 14.8233 17.8611 14.1043 17.8611 13.216Z" fill="white"/>
<path d="M20.8218 11.609H19.3414V10.3401H23.8248V11.609H22.3445V16.0501H20.8218V11.609Z" fill="white"/>
<path d="M10.1209 22.3098H8.6405V16.5999H10.7553C12.278 16.5999 13.1239 17.5727 13.1239 18.8415C13.1239 20.1104 12.278 21.0832 10.7553 21.0832H10.1209V22.3098ZM10.6707 19.7721C11.3475 19.7721 11.6012 19.3914 11.6012 18.8415C11.6012 18.2917 11.3475 17.8687 10.6707 17.8687H10.1209V19.7721H10.6707Z" fill="white"/>
<path d="M13.3777 19.476C13.3777 17.7419 14.7735 16.5576 16.3807 16.5576C17.988 16.5576 19.3837 17.7842 19.3837 19.476C19.3837 21.2102 17.988 22.4368 16.3807 22.4368C14.7735 22.3945 13.3777 21.2102 13.3777 19.476ZM17.8611 19.476C17.8611 18.5878 17.3112 17.8688 16.3807 17.8688C15.4502 17.8688 14.9003 18.5878 14.9003 19.476C14.9003 20.3643 15.4502 21.0833 16.3807 21.0833C17.3112 21.0833 17.8611 20.3643 17.8611 19.476Z" fill="white"/>
<path d="M19.3838 21.5908C19.3838 21.0832 19.7645 20.7449 20.1874 20.7449C20.6104 20.7449 20.991 21.0832 20.991 21.5908C20.991 22.0983 20.6104 22.4367 20.1874 22.4367C19.7645 22.3944 19.3838 22.0561 19.3838 21.5908Z" fill="white"/>
</svg>
