<svg width="44" height="57" viewBox="0 0 44 57" fill="none" xmlns="http://www.w3.org/2000/svg">
<path d="M43.3332 56.6667H0.666504V51.3334C0.666504 47.7972 2.07126 44.4058 4.57175 41.9053C7.07223 39.4048 10.4636 38.0001 13.9998 38.0001H29.9998C33.5361 38.0001 36.9274 39.4048 39.4279 41.9053C41.9284 44.4058 43.3332 47.7972 43.3332 51.3334V56.6667ZM21.9998 32.6667C19.8987 32.6667 17.8181 32.2529 15.8769 31.4488C13.9357 30.6447 12.1719 29.4662 10.6861 27.9805C9.20039 26.4947 8.02184 24.7309 7.21776 22.7897C6.41369 20.8485 5.99984 18.7679 5.99984 16.6667C5.99984 14.5656 6.41369 12.485 7.21776 10.5438C8.02184 8.6026 9.20039 6.83878 10.6861 5.35304C12.1719 3.8673 13.9357 2.68875 15.8769 1.88468C17.8181 1.0806 19.8987 0.666748 21.9998 0.666748C26.2433 0.666748 30.313 2.35246 33.3135 5.35304C36.3141 8.35362 37.9998 12.4233 37.9998 16.6667C37.9998 20.9102 36.3141 24.9799 33.3135 27.9805C30.313 30.981 26.2433 32.6667 21.9998 32.6667Z" fill="#824EF2"/>
</svg>
