<svg width="32" height="20" viewBox="0 0 32 20" fill="none" xmlns="http://www.w3.org/2000/svg">
<path d="M6.624e-05 10.1988C6.624e-05 12.365 0.861314 14.4426 2.39383 15.9751C3.92509 17.5064 6.00247 18.3676 8.17015 18.3689H16.9538H16.9526C19.5776 19.9989 22.8163 20.3026 25.6988 19.1889C28.5813 18.0751 30.775 15.674 31.6227 12.7025C32.4701 9.72997 31.8739 6.53256 30.0127 4.06632C28.1514 1.60008 25.2402 0.148882 22.1503 0.150162C20.0703 0.146412 18.044 0.80517 16.3628 2.02891H8.17011C6.00262 2.02891 3.92499 2.89016 2.39251 4.42267C0.861248 5.95394 0 8.0326 0 10.199L6.624e-05 10.1988ZM14.6839 10.0001C14.6839 7.62255 15.8189 5.38757 17.7364 3.98245C19.6552 2.57746 22.1278 2.17119 24.3953 2.88745C26.6628 3.60495 28.4529 5.35871 29.2142 7.61129C29.9767 9.8638 29.6192 12.3438 28.2529 14.29C26.8867 16.2362 24.674 17.415 22.298 17.4625C19.9205 17.5113 17.6619 16.4238 16.218 14.535C15.2193 13.235 14.6793 11.64 14.6843 9.99999L14.6839 10.0001Z" fill="#2b2e35"/>
</svg>
