<svg width="28" height="32" viewBox="0 0 28 32" fill="none" xmlns="http://www.w3.org/2000/svg">
<path d="M10 25C10 25.55 9.55 26 9 26C8.45 26 8 25.55 8 25V12C8 11.45 8.45 11 9 11C9.55 11 10 11.45 10 12V25ZM15 25C15 25.55 14.55 26 14 26C13.45 26 13 25.55 13 25V12C13 11.45 13.45 11 14 11C14.55 11 15 11.45 15 12V25ZM20 25C20 25.55 19.55 26 19 26C18.45 26 18 25.55 18 25V12C18 11.45 18.45 11 19 11C19.55 11 20 11.45 20 12V25ZM19.8438 1.55875L22.1375 5H26.5C27.3312 5 28 5.67188 28 6.5C28 7.33125 27.3312 8 26.5 8H26V27C26 29.7625 23.7625 32 21 32H7C4.23875 32 2 29.7625 2 27V8H1.5C0.671875 8 0 7.33125 0 6.5C0 5.67188 0.671875 5 1.5 5H5.86375L8.15625 1.55875C8.80625 0.584813 9.9 0 11.0688 0H16.9312C18.1 0 19.1938 0.584875 19.8438 1.55875ZM9.46875 5H18.5312L17.3438 3.2225C17.25 3.08375 17.0938 3 16.9312 3H11.0688C10.9062 3 10.6938 3.08375 10.6562 3.2225L9.46875 5ZM5 27C5 28.1063 5.89563 29 7 29H21C22.1063 29 23 28.1063 23 27V8H5V27Z" fill="#2b2e35"/>
</svg>
