<svg width="54" height="48" viewBox="0 0 54 48" fill="none" xmlns="http://www.w3.org/2000/svg">
<path d="M48.6666 7.33366H28.6666L21.9999 0.666992H5.33325C2.57284 0.666992 0.333252 2.90658 0.333252 5.66699V42.3337C0.333252 45.0941 2.57284 47.3337 5.33325 47.3337H48.6666C51.427 47.3337 53.6666 45.0941 53.6666 42.3337V12.3337C53.6666 9.57324 51.427 7.33366 48.6666 7.33366ZM16.8958 25.5628C17.3853 25.0732 18.0208 24.8337 18.6666 24.8337C19.3124 24.8337 19.9458 25.0778 20.4343 25.5661L24.4999 29.6357V18.167C24.4999 16.792 25.6249 15.667 26.9999 15.667C28.3749 15.667 29.4999 16.7868 29.4999 18.167V29.6357L33.5655 25.5701C34.5421 24.5936 36.1239 24.5936 37.101 25.5701C38.078 26.5467 38.0775 28.1285 37.101 29.1055L28.7676 37.4389C27.7911 38.4154 26.2093 38.4154 25.2322 37.4389L16.8989 29.1055C15.927 28.1253 15.927 26.542 16.8958 25.5628Z" fill="#824EF2"/>
</svg>
