<svg width="32" height="28" viewBox="0 0 32 28" fill="none" xmlns="http://www.w3.org/2000/svg">
<path d="M28 4H17.2437L14.1687 1.17188C13.4187 0.42125 12.4062 0 11.3438 0H4C1.79063 0 0 1.79125 0 4V24C0 26.2087 1.79063 28 4 28H28C30.2094 28 32 26.2087 32 24V8C32 5.79375 30.2062 4 28 4ZM29 24C29 24.5515 28.5514 25 28 25H4C3.44863 25 3 24.5515 3 24V4C3 3.4485 3.44863 3 4 3H11.3438C11.6108 3 11.8621 3.104 12.0506 3.293L16 7H28C28.5514 7 29 7.4485 29 8V24ZM19.9375 14.9375L17.5 17.3813V11C17.5 10.1719 16.8281 9.5 16 9.5C15.1719 9.5 14.5 10.175 14.5 11V17.3813L12.0063 14.9375C11.4203 14.3516 10.4713 14.3516 9.885 14.9375C9.29875 15.5234 9.29906 16.4725 9.885 17.0588L14.885 22.0588C15.2312 22.3563 15.6187 22.5 16 22.5C16.3813 22.5 16.7675 22.3535 17.0606 22.0606L22.0606 17.0606C22.6466 16.4746 22.6466 15.5256 22.0606 14.9393C21.4747 14.3531 20.525 14.3562 19.9375 14.9375Z" fill="#2b2e35"/>
</svg>
