<svg width="54" height="54" viewBox="0 0 54 54" fill="none" xmlns="http://www.w3.org/2000/svg">
<path d="M51.938 4.03241C54.243 6.33416 54.243 10.0662 51.938 12.368L48.7804 15.5359L38.4658 5.2238L41.6339 2.06008C43.9389 -0.242033 47.6648 -0.242033 49.9698 2.06008L51.938 4.03241ZM18.4787 25.2186L36.0872 7.60449L46.4018 17.9145L28.7827 35.5223C28.1407 36.1748 27.3513 36.6589 26.4777 36.9536L17.1314 40.0689C16.1316 40.3636 15.2264 40.1321 14.5423 39.3638C13.8687 38.7744 13.6371 37.7746 13.9318 36.8694L17.0472 27.5235C17.3419 26.65 17.8261 25.8606 18.4787 25.2186ZM20.5416 6.42151C22.4045 6.42151 23.9096 8.02442 23.9096 9.78941C23.9096 11.747 22.4045 13.1573 20.5416 13.1573H10.4375C8.57769 13.1573 7.06944 14.7571 7.06944 16.5252V43.5631C7.06944 45.426 8.57769 46.931 10.4375 46.931H37.3817C39.2447 46.931 40.7498 45.426 40.7498 43.5631V33.3647C40.7498 31.5966 42.2549 29.9968 44.1178 29.9968C45.9808 29.9968 47.4858 31.5966 47.4858 33.3647V43.5631C47.4858 49.1412 42.96 53.6668 37.3817 53.6668H10.4375C4.85706 53.6668 0.333374 49.1412 0.333374 43.5631V16.5252C0.333374 10.9471 4.85706 6.42151 10.4375 6.42151H20.5416Z" fill="#2b2e35"/>
</svg>
