<svg width="248" height="68" viewBox="0 0 248 68" fill="none" xmlns="http://www.w3.org/2000/svg">
<rect width="248" height="68" fill="black"/>
<rect x="16" y="10" width="48" height="48" rx="11.6667" fill="white"/>
<path d="M24 30.9655C24 29.8786 24.8596 28.9976 25.92 28.9976H26.109C26.5185 23.2216 31.2202 18.666 36.96 18.666C39.5283 18.666 41.8887 19.5781 43.7498 21.1035C44.4501 20.9016 45.1786 20.7979 45.92 20.7979C50.3383 20.7979 53.92 24.469 53.92 28.9976H54.08C55.1404 28.9976 56 29.8786 56 30.9655C56 36.9013 52.8953 42.2713 48 45.1708V46.3808C48 48.0111 46.7106 49.3327 45.12 49.3327H34.88C33.2894 49.3327 32 48.0111 32 46.3808V45.1708C27.1051 42.2716 24 36.9016 24 30.9655ZM32.8968 43.4289H47.1032C51.3752 40.868 54.08 36.1637 54.08 30.9655H25.92C25.92 36.164 28.6251 40.8682 32.8968 43.4289ZM36.96 26.5377C38.4511 26.5377 39.704 27.5829 40.0592 28.9976H42.0179C41.6338 26.4888 39.5155 24.5698 36.96 24.5698C34.4044 24.5698 32.2862 26.4888 31.9021 28.9976H33.8608C34.216 27.5829 35.4689 26.5377 36.96 26.5377ZM29.965 28.9976C30.3621 25.3985 33.3424 22.6018 36.96 22.6018C40.5776 22.6018 43.5579 25.3985 43.955 28.9976H45.8848C45.4801 24.3097 41.6389 20.6339 36.96 20.6339C32.2811 20.6339 28.4399 24.3097 28.0352 28.9976H29.965ZM50.08 28.9976H52C52 25.5559 49.2779 22.7658 45.92 22.7658C45.7476 22.7658 45.5763 22.7732 45.4063 22.7877C45.8987 23.4083 46.3271 24.0843 46.6816 24.805C48.6154 25.1717 50.08 26.9093 50.08 28.9976ZM48.16 28.9976C48.16 28.4156 47.9487 27.8841 47.6005 27.4795C47.7034 27.9742 47.7744 28.481 47.811 28.9976H48.16ZM33.92 45.3969V46.3808C33.92 46.9242 34.3498 47.3648 34.88 47.3648H45.12C45.6502 47.3648 46.08 46.9242 46.08 46.3808V45.3969H33.92Z" fill="#0E0F11"/>
<path d="M92.704 33.464C91.744 33.24 90.848 33.208 89.952 33.144C88.64 33.08 87.52 33.016 86.688 32.44C85.792 31.832 85.088 30.648 85.408 29.528C85.76 28.184 87.104 27.128 88.608 26.904C90.56 26.616 92.64 27.16 94.08 28.312C94.912 28.952 96.128 28.792 96.768 27.992C97.408 27.16 97.248 25.944 96.448 25.304C94.176 23.544 91.04 22.712 88.096 23.128C85.056 23.576 82.496 25.72 81.728 28.504C81.024 31.064 82.176 33.976 84.512 35.576C86.24 36.76 88.096 36.856 89.76 36.952C90.496 36.984 91.232 37.016 91.872 37.176C93.44 37.528 94.56 38.872 94.464 40.312C94.368 41.944 92.64 42.904 91.072 43.128C88.704 43.48 86.176 42.584 84.768 40.952C84.096 40.152 82.912 40.056 82.112 40.728C81.312 41.432 81.216 42.616 81.888 43.416C83.808 45.688 86.912 47 90.048 47C90.56 47 91.104 46.968 91.616 46.904C94.656 46.456 98.048 44.28 98.272 40.536C98.464 37.272 96.064 34.2 92.704 33.464ZM108.615 31.032C107.175 31.032 105.863 31.448 104.711 32.184C104.455 31.416 103.751 30.872 102.919 30.872C101.863 30.872 100.999 31.736 100.999 32.792V45.016C100.999 46.072 101.863 46.936 102.919 46.936C103.975 46.936 104.839 46.072 104.839 45.016V39.576C104.839 37.368 106.119 34.872 108.615 34.872C110.631 34.872 112.295 36.696 112.295 38.968V45.016C112.295 46.072 113.127 46.936 114.215 46.936C115.271 46.936 116.103 46.072 116.103 45.016V38.968C116.103 34.584 112.743 31.032 108.615 31.032ZM132.195 31C131.139 31 130.499 31.832 130.499 32.824V32.984C129.123 31.864 127.523 31.128 125.603 31.128C121.315 31.128 117.859 34.616 117.859 38.872C117.859 43.128 121.315 46.584 125.603 46.584C127.523 46.584 129.123 45.88 130.499 44.696V45.08C130.499 46.072 131.139 46.904 132.195 46.904C133.251 46.904 134.051 46.072 134.051 45.08V32.824C134.051 31.832 133.251 31 132.195 31ZM125.603 42.84C123.395 42.84 121.571 41.08 121.571 38.872C121.571 36.664 123.395 34.872 125.603 34.872C127.779 34.872 129.603 36.664 129.603 38.872C129.603 41.08 127.779 42.84 125.603 42.84ZM145.093 46.904C142.981 46.904 141.029 46.104 139.525 44.664C137.989 43.16 137.125 41.176 137.061 39.032C137.029 36.92 137.797 34.872 139.333 33.336C140.805 31.8 142.789 30.936 144.933 30.872C147.077 30.84 149.093 31.64 150.629 33.144C151.397 33.848 151.429 35.096 150.693 35.832C149.957 36.6 148.741 36.632 147.973 35.896C147.173 35.128 146.117 34.712 144.997 34.712C143.877 34.712 142.853 35.192 142.053 35.992C141.317 36.792 140.869 37.848 140.901 38.968C140.901 40.056 141.381 41.144 142.181 41.88C142.981 42.68 144.037 43.096 145.125 43.064C146.181 43.064 147.173 42.648 147.941 41.944C148.677 41.208 149.925 41.272 150.629 42.04C151.365 42.808 151.301 44.024 150.533 44.76C149.093 46.104 147.205 46.872 145.221 46.904H145.093ZM166.743 43.544L160.791 38.072L166.135 34.456C166.999 33.816 167.223 32.6 166.583 31.736C165.975 30.84 164.759 30.648 163.863 31.256L157.559 35.608V24.792C157.559 23.704 156.695 22.84 155.607 22.84C154.519 22.84 153.655 23.704 153.655 24.792V45.176C153.655 46.264 154.519 47.128 155.607 47.128C156.695 47.128 157.559 46.264 157.559 45.176V40.408L164.087 46.424C164.471 46.776 164.919 46.936 165.399 46.936C165.911 46.936 166.455 46.712 166.839 46.328C167.575 45.496 167.511 44.28 166.743 43.544ZM177.168 30.936C175.472 30.936 173.872 31.448 172.592 32.344C172.336 31.576 171.6 31 170.736 31C169.648 31 168.784 31.864 168.784 32.92V53.272C168.784 54.36 169.648 55.224 170.736 55.224C171.792 55.224 172.656 54.36 172.656 53.272V45.784C173.968 46.616 175.504 47.128 177.168 47.128C181.616 47.128 185.264 43.512 185.264 39.032C185.264 34.552 181.616 30.936 177.168 30.936ZM177.168 43.256C174.832 43.256 172.944 41.368 172.944 39.032C172.944 36.696 174.832 34.808 177.168 34.808C179.472 34.808 181.392 36.696 181.392 39.032C181.392 41.368 179.472 43.256 177.168 43.256ZM201.039 31C199.983 31 199.343 31.832 199.343 32.824V32.984C197.967 31.864 196.367 31.128 194.447 31.128C190.159 31.128 186.703 34.616 186.703 38.872C186.703 43.128 190.159 46.584 194.447 46.584C196.367 46.584 197.967 45.88 199.343 44.696V45.08C199.343 46.072 199.983 46.904 201.039 46.904C202.095 46.904 202.895 46.072 202.895 45.08V32.824C202.895 31.832 202.095 31 201.039 31ZM194.447 42.84C192.239 42.84 190.415 41.08 190.415 38.872C190.415 36.664 192.239 34.872 194.447 34.872C196.623 34.872 198.447 36.664 198.447 38.872C198.447 41.08 196.623 42.84 194.447 42.84ZM211.633 47.064C209.585 47.064 207.537 46.232 206.481 45.24C205.713 44.536 205.649 43.32 206.385 42.552C207.089 41.752 208.305 41.72 209.073 42.424C209.649 42.968 211.793 43.704 213.009 42.904C213.329 42.712 213.521 42.36 213.521 42.008C213.521 41.56 213.137 41.24 212.817 41.112C212.529 40.952 212.017 40.952 211.441 40.952C210.673 40.952 209.809 40.92 208.913 40.6C207.249 40.056 205.905 38.328 205.777 36.664C205.617 34.648 206.481 33.4 207.217 32.696C208.817 31.224 211.153 31 212.849 31.288C214.129 31.512 215.089 31.96 215.889 32.696C216.657 33.4 216.721 34.616 216.017 35.384C215.601 35.832 214.993 36.056 214.385 35.992C214.097 35.96 213.809 35.864 213.553 35.704C213.105 35.384 212.785 35.16 212.209 35.064C211.249 34.904 209.457 34.968 209.585 36.344C209.617 36.504 209.905 36.92 210.161 37.016C210.481 37.112 210.961 37.112 211.473 37.112C212.305 37.144 213.361 37.144 214.417 37.624C216.177 38.424 217.329 40.152 217.329 42.008C217.329 43.64 216.497 45.176 215.121 46.104C214.033 46.808 212.849 47.064 211.633 47.064ZM225.289 47.064C223.241 47.064 221.193 46.232 220.137 45.24C219.369 44.536 219.305 43.32 220.041 42.552C220.745 41.752 221.961 41.72 222.729 42.424C223.305 42.968 225.449 43.704 226.665 42.904C226.985 42.712 227.177 42.36 227.177 42.008C227.177 41.56 226.793 41.24 226.473 41.112C226.185 40.952 225.673 40.952 225.097 40.952C224.329 40.952 223.465 40.92 222.569 40.6C220.905 40.056 219.561 38.328 219.433 36.664C219.273 34.648 220.137 33.4 220.873 32.696C222.473 31.224 224.809 31 226.505 31.288C227.785 31.512 228.745 31.96 229.545 32.696C230.313 33.4 230.377 34.616 229.673 35.384C229.257 35.832 228.649 36.056 228.041 35.992C227.753 35.96 227.465 35.864 227.209 35.704C226.761 35.384 226.441 35.16 225.865 35.064C224.905 34.904 223.113 34.968 223.241 36.344C223.273 36.504 223.561 36.92 223.817 37.016C224.137 37.112 224.617 37.112 225.129 37.112C225.961 37.144 227.017 37.144 228.073 37.624C229.833 38.424 230.985 40.152 230.985 42.008C230.985 43.64 230.153 45.176 228.777 46.104C227.689 46.808 226.505 47.064 225.289 47.064Z" fill="white"/>
</svg>
