<svg width="232" height="56" viewBox="0 0 232 56" fill="none" xmlns="http://www.w3.org/2000/svg">
<rect x="0.5" y="0.5" width="231" height="55" rx="5.5" fill="#F7FAFC" stroke="#A0AEC0" stroke-dasharray="2 2"/>
<path d="M64.6667 10.667H21.3333C18.9401 10.667 17 12.6071 17 15.0003V41.0003C17 43.3927 18.9401 45.3337 21.3333 45.3337H64.6667C67.0599 45.3337 69 43.3936 69 41.0003V15.0003C69 12.6071 67.059 10.667 64.6667 10.667ZM32.8076 19.3337C34.4038 19.3337 35.6965 20.6273 35.6965 22.2225C35.6965 23.8178 34.4038 25.1114 32.8076 25.1114C31.2124 25.1114 29.9188 23.8178 29.9188 22.2225C29.9188 20.6273 31.291 19.3337 32.8076 19.3337ZM57.2729 38.7975C57.0201 39.267 56.5326 39.5559 56 39.5559H30C29.4563 39.5559 28.9591 39.2508 28.7126 38.766C28.4662 38.2814 28.5127 37.6998 28.8329 37.2601L35.1523 28.5935C35.4257 28.217 35.859 28.0003 36.2382 28.0003C36.6995 28.0003 37.1332 28.2207 37.4055 28.5938L39.4232 31.3617L45.0872 22.8657C45.3562 22.4663 45.8076 22.2225 46.3674 22.2225C46.8502 22.2225 47.3008 22.4638 47.569 22.8658L57.2016 37.3102C57.4986 37.7503 57.5257 38.3191 57.2729 38.7975Z" fill="#2D3748"/>
<path d="M85.9631 37H82.5881L88.733 19.5455H92.6364L98.7898 37H95.4148L90.7528 23.125H90.6165L85.9631 37ZM86.0739 30.1562H95.2784V32.696H86.0739V30.1562ZM106.264 37.2557C104.957 37.2557 103.835 36.9688 102.898 36.3949C101.966 35.821 101.247 35.0284 100.741 34.017C100.241 33 99.9915 31.8295 99.9915 30.5057C99.9915 29.1761 100.247 28.0028 100.759 26.9858C101.27 25.9631 101.991 25.1676 102.923 24.5994C103.861 24.0256 104.969 23.7386 106.247 23.7386C107.31 23.7386 108.25 23.9347 109.068 24.3267C109.892 24.7131 110.548 25.2614 111.037 25.9716C111.526 26.6761 111.804 27.5 111.872 28.4432H108.923C108.804 27.8125 108.52 27.2869 108.071 26.8665C107.628 26.4403 107.034 26.2273 106.29 26.2273C105.659 26.2273 105.105 26.3977 104.628 26.7386C104.151 27.0739 103.778 27.5568 103.511 28.1875C103.25 28.8182 103.119 29.5739 103.119 30.4545C103.119 31.3466 103.25 32.1136 103.511 32.7557C103.773 33.392 104.139 33.8835 104.611 34.2301C105.088 34.571 105.648 34.7415 106.29 34.7415C106.744 34.7415 107.151 34.6562 107.509 34.4858C107.872 34.3097 108.176 34.0568 108.42 33.7273C108.665 33.3977 108.832 32.9972 108.923 32.5256H111.872C111.798 33.4517 111.526 34.2727 111.054 34.9886C110.582 35.6989 109.94 36.2557 109.128 36.6591C108.315 37.0568 107.361 37.2557 106.264 37.2557ZM114.406 37V23.9091H117.354V26.1335H117.508C117.781 25.3835 118.232 24.7983 118.863 24.3778C119.494 23.9517 120.246 23.7386 121.121 23.7386C122.008 23.7386 122.755 23.9545 123.363 24.3864C123.977 24.8125 124.408 25.3949 124.658 26.1335H124.795C125.085 25.4062 125.573 24.8267 126.261 24.3949C126.954 23.9574 127.775 23.7386 128.724 23.7386C129.928 23.7386 130.911 24.1193 131.673 24.8807C132.434 25.642 132.815 26.7528 132.815 28.2131V37H129.721V28.6903C129.721 27.8778 129.505 27.2841 129.073 26.9091C128.641 26.5284 128.113 26.3381 127.488 26.3381C126.744 26.3381 126.161 26.571 125.741 27.0369C125.326 27.4972 125.119 28.0966 125.119 28.8352V37H122.093V28.5625C122.093 27.8864 121.888 27.3466 121.479 26.9432C121.076 26.5398 120.548 26.3381 119.894 26.3381C119.451 26.3381 119.048 26.4517 118.684 26.679C118.32 26.9006 118.031 27.2159 117.815 27.625C117.599 28.0284 117.491 28.5 117.491 29.0398V37H114.406ZM141.74 37.2557C140.428 37.2557 139.294 36.983 138.339 36.4375C137.391 35.8864 136.661 35.108 136.149 34.1023C135.638 33.0909 135.382 31.9006 135.382 30.5312C135.382 29.1847 135.638 28.0028 136.149 26.9858C136.666 25.9631 137.388 25.1676 138.314 24.5994C139.24 24.0256 140.328 23.7386 141.578 23.7386C142.385 23.7386 143.146 23.8693 143.862 24.1307C144.584 24.3864 145.22 24.7841 145.771 25.3239C146.328 25.8636 146.766 26.5511 147.084 27.3864C147.402 28.2159 147.561 29.2045 147.561 30.3523V31.2983H136.831V29.2188H144.604C144.598 28.6278 144.47 28.1023 144.22 27.642C143.97 27.1761 143.621 26.8097 143.172 26.5426C142.729 26.2756 142.212 26.142 141.621 26.142C140.99 26.142 140.436 26.2955 139.959 26.6023C139.482 26.9034 139.109 27.3011 138.842 27.7955C138.581 28.2841 138.447 28.821 138.442 29.4062V31.2216C138.442 31.983 138.581 32.6364 138.859 33.1818C139.138 33.7216 139.527 34.1364 140.027 34.4261C140.527 34.7102 141.112 34.8523 141.783 34.8523C142.232 34.8523 142.638 34.7898 143.001 34.6648C143.365 34.5341 143.68 34.3438 143.947 34.0938C144.214 33.8438 144.416 33.5341 144.553 33.1648L147.433 33.4886C147.251 34.25 146.905 34.9148 146.393 35.483C145.888 36.0455 145.24 36.483 144.45 36.7955C143.661 37.1023 142.757 37.2557 141.74 37.2557ZM156.261 37V19.5455H159.423V34.3494H167.11V37H156.261ZM175.428 37.2557C174.15 37.2557 173.042 36.9744 172.104 36.4119C171.167 35.8494 170.44 35.0625 169.923 34.0511C169.411 33.0398 169.156 31.858 169.156 30.5057C169.156 29.1534 169.411 27.9687 169.923 26.9517C170.44 25.9347 171.167 25.1449 172.104 24.5824C173.042 24.0199 174.15 23.7386 175.428 23.7386C176.707 23.7386 177.815 24.0199 178.752 24.5824C179.69 25.1449 180.414 25.9347 180.925 26.9517C181.442 27.9687 181.701 29.1534 181.701 30.5057C181.701 31.858 181.442 33.0398 180.925 34.0511C180.414 35.0625 179.69 35.8494 178.752 36.4119C177.815 36.9744 176.707 37.2557 175.428 37.2557ZM175.445 34.7841C176.138 34.7841 176.718 34.5937 177.184 34.2131C177.65 33.8267 177.996 33.3097 178.224 32.6619C178.457 32.0142 178.573 31.2926 178.573 30.4972C178.573 29.696 178.457 28.9716 178.224 28.3239C177.996 27.6705 177.65 27.1506 177.184 26.7642C176.718 26.3778 176.138 26.1847 175.445 26.1847C174.735 26.1847 174.144 26.3778 173.673 26.7642C173.207 27.1506 172.857 27.6705 172.624 28.3239C172.397 28.9716 172.283 29.696 172.283 30.4972C172.283 31.2926 172.397 32.0142 172.624 32.6619C172.857 33.3097 173.207 33.8267 173.673 34.2131C174.144 34.5937 174.735 34.7841 175.445 34.7841ZM190.013 42.1818C188.905 42.1818 187.953 42.0313 187.158 41.7301C186.362 41.4347 185.723 41.0369 185.24 40.5369C184.757 40.0369 184.422 39.483 184.234 38.875L187.013 38.2017C187.138 38.4574 187.32 38.7102 187.558 38.9602C187.797 39.2159 188.118 39.4261 188.521 39.5909C188.93 39.7614 189.445 39.8466 190.064 39.8466C190.939 39.8466 191.663 39.6335 192.237 39.2074C192.811 38.7869 193.098 38.0938 193.098 37.1278V34.6477H192.945C192.786 34.9659 192.553 35.2926 192.246 35.6278C191.945 35.9631 191.544 36.2443 191.044 36.4716C190.55 36.6989 189.928 36.8125 189.178 36.8125C188.172 36.8125 187.26 36.5767 186.442 36.1051C185.629 35.6278 184.982 34.9176 184.499 33.9744C184.021 33.0256 183.783 31.8381 183.783 30.4119C183.783 28.9744 184.021 27.7614 184.499 26.7727C184.982 25.7784 185.632 25.0256 186.45 24.5142C187.268 23.9972 188.18 23.7386 189.186 23.7386C189.953 23.7386 190.584 23.8693 191.078 24.1307C191.578 24.3864 191.976 24.696 192.271 25.0597C192.567 25.4176 192.791 25.7557 192.945 26.0739H193.115V23.9091H196.158V37.2131C196.158 38.3324 195.891 39.2585 195.357 39.9915C194.822 40.7244 194.092 41.2727 193.166 41.6364C192.24 42 191.189 42.1818 190.013 42.1818ZM190.038 34.392C190.692 34.392 191.249 34.233 191.709 33.9148C192.169 33.5966 192.518 33.1392 192.757 32.5426C192.996 31.946 193.115 31.2301 193.115 30.3949C193.115 29.571 192.996 28.8494 192.757 28.2301C192.524 27.6108 192.178 27.1307 191.717 26.7898C191.263 26.4432 190.703 26.2699 190.038 26.2699C189.351 26.2699 188.777 26.4489 188.317 26.8068C187.857 27.1648 187.51 27.6562 187.277 28.2812C187.044 28.9006 186.928 29.6051 186.928 30.3949C186.928 31.196 187.044 31.8977 187.277 32.5C187.516 33.0966 187.865 33.5625 188.325 33.8977C188.791 34.2273 189.362 34.392 190.038 34.392ZM205.03 37.2557C203.751 37.2557 202.643 36.9744 201.706 36.4119C200.768 35.8494 200.041 35.0625 199.524 34.0511C199.013 33.0398 198.757 31.858 198.757 30.5057C198.757 29.1534 199.013 27.9687 199.524 26.9517C200.041 25.9347 200.768 25.1449 201.706 24.5824C202.643 24.0199 203.751 23.7386 205.03 23.7386C206.308 23.7386 207.416 24.0199 208.354 24.5824C209.291 25.1449 210.016 25.9347 210.527 26.9517C211.044 27.9687 211.303 29.1534 211.303 30.5057C211.303 31.858 211.044 33.0398 210.527 34.0511C210.016 35.0625 209.291 35.8494 208.354 36.4119C207.416 36.9744 206.308 37.2557 205.03 37.2557ZM205.047 34.7841C205.74 34.7841 206.32 34.5937 206.786 34.2131C207.251 33.8267 207.598 33.3097 207.825 32.6619C208.058 32.0142 208.175 31.2926 208.175 30.4972C208.175 29.696 208.058 28.9716 207.825 28.3239C207.598 27.6705 207.251 27.1506 206.786 26.7642C206.32 26.3778 205.74 26.1847 205.047 26.1847C204.337 26.1847 203.746 26.3778 203.274 26.7642C202.808 27.1506 202.459 27.6705 202.226 28.3239C201.999 28.9716 201.885 29.696 201.885 30.4972C201.885 31.2926 201.999 32.0142 202.226 32.6619C202.459 33.3097 202.808 33.8267 203.274 34.2131C203.746 34.5937 204.337 34.7841 205.047 34.7841Z" fill="#2D3748"/>
</svg>
