<svg width="32" height="32" viewBox="0 0 32 32" fill="none" xmlns="http://www.w3.org/2000/svg">
<path fill-rule="evenodd" clip-rule="evenodd" d="M8.2526 22.7971L8.27566 22.8668C8.30549 22.9573 8.33793 23.0494 8.37178 23.1406C8.41701 23.262 8.46588 23.3838 8.51692 23.5026C8.56743 23.6201 8.62211 23.7392 8.67955 23.8566C8.73683 23.9734 8.79716 24.0892 8.85884 24.2009C8.92081 24.3132 8.98657 24.4258 9.05435 24.5357C9.12197 24.6452 9.19302 24.7543 9.26548 24.8598C9.33846 24.9663 9.41464 25.0718 9.49186 25.1733C9.56878 25.2747 9.64995 25.3764 9.73305 25.4755C9.81481 25.5733 9.90081 25.6711 9.98837 25.766C10.0748 25.8598 10.1653 25.9533 10.2573 26.0439C10.3487 26.1341 10.4437 26.2232 10.5393 26.3089C10.635 26.3946 10.7341 26.4792 10.8339 26.5604C10.9338 26.6418 11.037 26.7217 11.1406 26.7981C11.244 26.8744 11.3511 26.9494 11.4587 27.0212C11.5666 27.093 11.6773 27.1631 11.7878 27.2293C11.8991 27.296 12.0133 27.3608 12.1272 27.4218C12.2425 27.4836 12.3601 27.543 12.4767 27.5984C12.5943 27.6544 12.7152 27.7083 12.8359 27.7587C12.9567 27.8092 13.0804 27.8573 13.2036 27.9019C13.3274 27.9467 13.454 27.989 13.5801 28.0277C13.7069 28.0666 13.8361 28.1027 13.964 28.1353C14.0927 28.1681 14.2245 28.198 14.3558 28.2247C14.4867 28.2511 14.6209 28.2748 14.7545 28.295C14.8886 28.3152 15.0249 28.3324 15.1596 28.3458C15.296 28.3595 15.4345 28.37 15.5711 28.3768C15.8482 28.3906 16.129 28.3906 16.4055 28.3768C16.5419 28.37 16.6802 28.3595 16.8168 28.3458C16.9513 28.3324 17.0875 28.3153 17.2219 28.295C17.3557 28.2747 17.4898 28.2511 17.6207 28.2247C17.7519 28.198 17.8836 28.1681 18.0123 28.1353C18.1404 28.1028 18.2696 28.0665 18.3967 28.0276C18.5227 27.9888 18.6492 27.9465 18.7727 27.9019C18.8955 27.8575 19.0193 27.8093 19.1408 27.7587C19.2616 27.7082 19.3823 27.6543 19.4994 27.5985C19.6162 27.543 19.7339 27.4836 19.849 27.4218C19.963 27.3608 20.0772 27.296 20.1886 27.2293C20.2991 27.1631 20.4099 27.093 20.5179 27.0211C20.6252 26.9496 20.7322 26.8745 20.8362 26.7979C20.9398 26.7215 21.0427 26.6416 21.1425 26.5605C21.2423 26.4792 21.3415 26.3946 21.4372 26.3089C21.4599 26.2886 21.5055 26.2468 21.5055 26.2468L21.56 26.1971L22.6748 27.3782L22.5387 27.5018C22.4231 27.6053 22.3039 27.7069 22.1845 27.8042C22.0647 27.9017 21.941 27.9975 21.8167 28.0892C21.6915 28.1814 21.563 28.2716 21.4346 28.3571C21.306 28.4428 21.173 28.5269 21.0392 28.6071C20.9052 28.6875 20.7678 28.7653 20.6309 28.8387C20.4928 28.9127 20.3513 28.9842 20.2106 29.0512C20.0692 29.1184 19.9241 29.1832 19.7792 29.2437C19.6328 29.3047 19.4839 29.3627 19.3364 29.416C19.1886 29.4695 19.0364 29.5203 18.8837 29.5673C18.7309 29.6142 18.5752 29.6578 18.421 29.697C18.2654 29.7366 18.1069 29.7727 17.9497 29.8045C17.7912 29.8365 17.6298 29.865 17.4699 29.8892C17.3092 29.9135 17.1452 29.934 16.9826 29.9504C16.8188 29.9668 16.6526 29.9793 16.4885 29.9875C16.3219 29.9958 16.1537 30 15.9882 30C15.8227 30 15.6545 29.9958 15.4881 29.9875C15.3239 29.9793 15.1577 29.9668 14.9939 29.9504C14.8312 29.934 14.6673 29.9135 14.5065 29.8892C14.3465 29.865 14.1851 29.8365 14.0268 29.8045C13.8695 29.7727 13.7109 29.7365 13.5554 29.697C13.4011 29.6578 13.2456 29.6142 13.093 29.5673C12.9405 29.5204 12.7881 29.4695 12.6399 29.416C12.492 29.3625 12.3432 29.3045 12.1975 29.2437C12.0527 29.1833 11.9073 29.1185 11.7656 29.051C11.625 28.9842 11.4836 28.9127 11.3454 28.8386C11.2085 28.7653 11.0712 28.6875 10.9372 28.6072C10.8041 28.5274 10.6712 28.4433 10.542 28.3573C10.4132 28.2714 10.2847 28.1813 10.1601 28.0895C10.0358 27.9978 9.91189 27.9018 9.79182 27.8041C9.67175 27.7064 9.55279 27.6048 9.4383 27.5023C9.32306 27.399 9.20923 27.292 9.09987 27.1843C8.9891 27.0751 8.88056 26.9629 8.77723 26.8508C8.67263 26.7374 8.56959 26.6202 8.47087 26.5024C8.37155 26.3839 8.27417 26.2618 8.1814 26.1397C8.08908 26.0181 7.99772 25.8915 7.90971 25.7633C7.82207 25.6357 7.73674 25.5046 7.65588 25.3735C7.57397 25.2409 7.49504 25.1057 7.42109 24.9715C7.34662 24.8367 7.27408 24.6974 7.20557 24.5576C7.13727 24.4182 7.07151 24.275 7.00998 24.1319C6.94883 23.9899 6.89006 23.8432 6.8353 23.6962C6.79483 23.5875 6.75585 23.4766 6.71947 23.3667L6.69641 23.297L8.2526 22.7971ZM22.7779 12.2464V20.3854C22.7779 20.6124 22.7661 20.8414 22.7428 21.066C22.7199 21.2878 22.6853 21.5106 22.6399 21.7282C22.5951 21.9433 22.5387 22.1586 22.4724 22.3679C22.4068 22.5751 22.3299 22.7815 22.2439 22.9813C22.1587 23.1794 22.0625 23.3757 21.958 23.5646C21.8546 23.7521 21.7402 23.9372 21.6182 24.1147C21.4972 24.291 21.3659 24.4637 21.228 24.6281C21.0906 24.7919 20.9435 24.9513 20.7907 25.1017C20.6381 25.2519 20.4764 25.3967 20.3097 25.5322C20.1431 25.6677 19.9676 25.7969 19.7882 25.9163C19.6083 26.0361 19.4202 26.1487 19.2293 26.251C19.0374 26.3538 18.838 26.4485 18.6366 26.5325C18.4336 26.6171 18.2239 26.6928 18.0138 26.7573C17.8008 26.8227 17.5822 26.8781 17.364 26.9221C17.1433 26.9668 16.9171 27.0009 16.6915 27.0235C16.4633 27.0464 16.2306 27.058 16 27.058C15.7694 27.058 15.5367 27.0464 15.3086 27.0235C15.0828 27.0009 14.8564 26.9668 14.6358 26.9221C14.4178 26.8781 14.1992 26.8227 13.9862 26.7573C13.7759 26.6928 13.5662 26.6171 13.3632 26.5324C13.1619 26.4485 12.9625 26.3538 12.7705 26.2509C12.5797 26.1487 12.3919 26.0363 12.2119 25.9165C12.0322 25.7968 11.8567 25.6675 11.6903 25.5322C11.5236 25.3968 11.3618 25.2519 11.2092 25.1017C11.0564 24.9512 10.9093 24.792 10.772 24.6282C10.6341 24.4639 10.5028 24.291 10.3816 24.1145C10.2597 23.9371 10.1453 23.7521 10.0417 23.5644C9.93736 23.3755 9.8412 23.1793 9.75599 22.9813C9.67004 22.7815 9.59302 22.5751 9.52748 22.3678C9.46126 22.1587 9.40488 21.9436 9.36004 21.7284C9.31461 21.5105 9.27997 21.2877 9.25711 21.066C9.23379 20.8414 9.22203 20.6124 9.22203 20.3854V17.3791H10.8606V20.3854C10.8606 20.5577 10.8696 20.7317 10.8872 20.9027C10.9046 21.0701 10.9308 21.2389 10.9651 21.4042C10.9993 21.5674 11.0419 21.7301 11.0918 21.8879C11.1412 22.0439 11.1994 22.2 11.2647 22.3519C11.3292 22.5017 11.4021 22.6504 11.4813 22.7938C11.5598 22.936 11.6465 23.0763 11.739 23.2111C11.8312 23.3453 11.931 23.4764 12.0355 23.6011C12.1399 23.7255 12.2517 23.8466 12.3679 23.961C12.4835 24.0749 12.6065 24.185 12.7336 24.2883C12.8603 24.3913 12.9936 24.4895 13.1298 24.5802C13.2664 24.6711 13.409 24.7565 13.5535 24.8338C13.6991 24.9118 13.8502 24.9835 14.0023 25.047C14.1559 25.1111 14.3146 25.1684 14.4739 25.2172C14.6347 25.2666 14.8 25.3085 14.9652 25.342C15.1321 25.3757 15.3034 25.4015 15.4747 25.4187C15.8234 25.4536 16.1769 25.4536 16.5254 25.4187C16.6964 25.4015 16.8677 25.3757 17.0345 25.342C17.1999 25.3085 17.3654 25.2666 17.5261 25.2172C17.6853 25.1684 17.8439 25.1111 17.9974 25.047C18.1496 24.9836 18.3007 24.9119 18.4463 24.8339C18.5911 24.7564 18.7338 24.671 18.8704 24.58C19.0063 24.4896 19.1395 24.3914 19.2664 24.2883C19.3935 24.185 19.5164 24.0748 19.632 23.9611C19.7481 23.8466 19.86 23.7255 19.9644 23.601C20.069 23.4764 20.1688 23.3453 20.2607 23.2112C20.3534 23.0764 20.4401 22.936 20.5184 22.794C20.5978 22.6505 20.6707 22.5017 20.7352 22.3519C20.8005 22.2 20.8586 22.044 20.9081 21.8879C20.958 21.73 21.0007 21.5671 21.0348 21.4039C21.0691 21.239 21.0953 21.0703 21.1127 20.9027C21.1303 20.7317 21.1393 20.5577 21.1393 20.3854V12.2464H22.7779ZM25.7674 16.6594V20.3964C25.7674 20.5601 25.7631 20.7258 25.7547 20.889C25.7462 21.0521 25.7335 21.216 25.7169 21.3761C25.7004 21.536 25.6794 21.6973 25.6547 21.8556C25.6301 22.0135 25.6012 22.1726 25.5687 22.3282C25.5361 22.4842 25.4993 22.6404 25.4595 22.7926C25.4192 22.946 25.3748 23.0993 25.3275 23.2483C25.2801 23.398 25.2284 23.548 25.1739 23.6941C25.1189 23.8415 25.0599 23.9883 24.9986 24.1304C24.937 24.2733 24.8712 24.4163 24.8029 24.5554C24.7344 24.695 24.6618 24.8342 24.587 24.9693C24.5131 25.1031 24.434 25.2383 24.3518 25.3711C24.2712 25.5016 24.1857 25.6327 24.0976 25.7607C24.0093 25.8892 23.9177 26.0157 23.8254 26.137L23.7807 26.1957L22.4686 25.2295L22.5132 25.1709C22.5903 25.0696 22.6666 24.9642 22.7398 24.8577C22.8127 24.7517 22.8838 24.6428 22.9513 24.5337C23.0191 24.4239 23.085 24.3113 23.1472 24.199C23.2091 24.0871 23.2695 23.9712 23.3267 23.8546C23.3836 23.7389 23.4382 23.62 23.4894 23.5013C23.5405 23.3825 23.5896 23.2605 23.6352 23.1386C23.6804 23.0174 23.7233 22.8929 23.7627 22.7684C23.8017 22.6456 23.8386 22.5182 23.8723 22.3899C23.9058 22.2623 23.9362 22.1326 23.963 22.0042C23.99 21.8752 24.014 21.7431 24.0346 21.6113C24.0552 21.4785 24.0726 21.3443 24.0862 21.2125C24.1 21.0791 24.1107 20.9427 24.1176 20.807C24.1247 20.6716 24.1282 20.5335 24.1282 20.3964V16.6594H25.7674ZM12.4038 10.4203L13.9646 10.8976L13.9425 10.9675C13.9216 11.0341 13.9038 11.1025 13.8894 11.171C13.8751 11.2402 13.8641 11.311 13.8568 11.3816C13.8494 11.4539 13.8458 11.5273 13.8458 11.5995V20.383C13.8458 20.4552 13.8495 20.5287 13.8569 20.6015C13.8641 20.6715 13.8751 20.7422 13.8894 20.8115C13.9038 20.88 13.9216 20.9484 13.9425 21.0149C13.963 21.0799 13.9873 21.1452 14.0147 21.2091C14.0418 21.2721 14.0722 21.3344 14.1052 21.394C14.1382 21.4539 14.1745 21.5128 14.2132 21.5693C14.2515 21.6252 14.2934 21.6803 14.3376 21.7331C14.3813 21.7853 14.428 21.8359 14.4766 21.8838C14.5254 21.9319 14.5768 21.978 14.6297 22.021C14.6827 22.0641 14.7386 22.1053 14.7959 22.1435C14.8536 22.1818 14.9134 22.2176 14.9736 22.2498C15.0346 22.2826 15.0979 22.3126 15.1614 22.3391C15.2258 22.3658 15.2923 22.3899 15.359 22.4104C15.4263 22.431 15.4956 22.4485 15.565 22.4625C15.6349 22.4767 15.7068 22.4874 15.7788 22.4946C15.9234 22.5091 16.0764 22.5091 16.221 22.4946C16.2929 22.4874 16.365 22.4766 16.4351 22.4625C16.5044 22.4485 16.5736 22.431 16.6406 22.4104C16.7075 22.3899 16.774 22.3659 16.838 22.3392C16.9018 22.3126 16.9652 22.2826 17.0262 22.2498C17.0866 22.2176 17.1462 22.1819 17.2037 22.1436C17.2611 22.1054 17.3169 22.0643 17.3695 22.0214C17.4229 21.9781 17.4745 21.9319 17.523 21.884C17.5717 21.8361 17.6187 21.7852 17.6626 21.7327C17.7066 21.6802 17.7484 21.6252 17.7868 21.5692C17.8253 21.5129 17.8616 21.4541 17.8945 21.3943C17.9276 21.3344 17.9581 21.272 17.9852 21.209C18.0125 21.1452 18.0369 21.0797 18.0574 21.0144C18.0783 20.9482 18.0961 20.8799 18.1104 20.8115C18.1247 20.7423 18.1358 20.6714 18.143 20.6009C18.1504 20.5285 18.1542 20.4552 18.1542 20.383V18.8459H19.7884V20.383C19.7884 20.5097 19.7818 20.6376 19.7689 20.7632C19.756 20.8878 19.7367 21.0128 19.7113 21.1346C19.6865 21.2546 19.655 21.3749 19.6181 21.4922C19.5814 21.6084 19.5384 21.7241 19.4903 21.8362C19.4429 21.9467 19.3892 22.0567 19.3306 22.163C19.2727 22.2679 19.2089 22.3714 19.1409 22.4707C19.0736 22.5687 19.0005 22.6652 18.9232 22.7575C18.8458 22.8498 18.7636 22.939 18.6786 23.0227C18.5936 23.1065 18.5031 23.1875 18.4098 23.2634C18.3169 23.339 18.2189 23.4112 18.1184 23.478C18.0178 23.545 17.9127 23.608 17.8062 23.6649C17.6985 23.7226 17.5869 23.7755 17.4744 23.8224C17.3614 23.8695 17.2442 23.9118 17.1262 23.948C17.0073 23.9844 16.885 24.0154 16.7628 24.04C16.6387 24.065 16.5121 24.084 16.3864 24.0966C16.2588 24.1094 16.1288 24.1159 16 24.1159C15.8711 24.1159 15.7411 24.1094 15.6135 24.0967C15.4876 24.084 15.3611 24.065 15.2374 24.0401C15.115 24.0155 14.9926 23.9844 14.8736 23.948C14.7556 23.9117 14.6383 23.8694 14.5249 23.8221C14.4128 23.7754 14.3013 23.7226 14.1936 23.6649C14.0872 23.608 13.9821 23.545 13.8811 23.4778C13.7808 23.4111 13.6827 23.3388 13.5896 23.263C13.4966 23.1874 13.4063 23.1065 13.3209 23.0224C13.2361 22.9388 13.154 22.8498 13.077 22.7579C12.9995 22.6654 12.9262 22.5687 12.8589 22.4706C12.7909 22.3713 12.7271 22.2678 12.6692 22.1627C12.6107 22.0567 12.557 21.9468 12.5096 21.8361C12.4614 21.7241 12.4185 21.6085 12.3819 21.4927C12.3449 21.3752 12.3134 21.2547 12.2885 21.1346C12.2632 21.0127 12.2438 20.888 12.231 20.7638C12.2181 20.6379 12.2115 20.5098 12.2115 20.383V11.5995C12.2115 11.4728 12.218 11.3448 12.2309 11.2192C12.2438 11.0946 12.2632 10.9697 12.2885 10.8479C12.3134 10.7279 12.3449 10.6075 12.3818 10.4902L12.4038 10.4203ZM15.4958 2.01247C15.8287 1.99584 16.1659 1.99584 16.4983 2.01247C16.6627 2.02068 16.8294 2.03314 16.9935 2.04955C17.1564 2.06589 17.3207 2.08648 17.4818 2.1108C17.6421 2.13491 17.8038 2.16341 17.9624 2.19535C18.12 2.22715 18.2789 2.26327 18.4348 2.30277C18.5893 2.34196 18.7452 2.38556 18.898 2.43238C19.0504 2.47912 19.203 2.52997 19.3519 2.5836C19.5 2.63702 19.6492 2.69497 19.7953 2.75579C19.9403 2.81623 20.086 2.88108 20.228 2.94841C20.3689 3.01523 20.5106 3.0866 20.6491 3.16067L20.7146 3.19562L19.9309 4.61169L19.8655 4.57666C19.7501 4.51497 19.6323 4.45562 19.5155 4.40023C19.3977 4.34433 19.2766 4.2904 19.1557 4.23999C19.0345 4.18951 18.9105 4.14137 18.7871 4.09697C18.6632 4.05228 18.5364 4.01 18.41 3.97124C18.283 3.93234 18.1535 3.89614 18.0253 3.86369C17.8963 3.83093 17.7643 3.80089 17.6327 3.77437C17.5016 3.74792 17.3672 3.72425 17.2333 3.70403C17.099 3.68381 16.9624 3.66674 16.8273 3.65326C16.6907 3.63956 16.552 3.62908 16.4151 3.62226C16.1375 3.60849 15.8561 3.60849 15.579 3.62226C15.4424 3.62908 15.3038 3.63956 15.167 3.65318C15.0321 3.66667 14.8957 3.68381 14.7611 3.70403C14.6271 3.72425 14.4926 3.74792 14.3615 3.77437C14.2301 3.80089 14.098 3.83093 13.9691 3.86361C13.8409 3.89614 13.7114 3.93234 13.584 3.97132C13.4577 4.01 13.331 4.05228 13.2073 4.09697C13.0843 4.1413 12.9602 4.18944 12.8385 4.24007C12.7174 4.29055 12.5965 4.3444 12.4791 4.40009C12.3621 4.45555 12.2442 4.51497 12.1288 4.57666C12.0146 4.6377 11.9002 4.70247 11.7886 4.76921C11.6779 4.83538 11.5669 4.90542 11.4586 4.9773C11.3512 5.04866 11.2439 5.12376 11.1398 5.20033C11.036 5.27667 10.9328 5.35654 10.8329 5.43765C10.7324 5.51912 10.633 5.60375 10.5376 5.6891C10.4416 5.77476 10.3466 5.86385 10.2551 5.9539C10.163 6.04439 10.0724 6.1378 9.9856 6.23166C9.89794 6.32647 9.81185 6.42407 9.72993 6.52173C9.64645 6.62116 9.5652 6.72278 9.48835 6.82375C9.41113 6.92508 9.3348 7.03051 9.26138 7.13712C9.18855 7.24306 9.11737 7.35209 9.04991 7.46119C8.98185 7.57116 8.91596 7.6837 8.85387 7.7958C8.79208 7.90761 8.73155 8.02345 8.6743 8.14009C8.61683 8.25711 8.56205 8.37602 8.51151 8.4934C8.4603 8.61217 8.41125 8.73416 8.36571 8.85608C8.32039 8.97734 8.27746 9.10182 8.2381 9.22623C8.19912 9.3491 8.16214 9.47645 8.12838 9.60481C8.09498 9.7323 8.0645 9.86206 8.03766 9.99043C8.01075 10.1194 7.98668 10.2516 7.96611 10.3834C7.94546 10.5161 7.92809 10.6503 7.91445 10.7821C7.90066 10.9155 7.89 11.0519 7.88299 11.1876C7.87599 11.323 7.87241 11.4611 7.87241 11.5982V20.3905C7.87241 20.5274 7.87599 20.6657 7.88299 20.8015C7.89008 20.9372 7.90066 21.0734 7.91445 21.2061C7.92272 21.2867 7.93226 21.3664 7.94292 21.4456L7.95276 21.5183L6.32691 21.7292L6.31715 21.6565C6.3044 21.5613 6.29292 21.4657 6.28293 21.3697C6.26638 21.2098 6.25371 21.0462 6.24522 20.8835C6.23679 20.7199 6.23254 20.5541 6.23254 20.3905V11.5982C6.23254 11.4345 6.23679 11.2687 6.24522 11.1056C6.25371 10.9425 6.26646 10.7787 6.28301 10.6185C6.29955 10.4586 6.3205 10.2973 6.34517 10.1391C6.36985 9.98112 6.39877 9.82206 6.43134 9.66643C6.46384 9.51044 6.50066 9.35423 6.54069 9.20213C6.58087 9.0487 6.62522 8.89535 6.67262 8.74639C6.72003 8.59671 6.77176 8.44673 6.82632 8.30063C6.88148 8.15299 6.94044 8.00623 7.00164 7.86438C7.06314 7.72166 7.12903 7.57871 7.19746 7.43942C7.26596 7.29992 7.33863 7.16064 7.4134 7.02553C7.48741 6.89181 7.5665 6.75663 7.64872 6.6238C7.72944 6.49323 7.81494 6.36215 7.90305 6.23415C7.99137 6.10579 8.08306 5.97918 8.17541 5.85792C8.26799 5.73622 8.36556 5.6143 8.4653 5.49553C8.56421 5.37779 8.66745 5.26063 8.77217 5.14743C8.87549 5.03569 8.98424 4.92359 9.09538 4.8142C9.20488 4.70657 9.31892 4.59967 9.43446 4.49636C9.54992 4.39327 9.66903 4.29172 9.78882 4.19457C9.9089 4.09719 10.0329 4.00136 10.1573 3.9097C10.2828 3.81753 10.4115 3.72748 10.5402 3.6419C10.6696 3.55588 10.8029 3.47184 10.9364 3.39205C11.0706 3.31175 11.2083 3.23394 11.3454 3.1606C11.4838 3.0866 11.6255 3.01516 11.7666 2.94826C11.9082 2.88115 12.0535 2.81638 12.1988 2.75586C12.3454 2.6949 12.4945 2.63694 12.6424 2.5836C12.7913 2.52997 12.944 2.47912 13.0961 2.43245C13.2492 2.38556 13.4051 2.34196 13.5597 2.30277C13.7155 2.26327 13.8743 2.22715 14.0319 2.19535C14.1904 2.16341 14.352 2.13491 14.5126 2.11073C14.674 2.0864 14.8383 2.06589 15.0009 2.04955C15.165 2.03314 15.3315 2.02068 15.4958 2.01247ZM15.9742 10.7754C16.4289 10.7754 16.7989 11.1367 16.7989 11.5809V20.3684C16.7989 20.8125 16.4289 21.1739 15.9742 21.1739C15.5195 21.1739 15.1495 20.8125 15.1495 20.3684V11.5809C15.1495 11.1367 15.5195 10.7754 15.9742 10.7754ZM15.592 7.85268C15.8498 7.82691 16.1112 7.82691 16.3689 7.85268C16.4954 7.8653 16.6226 7.88438 16.7469 7.90934C16.8699 7.93415 16.993 7.96519 17.1126 8.00182C17.2312 8.03808 17.3491 8.0805 17.463 8.12799C17.5758 8.17474 17.6878 8.22781 17.796 8.28557C17.9031 8.34275 18.0087 8.40587 18.1101 8.47325C18.211 8.54011 18.3096 8.61263 18.4032 8.68866C18.4966 8.76441 18.5875 8.84559 18.6732 8.92985C18.7585 9.01374 18.841 9.10292 18.9185 9.1951C18.9963 9.28795 19.07 9.38483 19.1376 9.48326C19.206 9.58271 19.2702 9.68664 19.3284 9.79204C19.3871 9.89824 19.4411 10.0084 19.4887 10.1194C19.5372 10.2318 19.5804 10.3477 19.6171 10.4638C19.6543 10.5817 19.6859 10.7025 19.711 10.8229C19.7365 10.9451 19.7558 11.0702 19.7687 11.1947C19.7817 11.321 19.7884 11.4495 19.7884 11.5766V17.5218H18.1458V11.5766C18.1458 11.5042 18.1419 11.4304 18.1346 11.3574C18.1273 11.2873 18.1163 11.2164 18.1018 11.1469C18.0874 11.0782 18.0695 11.0095 18.0484 10.9429C18.0279 10.8778 18.0034 10.8123 17.976 10.7483C17.9486 10.6851 17.918 10.6226 17.8849 10.5628C17.8518 10.5027 17.8153 10.4436 17.7765 10.3871C17.7379 10.3309 17.6958 10.2757 17.6514 10.2227C17.6075 10.1705 17.5605 10.1196 17.5117 10.0717C17.4626 10.0235 17.4108 9.97715 17.3577 9.93406C17.3044 9.89076 17.2483 9.84951 17.1907 9.81127C17.1327 9.77274 17.0726 9.73685 17.012 9.70455C16.9507 9.67174 16.8872 9.64172 16.8233 9.61515C16.7586 9.58829 16.6917 9.56422 16.6247 9.54366C16.557 9.52297 16.4874 9.50535 16.4176 9.49133C16.3473 9.47717 16.275 9.46638 16.2028 9.45911C16.0573 9.44458 15.9036 9.44465 15.7582 9.45911C15.686 9.46638 15.6136 9.47717 15.5431 9.49133C15.4734 9.50542 15.4038 9.52297 15.3365 9.54359C15.2693 9.56422 15.2025 9.58822 15.1381 9.61493C15.0739 9.64165 15.0103 9.67174 14.9489 9.70455C14.8883 9.73692 14.8282 9.77274 14.7705 9.81105C14.7127 9.84944 14.6567 9.89061 14.6038 9.93362L14.5462 9.98045L13.5001 8.73542L13.5578 8.68866C13.6515 8.61263 13.7501 8.54004 13.851 8.47303C13.9522 8.40579 14.0579 8.34275 14.1649 8.28557C14.2732 8.22781 14.3853 8.17467 14.4984 8.12777C14.612 8.08043 14.7298 8.03808 14.8485 8.00174C14.9679 7.96527 15.0908 7.93422 15.2137 7.90941C15.3384 7.88438 15.4656 7.8653 15.592 7.85268ZM15.3077 4.9766C15.7663 4.93057 16.2314 4.9305 16.6903 4.9766C16.8052 4.9882 16.9211 5.00274 17.0346 5.01999L17.1081 5.03123L16.8586 6.62753L16.785 6.6163C16.6985 6.60323 16.6108 6.59214 16.5242 6.58341C16.1757 6.54853 15.8221 6.54861 15.4737 6.58348C15.3027 6.60073 15.1314 6.6265 14.9646 6.66027C14.7992 6.69375 14.6339 6.73575 14.4731 6.78516C14.3138 6.83412 14.1553 6.89146 14.0018 6.95556C13.8496 7.01906 13.6987 7.09086 13.553 7.16898C13.4083 7.24658 13.2656 7.33211 13.129 7.42322C12.9932 7.51374 12.86 7.61198 12.733 7.71535C12.606 7.81872 12.4831 7.92892 12.3675 8.04286C12.2514 8.15746 12.1395 8.27875 12.0351 8.40341C11.9305 8.52822 11.8308 8.65949 11.7388 8.79369C11.6462 8.92871 11.5594 9.06923 11.4812 9.21144C11.4018 9.35511 11.3289 9.504 11.2645 9.65414C11.1991 9.80619 11.141 9.96249 11.0916 10.1186C11.0413 10.2774 10.9988 10.4404 10.9649 10.6032C10.9306 10.7684 10.9044 10.9372 10.887 11.1052C10.8694 11.2764 10.8604 11.4506 10.8604 11.623V16.1015H9.22203V11.623C9.22203 11.3957 9.23379 11.1665 9.25703 10.9416C9.27989 10.7202 9.31452 10.4971 9.35995 10.2787C9.40478 10.0632 9.46116 9.84767 9.52737 9.63806C9.59305 9.43059 9.66991 9.22399 9.75592 9.02393C9.84112 8.82556 9.93734 8.62902 10.0418 8.43975C10.1452 8.2521 10.2595 8.06679 10.3816 7.88898C10.5024 7.7127 10.6337 7.53973 10.7716 7.37499C10.9091 7.21105 11.0561 7.05151 11.2089 6.90079C11.3614 6.75043 11.5232 6.60543 11.6898 6.46983C11.8565 6.33423 12.0319 6.20479 12.2112 6.0852C12.3912 5.96524 12.5793 5.85254 12.7701 5.7502C12.962 5.64719 13.1614 5.55241 13.3627 5.46835C13.5657 5.38348 13.7753 5.30779 13.9855 5.24318C14.1985 5.17777 14.417 5.12219 14.6352 5.07814C14.8558 5.03343 15.0821 4.99929 15.3077 4.9766ZM22.1682 4.13046L22.2255 4.17715C22.3447 4.27451 22.4634 4.3762 22.5784 4.4795C22.6934 4.58295 22.8069 4.69007 22.9161 4.798C23.027 4.90776 23.1353 5.02017 23.238 5.13199C23.3424 5.2455 23.4452 5.36289 23.5437 5.48088C23.6429 5.59968 23.74 5.72185 23.8325 5.84424C23.9247 5.9659 24.0159 6.09269 24.1037 6.22118C24.1912 6.34893 24.2763 6.48021 24.357 6.61148C24.4388 6.74467 24.5177 6.88013 24.5913 7.01405C24.6656 7.14907 24.7379 7.28857 24.8064 7.42865C24.8746 7.56852 24.9402 7.71191 25.0016 7.85493C25.0624 7.997 25.1211 8.14384 25.1759 8.29134C25.2304 8.43804 25.2819 8.58855 25.3292 8.73877C25.3762 8.88759 25.4204 9.04119 25.4606 9.195C25.5003 9.3475 25.537 9.50403 25.5694 9.66034C25.6018 9.81636 25.6306 9.97561 25.6551 10.1335C25.6797 10.2926 25.7006 10.4545 25.7171 10.6147C25.7336 10.7746 25.7463 10.9386 25.7548 11.1021C25.7631 11.266 25.7674 11.4321 25.7674 11.5961V15.3406H24.1342V11.5961C24.1342 11.4588 24.1306 11.3203 24.1235 11.1843C24.1166 11.0483 24.106 10.9118 24.0922 10.7787C24.0787 10.6465 24.0613 10.5117 24.0408 10.3782C24.0204 10.2466 23.9963 10.1143 23.9695 9.98508C23.9428 9.85638 23.9125 9.72635 23.8791 9.59852C23.8454 9.46982 23.8088 9.34229 23.7701 9.2196C23.7307 9.09471 23.6878 8.96975 23.6427 8.84802C23.5974 8.72621 23.5487 8.60419 23.4978 8.48517C23.4474 8.36748 23.3928 8.24825 23.3355 8.1307C23.2783 8.01374 23.2181 7.89766 23.1566 7.78584C23.0947 7.67329 23.0291 7.56052 22.9614 7.45061C22.8942 7.34121 22.8233 7.23203 22.7508 7.12601C22.678 7.01941 22.602 6.91376 22.5249 6.812C22.4481 6.71053 22.3672 6.60862 22.2842 6.50928C22.2026 6.41141 22.1168 6.31354 22.0294 6.21839C21.9432 6.12456 21.8528 6.03087 21.7611 5.94005C21.6698 5.84975 21.5751 5.76054 21.4796 5.67471C21.3842 5.58881 21.2853 5.50408 21.1857 5.42281L21.1285 5.37611L22.1682 4.13046ZM18.8325 5.50002L18.8996 5.53132C19.0186 5.5867 19.1375 5.64642 19.2532 5.70872C19.4429 5.81097 19.63 5.92366 19.8092 6.04361C19.988 6.16357 20.1627 6.29308 20.3284 6.42868C20.4942 6.56436 20.6554 6.70944 20.8074 6.86003C20.9594 7.01069 21.1058 7.17031 21.2426 7.33427C21.3799 7.49904 21.5105 7.67218 21.6311 7.84892C21.7525 8.02662 21.8663 8.21203 21.9695 8.4C22.0733 8.58923 22.169 8.78581 22.2539 8.98422C22.3395 9.18439 22.416 9.39118 22.4814 9.59877C22.5473 9.80827 22.6033 10.0238 22.648 10.2394C22.6743 10.3664 22.6971 10.4956 22.7157 10.6234L22.7263 10.6961L21.112 10.9276L21.1015 10.8549C21.0872 10.7582 21.07 10.6604 21.0502 10.5641C21.0164 10.4014 20.974 10.2384 20.9241 10.0796C20.875 9.92331 20.8171 9.76691 20.752 9.61478C20.6878 9.46471 20.6153 9.31573 20.5364 9.17205C20.4583 9.02961 20.372 8.88902 20.2799 8.754C20.1881 8.61957 20.0888 8.48815 19.9847 8.36328C19.8809 8.23862 19.7696 8.11734 19.6538 8.00267C19.5387 7.88859 19.4163 7.77833 19.2899 7.67483C19.1635 7.57154 19.0308 7.47311 18.8954 7.38239C18.7596 7.29137 18.6177 7.20594 18.4736 7.1283C18.3856 7.08084 18.2956 7.03574 18.2061 6.99409L18.139 6.96287L18.8325 5.50002Z" fill="#404583"/>
</svg>
