<svg width="83" height="26" viewBox="0 0 83 26" fill="none" xmlns="http://www.w3.org/2000/svg">
<path fill-rule="evenodd" clip-rule="evenodd" d="M79.5724 21.8082C79.2575 21.9004 78.5607 21.9911 77.5708 21.9911C75.4341 21.9911 73.9042 21.2802 73.9042 18.7586V4.55179H77.4808V17.9556C77.4808 18.8727 77.9758 19.1023 78.7625 19.1023C79.0775 19.1023 79.4375 19.0789 79.5724 19.0789V21.8082ZM72.3656 12.4531H70.2739V17.9556C70.2739 18.8727 70.7689 19.1023 71.5556 19.1023C71.8706 19.1023 72.2306 19.0789 72.3656 19.0789V21.8082C72.0506 21.9004 71.3539 21.9911 70.3639 21.9911C68.2258 21.9911 66.6959 21.2802 66.6959 18.7586V12.4531H65.166V10.1143H66.6959V6.31575H70.2739V10.1143H72.3656V12.4531ZM60.5719 21.9808C57.2145 21.9808 54.6236 19.6523 54.6236 15.63C54.6236 11.6003 57.5687 9.27178 60.8927 9.27178C62.3733 9.27178 63.5113 9.80273 64.4069 10.5765L62.7231 12.886C62.1468 12.3946 61.6649 12.1708 61.0916 12.1708C59.3773 12.1708 58.2771 13.5325 58.2771 15.63C58.2771 17.7289 59.4238 19.0818 60.9725 19.0818C61.7622 19.0818 62.5184 18.6884 63.1426 18.1881L64.5375 20.5372C63.3676 21.5786 61.8769 21.9808 60.5719 21.9808ZM51.8047 25.8817H83.0068V0H51.8047V25.8817Z" fill="#111439"/>
<path fill-rule="evenodd" clip-rule="evenodd" d="M7.51224 6.87535C7.91417 6.87535 8.36531 6.97466 8.77522 7.1414L9.42536 4.45714C8.88554 4.25061 8.01273 4.02039 6.99405 4.02039C3.70372 4.02039 2.51173 6.15075 2.51173 8.74155V9.37898H0V12.2339H2.51173V21.6605H6.12124V12.2339H8.70482V9.37898H6.12124V8.63639C6.12124 7.36373 6.63146 6.87535 7.51224 6.87535Z" fill="#111439"/>
<path fill-rule="evenodd" clip-rule="evenodd" d="M23.0645 17.8803V12.8374C22.4261 12.2596 21.7089 12.0592 21.0469 12.0592C19.8767 12.0592 18.852 13.1472 18.852 15.4839C18.852 17.8942 19.6777 18.9802 21.0765 18.9802C21.8449 18.9802 22.4656 18.6864 23.0645 17.8803ZM23.0645 4.31812H26.674V21.6605H23.0645V20.4435C22.2016 21.3111 21.3129 21.9583 20.1366 21.9583C17.1064 21.9583 15.1499 19.5341 15.1499 15.5237C15.1499 11.5072 17.6384 9.08111 20.2056 9.08111C21.5494 9.08111 22.2409 9.58543 23.0645 10.3636" fill="#111439"/>
<path fill-rule="evenodd" clip-rule="evenodd" d="M39.8457 20.2429L41.4692 17.9757C42.5746 18.8174 43.5931 19.2662 44.6138 19.2662C45.6896 19.2662 46.1545 18.8531 46.1545 18.2099C46.1545 17.3998 44.9448 17.0326 43.6917 16.5382C42.1982 15.9546 40.4664 14.9559 40.4664 12.9267C40.4664 10.6396 42.3105 9.08112 45.1222 9.08112C46.99 9.08112 48.381 9.84155 49.4193 10.6377L47.8017 12.8216C46.9348 12.1882 46.0797 11.7733 45.2364 11.7733C44.3025 11.7733 43.8434 12.1426 43.8434 12.754C43.8434 13.5383 44.9843 13.8381 46.2471 14.3008C47.7918 14.8765 49.5316 15.75 49.5316 17.9954C49.5316 20.2191 47.7899 21.9584 44.5251 21.9584C42.9174 21.9584 41.0791 21.2555 39.8457 20.2429Z" fill="#111439"/>
<path fill-rule="evenodd" clip-rule="evenodd" d="M10.1665 21.6605H13.7781V9.37885H10.1665V21.6605Z" fill="#111439"/>
<path fill-rule="evenodd" clip-rule="evenodd" d="M13.7976 5.94009C13.7976 6.95093 12.9845 7.77031 11.9813 7.77031C10.9782 7.77031 10.165 6.95093 10.165 5.94009C10.165 4.92924 10.9782 4.10986 11.9813 4.10986C12.9845 4.10986 13.7976 4.92924 13.7976 5.94009Z" fill="#111439"/>
<path fill-rule="evenodd" clip-rule="evenodd" d="M31.9615 14.0865H35.5404C35.5404 13.6105 35.4232 13.1962 35.1897 12.8429C34.9558 12.49 34.5247 12.3134 33.8961 12.3134C33.4282 12.3134 33.0214 12.4531 32.6748 12.7321C32.328 13.0114 32.0904 13.4628 31.9615 14.0865ZM34.2346 22.016C33.3478 22.016 32.5255 21.872 31.768 21.5849C31.01 21.298 30.3533 20.8793 29.7972 20.3291C29.241 19.7793 28.8016 19.1021 28.4793 18.2975C28.1566 17.4933 27.9956 16.5822 27.9956 15.564C27.9956 14.5629 28.1608 13.6639 28.4914 12.8675C28.8217 12.0714 29.2568 11.3942 29.7972 10.8359C30.3372 10.278 30.9538 9.85091 31.6471 9.55531C32.34 9.25985 33.0575 9.11212 33.7993 9.11212C34.6857 9.11212 35.4595 9.26833 36.1207 9.58003C36.7816 9.89201 37.3298 10.3187 37.765 10.8606C38.2003 11.4022 38.5267 12.0345 38.7443 12.7566C38.9621 13.4793 39.0709 14.2507 39.0709 15.0714C39.0709 15.4494 39.0505 15.8022 39.0104 16.1304C38.9699 16.459 38.9338 16.6969 38.9015 16.8446H32.0098C32.2033 17.5834 32.5498 18.0966 33.0495 18.3838C33.5492 18.671 34.1378 18.8147 34.8149 18.8147C35.2339 18.8147 35.6408 18.7531 36.0361 18.6299C36.4309 18.5068 36.8462 18.322 37.2815 18.0759L38.8099 20.4389C38.1486 20.9155 37.2452 21.4211 36.4471 21.6588C35.6492 21.8966 34.9116 22.016 34.2346 22.016Z" fill="#111439"/>
</svg>

