<svg width="209" height="64" viewBox="0 0 209 64" fill="none" xmlns="http://www.w3.org/2000/svg">
<g id="Size=logo-l, Color=Primary, Wordmark=Yes" clip-path="url(#clip0_839_9636)">
<path id="Vector" d="M64 0H0V64H64V0Z" fill="#111439"/>
<path id="Vector_2" d="M103.861 17.5236C104.943 17.544 106.011 17.7661 107.011 18.1783L108.634 11.5414C106.691 10.8261 104.638 10.4588 102.568 10.4563C94.3591 10.4563 91.3862 15.7224 91.3862 22.1315V23.7048H85.1289V30.7649H91.3971V54.0826H100.403V30.7721H106.845V23.712H100.403V21.8783C100.403 18.728 101.688 17.5236 103.861 17.5236Z" fill="#111439"/>
<path id="Vector_3" d="M142.668 11.1978H151.659V54.0826H142.668V51.0734C140.517 53.2182 138.297 54.8205 135.364 54.8205C127.803 54.8205 122.926 48.8237 122.926 38.9064C122.926 28.989 129.132 22.9923 135.538 22.9923C138.888 22.9923 140.608 24.2365 142.668 26.1642V11.1978ZM142.668 44.7512V32.2659C141.294 31.0124 139.496 30.3249 137.635 30.3417C134.716 30.3417 132.16 33.0326 132.16 38.8087C132.16 44.7693 134.22 47.4566 137.711 47.4566C139.626 47.4566 141.176 46.7296 142.668 44.7367V44.7512Z" fill="#111439"/>
<path id="Vector_4" d="M184.532 50.5779L188.595 44.9681C191.35 47.0478 193.892 48.1582 196.438 48.1582C199.121 48.1582 200.28 47.1382 200.28 45.5468C200.28 43.5431 197.264 42.6353 194.124 41.4128C190.398 39.966 186.078 37.4994 186.078 32.4828C186.078 26.8261 190.677 22.9741 197.691 22.9741C202.351 22.9741 205.82 24.8549 208.413 26.8224L204.375 32.2224C202.203 30.6563 200.081 29.6291 197.977 29.6291C195.649 29.6291 194.501 30.5442 194.501 32.056C194.501 33.9946 197.347 34.7361 200.497 35.879C204.35 37.304 208.692 39.4633 208.692 45.0152C208.692 50.567 204.346 54.8168 196.203 54.8168C192.194 54.8204 187.61 53.0807 184.532 50.5779Z" fill="#111439"/>
<path id="Vector_5" d="M110.491 23.7119H119.504V54.0934H110.491V23.7119Z" fill="#111439"/>
<path id="Vector_6" d="M115.021 19.7371C117.523 19.7371 119.551 17.7113 119.551 15.2124C119.551 12.7135 117.523 10.6877 115.021 10.6877C112.519 10.6877 110.491 12.7135 110.491 15.2124C110.491 17.7113 112.519 19.7371 115.021 19.7371Z" fill="#111439"/>
<path id="Vector_7" d="M170.536 54.9614C168.437 54.9818 166.351 54.6203 164.381 53.8945C162.542 53.2177 160.867 52.1602 159.467 50.7912C158.033 49.3634 156.913 47.6523 156.179 45.7674C155.342 43.6135 154.931 41.3178 154.969 39.0075C154.933 36.7242 155.354 34.4565 156.208 32.3381C156.964 30.4715 158.07 28.7664 159.467 27.3143C160.776 25.9607 162.345 24.8844 164.08 24.1496C165.85 23.4154 167.75 23.0426 169.666 23.0532C171.583 23.0638 173.478 23.4574 175.24 24.211C176.832 24.9386 178.236 26.0213 179.343 27.3758C180.456 28.7693 181.287 30.3665 181.787 32.0777C182.338 33.9348 182.611 35.8628 182.598 37.7995C182.601 38.6746 182.552 39.549 182.45 40.4181C182.348 41.2319 182.258 41.8178 182.178 42.1831H164.985C165.468 44.0108 166.332 45.2803 167.578 45.9917C168.927 46.7259 170.445 47.0927 171.981 47.055C173.015 47.0568 174.043 46.9031 175.03 46.5993C176.112 46.2538 177.153 45.7943 178.137 45.2285L181.95 51.0733C180.152 52.3753 178.164 53.3927 176.055 54.0898C174.266 54.6414 172.408 54.9349 170.536 54.9614ZM164.866 35.3545H173.792C173.817 34.2655 173.512 33.1942 172.919 32.2802C172.332 31.4049 171.256 30.9673 169.689 30.9673C168.584 30.9474 167.506 31.3147 166.644 32.0053C165.779 32.6901 165.187 33.8065 164.866 35.3545Z" fill="#111439"/>
</g>
<defs>
<clipPath id="clip0_839_9636">
<rect width="208.696" height="64" fill="white"/>
</clipPath>
</defs>
</svg>
