<svg width="85" height="26" viewBox="0 0 85 26" fill="none" xmlns="http://www.w3.org/2000/svg">
<g clip-path="url(#clip0_11978_55204)">
<path d="M26 0H0V26H26V0Z" fill="white"/>
<path d="M42.1726 7.11896C42.6118 7.12726 43.0457 7.21746 43.4518 7.38491L44.1105 4.68867C43.3219 4.39811 42.4882 4.24888 41.6477 4.24786C38.3144 4.24786 37.1072 6.38723 37.1072 8.9909V9.63006H34.5665V12.4982H37.1116V21.9711H40.7684V12.5012H43.3842V9.63301H40.7684V8.88805C40.7684 7.60825 41.2904 7.11896 42.1726 7.11896Z" fill="white"/>
<path d="M57.9304 4.54908H61.5812V21.9711H57.9304V20.7486C57.057 21.6199 56.1556 22.2708 54.9647 22.2708C51.8946 22.2708 49.914 19.8346 49.914 15.8057C49.914 11.7768 52.4342 9.3406 55.0352 9.3406C56.3953 9.3406 57.0937 9.84606 57.9304 10.6292V4.54908ZM57.9304 18.1802V13.108C57.3724 12.5988 56.6422 12.3195 55.8866 12.3263C54.7015 12.3263 53.6634 13.4195 53.6634 15.766C53.6634 18.1875 54.5 19.2792 55.9174 19.2792C56.6953 19.2792 57.3246 18.9839 57.9304 18.1743V18.1802Z" fill="white"/>
<path d="M74.9291 20.5473L76.5788 18.2683C77.6977 19.1132 78.7299 19.5643 79.7636 19.5643C80.8531 19.5643 81.3236 19.1499 81.3236 18.5034C81.3236 17.6894 80.0988 17.3206 78.824 16.824C77.311 16.2362 75.5569 15.2341 75.5569 13.1962C75.5569 10.8981 77.4243 9.33326 80.2723 9.33326C82.1647 9.33326 83.5733 10.0973 84.626 10.8966L82.9866 13.0904C82.1044 12.4541 81.2428 12.0368 80.3885 12.0368C79.443 12.0368 78.977 12.4086 78.977 13.0228C78.977 13.8103 80.1326 14.1116 81.4119 14.5759C82.9763 15.1548 84.7393 16.032 84.7393 18.2874C84.7393 20.5429 82.9748 22.2693 79.668 22.2693C78.0403 22.2708 76.1789 21.5641 74.9291 20.5473Z" fill="white"/>
<path d="M44.8648 9.63301H48.5245V21.9755H44.8648V9.63301Z" fill="white"/>
<path d="M46.7042 8.0182C47.7201 8.0182 48.5436 7.19523 48.5436 6.18005C48.5436 5.16487 47.7201 4.34191 46.7042 4.34191C45.6883 4.34191 44.8648 5.16487 44.8648 6.18005C44.8648 7.19523 45.6883 8.0182 46.7042 8.0182Z" fill="white"/>
<path d="M69.2462 22.3281C68.3935 22.3364 67.5465 22.1895 66.7466 21.8947C66 21.6197 65.32 21.1901 64.7513 20.634C64.169 20.0539 63.7143 19.3588 63.4162 18.593C63.0763 17.718 62.9095 16.7854 62.9251 15.8468C62.9103 14.9192 63.0813 13.998 63.428 13.1374C63.735 12.3791 64.1842 11.6864 64.7513 11.0965C65.283 10.5466 65.9201 10.1093 66.6245 9.81079C67.3433 9.51255 68.1146 9.36111 68.8929 9.3654C69.6711 9.36969 70.4407 9.52962 71.1561 9.83577C71.8026 10.1313 72.3725 10.5712 72.8221 11.1214C73.2741 11.6876 73.6112 12.3364 73.8145 13.0316C74.038 13.786 74.149 14.5693 74.1439 15.3561C74.1451 15.7116 74.125 16.0668 74.0836 16.4199C74.0424 16.7505 74.0057 16.9885 73.9733 17.1369H66.9921C67.1882 17.8794 67.5391 18.3952 68.0449 18.6841C68.5926 18.9824 69.2092 19.1314 69.8328 19.1161C70.2525 19.1168 70.6698 19.0544 71.0709 18.931C71.51 18.7907 71.9329 18.604 72.3324 18.3741L73.8807 20.7486C73.1505 21.2775 72.3431 21.6908 71.487 21.974C70.7607 22.1981 70.0062 22.3173 69.2462 22.3281ZM66.9436 14.3628H70.568C70.578 13.9204 70.4546 13.4852 70.2137 13.1139C69.9755 12.7583 69.5383 12.5805 68.9021 12.5805C68.4533 12.5724 68.0158 12.7216 67.6655 13.0022C67.3146 13.2804 67.074 13.7339 66.9436 14.3628Z" fill="white"/>
</g>
<defs>
<clipPath id="clip0_11978_55204">
<rect width="84.7407" height="26" fill="white"/>
</clipPath>
</defs>
</svg>
