<svg width="107" height="24" viewBox="0 0 107 24" fill="none" xmlns="http://www.w3.org/2000/svg">
<g clip-path="url(#clip0_1475_2375)">
<path d="M36 2.66645H48.3948V6.05285H39.6372V10.3068H48.258V13.6933H39.6372V21.3336H36V2.66645ZM51.144 21.3325H54.7812V2.66645H51.144V21.3336V21.3325ZM73.3284 6.97085C74.0856 8.36405 74.4696 10.056 74.4696 11.9988C74.4696 13.9417 74.0856 15.6337 73.3284 17.0269C72.5604 18.4405 71.4564 19.5252 70.05 20.2536C68.6676 20.9688 67.038 21.3325 65.2044 21.3325H58.6308V2.66645H65.2044C67.0368 2.66645 68.6676 3.02885 70.05 3.74405C71.4576 4.47365 72.5604 5.55845 73.3284 6.97085ZM68.2692 17.2657C69.0732 16.8205 69.6696 16.1809 70.0908 15.3121C70.5228 14.4193 70.7424 13.3056 70.7424 11.9988C70.7424 10.692 70.5228 9.60125 70.0908 8.70845C69.6684 7.83725 69.072 7.19405 68.2656 6.74045C67.4508 6.28325 66.444 6.05045 65.274 6.05045H62.2692V17.9448H65.274C66.4464 17.9448 67.4544 17.7156 68.2692 17.2644V17.2657ZM81.0948 13.4185H89.9208V10.032H81.0948V6.05165H90.0804V2.66525H77.4576V21.3325H90.2856V17.946H81.0948V13.4185ZM106.351 13.0608C105.934 12.3588 105.299 11.7732 104.465 11.322C103.682 10.8984 102.648 10.5468 101.395 10.2768L99.2292 9.79805C98.3148 9.59525 97.6044 9.38885 97.1184 9.18365C96.702 9.00845 96.396 8.80085 96.2088 8.56325C96.0468 8.35925 95.9652 8.05805 95.9652 7.66565C95.9652 7.31165 96.084 7.00325 96.3264 6.72245C96.6012 6.40685 96.9852 6.15485 97.4688 5.97485C97.986 5.78285 98.5752 5.68565 99.2208 5.68565C100.182 5.68565 100.987 5.88485 101.614 6.27965C102.209 6.65405 102.604 7.22405 102.818 8.02205L102.952 8.51525H106.652L106.513 7.73165C106.327 6.68165 105.9 5.73845 105.246 4.93085C104.593 4.12565 103.734 3.49565 102.694 3.06005C101.672 2.63165 100.504 2.41565 99.2208 2.41565C97.938 2.41565 96.8244 2.64605 95.7936 3.09965C94.7412 3.56285 93.8928 4.21685 93.2712 5.04245C92.6292 5.89445 92.304 6.85445 92.304 7.89485C92.304 9.31925 92.8008 10.4845 93.7812 11.3581C94.6992 12.1765 95.9508 12.7657 97.5024 13.1077L99.6732 13.5877C100.699 13.8073 101.488 14.0197 102.017 14.2201C102.468 14.3917 102.809 14.6125 103.028 14.8777C103.222 15.1105 103.32 15.4537 103.32 15.9001C103.32 16.3465 103.188 16.7497 102.916 17.0965C102.63 17.4589 102.188 17.7517 101.603 17.9653C100.974 18.1957 100.188 18.3121 99.2664 18.3121C98.568 18.3121 97.938 18.1957 97.392 17.9653C96.8664 17.7433 96.4476 17.4217 96.114 16.9801C95.7828 16.5421 95.568 15.9937 95.4792 15.3517L95.3988 14.7769H91.6512L91.7652 15.5412C91.9476 16.7724 92.3856 17.8561 93.066 18.7621C93.7476 19.6705 94.6356 20.3773 95.7072 20.8621C96.7632 21.3397 97.9608 21.5821 99.2664 21.5821C100.747 21.5821 102.077 21.3384 103.22 20.8572C104.393 20.3628 105.319 19.6596 105.973 18.7668C106.642 17.8548 106.98 16.8061 106.98 15.6469C106.98 14.6329 106.768 13.7629 106.35 13.0597L106.351 13.0608Z" fill="#FAFAFA"/>
<path d="M24 24H0V0H24V24Z" fill="#FAFAFA"/>
</g>
<defs>
<clipPath id="clip0_1475_2375">
<rect width="106.981" height="24" fill="white"/>
</clipPath>
</defs>
</svg>
