<svg width="84" height="26" viewBox="0 0 84 26" fill="none" xmlns="http://www.w3.org/2000/svg">
<g clip-path="url(#clip0_998_12166)">
<path d="M6.80329 6.12963C7.1958 6.13741 7.5834 6.2179 7.94614 6.36694L8.53465 3.97296C7.8301 3.71511 7.08523 3.58269 6.33432 3.58179C3.35632 3.58179 2.27783 5.48028 2.27783 7.79081V8.35802H0V10.9033H2.27389V19.307H5.54089V10.9059H7.87783V8.36062H5.54089V7.69954C5.54089 6.56514 6.00197 6.12963 6.80329 6.12963Z" fill="#111439"/>
<path d="M20.8738 3.85437H24.1434V19.3096H20.8738V18.2248C20.0935 18.998 19.2883 19.5756 18.2242 19.5756C15.4814 19.5756 13.7119 17.4137 13.7119 13.8384C13.7119 10.2631 15.9635 8.10121 18.2873 8.10121C19.5024 8.10121 20.1264 8.55106 20.8738 9.24474V3.85437ZM20.8738 15.9455V11.4444C20.3753 10.9925 19.723 10.7447 19.0479 10.7508C17.9891 10.7508 17.0617 11.7209 17.0617 13.8032C17.0617 15.9521 17.8091 16.9209 19.0755 16.9209C19.7704 16.9209 20.3339 16.6588 20.8738 15.9403V15.9455Z" fill="#111439"/>
<path d="M36.0605 18.0461L37.5305 16.025C38.5302 16.7748 39.4523 17.1751 40.3758 17.1751C41.3492 17.1751 41.7696 16.8074 41.7696 16.2337C41.7696 15.5113 40.6753 15.184 39.5364 14.7433C38.1847 14.2217 36.6175 13.3325 36.6175 11.5239C36.6175 9.48461 38.2858 8.09595 40.8303 8.09595C42.521 8.09595 43.7794 8.77398 44.72 9.48331L43.2605 11.4301C42.4724 10.8655 41.7026 10.4951 40.9394 10.4951C40.0934 10.4951 39.6783 10.825 39.6783 11.3701C39.6783 12.069 40.7108 12.3363 41.8537 12.7483C43.2514 13.262 44.8264 14.0405 44.8264 16.042C44.8264 18.0435 43.25 19.5756 40.2957 19.5756C38.8402 19.5756 37.1771 18.9484 36.0605 18.0461Z" fill="#111439"/>
<path d="M9.20068 8.36072H12.4703V19.3136H9.20068V8.36072Z" fill="#111439"/>
<path d="M10.8426 6.92633C11.7502 6.92633 12.4859 6.19602 12.4859 5.29513C12.4859 4.39425 11.7502 3.66394 10.8426 3.66394C9.93497 3.66394 9.19922 4.39425 9.19922 5.29513C9.19922 6.19602 9.93497 6.92633 10.8426 6.92633Z" fill="#111439"/>
<path d="M30.9822 19.6317C30.2204 19.6391 29.4637 19.5087 28.749 19.247C28.0817 19.0027 27.4739 18.6215 26.9651 18.1282C26.4457 17.6131 26.04 16.9963 25.7736 16.3171C25.4699 15.5406 25.3209 14.713 25.3349 13.8801C25.3218 13.0569 25.4745 12.2394 25.7841 11.4757C26.0589 10.803 26.4601 10.1883 26.9664 9.66455C27.4419 9.17652 28.0115 8.7885 28.6413 8.52363C29.2835 8.25896 29.9725 8.12457 30.6678 8.12837C31.3632 8.13218 32.0507 8.27411 32.6899 8.5458C33.2674 8.80808 33.7766 9.19841 34.1782 9.68672C34.5822 10.1889 34.883 10.7648 35.0636 11.3818C35.2643 12.0511 35.3639 12.7463 35.3592 13.4446C35.3602 13.7601 35.3422 14.0753 35.3053 14.3886C35.2685 14.6824 35.2357 14.895 35.2068 15.0262H28.9697C29.1448 15.6851 29.4584 16.1424 29.9102 16.398C30.3996 16.6627 30.9505 16.7949 31.5076 16.7813C31.8825 16.7819 32.2554 16.7266 32.6137 16.617C33.006 16.4925 33.3838 16.3268 33.7408 16.1228L35.124 18.23C34.4717 18.6993 33.7504 19.0661 32.9854 19.3174C32.3363 19.517 31.6617 19.6229 30.9822 19.6317ZM28.9263 12.5631H32.1644C32.1734 12.1705 32.0631 11.7843 31.8478 11.4548C31.635 11.1393 31.2445 10.9819 30.6761 10.9828C30.2753 10.9752 29.8844 11.1071 29.5713 11.3557C29.2578 11.6009 29.0428 12.0016 28.9263 12.5579V12.5631Z" fill="#111439"/>
<path d="M54.6955 10.8838C53.3608 10.8838 52.6987 12.0977 52.6987 13.9688C52.6987 15.84 53.3555 17.0448 54.6955 17.0448C56.0354 17.0448 56.6935 15.8387 56.6935 13.9688C56.6935 12.099 56.0301 10.8838 54.6955 10.8838Z" fill="#111439"/>
<path d="M46.8833 0V26H83.0554V0H46.8833ZM54.6955 19.6317C51.9368 19.6317 49.3923 17.5559 49.3923 13.9714C49.3923 10.387 51.9408 8.302 54.6955 8.302C57.4501 8.302 60.0052 10.3739 60.0052 13.9688C60.0052 17.5637 57.4501 19.6317 54.6955 19.6317ZM66.7993 19.6317C65.8626 19.6317 65.1099 19.2249 64.3296 18.5038V23.3804H61.0863V8.56149H64.3296V9.62417C65.1848 8.8679 65.994 8.2994 67.1303 8.2994C69.7654 8.2994 71.3799 10.4626 71.3799 13.7941C71.3799 17.5024 69.1572 19.6317 66.7993 19.6317ZM75.7582 19.6317C74.3237 19.6317 72.6817 19.0136 71.5782 18.1218L73.0232 16.1281C74.0098 16.8687 74.9214 17.2625 75.8318 17.2625C76.792 17.2625 77.2072 16.9 77.2072 16.3328C77.2072 15.6209 76.1287 15.2988 75.0081 14.8633C73.6735 14.3509 72.1273 13.472 72.1273 11.6857C72.1273 9.67372 73.7746 8.29549 76.2863 8.29549C77.9546 8.29549 79.1973 8.96439 80.1234 9.66459L78.6784 11.5866C77.9047 11.0285 77.1402 10.6647 76.3861 10.6647C75.5533 10.6647 75.1421 10.9881 75.1421 11.5279C75.1421 12.2164 76.1628 12.4797 77.2899 12.8879C78.6692 13.3938 80.2232 14.1644 80.2232 16.1398C80.2232 18.1152 78.6758 19.6317 75.7582 19.6317Z" fill="#111439"/>
<path d="M66.1794 10.9203C65.5226 10.9203 64.9656 11.2137 64.3271 11.8878V16.3211C64.7937 16.7563 65.4078 17.002 66.048 17.0096C67.1738 17.0096 68.0736 16.0668 68.0736 13.8293C68.0736 11.8904 67.4707 10.9203 66.1794 10.9203Z" fill="#111439"/>
</g>
<defs>
<clipPath id="clip0_998_12166">
<rect width="83.0556" height="26" fill="white"/>
</clipPath>
</defs>
</svg>
