<?xml version="1.0" encoding="UTF-8"?>
<svg id="Layer_1" data-name="Layer 1" xmlns="http://www.w3.org/2000/svg" viewBox="0 0 891.51 200">
  <defs>
    <style>
      .cls-1 {
        fill: #fafafa;
        stroke-width: 0px;
      }
    </style>
  </defs>
  <path class="cls-1" d="M300,22.22h103.29v28.22h-72.98v35.45h71.84v28.22h-71.84v63.67h-30.31V22.22ZM426.2,177.77h30.31V22.22h-30.31v155.56ZM611.07,58.09c6.31,11.61,9.51,25.71,9.51,41.9s-3.2,30.29-9.51,41.9c-6.4,11.78-15.6,20.82-27.32,26.89-11.52,5.96-25.1,8.99-40.38,8.99h-54.78V22.22h54.78c15.27,0,28.86,3.02,40.38,8.98,11.73,6.08,20.92,15.12,27.32,26.89ZM568.91,143.88c6.7-3.71,11.67-9.04,15.18-16.28,3.6-7.44,5.43-16.72,5.43-27.61s-1.83-19.98-5.43-27.42c-3.52-7.26-8.49-12.62-15.21-16.4-6.79-3.81-15.18-5.75-24.93-5.75h-25.04v99.12h25.04c9.77,0,18.17-1.91,24.96-5.67ZM675.79,111.82h73.55v-28.22h-73.55v-33.17h74.88v-28.22h-105.19v155.56h106.9v-28.22h-76.59v-37.73ZM886.26,108.84c-3.48-5.85-8.77-10.73-15.72-14.49-6.52-3.53-15.14-6.46-25.58-8.71l-18.05-3.99c-7.62-1.69-13.54-3.41-17.59-5.12-3.47-1.46-6.02-3.19-7.58-5.17-1.35-1.7-2.03-4.21-2.03-7.48,0-2.95.99-5.52,3.01-7.86,2.29-2.63,5.49-4.73,9.52-6.23,4.31-1.6,9.22-2.41,14.6-2.41,8.01,0,14.72,1.66,19.94,4.95,4.96,3.12,8.25,7.87,10.04,14.52l1.11,4.11h30.84l-1.16-6.53c-1.55-8.75-5.11-16.61-10.56-23.34-5.44-6.71-12.6-11.96-21.27-15.59-8.51-3.57-18.25-5.37-28.94-5.37s-19.97,1.92-28.56,5.7c-8.77,3.86-15.84,9.31-21.02,16.19-5.35,7.1-8.06,15.1-8.06,23.77,0,11.87,4.14,21.58,12.31,28.86,7.65,6.82,18.08,11.73,31.01,14.58l18.09,4c8.55,1.83,15.12,3.6,19.53,5.27,3.76,1.43,6.6,3.27,8.43,5.48,1.61,1.94,2.43,4.8,2.43,8.52s-1.1,7.08-3.37,9.97c-2.38,3.02-6.06,5.46-10.94,7.24-5.24,1.92-11.79,2.89-19.47,2.89-5.82,0-11.07-.97-15.62-2.89-4.38-1.85-7.87-4.53-10.65-8.21-2.76-3.65-4.55-8.22-5.29-13.57l-.67-4.79h-31.23l.95,6.37c1.52,10.26,5.17,19.29,10.84,26.84,5.68,7.57,13.08,13.46,22.01,17.5h0c8.8,3.98,18.78,6,29.66,6,12.34,0,23.42-2.03,32.95-6.04,9.77-4.12,17.49-9.98,22.94-17.42,5.57-7.6,8.39-16.34,8.39-26,0-8.45-1.77-15.7-5.25-21.56Z"/>
  <path class="cls-1" d="M200,200H0V0h200v200Z"/>
</svg>
