<svg width="413" height="107" viewBox="0 0 413 107" fill="none" xmlns="http://www.w3.org/2000/svg">
<path d="M0 46.1611L80 92.315L80 106.998L-3.23707e-07 60.8439L0 46.1611Z" fill="#DADADA"/>
<path d="M80 -5.50197e-06L160 46.1538L80 92.3077L4.70946e-05 46.1538L80 -5.50197e-06Z" fill="#F5F5F5"/>
<path d="M63.928 45.832L65.996 48.89V49H64.951L62.927 45.953H61.057V49H60.1V41.3H63.147C64.72 41.3 65.589 42.301 65.589 43.61C65.589 44.754 64.929 45.546 63.928 45.832ZM61.057 42.18V45.073H63.092C64.06 45.073 64.588 44.545 64.588 43.621C64.588 42.719 64.06 42.18 63.092 42.18H61.057ZM69.4711 49.099C67.8101 49.099 66.9191 47.845 66.9191 46.195C66.9191 44.567 67.7221 43.28 69.4601 43.28C71.0441 43.28 71.8911 44.457 71.8911 46.019V46.47H67.8871C67.8871 47.537 68.4261 48.274 69.4711 48.274C70.2081 48.274 70.7361 47.966 70.8901 47.372H71.8141C71.6601 48.406 70.6701 49.099 69.4711 49.099ZM67.8981 45.7H70.9341C70.9341 44.809 70.4611 44.105 69.4601 44.105C68.4041 44.105 67.9311 44.82 67.8981 45.7ZM77.1135 51.519V48.219H77.0695C76.7725 48.714 76.2115 49.099 75.3755 49.099C73.7915 49.099 72.9995 47.856 72.9885 46.195C72.9995 44.38 73.9015 43.28 75.3755 43.28C76.2115 43.28 76.7725 43.665 77.0695 44.16H77.1135L77.2345 43.379H78.0375V51.519H77.1135ZM75.5295 48.274C76.6515 48.274 77.1355 47.306 77.1355 46.195C77.1355 45.073 76.6515 44.105 75.5295 44.105C74.3635 44.105 73.9235 45.062 73.9235 46.195C73.9235 47.317 74.3635 48.274 75.5295 48.274ZM81.765 49.088C80.522 49.088 79.796 48.307 79.796 47.02V43.379H80.72V46.877C80.72 47.757 81.127 48.263 82.018 48.263C82.953 48.263 83.503 47.603 83.503 46.47V43.379H84.427V49H83.624L83.547 48.109H83.503C83.206 48.681 82.634 49.088 81.765 49.088ZM88.4096 49.099C86.7486 49.099 85.8576 47.845 85.8576 46.195C85.8576 44.567 86.6606 43.28 88.3986 43.28C89.9826 43.28 90.8296 44.457 90.8296 46.019V46.47H86.8256C86.8256 47.537 87.3646 48.274 88.4096 48.274C89.1466 48.274 89.6746 47.966 89.8286 47.372H90.7526C90.5986 48.406 89.6086 49.099 88.4096 49.099ZM86.8366 45.7H89.8726C89.8726 44.809 89.3996 44.105 88.3986 44.105C87.3426 44.105 86.8696 44.82 86.8366 45.7ZM94.226 49.099C92.895 49.099 91.96 48.373 91.927 47.141H92.851C92.851 47.889 93.423 48.274 94.226 48.274C95.018 48.274 95.513 48.01 95.513 47.471C95.513 47.097 95.26 46.8 94.655 46.668L93.533 46.459C92.609 46.272 92.103 45.711 92.103 44.886C92.103 43.951 92.906 43.28 94.149 43.28C95.414 43.28 96.316 43.973 96.316 45.095H95.414C95.381 44.38 94.853 44.061 94.149 44.061C93.467 44.061 92.994 44.336 92.994 44.886C92.994 45.326 93.357 45.579 93.973 45.678L94.853 45.843C95.909 46.085 96.448 46.503 96.448 47.471C96.448 48.505 95.436 49.099 94.226 49.099ZM99.8551 49C98.7441 49 98.3701 48.428 98.3701 47.493V44.16H97.4351V43.379H98.3921V41.872H99.2941V43.379H100.669V44.16H99.2941V47.416C99.2941 47.955 99.5251 48.186 100.031 48.186H100.691V49H99.8551Z" fill="black"/>
<rect width="92.3589" height="14.6941" transform="matrix(0.866185 -0.499723 2.20468e-08 1 80 92.3086)" fill="#2B2E35"/>
<path d="M253 46.1611L333 92.315L333 106.998L253 60.8439L253 46.1611Z" fill="#DADADA"/>
<path d="M333 -5.50197e-06L413 46.1538L333 92.3077L253 46.1538L333 -5.50197e-06Z" fill="#F5F5F5"/>
<path d="M214 54.5L213.5 54.5L213.5 55.5L214 55.5L214 55L214 54.5ZM253.354 55.3536C253.549 55.1583 253.549 54.8417 253.354 54.6465L250.172 51.4645C249.976 51.2692 249.66 51.2692 249.464 51.4645C249.269 51.6597 249.269 51.9763 249.464 52.1716L252.293 55L249.464 57.8284C249.269 58.0237 249.269 58.3403 249.464 58.5355C249.66 58.7308 249.976 58.7308 250.172 58.5355L253.354 55.3536ZM214 55L214 55.5L214.975 55.5L214.975 55L214.975 54.5L214 54.5L214 55ZM216.925 55L216.925 55.5L218.875 55.5L218.875 55L218.875 54.5L216.925 54.5L216.925 55ZM220.825 55L220.825 55.5L222.775 55.5L222.775 55L222.775 54.5L220.825 54.5L220.825 55ZM224.725 55L224.725 55.5L226.675 55.5L226.675 55L226.675 54.5L224.725 54.5L224.725 55ZM228.625 55L228.625 55.5L230.575 55.5L230.575 55L230.575 54.5L228.625 54.5L228.625 55ZM232.525 55L232.525 55.5L234.475 55.5L234.475 55L234.475 54.5L232.525 54.5L232.525 55ZM236.425 55L236.425 55.5L238.375 55.5L238.375 55L238.375 54.5L236.425 54.5L236.425 55ZM240.325 55L240.325 55.5L242.275 55.5L242.275 55L242.275 54.5L240.325 54.5L240.325 55ZM244.225 55L244.225 55.5L246.175 55.5L246.175 55L246.175 54.5L244.225 54.5L244.225 55ZM248.125 55L248.125 55.5L250.075 55.5L250.075 55L250.075 54.5L248.125 54.5L248.125 55ZM252.025 55L252.025 55.5L253 55.5L253 55L253 54.5L252.025 54.5L252.025 55Z" fill="#93969A"/>
<path d="M160 57.6667C161.473 57.6667 162.667 56.4728 162.667 55C162.667 53.5272 161.473 52.3333 160 52.3333C158.527 52.3333 157.333 53.5272 157.333 55C157.333 56.4728 158.527 57.6667 160 57.6667ZM198 55.5L198.5 55.5L198.5 54.5L198 54.5L198 55L198 55.5ZM160 55L160 55.5L160.95 55.5L160.95 55L160.95 54.5L160 54.5L160 55ZM162.85 55L162.85 55.5L164.75 55.5L164.75 55L164.75 54.5L162.85 54.5L162.85 55ZM166.65 55L166.65 55.5L168.55 55.5L168.55 55L168.55 54.5L166.65 54.5L166.65 55ZM170.45 55L170.45 55.5L172.35 55.5L172.35 55L172.35 54.5L170.45 54.5L170.45 55ZM174.25 55L174.25 55.5L176.15 55.5L176.15 55L176.15 54.5L174.25 54.5L174.25 55ZM178.05 55L178.05 55.5L179.95 55.5L179.95 55L179.95 54.5L178.05 54.5L178.05 55ZM181.85 55L181.85 55.5L183.75 55.5L183.75 55L183.75 54.5L181.85 54.5L181.85 55ZM185.65 55L185.65 55.5L187.55 55.5L187.55 55L187.55 54.5L185.65 54.5L185.65 55ZM189.45 55L189.45 55.5L191.35 55.5L191.35 55L191.35 54.5L189.45 54.5L189.45 55ZM193.25 55L193.25 55.5L195.15 55.5L195.15 55L195.15 54.5L193.25 54.5L193.25 55ZM197.05 55L197.05 55.5L198 55.5L198 55L198 54.5L197.05 54.5L197.05 55Z" fill="#93969A"/>
<path d="M293.026 45.832L295.094 48.89V49H294.049L292.025 45.953H290.155V49H289.198V41.3H292.245C293.818 41.3 294.687 42.301 294.687 43.61C294.687 44.754 294.027 45.546 293.026 45.832ZM290.155 42.18V45.073H292.19C293.158 45.073 293.686 44.545 293.686 43.621C293.686 42.719 293.158 42.18 292.19 42.18H290.155ZM298.569 49.099C296.908 49.099 296.017 47.845 296.017 46.195C296.017 44.567 296.82 43.28 298.558 43.28C300.142 43.28 300.989 44.457 300.989 46.019V46.47H296.985C296.985 47.537 297.524 48.274 298.569 48.274C299.306 48.274 299.834 47.966 299.988 47.372H300.912C300.758 48.406 299.768 49.099 298.569 49.099ZM296.996 45.7H300.032C300.032 44.809 299.559 44.105 298.558 44.105C297.502 44.105 297.029 44.82 296.996 45.7ZM304.386 49.099C303.055 49.099 302.12 48.373 302.087 47.141H303.011C303.011 47.889 303.583 48.274 304.386 48.274C305.178 48.274 305.673 48.01 305.673 47.471C305.673 47.097 305.42 46.8 304.815 46.668L303.693 46.459C302.769 46.272 302.263 45.711 302.263 44.886C302.263 43.951 303.066 43.28 304.309 43.28C305.574 43.28 306.476 43.973 306.476 45.095H305.574C305.541 44.38 305.013 44.061 304.309 44.061C303.627 44.061 303.154 44.336 303.154 44.886C303.154 45.326 303.517 45.579 304.133 45.678L305.013 45.843C306.069 46.085 306.608 46.503 306.608 47.471C306.608 48.505 305.596 49.099 304.386 49.099ZM310.246 49.099C308.486 49.099 307.705 47.812 307.705 46.195C307.705 44.578 308.508 43.28 310.246 43.28C311.984 43.28 312.787 44.578 312.787 46.195C312.787 47.801 312.006 49.099 310.246 49.099ZM310.246 48.274C311.39 48.274 311.852 47.405 311.852 46.195C311.852 44.985 311.39 44.105 310.246 44.105C309.102 44.105 308.64 44.996 308.64 46.195C308.64 47.405 309.113 48.274 310.246 48.274ZM316.181 49.088C314.938 49.088 314.212 48.307 314.212 47.02V43.379H315.136V46.877C315.136 47.757 315.543 48.263 316.434 48.263C317.369 48.263 317.919 47.603 317.919 46.47V43.379H318.843V49H318.04L317.963 48.109H317.919C317.622 48.681 317.05 49.088 316.181 49.088ZM320.713 49V43.379H321.516L321.593 44.325H321.637C321.868 43.698 322.429 43.313 323.122 43.313H323.628V44.204H323.188C322.121 44.204 321.637 44.952 321.637 46.272V49H320.713ZM326.896 49.099C325.213 49.099 324.344 47.966 324.344 46.195C324.344 44.446 325.213 43.28 326.885 43.28C328.392 43.28 329.118 44.171 329.195 45.304H328.271C328.216 44.556 327.699 44.105 326.885 44.105C325.73 44.105 325.279 45.04 325.279 46.195C325.279 47.372 325.73 48.285 326.885 48.285C327.721 48.285 328.216 47.856 328.293 47.108H329.217C329.107 48.296 328.359 49.099 326.896 49.099ZM332.869 49.099C331.208 49.099 330.317 47.845 330.317 46.195C330.317 44.567 331.12 43.28 332.858 43.28C334.442 43.28 335.289 44.457 335.289 46.019V46.47H331.285C331.285 47.537 331.824 48.274 332.869 48.274C333.606 48.274 334.134 47.966 334.288 47.372H335.212C335.058 48.406 334.068 49.099 332.869 49.099ZM331.296 45.7H334.332C334.332 44.809 333.859 44.105 332.858 44.105C331.802 44.105 331.329 44.82 331.296 45.7ZM346.284 43.28C347.527 43.28 348.22 44.083 348.22 45.348V49H347.296V45.491C347.296 44.633 346.911 44.105 346.053 44.105C345.173 44.105 344.645 44.765 344.645 45.898V49H343.721V45.491C343.721 44.633 343.336 44.105 342.478 44.105C341.598 44.105 341.048 44.765 341.048 45.898V49H340.124V43.379H340.927L341.004 44.259H341.048C341.345 43.687 341.862 43.28 342.731 43.28C343.545 43.28 344.128 43.643 344.425 44.259H344.469C344.766 43.687 345.338 43.28 346.284 43.28ZM350.038 42.213V41.135H351.072V42.213H350.038ZM350.093 49V43.379H351.017V49H350.093ZM354.745 49.099C353.414 49.099 352.479 48.373 352.446 47.141H353.37C353.37 47.889 353.942 48.274 354.745 48.274C355.537 48.274 356.032 48.01 356.032 47.471C356.032 47.097 355.779 46.8 355.174 46.668L354.052 46.459C353.128 46.272 352.622 45.711 352.622 44.886C352.622 43.951 353.425 43.28 354.668 43.28C355.933 43.28 356.835 43.973 356.835 45.095H355.933C355.9 44.38 355.372 44.061 354.668 44.061C353.986 44.061 353.513 44.336 353.513 44.886C353.513 45.326 353.876 45.579 354.492 45.678L355.372 45.843C356.428 46.085 356.967 46.503 356.967 47.471C356.967 48.505 355.955 49.099 354.745 49.099ZM360.363 49.099C359.032 49.099 358.097 48.373 358.064 47.141H358.988C358.988 47.889 359.56 48.274 360.363 48.274C361.155 48.274 361.65 48.01 361.65 47.471C361.65 47.097 361.397 46.8 360.792 46.668L359.67 46.459C358.746 46.272 358.24 45.711 358.24 44.886C358.24 43.951 359.043 43.28 360.286 43.28C361.551 43.28 362.453 43.973 362.453 45.095H361.551C361.518 44.38 360.99 44.061 360.286 44.061C359.604 44.061 359.131 44.336 359.131 44.886C359.131 45.326 359.494 45.579 360.11 45.678L360.99 45.843C362.046 46.085 362.585 46.503 362.585 47.471C362.585 48.505 361.573 49.099 360.363 49.099ZM364.067 42.213V41.135H365.101V42.213H364.067ZM364.122 49V43.379H365.046V49H364.122ZM366.915 49V43.379H367.718L367.795 44.259H367.839C368.136 43.687 368.708 43.28 369.577 43.28C370.82 43.28 371.546 44.061 371.546 45.348V49H370.622V45.491C370.622 44.611 370.215 44.105 369.324 44.105C368.389 44.105 367.839 44.765 367.839 45.898V49H366.915ZM375.537 51.618C374.096 51.618 373.172 50.793 373.139 49.715H374.03C374.074 50.254 374.503 50.826 375.537 50.826C376.615 50.826 377.099 50.155 377.099 49.308V48.219H377.055C376.758 48.714 376.197 49.099 375.361 49.099C373.777 49.099 372.985 47.856 372.974 46.195C372.985 44.38 373.887 43.28 375.361 43.28C376.197 43.28 376.758 43.665 377.055 44.16H377.099L377.22 43.379H378.023V49.33C378.023 50.617 377.143 51.618 375.537 51.618ZM375.515 48.274C376.637 48.274 377.121 47.306 377.121 46.195C377.121 45.073 376.637 44.105 375.515 44.105C374.349 44.105 373.909 45.062 373.909 46.195C373.909 47.317 374.349 48.274 375.515 48.274Z" fill="black"/>
<rect width="92.3589" height="14.6941" transform="matrix(0.866185 -0.499723 2.20468e-08 1 333 92.3086)" fill="#CECAC2"/>
<rect x="196" y="19" width="22" height="20" rx="4" fill="#F7C2C2"/>
<g clip-path="url(#clip0_1247_431)">
<path d="M207.001 25.3145H206.999L202.743 33.4989L202.744 33.5002H211.256L211.257 33.4989L207.001 25.3145ZM206.578 27.5002H207.422V30.8752H206.578V27.5002ZM207 32.7502C206.889 32.7502 206.78 32.7172 206.687 32.6554C206.595 32.5936 206.523 32.5057 206.48 32.4029C206.438 32.3002 206.427 32.1871 206.448 32.0779C206.47 31.9688 206.523 31.8686 206.602 31.7899C206.681 31.7113 206.781 31.6577 206.89 31.636C206.999 31.6143 207.112 31.6254 207.215 31.668C207.318 31.7106 207.406 31.7827 207.468 31.8752C207.529 31.9677 207.562 32.0764 207.562 32.1877C207.562 32.3369 207.503 32.4799 207.398 32.5854C207.292 32.6909 207.149 32.7502 207 32.7502Z" fill="#D9534F"/>
<path d="M211.875 34.25H202.125C202.061 34.25 201.997 34.2334 201.941 34.2018C201.885 34.1702 201.838 34.1247 201.804 34.0696C201.771 34.0145 201.752 33.9518 201.75 33.8874C201.748 33.823 201.763 33.7591 201.792 33.702L206.667 24.327C206.699 24.2661 206.747 24.2151 206.805 24.1794C206.864 24.1438 206.931 24.125 207 24.125C207.069 24.125 207.136 24.1438 207.195 24.1794C207.253 24.2151 207.301 24.2661 207.333 24.327L212.208 33.702C212.237 33.7591 212.252 33.823 212.25 33.8874C212.248 33.9518 212.229 34.0145 212.196 34.0696C212.162 34.1247 212.115 34.1702 212.059 34.2018C212.003 34.2334 211.939 34.25 211.875 34.25ZM202.744 33.5H211.256L211.257 33.4988L207.001 25.3143H206.999L202.743 33.4988L202.744 33.5Z" fill="#D9534F"/>
</g>
<rect x="192" y="70" width="30" height="20" rx="4" fill="#F7C2C2"/>
<path d="M197.582 82.5085V81.7841L200.778 76.7273H201.304V77.8494H200.949L198.534 81.6705V81.7273H202.838V82.5085H197.582ZM201.006 84V82.2884V81.951V76.7273H201.844V84H201.006ZM206.541 84.0994C206.006 84.0994 205.55 83.9538 205.174 83.6626C204.797 83.3691 204.51 82.9441 204.311 82.3878C204.112 81.8291 204.013 81.1544 204.013 80.3636C204.013 79.5777 204.112 78.9065 204.311 78.3501C204.512 77.7914 204.801 77.3653 205.177 77.0717C205.556 76.7758 206.011 76.6278 206.541 76.6278C207.071 76.6278 207.525 76.7758 207.901 77.0717C208.28 77.3653 208.569 77.7914 208.768 78.3501C208.969 78.9065 209.069 79.5777 209.069 80.3636C209.069 81.1544 208.97 81.8291 208.771 82.3878C208.572 82.9441 208.285 83.3691 207.908 83.6626C207.532 83.9538 207.076 84.0994 206.541 84.0994ZM206.541 83.3182C207.071 83.3182 207.483 83.0625 207.777 82.5511C208.07 82.0398 208.217 81.3106 208.217 80.3636C208.217 79.7339 208.15 79.1977 208.015 78.755C207.882 78.3123 207.69 77.9749 207.439 77.7429C207.191 77.5109 206.891 77.3949 206.541 77.3949C206.015 77.3949 205.605 77.6541 205.309 78.1726C205.013 78.6887 204.865 79.419 204.865 80.3636C204.865 80.9934 204.931 81.5284 205.064 81.9688C205.196 82.4091 205.387 82.7441 205.635 82.9737C205.886 83.2034 206.188 83.3182 206.541 83.3182ZM210.248 82.5085V81.7841L213.444 76.7273H213.97V77.8494H213.615L211.2 81.6705V81.7273H215.504V82.5085H210.248ZM213.672 84V82.2884V81.951V76.7273H214.51V84H213.672Z" fill="#2B2E35"/>
<path d="M205.165 60.463V60.353L208.256 50.893H209.103V51.003L206.001 60.463H205.165Z" fill="#93969A"/>
<defs>
<clipPath id="clip0_1247_431">
<rect width="12" height="12" fill="white" transform="translate(201 23)"/>
</clipPath>
</defs>
</svg>
