<svg width="413" height="107" viewBox="0 0 413 107" fill="none" xmlns="http://www.w3.org/2000/svg">
<path d="M0 46.1614L80 92.3152L80 106.998L-3.23707e-07 60.8441L0 46.1614Z" fill="#DADADA"/>
<path d="M80 -5.50197e-06L160 46.1538L80 92.3077L4.70946e-05 46.1538L80 -5.50197e-06Z" fill="#F5F5F5"/>
<path d="M60.1 49V41.3H63.191C64.489 41.3 65.435 42.037 65.435 43.302C65.435 44.138 65.039 44.622 64.467 44.875V44.919C65.061 45.161 65.721 45.689 65.721 46.778C65.721 48.186 64.775 49 63.268 49H60.1ZM61.046 44.6H62.96C63.851 44.6 64.456 44.204 64.456 43.302C64.456 42.576 63.961 42.158 63.081 42.158H61.046V44.6ZM61.046 48.131H63.158C64.071 48.131 64.731 47.658 64.731 46.778C64.731 45.876 64.137 45.436 63.158 45.436H61.046V48.131ZM67.3162 49V43.379H68.1192L68.1962 44.325H68.2402C68.4712 43.698 69.0322 43.313 69.7252 43.313H70.2312V44.204H69.7912C68.7242 44.204 68.2402 44.952 68.2402 46.272V49H67.3162ZM73.4885 49.099C71.7285 49.099 70.9475 47.812 70.9475 46.195C70.9475 44.578 71.7505 43.28 73.4885 43.28C75.2265 43.28 76.0295 44.578 76.0295 46.195C76.0295 47.801 75.2485 49.099 73.4885 49.099ZM73.4885 48.274C74.6325 48.274 75.0945 47.405 75.0945 46.195C75.0945 44.985 74.6325 44.105 73.4885 44.105C72.3445 44.105 71.8825 44.996 71.8825 46.195C71.8825 47.405 72.3555 48.274 73.4885 48.274ZM78.3892 49L76.7942 43.489V43.379H77.7512L78.8732 47.746H78.9172L80.2372 43.379H81.1832L82.5032 47.746H82.5472L83.6692 43.379H84.6042V43.489L83.0202 49H82.0632L80.7432 44.633H80.6992L79.3462 49H78.3892ZM87.6732 49.099C86.3422 49.099 85.4072 48.373 85.3742 47.141H86.2982C86.2982 47.889 86.8702 48.274 87.6732 48.274C88.4652 48.274 88.9602 48.01 88.9602 47.471C88.9602 47.097 88.7072 46.8 88.1022 46.668L86.9802 46.459C86.0562 46.272 85.5502 45.711 85.5502 44.886C85.5502 43.951 86.3532 43.28 87.5962 43.28C88.8612 43.28 89.7632 43.973 89.7632 45.095H88.8612C88.8282 44.38 88.3002 44.061 87.5962 44.061C86.9142 44.061 86.4412 44.336 86.4412 44.886C86.4412 45.326 86.8042 45.579 87.4202 45.678L88.3002 45.843C89.3562 46.085 89.8952 46.503 89.8952 47.471C89.8952 48.505 88.8832 49.099 87.6732 49.099ZM93.5444 49.099C91.8834 49.099 90.9924 47.845 90.9924 46.195C90.9924 44.567 91.7954 43.28 93.5334 43.28C95.1174 43.28 95.9644 44.457 95.9644 46.019V46.47H91.9604C91.9604 47.537 92.4994 48.274 93.5444 48.274C94.2814 48.274 94.8094 47.966 94.9634 47.372H95.8874C95.7334 48.406 94.7434 49.099 93.5444 49.099ZM91.9714 45.7H95.0074C95.0074 44.809 94.5344 44.105 93.5334 44.105C92.4774 44.105 92.0044 44.82 91.9714 45.7ZM97.5017 49V43.379H98.3047L98.3817 44.325H98.4257C98.6567 43.698 99.2177 43.313 99.9107 43.313H100.417V44.204H99.9767C98.9097 44.204 98.4257 44.952 98.4257 46.272V49H97.5017Z" fill="black"/>
<rect width="92.3589" height="14.6941" transform="matrix(0.866185 -0.499723 2.20468e-08 1 80 92.3086)" fill="#2B2E35"/>
<path d="M253 46.1614L333 92.3152L333 106.998L253 60.8441L253 46.1614Z" fill="#DADADA"/>
<path d="M333 -5.50197e-06L413 46.1538L333 92.3077L253 46.1538L333 -5.50197e-06Z" fill="#F5F5F5"/>
<path d="M214 54.5L213.5 54.5L213.5 55.5L214 55.5L214 55L214 54.5ZM253.354 55.3536C253.549 55.1583 253.549 54.8417 253.354 54.6465L250.172 51.4645C249.976 51.2692 249.66 51.2692 249.464 51.4645C249.269 51.6597 249.269 51.9763 249.464 52.1716L252.293 55L249.464 57.8284C249.269 58.0237 249.269 58.3403 249.464 58.5355C249.66 58.7308 249.976 58.7308 250.172 58.5355L253.354 55.3536ZM214 55L214 55.5L214.975 55.5L214.975 55L214.975 54.5L214 54.5L214 55ZM216.925 55L216.925 55.5L218.875 55.5L218.875 55L218.875 54.5L216.925 54.5L216.925 55ZM220.825 55L220.825 55.5L222.775 55.5L222.775 55L222.775 54.5L220.825 54.5L220.825 55ZM224.725 55L224.725 55.5L226.675 55.5L226.675 55L226.675 54.5L224.725 54.5L224.725 55ZM228.625 55L228.625 55.5L230.575 55.5L230.575 55L230.575 54.5L228.625 54.5L228.625 55ZM232.525 55L232.525 55.5L234.475 55.5L234.475 55L234.475 54.5L232.525 54.5L232.525 55ZM236.425 55L236.425 55.5L238.375 55.5L238.375 55L238.375 54.5L236.425 54.5L236.425 55ZM240.325 55L240.325 55.5L242.275 55.5L242.275 55L242.275 54.5L240.325 54.5L240.325 55ZM244.225 55L244.225 55.5L246.175 55.5L246.175 55L246.175 54.5L244.225 54.5L244.225 55ZM248.125 55L248.125 55.5L250.075 55.5L250.075 55L250.075 54.5L248.125 54.5L248.125 55ZM252.025 55L252.025 55.5L253 55.5L253 55L253 54.5L252.025 54.5L252.025 55Z" fill="#93969A"/>
<path d="M160 57.6667C161.473 57.6667 162.667 56.4728 162.667 55C162.667 53.5272 161.473 52.3333 160 52.3333C158.527 52.3333 157.333 53.5272 157.333 55C157.333 56.4728 158.527 57.6667 160 57.6667ZM198 55.5L198.5 55.5L198.5 54.5L198 54.5L198 55L198 55.5ZM160 55L160 55.5L160.95 55.5L160.95 55L160.95 54.5L160 54.5L160 55ZM162.85 55L162.85 55.5L164.75 55.5L164.75 55L164.75 54.5L162.85 54.5L162.85 55ZM166.65 55L166.65 55.5L168.55 55.5L168.55 55L168.55 54.5L166.65 54.5L166.65 55ZM170.45 55L170.45 55.5L172.35 55.5L172.35 55L172.35 54.5L170.45 54.5L170.45 55ZM174.25 55L174.25 55.5L176.15 55.5L176.15 55L176.15 54.5L174.25 54.5L174.25 55ZM178.05 55L178.05 55.5L179.95 55.5L179.95 55L179.95 54.5L178.05 54.5L178.05 55ZM181.85 55L181.85 55.5L183.75 55.5L183.75 55L183.75 54.5L181.85 54.5L181.85 55ZM185.65 55L185.65 55.5L187.55 55.5L187.55 55L187.55 54.5L185.65 54.5L185.65 55ZM189.45 55L189.45 55.5L191.35 55.5L191.35 55L191.35 54.5L189.45 54.5L189.45 55ZM193.25 55L193.25 55.5L195.15 55.5L195.15 55L195.15 54.5L193.25 54.5L193.25 55ZM197.05 55L197.05 55.5L198 55.5L198 55L198 54.5L197.05 54.5L197.05 55Z" fill="#93969A"/>
<path d="M319.465 49.099C317.595 49.099 316.594 48.142 316.55 46.69H317.529C317.584 47.647 318.255 48.23 319.465 48.23C320.686 48.23 321.346 47.79 321.346 46.888C321.346 46.14 320.807 45.81 319.971 45.634L318.849 45.392C317.518 45.106 316.803 44.49 316.803 43.313C316.803 42.015 317.771 41.201 319.476 41.201C321.126 41.201 322.204 42.125 322.215 43.489H321.236C321.192 42.653 320.642 42.081 319.454 42.081C318.464 42.081 317.804 42.444 317.804 43.313C317.804 43.94 318.299 44.281 319.113 44.457L320.158 44.677C321.588 44.974 322.347 45.711 322.347 46.888C322.347 48.263 321.247 49.099 319.465 49.099ZM326.052 49.099C324.391 49.099 323.5 47.845 323.5 46.195C323.5 44.567 324.303 43.28 326.041 43.28C327.625 43.28 328.472 44.457 328.472 46.019V46.47H324.468C324.468 47.537 325.007 48.274 326.052 48.274C326.789 48.274 327.317 47.966 327.471 47.372H328.395C328.241 48.406 327.251 49.099 326.052 49.099ZM324.479 45.7H327.515C327.515 44.809 327.042 44.105 326.041 44.105C324.985 44.105 324.512 44.82 324.479 45.7ZM330.01 49V43.379H330.813L330.89 44.325H330.934C331.165 43.698 331.726 43.313 332.419 43.313H332.925V44.204H332.485C331.418 44.204 330.934 44.952 330.934 46.272V49H330.01ZM335.737 49L333.526 43.489V43.379H334.483L336.21 47.922H336.254L337.915 43.379H338.872V43.489L336.694 49H335.737ZM342.037 49.099C340.376 49.099 339.485 47.845 339.485 46.195C339.485 44.567 340.288 43.28 342.026 43.28C343.61 43.28 344.457 44.457 344.457 46.019V46.47H340.453C340.453 47.537 340.992 48.274 342.037 48.274C342.774 48.274 343.302 47.966 343.456 47.372H344.38C344.226 48.406 343.236 49.099 342.037 49.099ZM340.464 45.7H343.5C343.5 44.809 343.027 44.105 342.026 44.105C340.97 44.105 340.497 44.82 340.464 45.7ZM345.994 49V43.379H346.797L346.874 44.325H346.918C347.149 43.698 347.71 43.313 348.403 43.313H348.909V44.204H348.469C347.402 44.204 346.918 44.952 346.918 46.272V49H345.994Z" fill="black"/>
<rect width="92.3589" height="14.6941" transform="matrix(0.866185 -0.499723 2.20468e-08 1 333 92.3086)" fill="#999B83"/>
<rect x="196" y="19" width="22" height="20" rx="4" fill="#F7C2C2"/>
<g clip-path="url(#clip0_1247_364)">
<path d="M207.001 25.3142H206.999L202.743 33.4987L202.744 33.4999H211.256L211.257 33.4987L207.001 25.3142ZM206.578 27.4999H207.422V30.8749H206.578V27.4999ZM207 32.7499C206.889 32.7499 206.78 32.7169 206.687 32.6551C206.595 32.5933 206.523 32.5055 206.48 32.4027C206.438 32.2999 206.427 32.1868 206.448 32.0777C206.47 31.9686 206.523 31.8684 206.602 31.7897C206.681 31.711 206.781 31.6574 206.89 31.6357C206.999 31.614 207.112 31.6252 207.215 31.6678C207.318 31.7103 207.406 31.7824 207.468 31.8749C207.529 31.9674 207.562 32.0762 207.562 32.1874C207.562 32.3366 207.503 32.4797 207.398 32.5852C207.292 32.6907 207.149 32.7499 207 32.7499Z" fill="#D9534F"/>
<path d="M211.875 34.25H202.125C202.061 34.25 201.997 34.2334 201.941 34.2018C201.885 34.1702 201.838 34.1247 201.804 34.0696C201.771 34.0145 201.752 33.9518 201.75 33.8874C201.748 33.823 201.763 33.7591 201.792 33.702L206.667 24.327C206.699 24.2661 206.747 24.2151 206.805 24.1794C206.864 24.1438 206.931 24.125 207 24.125C207.069 24.125 207.136 24.1438 207.195 24.1794C207.253 24.2151 207.301 24.2661 207.333 24.327L212.208 33.702C212.237 33.7591 212.252 33.823 212.25 33.8874C212.248 33.9518 212.229 34.0145 212.196 34.0696C212.162 34.1247 212.115 34.1702 212.059 34.2018C212.003 34.2334 211.939 34.25 211.875 34.25ZM202.744 33.5H211.256L211.257 33.4988L207.001 25.3143H206.999L202.743 33.4988L202.744 33.5Z" fill="#D9534F"/>
</g>
<rect x="192" y="70" width="29" height="20" rx="4" fill="#F7C2C2"/>
<path d="M200.026 84.0994C199.609 84.0994 199.234 84.0166 198.9 83.8509C198.566 83.6851 198.299 83.4579 198.097 83.169C197.896 82.8802 197.786 82.5511 197.767 82.1818H198.619C198.652 82.5109 198.802 82.7831 199.067 82.9986C199.334 83.2116 199.654 83.3182 200.026 83.3182C200.324 83.3182 200.589 83.2483 200.821 83.1087C201.055 82.969 201.239 82.7772 201.371 82.5334C201.506 82.2872 201.574 82.009 201.574 81.6989C201.574 81.3816 201.504 81.0987 201.364 80.8501C201.227 80.5992 201.038 80.4015 200.796 80.2571C200.555 80.1127 200.279 80.0393 199.969 80.0369C199.746 80.0346 199.518 80.0689 199.283 80.1399C199.049 80.2086 198.856 80.2973 198.705 80.4062L197.881 80.3068L198.321 76.7273H202.099V77.5085H199.06L198.804 79.6534H198.847C198.996 79.535 199.183 79.4368 199.408 79.3587C199.633 79.2805 199.867 79.2415 200.111 79.2415C200.556 79.2415 200.952 79.348 201.3 79.5611C201.651 79.7718 201.925 80.0606 202.124 80.4276C202.326 80.7945 202.426 81.2135 202.426 81.6847C202.426 82.1487 202.322 82.563 202.114 82.9276C201.908 83.2898 201.624 83.5762 201.261 83.7869C200.899 83.9953 200.487 84.0994 200.026 84.0994ZM206.209 84.0994C205.674 84.0994 205.218 83.9538 204.842 83.6626C204.465 83.3691 204.178 82.9441 203.979 82.3878C203.78 81.8291 203.681 81.1544 203.681 80.3636C203.681 79.5777 203.78 78.9065 203.979 78.3501C204.18 77.7914 204.469 77.3653 204.845 77.0717C205.224 76.7758 205.679 76.6278 206.209 76.6278C206.739 76.6278 207.193 76.7758 207.569 77.0717C207.948 77.3653 208.237 77.7914 208.436 78.3501C208.637 78.9065 208.737 79.5777 208.737 80.3636C208.737 81.1544 208.638 81.8291 208.439 82.3878C208.24 82.9441 207.953 83.3691 207.576 83.6626C207.2 83.9538 206.744 84.0994 206.209 84.0994ZM206.209 83.3182C206.739 83.3182 207.151 83.0625 207.445 82.5511C207.738 82.0398 207.885 81.3106 207.885 80.3636C207.885 79.7339 207.818 79.1977 207.683 78.755C207.55 78.3123 207.358 77.9749 207.107 77.7429C206.859 77.5109 206.559 77.3949 206.209 77.3949C205.683 77.3949 205.273 77.6541 204.977 78.1726C204.681 78.6887 204.533 79.419 204.533 80.3636C204.533 80.9934 204.599 81.5284 204.732 81.9688C204.864 82.4091 205.055 82.7441 205.303 82.9737C205.554 83.2034 205.856 83.3182 206.209 83.3182ZM212.459 84.0994C211.924 84.0994 211.468 83.9538 211.092 83.6626C210.715 83.3691 210.428 82.9441 210.229 82.3878C210.03 81.8291 209.931 81.1544 209.931 80.3636C209.931 79.5777 210.03 78.9065 210.229 78.3501C210.43 77.7914 210.719 77.3653 211.095 77.0717C211.474 76.7758 211.929 76.6278 212.459 76.6278C212.989 76.6278 213.443 76.7758 213.819 77.0717C214.198 77.3653 214.487 77.7914 214.686 78.3501C214.887 78.9065 214.987 79.5777 214.987 80.3636C214.987 81.1544 214.888 81.8291 214.689 82.3878C214.49 82.9441 214.203 83.3691 213.826 83.6626C213.45 83.9538 212.994 84.0994 212.459 84.0994ZM212.459 83.3182C212.989 83.3182 213.401 83.0625 213.695 82.5511C213.988 82.0398 214.135 81.3106 214.135 80.3636C214.135 79.7339 214.068 79.1977 213.933 78.755C213.8 78.3123 213.608 77.9749 213.357 77.7429C213.109 77.5109 212.809 77.3949 212.459 77.3949C211.933 77.3949 211.523 77.6541 211.227 78.1726C210.931 78.6887 210.783 79.419 210.783 80.3636C210.783 80.9934 210.849 81.5284 210.982 81.9688C211.114 82.4091 211.305 82.7441 211.553 82.9737C211.804 83.2034 212.106 83.3182 212.459 83.3182Z" fill="#2B2E35"/>
<path d="M205.165 60.463V60.353L208.256 50.893H209.103V51.003L206.001 60.463H205.165Z" fill="#93969A"/>
<defs>
<clipPath id="clip0_1247_364">
<rect width="12" height="12" fill="white" transform="translate(201 23)"/>
</clipPath>
</defs>
</svg>
