<svg width="413" height="107" viewBox="0 0 413 107" fill="none" xmlns="http://www.w3.org/2000/svg">
<path d="M0 46.1611L80 92.315L80 106.998L-3.23707e-07 60.8439L0 46.1611Z" fill="#DADADA"/>
<path d="M80 -5.50197e-06L160 46.1538L80 92.3077L4.70946e-05 46.1538L80 -5.50197e-06Z" fill="#F5F5F5"/>
<path d="M59.07 49.099C56.694 49.099 55.66 47.35 55.66 45.15C55.66 42.939 56.694 41.201 59.07 41.201C61.435 41.201 62.48 42.939 62.48 45.15C62.48 47.35 61.435 49.099 59.07 49.099ZM59.07 48.197C60.896 48.197 61.49 46.701 61.49 45.15C61.49 43.599 60.896 42.103 59.07 42.103C57.233 42.103 56.65 43.599 56.65 45.15C56.65 46.701 57.244 48.197 59.07 48.197ZM64.1326 51.519V43.379H64.9356L65.0566 44.16H65.1006C65.3976 43.665 65.9586 43.28 66.7946 43.28C68.2686 43.28 69.1706 44.38 69.1816 46.195C69.1706 47.856 68.3786 49.099 66.7946 49.099C65.9586 49.099 65.3976 48.714 65.1006 48.219H65.0566V51.519H64.1326ZM66.6406 48.274C67.8066 48.274 68.2466 47.317 68.2466 46.195C68.2466 45.062 67.8066 44.105 66.6406 44.105C65.5186 44.105 65.0346 45.073 65.0346 46.195C65.0346 47.306 65.5186 48.274 66.6406 48.274ZM72.8295 49.099C71.1685 49.099 70.2775 47.845 70.2775 46.195C70.2775 44.567 71.0805 43.28 72.8185 43.28C74.4025 43.28 75.2495 44.457 75.2495 46.019V46.47H71.2455C71.2455 47.537 71.7845 48.274 72.8295 48.274C73.5665 48.274 74.0945 47.966 74.2485 47.372H75.1725C75.0185 48.406 74.0285 49.099 72.8295 49.099ZM71.2565 45.7H74.2925C74.2925 44.809 73.8195 44.105 72.8185 44.105C71.7625 44.105 71.2895 44.82 71.2565 45.7ZM76.7869 49V43.379H77.5899L77.6669 44.325H77.7109C77.9419 43.698 78.5029 43.313 79.1959 43.313H79.7019V44.204H79.2619C78.1949 44.204 77.7109 44.952 77.7109 46.272V49H76.7869ZM82.591 49.099C81.37 49.099 80.633 48.34 80.633 47.361C80.633 46.415 81.304 45.601 82.954 45.601H84.34V45.238C84.34 44.611 83.955 44.072 83.042 44.072C82.217 44.072 81.81 44.534 81.799 45.073H80.908C80.908 43.995 81.81 43.28 83.042 43.28C84.483 43.28 85.242 44.149 85.242 45.216V49H84.461L84.395 48.208H84.351C84.01 48.78 83.383 49.099 82.591 49.099ZM82.756 48.329C83.713 48.329 84.34 47.636 84.34 46.822V46.338H82.954C82.041 46.338 81.568 46.69 81.568 47.35C81.568 47.911 81.942 48.329 82.756 48.329ZM88.9801 49C87.8691 49 87.4951 48.428 87.4951 47.493V44.16H86.5601V43.379H87.5171V41.872H88.4191V43.379H89.7941V44.16H88.4191V47.416C88.4191 47.955 88.6501 48.186 89.1561 48.186H89.8161V49H88.9801ZM91.2446 42.213V41.135H92.2786V42.213H91.2446ZM91.2996 49V43.379H92.2236V49H91.2996ZM96.1935 49.099C94.4335 49.099 93.6525 47.812 93.6525 46.195C93.6525 44.578 94.4555 43.28 96.1935 43.28C97.9315 43.28 98.7345 44.578 98.7345 46.195C98.7345 47.801 97.9535 49.099 96.1935 49.099ZM96.1935 48.274C97.3375 48.274 97.7995 47.405 97.7995 46.195C97.7995 44.985 97.3375 44.105 96.1935 44.105C95.0495 44.105 94.5875 44.996 94.5875 46.195C94.5875 47.405 95.0605 48.274 96.1935 48.274ZM100.269 49V43.379H101.072L101.149 44.259H101.193C101.49 43.687 102.062 43.28 102.931 43.28C104.174 43.28 104.9 44.061 104.9 45.348V49H103.976V45.491C103.976 44.611 103.569 44.105 102.678 44.105C101.743 44.105 101.193 44.765 101.193 45.898V49H100.269Z" fill="black"/>
<rect width="92.3589" height="14.6941" transform="matrix(0.866185 -0.499723 2.20468e-08 1 80 92.3086)" fill="#2B2E35"/>
<path d="M253 46.1611L333 92.315L333 106.998L253 60.8439L253 46.1611Z" fill="#DADADA"/>
<path d="M333 -5.50197e-06L413 46.1538L333 92.3077L253 46.1538L333 -5.50197e-06Z" fill="#F5F5F5"/>
<path d="M214 54.5L213.5 54.5L213.5 55.5L214 55.5L214 55L214 54.5ZM253.354 55.3536C253.549 55.1583 253.549 54.8417 253.354 54.6465L250.172 51.4645C249.976 51.2692 249.66 51.2692 249.464 51.4645C249.269 51.6597 249.269 51.9763 249.464 52.1716L252.293 55L249.464 57.8284C249.269 58.0237 249.269 58.3403 249.464 58.5355C249.66 58.7308 249.976 58.7308 250.172 58.5355L253.354 55.3536ZM214 55L214 55.5L214.975 55.5L214.975 55L214.975 54.5L214 54.5L214 55ZM216.925 55L216.925 55.5L218.875 55.5L218.875 55L218.875 54.5L216.925 54.5L216.925 55ZM220.825 55L220.825 55.5L222.775 55.5L222.775 55L222.775 54.5L220.825 54.5L220.825 55ZM224.725 55L224.725 55.5L226.675 55.5L226.675 55L226.675 54.5L224.725 54.5L224.725 55ZM228.625 55L228.625 55.5L230.575 55.5L230.575 55L230.575 54.5L228.625 54.5L228.625 55ZM232.525 55L232.525 55.5L234.475 55.5L234.475 55L234.475 54.5L232.525 54.5L232.525 55ZM236.425 55L236.425 55.5L238.375 55.5L238.375 55L238.375 54.5L236.425 54.5L236.425 55ZM240.325 55L240.325 55.5L242.275 55.5L242.275 55L242.275 54.5L240.325 54.5L240.325 55ZM244.225 55L244.225 55.5L246.175 55.5L246.175 55L246.175 54.5L244.225 54.5L244.225 55ZM248.125 55L248.125 55.5L250.075 55.5L250.075 55L250.075 54.5L248.125 54.5L248.125 55ZM252.025 55L252.025 55.5L253 55.5L253 55L253 54.5L252.025 54.5L252.025 55Z" fill="#93969A"/>
<path d="M160 57.6667C161.473 57.6667 162.667 56.4728 162.667 55C162.667 53.5272 161.473 52.3333 160 52.3333C158.527 52.3333 157.333 53.5272 157.333 55C157.333 56.4728 158.527 57.6667 160 57.6667ZM198 55.5L198.5 55.5L198.5 54.5L198 54.5L198 55L198 55.5ZM160 55L160 55.5L160.95 55.5L160.95 55L160.95 54.5L160 54.5L160 55ZM162.85 55L162.85 55.5L164.75 55.5L164.75 55L164.75 54.5L162.85 54.5L162.85 55ZM166.65 55L166.65 55.5L168.55 55.5L168.55 55L168.55 54.5L166.65 54.5L166.65 55ZM170.45 55L170.45 55.5L172.35 55.5L172.35 55L172.35 54.5L170.45 54.5L170.45 55ZM174.25 55L174.25 55.5L176.15 55.5L176.15 55L176.15 54.5L174.25 54.5L174.25 55ZM178.05 55L178.05 55.5L179.95 55.5L179.95 55L179.95 54.5L178.05 54.5L178.05 55ZM181.85 55L181.85 55.5L183.75 55.5L183.75 55L183.75 54.5L181.85 54.5L181.85 55ZM185.65 55L185.65 55.5L187.55 55.5L187.55 55L187.55 54.5L185.65 54.5L185.65 55ZM189.45 55L189.45 55.5L191.35 55.5L191.35 55L191.35 54.5L189.45 54.5L189.45 55ZM193.25 55L193.25 55.5L195.15 55.5L195.15 55L195.15 54.5L193.25 54.5L193.25 55ZM197.05 55L197.05 55.5L198 55.5L198 55L198 54.5L197.05 54.5L197.05 55Z" fill="#93969A"/>
<path d="M321.156 49V41.3H326.106V42.18H322.113V44.589H325.765V45.469H322.113V48.131H326.106V49H321.156ZM327.76 49V43.379H328.563L328.64 44.325H328.684C328.915 43.698 329.476 43.313 330.169 43.313H330.675V44.204H330.235C329.168 44.204 328.684 44.952 328.684 46.272V49H327.76ZM332.4 49V43.379H333.203L333.28 44.325H333.324C333.555 43.698 334.116 43.313 334.809 43.313H335.315V44.204H334.875C333.808 44.204 333.324 44.952 333.324 46.272V49H332.4ZM338.572 49.099C336.812 49.099 336.031 47.812 336.031 46.195C336.031 44.578 336.834 43.28 338.572 43.28C340.31 43.28 341.113 44.578 341.113 46.195C341.113 47.801 340.332 49.099 338.572 49.099ZM338.572 48.274C339.716 48.274 340.178 47.405 340.178 46.195C340.178 44.985 339.716 44.105 338.572 44.105C337.428 44.105 336.966 44.996 336.966 46.195C336.966 47.405 337.439 48.274 338.572 48.274ZM342.648 49V43.379H343.451L343.528 44.325H343.572C343.803 43.698 344.364 43.313 345.057 43.313H345.563V44.204H345.123C344.056 44.204 343.572 44.952 343.572 46.272V49H342.648Z" fill="black"/>
<rect width="92.3589" height="14.6941" transform="matrix(0.866185 -0.499723 2.20468e-08 1 333 92.3086)" fill="#CECAC2"/>
<rect x="196" y="19" width="22" height="20" rx="4" fill="#F7C2C2"/>
<g clip-path="url(#clip0_1247_519)">
<path d="M207.001 25.3145H206.999L202.743 33.4989L202.744 33.5002H211.256L211.257 33.4989L207.001 25.3145ZM206.578 27.5002H207.422V30.8752H206.578V27.5002ZM207 32.7502C206.889 32.7502 206.78 32.7172 206.687 32.6554C206.595 32.5936 206.523 32.5057 206.48 32.4029C206.438 32.3002 206.427 32.1871 206.448 32.0779C206.47 31.9688 206.523 31.8686 206.602 31.7899C206.681 31.7113 206.781 31.6577 206.89 31.636C206.999 31.6143 207.112 31.6254 207.215 31.668C207.318 31.7106 207.406 31.7827 207.468 31.8752C207.529 31.9677 207.562 32.0764 207.562 32.1877C207.562 32.3369 207.503 32.4799 207.398 32.5854C207.292 32.6909 207.149 32.7502 207 32.7502Z" fill="#D9534F"/>
<path d="M211.875 34.25H202.125C202.061 34.25 201.997 34.2334 201.941 34.2018C201.885 34.1702 201.838 34.1247 201.804 34.0696C201.771 34.0145 201.752 33.9518 201.75 33.8874C201.748 33.823 201.763 33.7591 201.792 33.702L206.667 24.327C206.699 24.2661 206.747 24.2151 206.805 24.1794C206.864 24.1438 206.931 24.125 207 24.125C207.069 24.125 207.136 24.1438 207.195 24.1794C207.253 24.2151 207.301 24.2661 207.333 24.327L212.208 33.702C212.237 33.7591 212.252 33.823 212.25 33.8874C212.248 33.9518 212.229 34.0145 212.196 34.0696C212.162 34.1247 212.115 34.1702 212.059 34.2018C212.003 34.2334 211.939 34.25 211.875 34.25ZM202.744 33.5H211.256L211.257 33.4988L207.001 25.3143H206.999L202.743 33.4988L202.744 33.5Z" fill="#D9534F"/>
</g>
<path d="M205.165 60.463V60.353L208.256 50.893H209.103V51.003L206.001 60.463H205.165Z" fill="#93969A"/>
<defs>
<clipPath id="clip0_1247_519">
<rect width="12" height="12" fill="white" transform="translate(201 23)"/>
</clipPath>
</defs>
</svg>
