<svg width="32" height="32" viewBox="0 0 32 32" fill="none" xmlns="http://www.w3.org/2000/svg">
<rect width="32" height="32" fill="white"/>
<path d="M23.0214 11.1166V7.77717C23.9169 7.35997 24.4906 6.45368 24.4904 5.45629C24.4904 4.03618 23.3523 2.88495 21.9485 2.88495C20.5446 2.88495 19.4066 4.03618 19.4066 5.45629C19.3943 6.43843 19.9397 7.34071 20.8096 7.77717V11.1166C19.555 11.3089 18.3747 11.8395 17.3929 12.6527L8.34772 5.52308C8.41408 5.28969 8.44742 5.04796 8.44675 4.80511C8.40148 3.22146 7.10369 1.97023 5.53782 2.00054C3.97194 2.03085 2.72242 3.33138 2.73694 4.91562C2.75172 6.49985 4.02509 7.77651 5.59125 7.77717C6.08424 7.77683 6.56834 7.64432 6.99424 7.39314L15.8909 14.3892C14.2569 16.8913 14.3028 20.15 16.0064 22.6041L13.2994 25.3424C13.0789 25.2779 12.8519 25.2386 12.6227 25.2255C11.3199 25.2629 10.2936 26.3614 10.3302 27.6793C10.3668 28.9972 11.4525 30.0357 12.7553 29.999C14.0582 29.9623 15.085 28.8644 15.0491 27.5464C15.0498 27.3145 15.0164 27.0838 14.95 26.8618L17.624 24.1569C20.0292 26.0294 23.3345 26.1828 25.8991 24.541C28.4638 22.8992 29.7417 19.8118 29.0985 16.8113C28.4552 13.8109 26.0279 11.5362 23.0214 11.1166ZM21.9155 22.0865C19.8644 22.0865 18.2017 20.4045 18.2017 18.3297C18.2017 16.2548 19.8644 14.5729 21.9155 14.5729C23.9665 14.5729 25.6293 16.2548 25.6293 18.3297C25.6337 19.3274 25.2438 20.2856 24.5464 20.9911C23.849 21.6966 22.9018 22.091 21.9155 22.0865Z" fill="#FF7A59"/>
</svg>
