<svg width="32" height="32" viewBox="0 0 32 32" fill="none" xmlns="http://www.w3.org/2000/svg">
<rect width="32" height="32" fill="white"/>
<path d="M17.8327 5.0176C17.512 4.44213 16.9749 4.01865 16.3407 3.84125C15.7064 3.66385 15.0277 3.74723 14.4552 4.07287C14.078 4.30457 13.7607 4.62202 13.5291 4.99943L9.98824 11.122L10.8962 11.6489C15.9851 14.5905 19.2386 19.9109 19.5396 25.7835H17.0155C16.6546 20.8477 13.8731 16.4114 9.58875 13.938L8.68083 13.393L5.30337 18.9887L6.22944 19.5337C8.44704 20.8444 9.93995 23.1017 10.2788 25.6563H4.6315C4.40975 25.6686 4.21422 25.5121 4.17754 25.2929C4.14167 25.2183 4.14167 25.1314 4.17754 25.0567L5.77548 22.2952C5.24574 21.823 4.62891 21.4589 3.95964 21.2233L2.34354 23.9848C1.64235 25.189 2.04868 26.7339 3.25146 27.4367C3.63188 27.6385 4.05569 27.7445 4.48624 27.7456H12.367V26.6555C12.3328 23.3352 10.747 20.2223 8.0816 18.2438L9.2619 16.1363C12.7366 18.5201 14.8414 22.4408 14.9092 26.6555V27.6911H21.6278V26.6555C21.5914 20.0658 18.2662 13.9302 12.7665 10.3044L15.2905 5.92599C15.433 5.73295 15.6943 5.67145 15.9079 5.78065L16.0713 5.92599L27.0753 25.0022C27.1609 25.194 27.0909 25.4195 26.9119 25.5291H24.0429V27.6002H26.6395C27.3183 27.6198 27.9763 27.3649 28.4649 26.8931C28.9535 26.4213 29.2316 25.7725 29.2362 25.0931C29.2548 24.6658 29.1475 24.2425 28.9275 23.8758L17.8327 5.0176Z" fill="black"/>
</svg>
