<?xml version="1.0" encoding="UTF-8"?>
<svg width="633px" height="200px" viewBox="0 0 633 200" version="1.1" xmlns="http://www.w3.org/2000/svg" xmlns:xlink="http://www.w3.org/1999/xlink">
    <title>FidesOps</title>
    <g id="fidesops-container" stroke="none" stroke-width="1" fill="none" fill-rule="evenodd">
        <g id="fidesops" transform="translate(-196.000000, -284.000000)" fill="#FFFFFF">
            <g id="Group-17" transform="translate(195.999800, 284.000000)">
                <path d="M632.2612,0 L632.2612,199.402 L356.8992,199.402 L356.8992,0 L632.2612,0 Z M511.0259,63.6506 C502.3789,63.6506 496.2149,68.0136 489.7099,73.8106 L489.7099,73.8106 L489.7099,65.6556 L465.0109,65.6556 L465.0109,179.2896 L489.7099,179.2896 L489.7099,141.8926 C495.6449,147.4156 501.3759,150.5396 508.5109,150.5396 C526.4539,150.5396 543.3749,134.2276 543.3749,105.7886 C543.3749,80.2386 531.0909,63.6506 511.0259,63.6506 Z M416.3676,63.6507 C395.3966,63.6507 375.9966,79.5707 375.9966,107.1247 C375.9966,134.6207 395.3966,150.5397 416.3676,150.5397 C437.3386,150.5397 456.7376,134.6207 456.7376,107.1247 C456.7376,79.5707 437.3386,63.6507 416.3676,63.6507 Z M580.7804,63.6507 C561.6564,63.6507 549.1154,74.1657 549.1154,89.5957 C549.1154,103.2947 560.8864,110.0367 571.0464,113.9667 C579.5754,117.3077 587.7894,119.7827 587.7894,125.2437 C587.7894,129.5847 584.6264,132.3737 577.3194,132.3737 C570.3844,132.3737 563.4464,129.3477 555.9384,123.6677 L555.9384,123.6677 L544.8894,138.9637 C553.2824,145.8037 565.7834,150.5397 576.7094,150.5397 C598.9204,150.5397 610.7534,138.8057 610.7534,123.8087 C610.7534,110.1719 601.1711,104.02355 591.604514,100.100999 L590.96687,99.8427353 C590.435695,99.6301672 589.905227,99.424108 589.377112,99.2236551 L588.744608,98.985745 L588.744608,98.985745 L588.4294,98.8687 C579.8414,95.7437 572.0784,93.7207 572.0784,88.4357 C572.0784,84.3007 575.2024,81.8177 581.5474,81.8177 C587.2844,81.8177 593.1014,84.6077 598.9984,88.8927 L598.9984,88.8927 L609.9884,74.1467 C602.9324,68.7817 593.4784,63.6507 580.7804,63.6507 Z M416.3676,83.4687 C426.5246,83.4687 431.5716,92.7817 431.5716,107.1247 C431.5716,121.4677 426.5246,130.7217 416.3676,130.7217 C406.2106,130.7217 401.1636,121.4677 401.1636,107.1247 C401.1636,92.7817 406.2106,83.4687 416.3676,83.4687 Z M503.8099,83.7446 C513.6109,83.7446 518.2089,91.1886 518.2089,106.0636 C518.2089,123.2186 511.3529,130.4466 502.7889,130.4466 C498.6429,130.4466 494.1689,129.0906 489.7099,125.2016 L489.7099,125.2016 L489.7099,91.1696 C494.5619,86.0036 498.7599,83.7446 503.8099,83.7446 Z" id="Fill-3"></path>
                <g id="Group-16" transform="translate(0.000000, 27.486900)">
                    <path d="M51.754,19.519 C54.523,19.519 57.631,20.198 60.455,21.338 L64.934,2.986 C61.215,1.574 55.202,0 48.184,0 C25.516,0 17.304,14.565 17.304,32.278 L17.304,36.636 L0,36.636 L0,56.155 L17.304,56.155 L17.304,120.603 L42.171,120.603 L42.171,56.155 L59.97,56.155 L59.97,36.636 L42.171,36.636 L42.171,31.559 C42.171,22.858 45.686,19.519 51.754,19.519" id="Fill-2"></path>
                    <path d="M158.8974,94.7588 L158.8974,60.2808 C154.4994,56.3308 149.5584,54.9608 144.9974,54.9608 C136.9354,54.9608 129.8764,62.3988 129.8764,78.3748 C129.8764,94.8538 135.5644,102.2788 145.2014,102.2788 C150.4954,102.2788 154.7714,100.2698 158.8974,94.7588 M158.8974,2.0358 L183.7644,2.0358 L183.7644,120.6038 L158.8974,120.6038 L158.8974,112.2828 C152.9524,118.2148 146.8304,122.6398 138.7264,122.6398 C117.8504,122.6398 104.3714,106.0658 104.3714,78.6468 C104.3714,51.1868 121.5154,34.5998 139.2014,34.5998 C148.4594,34.5998 153.2234,38.0478 158.8974,43.3678" id="Fill-5"></path>
                    <path d="M274.5065,110.9116 L285.6915,95.4106 C293.3065,101.1656 300.3235,104.2336 307.3555,104.2336 C314.7665,104.2336 317.9695,101.4096 317.9695,97.0116 C317.9695,91.4736 309.6355,88.9626 301.0025,85.5826 C290.7135,81.5926 278.7825,74.7646 278.7825,60.8916 C278.7825,45.2546 291.4875,34.5996 310.8575,34.5996 C323.7255,34.5996 333.3085,39.7986 340.4615,45.2416 L329.3175,60.1726 C323.3455,55.8426 317.4545,53.0056 311.6445,53.0056 C305.2105,53.0056 302.0475,55.5306 302.0475,59.7106 C302.0475,65.0726 309.9075,67.1226 318.6075,70.2856 C329.2495,74.2216 341.2355,80.1936 341.2355,95.5456 C341.2355,110.7486 329.2365,122.6396 306.7445,122.6396 C295.6685,122.6396 283.0035,117.8346 274.5065,110.9116" id="Fill-7"></path>
                    <polygon id="Fill-9" points="70.0402 120.6031 94.9212 120.6031 94.9212 36.6351 70.0402 36.6351"></polygon>
                    <path d="M95.0552,13.1249 C95.0552,20.0359 89.4532,25.6379 82.5422,25.6379 C75.6312,25.6379 70.0292,20.0359 70.0292,13.1249 C70.0292,6.2139 75.6312,0.6119 82.5422,0.6119 C89.4532,0.6119 95.0552,6.2139 95.0552,13.1249" id="Fill-11"></path>
                    <path d="M220.1912,68.8204 L244.8472,68.8204 C244.8472,65.5664 244.0402,62.7334 242.4312,60.3184 C240.8202,57.9054 237.8502,56.6984 233.5192,56.6984 C230.2962,56.6984 227.4932,57.6534 225.1052,59.5604 C222.7162,61.4704 221.0792,64.5564 220.1912,68.8204 M235.8512,123.0334 C229.7422,123.0334 224.0772,122.0494 218.8582,120.0864 C213.6362,118.1244 209.1122,115.2624 205.2812,111.5004 C201.4492,107.7414 198.4222,103.1114 196.2012,97.6104 C193.9782,92.1124 192.8692,85.8834 192.8692,78.9224 C192.8692,72.0774 194.0072,65.9314 196.2852,60.4864 C198.5602,55.0434 201.5582,50.4134 205.2812,46.5964 C209.0012,42.7824 213.2492,39.8624 218.0252,37.8414 C222.7992,35.8214 227.7422,34.8114 232.8522,34.8114 C238.9592,34.8114 244.2902,35.8794 248.8452,38.0104 C253.3982,40.1434 257.1752,43.0604 260.1732,46.7654 C263.1722,50.4684 265.4212,54.7914 266.9202,59.7284 C268.4202,64.6694 269.1702,69.9434 269.1702,75.5544 C269.1702,78.1384 269.0292,80.5504 268.7532,82.7944 C268.4742,85.0414 268.2252,86.6674 268.0032,87.6774 L220.5242,87.6774 C221.8572,92.7284 224.2442,96.2374 227.6872,98.1994 C231.1292,100.1644 235.1842,101.1464 239.8492,101.1464 C242.7362,101.1464 245.5392,100.7254 248.2622,99.8834 C250.9822,99.0414 253.8432,97.7784 256.8422,96.0954 L267.3722,112.2514 C262.8162,115.5094 256.5922,118.9664 251.0942,120.5914 C245.5972,122.2174 240.5152,123.0334 235.8512,123.0334" id="Fill-12"></path>
                </g>
            </g>
        </g>
    </g>
</svg>