<?xml version="1.0" encoding="utf-8"?>
<!-- Generator: Adobe Illustrator 25.4.1, SVG Export Plug-In . SVG Version: 6.00 Build 0)  -->
<svg version="1.1" id="Layer_1" xmlns="http://www.w3.org/2000/svg" xmlns:xlink="http://www.w3.org/1999/xlink" x="0px" y="0px"
	 viewBox="0 0 545.01 213.16" style="enable-background:new 0 0 545.01 213.16;" xml:space="preserve">
<style>
       path, rect {
            fill: #fff;
        }
    </style>
<g>
	<path class="st0" d="M258.71,91.54l9.85-0.75h30.24v15.3h-40.09V91.54z M267.47,87.38c0-13.89,6.44-25.29,24.2-25.29
		c5.49,0,10.21,1.23,13.12,2.34l-3.51,14.38c-2.21-0.89-4.65-1.42-6.82-1.42c-4.76,0-7.5,2.62-7.5,9.44v69.77h-19.49V87.38z"/>
	<path class="st0" d="M315.76,70.98c0-5.98,4.75-10.19,11.28-10.19s11.28,4.21,11.28,10.19c0,5.93-4.74,10.19-11.28,10.19
		S315.76,76.91,315.76,70.98z M317.27,90.79h19.49v65.79h-19.49V90.79z"/>
	<path class="st0" d="M350.48,123.71c0-21.52,13.43-34.51,27.29-34.51c7.25,0,11.68,2.7,16.13,6.86l-0.7-9.97V63.68h19.49v92.91
		h-15.9l-1.4-6.52h-0.48c-4.65,4.65-11.15,8.11-17.5,8.11C361.05,158.18,350.48,145.2,350.48,123.71z M393.2,136.33v-27.02
		c-3.45-3.09-7.31-4.16-10.89-4.16c-6.31,0-11.85,5.83-11.85,18.34c0,12.92,4.46,18.73,12.01,18.73
		C386.62,142.23,389.97,140.65,393.2,136.33z"/>
	<path class="st0" d="M426.03,123.71c0-21.34,15.23-34.51,31.03-34.51c18.74,0,28.02,13.62,28.02,31.58c0,3.51-0.44,7.02-0.81,8.61
		h-39.36c1.75,9.54,8.28,13.92,17.06,13.92c4.98,0,9.45-1.51,14.23-4.31l6.45,11.75c-6.74,4.67-15.54,7.41-23.34,7.41
		C440.56,158.18,426.03,145.49,426.03,123.71z M468.43,116.5c0-7.23-3.15-12.44-10.93-12.44c-6.16,0-11.48,4.13-12.8,12.44H468.43z"
		/>
	<path class="st0" d="M492.72,148.99l8.77-12.14c5.96,4.51,11.47,6.91,16.97,6.91c5.8,0,8.31-2.21,8.31-5.66
		c0-4.33-6.52-6.3-13.29-8.95c-8.07-3.12-17.41-8.47-17.41-19.35c0-12.25,9.96-20.6,25.14-20.6c10.08,0,17.59,4.07,23.19,8.33
		l-8.72,11.71c-4.68-3.4-9.3-5.62-13.85-5.62c-5.04,0-7.52,1.97-7.52,5.25c0,4.19,6.16,5.8,12.98,8.28
		c8.33,3.08,17.72,7.77,17.72,19.8c0,11.91-9.39,21.22-27.03,21.22C509.31,158.18,499.39,154.42,492.72,148.99z"/>
</g>
<rect class="st0" width="213.16" height="213.16"/>
</svg>
