<?xml version="1.0" encoding="UTF-8"?>
<svg width="18px" height="22px" viewBox="0 0 18 22" version="1.1" xmlns="http://www.w3.org/2000/svg" xmlns:xlink="http://www.w3.org/1999/xlink">
    <title>Icon/Sunburst@1x</title>
    <g id="Page-1" stroke="none" stroke-width="1" fill="none" fill-rule="evenodd">
        <g id="Sunburst" transform="translate(-1257.000000, -159.000000)" fill="#313A46">
            <g id="Group-17" transform="translate(1257.000000, 159.039408)">
                <path d="M9.02092101,0 C11.4014153,0 13.6868298,0.966296195 15.3700979,2.68449978 C17.053366,4.40270336 18.0000149,6.73555073 18.0000149,9.16545112 L15.562,9.165 L15.5587957,9.38704338 C15.5127462,10.7494153 15.0663056,12.0079715 14.3358533,13.0439171 L16.3258872,14.4950768 C15.1573175,16.1639276 13.4880524,17.3635425 11.6080132,17.94168 L12.6603766,21.5110113 C12.3648298,21.6018021 12.0661037,21.681488 11.7648442,21.7499423 C11.4635847,21.8183713 11.1599655,21.8755179 10.8545829,21.9212809 L10.3245685,18.23367 C9.89600395,18.2979606 9.46044372,18.3309022 9.02092101,18.3309022 L8.99737463,18.3309022 L8.99737463,18.3309022 L9.003,15.82 L8.80103257,15.816878 C5.2994979,15.6935587 2.49798274,12.7572129 2.49798274,9.15295187 L2.497,9.15 L0.0418519509,9.14433169 C0.0432428763,8.53029639 0.105064541,7.91795977 0.22642278,7.31655048 C0.347756181,6.7151412 0.528030044,6.12767631 0.764462519,5.56305489 L3.01597052,6.54630802 C3.22543684,6.04336423 3.49368103,5.57207774 3.81190173,5.14143257 L0,2.19538094 C0.172276042,1.96306724 0.353096341,1.73747221 0.542088325,1.51912826 C0.73108031,1.30075896 0.928094954,1.08979287 1.13273485,0.886635642 L4.46448877,4.38428587 C5.63995235,3.21143965 7.24733439,2.48772737 9.02031022,2.48500118 L9.02092101,0 Z M9.00000248,5.94991902 C7.34314879,5.94991902 6.00000248,7.29065964 6.00000248,8.944547 C6.00000248,10.5984344 7.34314879,11.939175 9.00000248,11.939175 C10.6568587,11.939175 12.0000025,10.5984344 12.0000025,8.944547 C12.0000025,7.29065964 10.6568587,5.94991902 9.00000248,5.94991902 Z" id="Oval-Copy-4"></path>
            </g>
        </g>
    </g>
</svg>