<svg width="54" height="48" viewBox="0 0 54 48" fill="none" xmlns="http://www.w3.org/2000/svg">
<path d="M48.6666 7.33334H28.6666L21.9999 0.666672H5.33325C2.57284 0.666672 0.333252 2.90626 0.333252 5.66667V42.3333C0.333252 45.0938 2.57284 47.3333 5.33325 47.3333H48.6666C51.427 47.3333 53.6666 45.0938 53.6666 42.3333V12.3333C53.6666 9.57292 51.427 7.33334 48.6666 7.33334ZM16.8958 25.5625C17.3853 25.0729 18.0208 24.8333 18.6666 24.8333C19.3124 24.8333 19.9458 25.0775 20.4343 25.5657L24.4999 29.6354V18.1667C24.4999 16.7917 25.6249 15.6667 26.9999 15.6667C28.3749 15.6667 29.4999 16.7865 29.4999 18.1667V29.6354L33.5655 25.5698C34.5421 24.5932 36.1239 24.5932 37.101 25.5698C38.078 26.5464 38.0775 28.1281 37.101 29.1052L28.7676 37.4386C27.7911 38.4151 26.2093 38.4151 25.2322 37.4386L16.8989 29.1052C15.927 28.125 15.927 26.5417 16.8958 25.5625Z" fill="#A85936"/>
</svg>
