<svg width="54" height="54" viewBox="0 0 54 54" fill="none" xmlns="http://www.w3.org/2000/svg">
<path d="M51.9378 4.03225C54.2428 6.334 54.2428 10.0661 51.9378 12.3678L48.7803 15.5357L38.4657 5.22364L41.6338 2.05992C43.9388 -0.242194 47.6646 -0.242194 49.9697 2.05992L51.9378 4.03225ZM18.4785 25.2184L36.087 7.60433L46.4016 17.9143L28.7826 35.5221C28.1406 36.1746 27.3512 36.6588 26.4776 36.9535L17.1313 40.0688C16.1314 40.3635 15.2263 40.1319 14.5421 39.3636C13.8685 38.7742 13.637 37.7744 13.9317 36.8693L17.0471 27.5233C17.3418 26.6498 17.826 25.8605 18.4785 25.2184ZM20.5415 6.42135C22.4044 6.42135 23.9095 8.02426 23.9095 9.78925C23.9095 11.7468 22.4044 13.1572 20.5415 13.1572H10.4374C8.57757 13.1572 7.06932 14.7569 7.06932 16.5251V43.563C7.06932 45.4258 8.57757 46.9309 10.4374 46.9309H37.3816C39.2446 46.9309 40.7497 45.4258 40.7497 43.563V33.3646C40.7497 31.5964 42.2547 29.9967 44.1177 29.9967C45.9806 29.9967 47.4857 31.5964 47.4857 33.3646V43.563C47.4857 49.1411 42.9599 53.6667 37.3816 53.6667H10.4374C4.85694 53.6667 0.333252 49.1411 0.333252 43.563V16.5251C0.333252 10.947 4.85694 6.42135 10.4374 6.42135H20.5415Z" fill="#A85936"/>
</svg>
