<svg width="48" height="55" viewBox="0 0 48 55" fill="none" xmlns="http://www.w3.org/2000/svg">
<path d="M33.5143 2.2129C32.9357 1.06094 31.7464 0.333336 30.45 0.333336H17.55C16.2536 0.333336 15.0643 1.06094 14.4857 2.2129L13.7143 3.73334H3.42857C1.53214 3.73334 0 5.2559 0 7.13334C0 9.01077 1.53214 10.5333 3.42857 10.5333H44.5714C46.4646 10.5333 48 9.01077 48 7.13334C48 5.2559 46.4646 3.73334 44.5714 3.73334H34.2857L33.5143 2.2129ZM44.6679 13.9333H3.42857V47.9333C3.42857 51.684 6.50357 54.7333 10.2857 54.7333H37.8107C41.5018 54.7333 44.6679 51.684 44.6679 47.9333V13.9333ZM36.0964 22.4333V46.2333C36.0964 47.1683 35.2286 47.9333 34.3821 47.9333C33.3429 47.9333 32.6679 47.1683 32.6679 46.2333V22.4333C32.6679 21.4983 33.3429 20.7333 34.3821 20.7333C35.2286 20.7333 36.0964 21.4983 36.0964 22.4333ZM25.8107 22.4333V46.2333C25.8107 47.1683 24.9429 47.9333 24.0964 47.9333C23.0571 47.9333 22.2857 47.1683 22.2857 46.2333V22.4333C22.2857 21.4983 23.0571 20.7333 24.0964 20.7333C24.9429 20.7333 25.8107 21.4983 25.8107 22.4333ZM15.4286 22.4333V46.2333C15.4286 47.1683 14.6571 47.9333 13.7143 47.9333C12.7714 47.9333 12 47.1683 12 46.2333V22.4333C12 21.4983 12.7714 20.7333 13.7143 20.7333C14.6571 20.7333 15.4286 21.4983 15.4286 22.4333Z" fill="#A85936"/>
</svg>
