<svg width="204" height="68" viewBox="0 0 204 68" fill="none" xmlns="http://www.w3.org/2000/svg">
<g clip-path="url(#clip0_1_2101)">
<path d="M34.6452 68.0003C32.3496 68.0003 30.0597 67.7647 27.7913 67.2931C23.4968 66.4006 19.4636 64.7052 15.8034 62.2539C12.1433 59.8025 9.04013 56.7181 6.58033 53.0866C4.03278 49.3261 2.29092 45.1418 1.40263 40.6497C0.514346 36.158 0.532646 31.6255 1.4566 27.178C2.34911 22.8834 4.04451 18.8502 6.49586 15.1901C8.94722 11.5299 12.0316 8.42679 15.6631 5.96698C19.4237 3.41943 23.608 1.67758 28.1001 0.78929C34.4988 -0.475806 41.0734 0.115918 47.1131 2.50064C52.9923 4.82202 58.0964 8.72007 61.8729 13.7725L63.4153 15.8362L60.9517 16.5908C59.9621 16.8939 59.087 17.4214 58.3498 18.1581C56.5267 19.9811 55.9979 22.6938 57.0026 25.0687L57.6694 26.6449L56.134 27.4013C55.5174 27.7049 54.9552 28.1085 54.4639 28.6003C52.2294 30.8348 51.9985 34.4021 53.9266 36.8975L54.714 37.9167L54.0111 38.9956C52.3973 41.4713 52.746 44.788 54.8398 46.8818C55.0383 47.0802 55.2527 47.2679 55.4775 47.4397L56.4413 48.1759L56.1288 49.3477C55.5498 51.5165 56.1748 53.8482 57.7595 55.4329C57.8819 55.5553 58.0143 55.6769 58.1527 55.7937L59.6824 57.0879L58.2418 58.4806C53.5554 63.0112 47.6847 66.0773 41.2635 67.3471C39.0627 67.7826 36.8511 68.0003 34.6456 68.0003H34.6452ZM34.6114 3.77794C32.679 3.77794 30.7354 3.96376 28.8035 4.34573C12.415 7.5873 1.71844 23.5573 4.95954 39.9467C8.20065 56.3357 24.1706 67.0327 40.5601 63.7911C45.7026 62.7743 50.449 60.4679 54.3912 57.087C53.5559 56.0176 52.9459 54.7863 52.6057 53.47C52.2758 52.1927 52.2045 50.86 52.3917 49.5593C52.3528 49.5217 52.3148 49.4842 52.2763 49.4457C50.6574 47.8268 49.6424 45.6823 49.4181 43.407C49.2379 41.5778 49.5725 39.7309 50.366 38.0922C49.3688 36.4011 48.8921 34.4401 49.0117 32.4547C49.1576 30.0329 50.1834 27.7537 51.9004 26.0368C52.2932 25.644 52.7146 25.2874 53.1622 24.9678C52.8295 23.607 52.7887 22.187 53.0482 20.7896C53.4151 18.8155 54.3621 17.0192 55.7867 15.5946C56.3212 15.0601 56.9153 14.589 57.5539 14.1906C51.7681 7.55633 43.3197 3.77747 34.6119 3.77747L34.6114 3.77794Z" fill="#5B301D"/>
<path d="M46.9934 55.7817C48.72 54.0551 48.72 51.2557 46.9934 49.5291C45.2668 47.8025 42.4674 47.8025 40.7408 49.5291C39.0142 51.2557 39.0142 54.0551 40.7408 55.7817C42.4674 57.5083 45.2668 57.5083 46.9934 55.7817Z" fill="#5B301D"/>
<path d="M34.5631 39.5124C37.0049 39.5124 38.9844 37.5329 38.9844 35.0911C38.9844 32.6493 37.0049 30.6699 34.5631 30.6699C32.1213 30.6699 30.1418 32.6493 30.1418 35.0911C30.1418 37.5329 32.1213 39.5124 34.5631 39.5124Z" fill="#5B301D"/>
<path d="M39.4447 19.7537C41.8865 19.7537 43.866 17.7743 43.866 15.3325C43.866 12.8907 41.8865 10.9112 39.4447 10.9112C37.0029 10.9112 35.0234 12.8907 35.0234 15.3325C35.0234 17.7743 37.0029 19.7537 39.4447 19.7537Z" fill="#5B301D"/>
<path d="M25.0593 21.9224C26.7859 20.1958 26.7859 17.3964 25.0593 15.6698C23.3327 13.9432 20.5333 13.9432 18.8067 15.6698C17.0801 17.3964 17.0801 20.1958 18.8067 21.9224C20.5333 23.649 23.3327 23.649 25.0593 21.9224Z" fill="#5B301D"/>
<path d="M16.8594 38.5884C18.586 36.8618 18.586 34.0624 16.8594 32.3358C15.1328 30.6091 12.3334 30.6091 10.6068 32.3358C8.88016 34.0624 8.88016 36.8618 10.6068 38.5884C12.3334 40.315 15.1328 40.315 16.8594 38.5884Z" fill="#5B301D"/>
<path d="M23.6028 54.586C25.3294 52.8594 25.3294 50.06 23.6028 48.3334C21.8762 46.6067 19.0768 46.6067 17.3502 48.3333C15.6236 50.06 15.6236 52.8594 17.3502 54.586C19.0768 56.3126 21.8762 56.3126 23.6028 54.586Z" fill="#5B301D"/>
<path d="M33.306 24.0693C33.614 23.4782 33.3845 22.7493 32.7933 22.4413C32.2022 22.1333 31.4733 22.3628 31.1653 22.954C30.8573 23.5451 31.0869 24.274 31.678 24.582C32.2691 24.89 32.998 24.6604 33.306 24.0693Z" fill="#5B301D"/>
<path d="M34.3112 50.5712C34.6964 49.7669 34.3566 48.8027 33.5523 48.4175C32.748 48.0323 31.7838 48.3721 31.3986 49.1764C31.0134 49.9807 31.3532 50.9449 32.1575 51.3301C32.9618 51.7153 33.926 51.3755 34.3112 50.5712Z" fill="#5B301D"/>
<path d="M25.0079 41.0646C25.7351 41.0646 26.3246 40.4751 26.3246 39.7479C26.3246 39.0207 25.7351 38.4312 25.0079 38.4312C24.2807 38.4312 23.6912 39.0207 23.6912 39.7479C23.6912 40.4751 24.2807 41.0646 25.0079 41.0646Z" fill="#5B301D"/>
<path d="M62.8364 36.222C65.0081 36.222 66.7687 34.4614 66.7687 32.2897C66.7687 30.1179 65.0081 28.3574 62.8364 28.3574C60.6646 28.3574 58.9041 30.1179 58.9041 32.2897C58.9041 34.4614 60.6646 36.222 62.8364 36.222Z" fill="#5B301D"/>
<path d="M59.4553 45.4028C60.466 45.4028 61.2854 44.5835 61.2854 43.5728C61.2854 42.5621 60.466 41.7427 59.4553 41.7427C58.4446 41.7427 57.6252 42.5621 57.6252 43.5728C57.6252 44.5835 58.4446 45.4028 59.4553 45.4028Z" fill="#5B301D"/>
<path d="M63.8484 25.1233C64.6391 25.1233 65.2801 24.4823 65.2801 23.6916C65.2801 22.9009 64.6391 22.2599 63.8484 22.2599C63.0577 22.2599 62.4167 22.9009 62.4167 23.6916C62.4167 24.4823 63.0577 25.1233 63.8484 25.1233Z" fill="#5B301D"/>
<path d="M66.1186 43.7478C67.0803 43.7478 67.86 42.9681 67.86 42.0064C67.86 41.0447 67.0803 40.265 66.1186 40.265C65.1568 40.265 64.3772 41.0447 64.3772 42.0064C64.3772 42.9681 65.1568 43.7478 66.1186 43.7478Z" fill="#5B301D"/>
<path d="M62.5251 51.4402C63.0305 51.4402 63.4402 51.0305 63.4402 50.5252C63.4402 50.0198 63.0305 49.6101 62.5251 49.6101C62.0198 49.6101 61.6101 50.0198 61.6101 50.5252C61.6101 51.0305 62.0198 51.4402 62.5251 51.4402Z" fill="#5B301D"/>
</g>
<path d="M85.702 31.456C84.1313 31.456 82.624 31.2027 81.18 30.696C79.7613 30.164 78.5073 29.3787 77.418 28.34C76.354 27.276 75.5053 25.9587 74.872 24.388C74.2387 22.792 73.922 20.9427 73.922 18.84C73.922 16.7627 74.2513 14.926 74.91 13.33C75.5687 11.7087 76.4427 10.3533 77.532 9.264C78.6467 8.14933 79.9133 7.30066 81.332 6.718C82.776 6.13533 84.2833 5.844 85.854 5.844C87.5007 5.844 88.97 6.17333 90.262 6.832C91.554 7.46533 92.6433 8.22533 93.53 9.112L90.11 13.292C89.502 12.76 88.8687 12.3293 88.21 12C87.5767 11.6453 86.842 11.468 86.006 11.468C85.2713 11.468 84.5747 11.6327 83.916 11.962C83.2827 12.2913 82.7127 12.76 82.206 13.368C81.7247 13.976 81.332 14.7233 81.028 15.61C80.7493 16.4967 80.61 17.4973 80.61 18.612C80.61 20.9427 81.0913 22.7287 82.054 23.97C83.042 25.2113 84.334 25.832 85.93 25.832C86.8927 25.832 87.7413 25.6293 88.476 25.224C89.236 24.7933 89.882 24.2867 90.414 23.704L93.834 27.808C92.77 29.024 91.5413 29.936 90.148 30.544C88.78 31.152 87.298 31.456 85.702 31.456ZM106.142 31.456C104.419 31.456 102.849 31.1647 101.43 30.582C100.037 29.9993 98.8335 29.1633 97.8201 28.074C96.8321 26.9593 96.0595 25.604 95.5021 24.008C94.9448 22.3867 94.6661 20.5627 94.6661 18.536C94.6661 16.5093 94.9448 14.7107 95.5021 13.14C96.0595 11.544 96.8321 10.214 97.8201 9.15C98.8335 8.06067 100.037 7.23733 101.43 6.68C102.849 6.12266 104.419 5.844 106.142 5.844C107.839 5.844 109.397 6.12266 110.816 6.68C112.235 7.23733 113.438 8.06067 114.426 9.15C115.439 10.2393 116.225 11.5693 116.782 13.14C117.339 14.7107 117.618 16.5093 117.618 18.536C117.618 20.5627 117.339 22.3867 116.782 24.008C116.225 25.604 115.439 26.9593 114.426 28.074C113.438 29.1633 112.235 29.9993 110.816 30.582C109.397 31.1647 107.839 31.456 106.142 31.456ZM106.142 25.832C107.637 25.832 108.802 25.186 109.638 23.894C110.499 22.5767 110.93 20.7907 110.93 18.536C110.93 16.2813 110.499 14.546 109.638 13.33C108.802 12.0887 107.637 11.468 106.142 11.468C104.647 11.468 103.469 12.0887 102.608 13.33C101.772 14.546 101.354 16.2813 101.354 18.536C101.354 20.7907 101.772 22.5767 102.608 23.894C103.469 25.186 104.647 25.832 106.142 25.832ZM132.453 31.456C130.73 31.456 129.159 31.1647 127.741 30.582C126.347 29.9993 125.144 29.1633 124.131 28.074C123.143 26.9593 122.37 25.604 121.813 24.008C121.255 22.3867 120.977 20.5627 120.977 18.536C120.977 16.5093 121.255 14.7107 121.813 13.14C122.37 11.544 123.143 10.214 124.131 9.15C125.144 8.06067 126.347 7.23733 127.741 6.68C129.159 6.12266 130.73 5.844 132.453 5.844C134.15 5.844 135.708 6.12266 137.127 6.68C138.545 7.23733 139.749 8.06067 140.737 9.15C141.75 10.2393 142.535 11.5693 143.093 13.14C143.65 14.7107 143.929 16.5093 143.929 18.536C143.929 20.5627 143.65 22.3867 143.093 24.008C142.535 25.604 141.75 26.9593 140.737 28.074C139.749 29.1633 138.545 29.9993 137.127 30.582C135.708 31.1647 134.15 31.456 132.453 31.456ZM132.453 25.832C133.947 25.832 135.113 25.186 135.949 23.894C136.81 22.5767 137.241 20.7907 137.241 18.536C137.241 16.2813 136.81 14.546 135.949 13.33C135.113 12.0887 133.947 11.468 132.453 11.468C130.958 11.468 129.78 12.0887 128.919 13.33C128.083 14.546 127.665 16.2813 127.665 18.536C127.665 20.7907 128.083 22.5767 128.919 23.894C129.78 25.186 130.958 25.832 132.453 25.832ZM148.351 31V6.3H154.887V15.496H155.039L161.271 6.3H168.415L161.043 16.332L169.859 31H162.715L157.243 21.5L154.887 24.844V31H148.351ZM172.213 31V6.3H178.749V31H172.213ZM184.236 31V6.3H200.196V11.772H190.772V15.648H198.828V21.12H190.772V25.528H200.576V31H184.236ZM74.986 61V36.3H81.522V45.496H88.894V36.3H95.43V61H88.894V51.196H81.522V61H74.986ZM111.3 61.456C109.578 61.456 108.007 61.1647 106.588 60.582C105.195 59.9993 103.992 59.1633 102.978 58.074C101.99 56.9593 101.218 55.604 100.66 54.008C100.103 52.3867 99.8243 50.5627 99.8243 48.536C99.8243 46.5093 100.103 44.7107 100.66 43.14C101.218 41.544 101.99 40.214 102.978 39.15C103.992 38.0607 105.195 37.2373 106.588 36.68C108.007 36.1227 109.578 35.844 111.3 35.844C112.998 35.844 114.556 36.1227 115.974 36.68C117.393 37.2373 118.596 38.0607 119.584 39.15C120.598 40.2393 121.383 41.5693 121.94 43.14C122.498 44.7107 122.776 46.5093 122.776 48.536C122.776 50.5627 122.498 52.3867 121.94 54.008C121.383 55.604 120.598 56.9593 119.584 58.074C118.596 59.1633 117.393 59.9993 115.974 60.582C114.556 61.1647 112.998 61.456 111.3 61.456ZM111.3 55.832C112.795 55.832 113.96 55.186 114.796 53.894C115.658 52.5767 116.088 50.7907 116.088 48.536C116.088 46.2813 115.658 44.546 114.796 43.33C113.96 42.0887 112.795 41.468 111.3 41.468C109.806 41.468 108.628 42.0887 107.766 43.33C106.93 44.546 106.512 46.2813 106.512 48.536C106.512 50.7907 106.93 52.5767 107.766 53.894C108.628 55.186 109.806 55.832 111.3 55.832ZM137.307 61.456C133.836 61.456 131.252 60.4553 129.555 58.454C127.883 56.4273 127.047 53.2987 127.047 49.068V36.3H133.583V49.828C133.583 52.032 133.874 53.59 134.457 54.502C135.065 55.3887 136.015 55.832 137.307 55.832C138.599 55.832 139.549 55.3887 140.157 54.502C140.79 53.59 141.107 52.032 141.107 49.828V36.3H147.415V49.068C147.415 53.2987 146.592 56.4273 144.945 58.454C143.298 60.4553 140.752 61.456 137.307 61.456ZM160.187 61.456C158.616 61.456 156.995 61.1773 155.323 60.62C153.676 60.0373 152.182 59.138 150.839 57.922L154.563 53.438C155.45 54.1473 156.4 54.73 157.413 55.186C158.452 55.6167 159.427 55.832 160.339 55.832C161.327 55.832 162.036 55.68 162.467 55.376C162.923 55.072 163.151 54.6413 163.151 54.084C163.151 53.78 163.075 53.5267 162.923 53.324C162.771 53.1213 162.543 52.9313 162.239 52.754C161.96 52.5767 161.618 52.412 161.213 52.26C160.808 52.0827 160.339 51.8927 159.807 51.69L156.729 50.398C156.07 50.1447 155.437 49.8153 154.829 49.41C154.221 48.9793 153.689 48.4853 153.233 47.928C152.777 47.3453 152.41 46.6867 152.131 45.952C151.878 45.2173 151.751 44.4067 151.751 43.52C151.751 42.456 151.979 41.468 152.435 40.556C152.891 39.6187 153.524 38.808 154.335 38.124C155.146 37.4147 156.108 36.8573 157.223 36.452C158.363 36.0467 159.604 35.844 160.947 35.844C162.366 35.844 163.797 36.11 165.241 36.642C166.71 37.174 168.015 38.01 169.155 39.15L165.887 43.254C165.051 42.6713 164.24 42.228 163.455 41.924C162.695 41.62 161.859 41.468 160.947 41.468C160.136 41.468 159.503 41.6073 159.047 41.886C158.591 42.1647 158.363 42.5827 158.363 43.14C158.363 43.7227 158.68 44.1787 159.313 44.508C159.972 44.812 160.871 45.1793 162.011 45.61L165.013 46.788C166.558 47.396 167.749 48.2447 168.585 49.334C169.421 50.4233 169.839 51.8293 169.839 53.552C169.839 54.5907 169.624 55.5913 169.193 56.554C168.762 57.5167 168.129 58.3653 167.293 59.1C166.482 59.8093 165.482 60.3793 164.291 60.81C163.1 61.2407 161.732 61.456 160.187 61.456ZM173.808 61V36.3H189.768V41.772H180.344V45.648H188.4V51.12H180.344V55.528H190.148V61H173.808Z" fill="#5B301D"/>
<defs>
<clipPath id="clip0_1_2101">
<rect width="67.1097" height="67.86" fill="white" transform="translate(0.75 0.139648)"/>
</clipPath>
</defs>
</svg>
